<svg id="Grupo_1210878" data-name="Grupo 1210878" xmlns="http://www.w3.org/2000/svg" xmlns:xlink="http://www.w3.org/1999/xlink" width="806.952" height="424.671" viewBox="0 0 806.952 424.671">
  <defs>
    <clipPath id="clip-path">
      <rect id="Rectángulo_402428" data-name="Rectángulo 402428" width="806.952" height="424.671" fill="none"/>
    </clipPath>
    <clipPath id="clip-path-2">
      <path id="Trazado_1066584" data-name="Trazado 1066584" d="M164.025,178.17l.055.574,1.047.86c27.659,5.666,56.5,12.807,81.771,25.648,4.052,2.059,8.446,4.078,11.887,7.1l3.16,2.148.226-2.965c-2.158-.928-4.316-2.877-6.356-4.112a148.344,148.344,0,0,0-13.956-7.442c-11.9-5.548-24.787-9.67-37.38-13.3-12.846-3.7-25.459-7.006-38.683-9.067Z" transform="translate(-164.025 -177.614)" fill="none"/>
    </clipPath>
    <linearGradient id="linear-gradient" x1="-4.572" y1="1.641" x2="-4.546" y2="1.641" gradientUnits="objectBoundingBox">
      <stop offset="0" stop-color="#003d36"/>
      <stop offset="1" stop-color="#002a45"/>
    </linearGradient>
  </defs>
  <g id="Grupo_1210873" data-name="Grupo 1210873">
    <g id="Grupo_1210872" data-name="Grupo 1210872" clip-path="url(#clip-path)">
      <path id="Trazado_1066431" data-name="Trazado 1066431" d="M302.754,42.256l.255.131c3.745,2.045,6.463,4.919,10.542,6.736a64.472,64.472,0,0,0,6.349,2.423c1.041.336,2.457.532,3.278,1.233.166,1.776-.635,2.793-1.406,4.379l-1.612.411c-.782-.824-2.488-1.429-3.519-1.964a54.8,54.8,0,0,1-6.277-3.749c-3.522-2.488-6.841-5.113-7.612-9.6" transform="translate(186.63 26.048)" fill="#d13e0f"/>
      <path id="Trazado_1066432" data-name="Trazado 1066432" d="M469.641,162.739c9.078-2.4,17.15-10.8,23.028-17.669.944,1.329,2.4,2.924,2.459,4.584-.664,2.968-13.691,12.43-16.632,14.3-1.741,1.106-3.731,2.476-5.795,2.837-.3-1.208-2.224-3.037-3.06-4.048" transform="translate(289.506 89.427)" fill="#762b04"/>
      <path id="Trazado_1066433" data-name="Trazado 1066433" d="M458.225,25.156q12.4-1.518,19.58,8.711c.147.207,1.253,1.882,1.291,1.894.561.157,3.362-.716,4.128-.839a18.641,18.641,0,0,1,8.03.487c5.6,1.932,8.478,5.716,10.979,10.874l-34.888.027-43.494.045c1.508-4.686,3.278-8.525,7.833-10.953A16.034,16.034,0,0,1,444,34.337c.154.05,3.406-3.682,4.02-4.264,2.885-2.732,6.429-4,10.208-4.917" transform="translate(261.28 15.386)" fill="#a1d9ea"/>
      <path id="Trazado_1066434" data-name="Trazado 1066434" d="M69.534.208a18.778,18.778,0,0,1,8.48.658c6.393,2.478,10.218,6.92,13.365,12.817l4.12-1.547a12.337,12.337,0,0,1,9.857,1.237c3.572,2.108,5.591,5.57,6.639,9.467l-34.755-.011-32.39,0c-2.29,0-8.92.66-10.644-.422a11.265,11.265,0,0,1,1.528-6.228A14.411,14.411,0,0,1,44.6,9.65a12.76,12.76,0,0,1,10.633,1.492L57.01,8c2.813-4.4,7.6-6.7,12.524-7.788" transform="translate(21.064 0.012)" fill="#a1d9ea"/>
      <path id="Trazado_1066435" data-name="Trazado 1066435" d="M63.183,78.782c-1.081-.348-3.567.532-4.76.755-6.849,1.28-14.373,1.781-20.875-1.19-2.927-1.338-6.475-3.561-7.563-6.789a5.746,5.746,0,0,1,.419-4.891c1.217-2.438,3.626-4.434,5.822-5.955,6.926-4.8,15-7.652,22.91-10.357l.262,3.163a92.3,92.3,0,0,0,26.944.708l4.82,7.478,1.544-.015-1.377.671c.642,3.918,1.7,7.337,1.6,11.393l-.521.262c-3.031-.359-6.275.375-9.288.761a130.646,130.646,0,0,0-14.679,2.53,24.371,24.371,0,0,0-5.257,1.476" transform="translate(18.26 31.041)" fill="#ef9034"/>
      <path id="Trazado_1066436" data-name="Trazado 1066436" d="M48.043,52.311a92.286,92.286,0,0,0,26.943.708l4.82,7.479-8.263.96c-4.92.428-18.482,1.773-22.2-1.482-1.363-1.193-1.18-5.89-1.3-7.665" transform="translate(29.616 32.247)" fill="#b75821"/>
      <path id="Trazado_1066437" data-name="Trazado 1066437" d="M412.087,93.572c.742-2.539.393-5.413,1.012-8.05a25.265,25.265,0,0,1,11.742-15.633,43.374,43.374,0,0,1,31.894-4.954A29.08,29.08,0,0,1,474.624,78.1c1.165,1.991,3.957,6.805,3.377,9,2.722,3.93,2.423,15.06,1.573,19.641-.306,1.655-.575,3.629-1.9,4.786a13.652,13.652,0,0,0-1.641-5.882,7.007,7.007,0,0,0-4.911-3.15c-2.467-.441-5.67,2.284-7.631,3.59-1-1-1.038-3.556-1.862-4.867-1.534-2.449-5.78-2.525-8.321-3.2-10.806-2.889-19.147-9.054-24.7-18.768-3.382,3.546-6.951,6.871-10.665,10.067-1.691,1.458-3.495,3.26-5.564,4.143Z" transform="translate(254.027 39.325)" fill="#09222d"/>
      <path id="Trazado_1066438" data-name="Trazado 1066438" d="M302.754,47.146c3.593-1.794,8.163-.731,12-.247l13.575,1.814a37.245,37.245,0,0,0,4.093.8c.045-.019,1.6-3.4,1.84-3.808,5.307-8.947,15.657-12.345,25.554-11.142a57.931,57.931,0,0,1,7.337,1.807c1.833.466,3.352-.813,5.058-.221a4.6,4.6,0,0,1,2.3,2.056c1.537,3.144,3.986,4.722,6.535,7.022,5.009,4.508,8.753,10.41,8.444,17.412-.2,4.534-2.452,10.392-4.193,14.634a5.973,5.973,0,0,1-1.248,1.793l-.221-.87c-5.224-2.939-11.141-5.446-16.557-8.092-1.351-.66-3.931-2.36-5.316-2.586a8.96,8.96,0,0,0-1.681.123c-.983-1.637-7.515-3.327-9.623-4.358-3.7-1.818-7.917-1.945-11.933-2.7-5.135-.962-10.365-2.271-15.534-2.91-.821-.7-2.237-.9-3.278-1.233a64.475,64.475,0,0,1-6.349-2.423c-4.08-1.817-6.8-4.691-10.542-6.736Z" transform="translate(186.63 21.158)" fill="#669100"/>
      <path id="Trazado_1066439" data-name="Trazado 1066439" d="M346.854,40.516c.925-.073,1.327-.238,2.134.247v.818l-6.207,8.574c-1.317,1.843-2.507,4.348-4.533,5.465l-.732.349c-1.086-2.977,8.43-12.039,9.338-15.453" transform="translate(208.006 24.922)" fill="#4d6d00"/>
      <path id="Trazado_1066440" data-name="Trazado 1066440" d="M80.128,68.776l23.8-5.973a2.717,2.717,0,0,1,.87.944c.276.485.087.378.579.53a5.6,5.6,0,0,0,3.377-.756c.91-.524,1.376.058,2.581-.9-.818-.755-1.269-.685-2.35-.847l-.039-.464,9.371-2.889c2.541,10.517,4.487,21.906-1.445,31.7a22.338,22.338,0,0,1-14.063,10.132,25.868,25.868,0,0,1-5.67.684,38.048,38.048,0,0,1-9.886-1.571c-4.862-1.519-12.2-4.927-14.669-9.59-.569,1.663-1.054,3.551-2.389,4.785a27,27,0,0,1-4.377-1.414C58.13,89.6,53.138,81.41,50.384,73.8a24.372,24.372,0,0,1,5.257-1.476A130.648,130.648,0,0,1,70.32,69.8c3.013-.386,6.257-1.12,9.288-.761Z" transform="translate(31.059 36.016)" fill="#f6b173"/>
      <path id="Trazado_1066441" data-name="Trazado 1066441" d="M86.673,64.2a5.284,5.284,0,0,1,2.1,1.094,6.182,6.182,0,0,1,.383,4.374A3.66,3.66,0,0,1,86.6,68.243a6.71,6.71,0,0,1,.07-4.044" transform="translate(53.206 39.575)" fill="#0e2237"/>
      <path id="Trazado_1066442" data-name="Trazado 1066442" d="M78.286,66.763c1.144.587,2,1,2.449,2.307a5.467,5.467,0,0,1-.407,3.978c-1.195-.5-2.019-.663-2.518-2.019-.592-1.6-.142-2.809.477-4.266" transform="translate(47.794 41.155)" fill="#0e2237"/>
      <path id="Trazado_1066443" data-name="Trazado 1066443" d="M90.142,75.882l.706.315a6.6,6.6,0,0,1-2.762,3.561c-1.953,1.088-3.676.5-5.709.016l-2.171-2.011.1-.753Z" transform="translate(49.442 46.777)" fill="#fefefe"/>
      <path id="Trazado_1066444" data-name="Trazado 1066444" d="M50.384,69.8a24.371,24.371,0,0,1,5.257-1.476A130.646,130.646,0,0,1,70.32,65.79c3.013-.386,6.257-1.12,9.288-.761L74.49,74.773c-1.146-1.822-2.316-4.141-4.654-4.562a4.348,4.348,0,0,0-3.689,1.1,7.17,7.17,0,0,0-2.176,4.822c-.1,2.16,1.668,5.717,3.218,7.14a7.752,7.752,0,0,0,4.857,1.605,4.192,4.192,0,0,1,.535.889c-.569,1.663-1.054,3.551-2.389,4.785a27.079,27.079,0,0,1-4.379-1.416C58.13,85.591,53.138,77.4,50.384,69.8" transform="translate(31.059 40.027)" fill="#0e2237"/>
      <path id="Trazado_1066445" data-name="Trazado 1066445" d="M120.634,26.656l19.118.323,28.69-.3c3.3-.018,8.517-.719,11.575.425a7.045,7.045,0,0,1,1.772,1.886c1.3,2.536.343,9.864.294,12.857a13.007,13.007,0,0,0-.044,2.654c.333.778,3.844,2.913,4.738,3.622,2.47,1.961,17.949,14.428,18.306,15.958l-3.052.128L187.331,64c-.886-.021-3.655-.4-4.371-.105-1.92.789-1.833,2.09-4.4,2.21-5.737.27-55.882.453-57.29-.162a5.983,5.983,0,0,1-1.359-1.075c-1.222-1.235-1.321-2.544-1.355-4.174l-.157-20.7c-.016-3.331-.483-7.468.263-10.686a6.856,6.856,0,0,1,1.966-2.649" transform="translate(72.891 16.303)" fill="#a1d9ea"/>
      <path id="Trazado_1066446" data-name="Trazado 1066446" d="M125.25,43.711l23.021-.074c1.951,0,5.855-.532,7.5.485l.231,1.618c-7.266.4-14.726.076-22.021.091-2.218,0-5.522.461-7.636.015a4.9,4.9,0,0,1-.874-.617Z" transform="translate(77.209 26.813)" fill="#0d6d6d"/>
      <path id="Trazado_1066447" data-name="Trazado 1066447" d="M125.379,38.338c4.119-.43,35.685-.622,37.574.433l.317,1.631c-9.089.514-18.476.065-27.594.036-2.491-.008-7.626.608-9.657-.443-.364-.189-.519-1.241-.64-1.657" transform="translate(77.289 23.421)" fill="#0d6d6d"/>
      <path id="Trazado_1066448" data-name="Trazado 1066448" d="M125.415,32.912c9.531-.52,19.339-.091,28.9-.078,1.938,0,6.939-.524,8.423.255.643.338.671,1.237.86,1.917l-37.131.04c-1-.69-.839-.98-1.049-2.135" transform="translate(77.311 20.13)" fill="#0d6d6d"/>
      <path id="Trazado_1066449" data-name="Trazado 1066449" d="M317.707,48.765c5.169.638,10.4,1.948,15.534,2.91,4.015.753,8.228.879,11.933,2.7,2.109,1.031,8.64,2.72,9.623,4.358a8.961,8.961,0,0,1,1.681-.123c1.387.226,3.967,1.927,5.318,2.586,5.415,2.646,11.333,5.153,16.557,8.092l.22.87c.443,2.085-3.262,9.364-4.555,11.257a5.731,5.731,0,0,1-.855.97c-.294,2.927-4.35,8.074-6.648,9.918a5.663,5.663,0,0,1-1.642.946c1.426,4.79,2.305,9.7,3.327,14.588.378,1.817,1.264,4.111.855,5.927-.378.015-1.941-1.634-2.368-1.985a19.014,19.014,0,0,0-7.809-3.55,30.218,30.218,0,0,0-22.921,3.92l-.9-1.435.113-.184a12.871,12.871,0,0,0,.87-7.153c-.947-.815-5.056-.815-6.564-1.258a24.547,24.547,0,0,1-10.808-6.889,24.039,24.039,0,0,1-4.993-8.751c-.58-1.728-.624-3.9-1.867-5.286l-.178-.179c.684-1.355.246-2.57.183-4a64.8,64.8,0,0,1-.045-7.242,50.261,50.261,0,0,1,3.661-15.049l-.737-1.165,1.612-.409c.773-1.587,1.573-2.6,1.406-4.381" transform="translate(192.1 30.061)" fill="#f6b173"/>
      <path id="Trazado_1066450" data-name="Trazado 1066450" d="M329.511,61.841a10.079,10.079,0,0,1,2.092.105l1.038,1.429a7.522,7.522,0,0,1-.1,3.126c-.532,1.217-1.274,1.3-2.409,1.785a1.247,1.247,0,0,1-.609-.158c-1.14-.634-1.3-1.422-1.625-2.569a8.747,8.747,0,0,1,1.616-3.718" transform="translate(202.128 38.108)" fill="#0e2237"/>
      <path id="Trazado_1066451" data-name="Trazado 1066451" d="M316.344,60.828a3.658,3.658,0,0,1,2.839.165,4.043,4.043,0,0,1,1.077,3.116c-.157,1.615-.9,2-2.077,2.837a2.785,2.785,0,0,1-1.351.107l-1.3-1.414a7.873,7.873,0,0,1,.813-4.811" transform="translate(194.458 37.372)" fill="#0e2237"/>
      <path id="Trazado_1066452" data-name="Trazado 1066452" d="M318.065,70.638l20.252,1.385.236.55a5.815,5.815,0,0,1-2.83,2.622l-.265.386c-1.421,1.637-5.371,2.4-7.4,2.383-5.405-.055-6.4-3.909-9.628-6.983Z" transform="translate(196.068 43.544)" fill="#fefefe"/>
      <path id="Trazado_1066453" data-name="Trazado 1066453" d="M338.335,54.986a8.832,8.832,0,0,1,1.681-.124c1.385.228,3.965,1.927,5.317,2.586,5.417,2.646,11.333,5.153,16.557,8.092l.221.87c.443,2.085-3.264,9.366-4.555,11.257a5.819,5.819,0,0,1-.855.971c-.3,2.926-4.35,8.073-6.65,9.917a5.638,5.638,0,0,1-1.641.947c.231-1.972-.64-5.127-1.351-6.96a13.387,13.387,0,0,0,5.16-3.047,10.34,10.34,0,0,0,2.973-7.573,7.564,7.564,0,0,0-2.8-5.465c-2.161-2.032-5.945-2.919-8.664-1.46-1.2.643-1.823,1.607-3.278,1.657a6.581,6.581,0,0,1-.918-.944c-.178-.566.79-4.579.771-5.832a5.752,5.752,0,0,0-1.97-4.891" transform="translate(208.564 33.807)" fill="#0e2237"/>
      <path id="Trazado_1066454" data-name="Trazado 1066454" d="M354.586,71.978c.713,1.833,1.583,4.988,1.351,6.96,1.426,4.79,2.305,9.7,3.327,14.588.378,1.817,1.264,4.111.855,5.927-.378.015-1.941-1.634-2.368-1.987a19.012,19.012,0,0,0-7.809-3.548,30.218,30.218,0,0,0-22.921,3.92l-.9-1.437.113-.183a12.871,12.871,0,0,0,.87-7.153c1.835-.7,4.183-.521,6.144-.763a28.834,28.834,0,0,0,17.176-9.089c1.568-1.67,4.242-4.964,4.162-7.237" transform="translate(201.034 44.37)" fill="#ef9034"/>
      <path id="Trazado_1066455" data-name="Trazado 1066455" d="M30.608,174.851l10.985,3.289,12.212,4.094c1.117-.883,1.421-2.077,1.89-3.369l2.184.708L57.789,215.4l-6.957-1.607.1,12.93.281,77.828c-.393-2.73-2.085-4.322-3.587-6.538A134.246,134.246,0,0,1,31.064,265.4C22.809,240.883,19.987,214.3,26.1,188.945c1.13-4.686,2.363-9.754,4.51-14.094" transform="translate(14.059 107.785)" fill="#e6f0cc"/>
      <path id="Trazado_1066456" data-name="Trazado 1066456" d="M34.433,176.886l12.212,4.094c1.117-.881,1.421-2.077,1.89-3.369l2.184.708-.091,35.824-6.957-1.607L34.423,209.8Z" transform="translate(21.22 109.04)" fill="#425a4d"/>
      <path id="Trazado_1066457" data-name="Trazado 1066457" d="M130.075,107.583a6.328,6.328,0,0,1-1.767-1.143c-1.587-1.657-1.1-6.545-1.14-8.785l-21.887.076.886-.824c5.674-5.417,10.656-11.634,16.043-17.338.831-.879,4.705-4.3,4.959-5.177.419-1.447-.2-4.035-.1-5.648.091-1.432.65-1.914,1.623-2.838,3.458-1.408,9.8-.4,13.606-.378l26.841.048,12-.024a31.8,31.8,0,0,1,5.771.115c1.374.272,2.234,1.828,2.971,2.918l.241,23.265c0,4.49.614,10.1-.687,14.417a32.265,32.265,0,0,0,3.776,4.806l4,5.407-1.033,3.317-16.25-10.845a14.919,14.919,0,0,0-2.633-1.723,16.191,16.191,0,0,0-3.252,0l-8.116,0-23.438,0c-3.991,0-8.538-.419-12.421.357" transform="translate(64.9 40.165)" fill="#a1d9ea"/>
      <path id="Trazado_1066458" data-name="Trazado 1066458" d="M125.707,83.331c3-.548,19.5-.891,21.621.275l.176,1.46-12.448.129a62.351,62.351,0,0,1-8.554-.163Z" transform="translate(77.491 51.057)" fill="#0d6d6d"/>
      <path id="Trazado_1066459" data-name="Trazado 1066459" d="M125.794,77.948a48.445,48.445,0,0,1,7.445-.238l13.009-.052c5.211-.018,11.823-.821,16.887.178l.6,1.736-25.942.12c-3.213,0-8.713.7-11.58-.328Z" transform="translate(77.545 47.673)" fill="#0d6d6d"/>
      <path id="Trazado_1066460" data-name="Trazado 1066460" d="M125.712,71.893c3.257-.323,6.689-.12,9.97-.123l17.87-.011c2.324,0,6.7-.575,8.761,0a5.912,5.912,0,0,1,.993.559l.252,1.629-25.908.019c-2.958-.006-9.089.761-11.554-.614Z" transform="translate(77.494 44.077)" fill="#0d6d6d"/>
      <path id="Trazado_1066461" data-name="Trazado 1066461" d="M458.321,78.214c3.858.065,7.111.221,9.957,3.191.737.773,1.961,2.247,1.916,3.362l-.044.44c9.56-.425,18.361-.5,26,6.427a23.838,23.838,0,0,1,7.416,16.216,17.315,17.315,0,0,1-1.532,8.541c-1.932,3.941-5.308,7.166-5.494,11.8-.217,5.472,2.987,8.84,6.044,12.93,7.2,9.639,3.21,18.584-3.435,26.943-6.763-7.856-13.657-15.135-22.991-19.944-2.766-1.424-5.863-2.9-8.992-3.155l-.457-.029a8.613,8.613,0,0,0-2.182-.724,16.236,16.236,0,0,0-4.01-1.153,79.913,79.913,0,0,0-9.863-1.846,12.6,12.6,0,0,0-1.558-3.149,3.334,3.334,0,0,0,.27-.858c.231-1.812-4.266-20.151-5.35-21.466l1.474-1.654a4.624,4.624,0,0,1,2.1.419,6.67,6.67,0,0,0,5-.821c2.522-1.368,3.719-3.677,4.55-6.312.571-1.608,1.17-3,.86-4.725,1.322-1.157,1.592-3.131,1.9-4.786.85-4.583,1.149-15.712-1.573-19.641" transform="translate(273.707 48.214)" fill="#09222d"/>
      <path id="Trazado_1066462" data-name="Trazado 1066462" d="M453.316,78.214c3.858.065,7.111.221,9.957,3.191.737.773,1.961,2.247,1.916,3.362l-.044.44c.491,2.006.142,2.872-.59,4.757-.029.073-.118.145-.089.218a4.476,4.476,0,0,0,.841.748c1.78,1.246,3.319,1.9,3.928,4.251.723,2.795-.556,5.662-2.074,7.943a10.314,10.314,0,0,1-7.038,4.807,17.868,17.868,0,0,1-7.992-.566c.571-1.608,1.17-3,.86-4.725,1.322-1.157,1.592-3.131,1.9-4.786.85-4.583,1.149-15.712-1.573-19.641" transform="translate(278.712 48.214)" fill="#ef9034"/>
      <path id="Trazado_1066463" data-name="Trazado 1066463" d="M363.17,31.939l1.789-.422c.59-1.494.5-3.213.761-4.793a32.044,32.044,0,0,1,4.82-12.012,46.461,46.461,0,0,1,6.021-7.148c.457-.47.55-.26.339-.944a6.432,6.432,0,0,1-.241-1.683l.742-.548a10.785,10.785,0,0,1,1.527,1.279c1.77-.4,3.406-1.712,5.038-2.52A30.405,30.405,0,0,1,401.184.218a27.346,27.346,0,0,1,10.562,3.419c.354.2,2.85,1.731,3,1.7a11.944,11.944,0,0,0,1.529-1.251l.865.855-.5,1.749a60.007,60.007,0,0,1,5.116,4.529c4.584,5.09,6.88,12.086,7.243,18.841a3.106,3.106,0,0,1-.427,1.893l1.754.729c-.422.87-.807.828-1.686,1.169.742,3.016-.472,6.689-1.715,9.429a11.935,11.935,0,0,0-1.185,2.866c.113,1.165,1.185,3.118,1.618,4.267L431.8,62.1l-12.925-2.855a17.408,17.408,0,0,0-3.808-.757c-1.279.162-4.311,2.52-5.824,3.1-3.907,1.49-7.917,1.953-11.976,2.779l-.147.708-.491.323-1.245-1.422c-13.952-1.6-25.231-9.72-29.261-23.369-.554-1.893-.3-5.187-1.549-6.585l-.166-.167c-1.012-.184-1.072-.078-1.7-.957Z" transform="translate(223.585 0)" fill="#f6ba4d"/>
      <path id="Trazado_1066464" data-name="Trazado 1066464" d="M382.918,41.748l.142-.281c.8-1.705.207-4.214,1.317-5.41l.9.606c0,1.717.246,3.9-.482,5.477l-.147.708-.491.323Z" transform="translate(236.046 22.227)" fill="#762b04"/>
      <path id="Trazado_1066465" data-name="Trazado 1066465" d="M405.789,19.786l1.754.729c-.423.87-.807.828-1.684,1.169l-5.816-.228-.378-.941c1.093-1.123,4.484-.693,6.125-.729" transform="translate(246.369 12.165)" fill="#762b04"/>
      <path id="Trazado_1066466" data-name="Trazado 1066466" d="M363.17,19.759l7.681.057.663.684-.417.873a34.892,34.892,0,0,1-6.694.3c-1.012-.184-1.072-.078-1.7-.957Z" transform="translate(223.585 12.18)" fill="#762b04"/>
      <path id="Trazado_1066467" data-name="Trazado 1066467" d="M388.481,8.37a19.532,19.532,0,0,1,11.991,2.344c4.41,2.638,6.881,6.514,8.163,11.417l.33,1.654c.516,4.946-.55,10.3-3.833,14.173a18.808,18.808,0,0,1-13.059,6.593c-3.43.559-7.814-.769-10.743-2.493a18.206,18.206,0,0,1-8.014-10.791,18.7,18.7,0,0,1,2.216-14.58c3.057-4.914,7.5-7.078,12.949-8.317" transform="translate(229.765 5.087)" fill="#ea593c"/>
      <path id="Trazado_1066468" data-name="Trazado 1066468" d="M47.379,46.36l.1-.23c2.365-4.995,11.268-8.532,16.206-10.2,10.686-3.608,22.11-5.486,33.362-4.094,2.24.276,4.78.419,6.8,1.54,3.037,1.686,4.028,7.086,4.895,10.23,9.23-.616,18.587-.3,27.564,2.122,3.277.883,6.72,2.033,9.324,4.3,1.195,1.043,2.6,3.2,2.62,4.819.04,3.369-2.58,6.642-4.929,8.748-6.075,5.451-15.387,9.28-23.152,11.5L110.8,77.991l.039.462c1.081.163,1.532.092,2.35.849-1.206.954-1.671.372-2.581.894a5.589,5.589,0,0,1-3.377.758c-.491-.154-.3-.045-.579-.53a2.7,2.7,0,0,0-.87-.944l-23.8,5.973c.1-4.056-.957-7.474-1.6-11.393l1.377-.671-1.544.015L75.4,65.926a92.3,92.3,0,0,1-26.944-.708l-.262-3.165c.293-1.592-.2-3.805-.328-5.475Z" transform="translate(29.206 19.342)" fill="#f6ba4d"/>
      <path id="Trazado_1066469" data-name="Trazado 1066469" d="M100.785,45.253l1.662,6.068C98.369,56.856,91.5,59.056,85.3,61.329c-3.829,1.4-8,2.958-12.041,3.479a11.63,11.63,0,0,1-2.187.027l-1.544.015-4.82-7.479.816-.071c12.159-2.824,24.442-5.488,35.258-12.046" transform="translate(39.891 27.896)" fill="#e6773d"/>
      <path id="Trazado_1066470" data-name="Trazado 1066470" d="M47.379,40.646c3.083,3.411,6.419,3.461,10.557,4.9a31.721,31.721,0,0,1,8.115,4.3A37.085,37.085,0,0,1,72,55.407c1.186,1.355,2.6,4.039,4.216,4.733l-.815.071A92.3,92.3,0,0,1,48.452,59.5l-.262-3.165c.293-1.592-.2-3.805-.328-5.475Z" transform="translate(29.206 25.056)" fill="#ef9034"/>
      <path id="Trazado_1066471" data-name="Trazado 1066471" d="M412.087,87.678l.289-.113c2.069-.883,3.873-2.685,5.564-4.143,3.715-3.2,7.284-6.521,10.665-10.067,5.557,9.715,13.9,15.88,24.7,18.768,2.541.679,6.787.755,8.321,3.2.824,1.311.86,3.867,1.862,4.867,1.961-1.306,5.165-4.031,7.631-3.59a7.007,7.007,0,0,1,4.911,3.15,13.652,13.652,0,0,1,1.641,5.882c.31,1.73-.289,3.118-.86,4.725-.831,2.635-2.029,4.946-4.55,6.314a6.67,6.67,0,0,1-5,.821,4.626,4.626,0,0,0-2.1-.42l-1.476,1.654c1.086,1.316,5.583,19.656,5.352,21.466a3.313,3.313,0,0,1-.27.858,12.628,12.628,0,0,1,1.558,3.149l.034.508c.207,4.038-2.117,7.515-4.743,10.426-5.68,6.311-13.038,10.572-21.7,10.943-3.681.158-7.513-.564-10.237-3.22-4.03-3.93-2.2-10.125-.33-14.685.616-1.494,1.671-3.105,1.583-4.746l-.024-.236,1.288-.653c1.6-1.917,1.759-6.5,1.99-8.955l-.383-1.149a21.6,21.6,0,0,1-11.107-3.706c-9.372-5.884-12.3-15.507-13.142-25.924-.166-2.03.128-5.712-1.38-7.2l.1-.192c.86-1.807.47-5.866-.192-7.733" transform="translate(254.027 45.219)" fill="#b75821"/>
      <path id="Trazado_1066472" data-name="Trazado 1066472" d="M421.418,92.642l1.057.44a25.565,25.565,0,0,0-1.563,5.68l1.243,1.13-1.185,1.054a3.247,3.247,0,0,1-1.561-1.353c-.551-2.32,1.08-4.867,2.009-6.951" transform="translate(258.472 57.108)" fill="#762b04"/>
      <path id="Trazado_1066473" data-name="Trazado 1066473" d="M428.134,90.536a5.54,5.54,0,0,1,1.951-.092c.761.133.954.732,1.39,1.338a4.541,4.541,0,0,1,.084,2.139c-.349,1.45-.595,1.524-1.886,2.3l-.074.01c-1.284-.175-1.411-.551-2.187-1.54a6.156,6.156,0,0,1,.723-4.151" transform="translate(263.413 55.721)" fill="#0e2237"/>
      <path id="Trazado_1066474" data-name="Trazado 1066474" d="M416.088,90.549c1.626-.189,2-.461,3.346.6A5.841,5.841,0,0,1,420,93.694c-.171,1.39-.521,1.461-1.568,2.323a2.332,2.332,0,0,1-1.209.23l-1.282-1.122a8.381,8.381,0,0,1,.147-4.576" transform="translate(256.238 55.709)" fill="#09222d"/>
      <path id="Trazado_1066475" data-name="Trazado 1066475" d="M433.15,98.353l2.934-.089a4.765,4.765,0,0,1-.491,3.417,10.319,10.319,0,0,1-6.029,5.147c-3.1,1.046-5.181.094-8-1.261-.123-.365-.048-.252-.255-.529a25.781,25.781,0,0,1-3.6-6.545,56.336,56.336,0,0,0,15.442-.141" transform="translate(257.492 60.574)" fill="#e6773d"/>
      <path id="Trazado_1066476" data-name="Trazado 1066476" d="M428.377,116.191l.226-.858c3.724-1.371,7.4-1.41,11.165-3.27,3.386-1.67,12.631-6.92,13.879-10.636,1.086,1.316,5.583,19.654,5.352,21.466a3.333,3.333,0,0,1-.27.858c-2.211-.134-4.432.071-6.644-.142a61.57,61.57,0,0,1-23.708-7.418" transform="translate(264.069 62.523)" fill="#762b04"/>
      <path id="Trazado_1066477" data-name="Trazado 1066477" d="M173.6,21l0-10.523a8.448,8.448,0,0,1,3.417-5.446,10.454,10.454,0,0,1,5.567-2.2l40.485-.027h81.8l47.47-.011,13.156.013a52.187,52.187,0,0,1,6.954.1A9.656,9.656,0,0,1,379,6.837a4.812,4.812,0,0,1,1.14,4.25c1.209,2.687.718,7.02.723,9.988Z" transform="translate(107.013 1.69)" fill="#4589ad"/>
      <path id="Trazado_1066478" data-name="Trazado 1066478" d="M457.537,195.184c18.626-4.887,38.269-7.788,55.455-17.011,1.224,1.146,1.263,2.763,1.494,4.334a130.066,130.066,0,0,1,1.274,14.351c1.248,36.026-10.9,72.407-35.759,98.95l-14.5,13.937,1.558-33.3.284-10.565c.079-2.971-.133-5.677,1.416-8.315,1.951-3.328,2.7-7.615,2.9-11.44.364-7.386-1.175-13.491-4.114-20.2-.954-2.174-1.843-4.511-3.459-6.285l.289-.129a15.684,15.684,0,0,0,2.733-1.267,5.208,5.208,0,0,0,1.8-3.147c-2.91-6.792-6.673-14.176-11.367-19.911" transform="translate(282.045 109.833)" fill="#e6f0cc"/>
      <path id="Trazado_1066479" data-name="Trazado 1066479" d="M612.5,228.448l.766.4c1.356,6.817-.85,41.817.742,44.059l1.573-1.7.31.415-.118.3A13.177,13.177,0,0,1,614,274.968l.04,4.149c1.311.891,5.027.425,6.694.423l19.7-.008.5-.428c2.994.685,6.438.346,9.51.318l16.366-.089c1.8.016,7.7.648,9.076-.149l.178-.139.427-.383a7.662,7.662,0,0,0,1.283.866c.9.3,3.322,0,4.369,0l14.192.011.521-.419c3.083.731,6.66.4,9.825.4l18.094-.024c2.586,0,8.276.674,10.557-.33l.438-.045c1.906.967,5.955.449,8.153.44l20.763-.048a3.025,3.025,0,0,1,1.528,1.849c-.318,1.314-.422,1.309-1.528,2.114l-584.141,0-126.061.06-25.651.021c-2.552.006-6.175.671-8.57-.044a3.1,3.1,0,0,1-1.368-2.431l.931-1.261c2.651-1.224,28.844-.419,33.8-.409l48.008.013,9.729.078,41.113-.071-.019-24.819.346,24.856,35.872-.071c5.171,0,11.1-.582,16.193.1l.807-.207,0-17.933c9.747-1.2,17.21-6.041,24.99-11.538,6.556,5.994,17.247,5.81,25.619,5.7l.635-1.225c4.683,5.305,8.381,12.443,12.193,18.406l.247-38.2,1.408-.191-.04,38.373c3.026-5.242,5.968-11.385,9.689-16.137l.16-.079.776.566.272.158,5.753.955c7.308,1.153,13.481.485,19.554-3.926a47.821,47.821,0,0,0,16.184,18.448c4.051,2.738,8.4,4.133,12.618,6.45,5,.962,10.371.611,15.458.614,6.517,0,13.122.2,19.62-.3,2.646-1.319,5.813-2.069,8.582-3.222,7.688-3.2,13.725-8.031,19.719-13.7-1.647-1.327-3.847-2.792-4.723-4.767l-.105-.242a6.37,6.37,0,0,1-.676-2.465,7.381,7.381,0,0,1,2.383-5.249,10.8,10.8,0,0,1,7.356-3.052c3.113.121,5.2,2.564,7.2,4.655a37.815,37.815,0,0,0,8.1-1.8c2.981,2.678,5.535,3.483,9.458,3.983l.05,12.752.38,2.939a3.5,3.5,0,0,0,.577,1.62l.286-.26c5.022-4.592,9.456-10.133,14.175-15.072,1.886-1.974,3.907-4.5,6.27-5.871a6.569,6.569,0,0,1,3.69-.718,7.506,7.506,0,0,1,5.137,2.965,12.126,12.126,0,0,1,1.92,4.516c-.53,1.578-1.1,3.841-2.156,5.129-2.016,2.449-5.559,4.515-8.124,6.383l-15.675,11.391,31.322.123.517-.708-.286-.883.865,1.555,28.564.048c3.336.027,7.012.346,10.3-.131l-.034-1.064.91,1.227,22.582.032a16.265,16.265,0,0,0-.551-5.785l.168.2c1.051,1.4.708,3.912.687,5.612l32.717-.045c2.717,0,8.753.708,10.984-.365l.33-.013.2-15.7c.015-2.7.467-6.3-.53-8.813l.142-.252a6.173,6.173,0,0,0,.777-1.88c1.178.273,2.84,2.58,3.98,3.365,4.9,3.364,13.643,4.993,19.06,1.717l.482-.335c.85.543,1.453.771,1.9,1.717l.383-.726c1.6.829,2.914,3.152,4,4.62l8.787,11.773.163-34.534c0-2.971.781-9.071-.556-11.646" transform="translate(11.651 140.825)" fill="#669100"/>
      <path id="Trazado_1066480" data-name="Trazado 1066480" d="M269.291,241.521c2.979,2.678,5.535,3.483,9.458,3.983l.048,12.754c0,1.306.3,2.947-.409,4.044l-17.2-18.977a37.718,37.718,0,0,0,8.1-1.8" transform="translate(161.008 148.883)" fill="#d8e7d6"/>
      <path id="Trazado_1066481" data-name="Trazado 1066481" d="M264.908,249.516l22.6,16.762-50.9.162c2.644-1.319,5.813-2.069,8.582-3.222,7.686-3.194,13.725-8.031,19.719-13.7" transform="translate(145.854 153.812)" fill="#d8e7d6"/>
      <path id="Trazado_1066482" data-name="Trazado 1066482" d="M361.928,245.458l.142-.252a6.171,6.171,0,0,0,.777-1.88c1.178.273,2.84,2.58,3.98,3.365,4.9,3.364,13.643,4.993,19.059,1.717l.482-.335c.85.543,1.455.771,1.9,1.717l10.066,13.383c.747.988,2.751,3.053,3.091,4.153a11.965,11.965,0,0,1,.039,2.531c-2.192,1.3-25.515.553-29.781.55-2.452,0-6.4.493-8.669-.116l-.757-.322.2-15.7c.015-2.7.467-6.3-.53-8.813" transform="translate(223.107 149.996)" fill="#d8e7d6"/>
      <path id="Trazado_1066483" data-name="Trazado 1066483" d="M210.972,244.392a47.821,47.821,0,0,0,16.184,18.448c4.051,2.738,8.4,4.132,12.618,6.45-11.249.792-22.976.021-34.269.036l-21.04.173c-2.9.026-7.183.614-9.9-.373.2-1.461-.191-3.247.629-4.542l10.47-17.22,5.755.955c7.308,1.153,13.481.483,19.554-3.926" transform="translate(107.609 150.653)" fill="#d8e7d6"/>
      <path id="Trazado_1066484" data-name="Trazado 1066484" d="M134.452,271.14l0-17.933c9.747-1.2,17.21-6.041,24.99-11.538,6.556,6,17.247,5.809,25.619,5.7l12.817,19.451.061,4.018c-2.056,1.1-57.78.508-63.483.3" transform="translate(82.879 148.975)" fill="#d8e7d6"/>
      <path id="Trazado_1066485" data-name="Trazado 1066485" d="M117.565,203.276a130.6,130.6,0,0,0,21.31-4.694l.491,74.444.019,24.819-41.113.071-9.729-.076-48.01-.015-.015-7.9-.281-77.827-.094-12.932,6.956,1.607,14.116,2.392c19.11,1.789,37.233,2.181,56.349.115" transform="translate(24.746 122.414)" fill="#153c4f"/>
      <path id="Trazado_1066486" data-name="Trazado 1066486" d="M40.144,198.941l6.957,1.607,14.116,2.392a20.049,20.049,0,0,1-11.375,10.575,37.988,37.988,0,0,1-8.656,1.883c-.8-1.08-.613-2.257-.949-3.525Z" transform="translate(24.746 122.635)" fill="#09222d"/>
      <path id="Trazado_1066487" data-name="Trazado 1066487" d="M70.086,288.4l3.983-74.138.718-.362,5.029,74.576Z" transform="translate(43.204 131.855)" fill="#d8e7d6"/>
      <path id="Trazado_1066488" data-name="Trazado 1066488" d="M97.315,203.276a130.6,130.6,0,0,0,21.31-4.694l.491,74.444.019,24.819-41.113.071-5.029-74.576c1.574-1.639,5.341-2.009,7.489-2.892,8.406-3.456,13.4-8.834,16.832-17.171" transform="translate(44.996 122.414)" fill="#09222d"/>
      <path id="Trazado_1066489" data-name="Trazado 1066489" d="M423.439,188.5l21.187-.047c3.189.013,6.865-.341,10,.121l15.127.338c5.877.946,13.029,2.649,18.966,2.168,4.206-.341,8.148-1.571,12.266-2.156,4.694,5.737,8.459,13.119,11.368,19.913a5.211,5.211,0,0,1-1.8,3.146,15.517,15.517,0,0,1-2.733,1.267l-.289.129c1.616,1.775,2.507,4.111,3.459,6.285,2.94,6.713,4.477,12.818,4.114,20.2-.191,3.823-.944,8.11-2.9,11.438-1.547,2.64-1.337,5.344-1.414,8.315l-.286,10.565-1.557,33.3-.118.375-.438.047c-2.281,1-7.971.325-10.555.328l-18.1.024c-3.165,0-6.742.33-9.825-.4l-.521.419-14.192-.011c-1.047,0-3.471.3-4.369,0a7.661,7.661,0,0,1-1.283-.866l-.427.383-.178.139c-1.376.8-7.277.165-9.076.149l-16.365.089c-3.073.027-6.518.367-9.511-.318l-.5.428-19.7.008c-1.666,0-5.381.467-6.694-.423l-.04-4.149a13.12,13.12,0,0,0,1.775-3.044l.118-.3-.31-.414c1.9-2.688,9.608-12.224,9.834-14.745,2.168-5.764.595-12.141,3.77-17.983a13.1,13.1,0,0,1,8.187-6.579l.718-.323a15.4,15.4,0,0,1,5.918-.276,1.726,1.726,0,0,0,1.272-.22c1.347-2.3,1.279-6.773,1.568-9.484l2.192-20.852c.354-3.273.393-6.813,1.194-10-1.3-1.734-.756-4.4-.6-6.5l1.115-14.459c.147-1.991.619-4.2-.364-6.018" transform="translate(238.597 116.096)" fill="#153c4f"/>
      <path id="Trazado_1066490" data-name="Trazado 1066490" d="M409.15,230.076c.54,1.786.142,3.93-.014,5.772l-6.91,6.508c.1-2.887,1.165-9.543-.265-11.784a15.364,15.364,0,0,1,5.918-.275,1.734,1.734,0,0,0,1.272-.221" transform="translate(247.785 141.828)" fill="#80b500"/>
      <path id="Trazado_1066491" data-name="Trazado 1066491" d="M409.624,234.8l.727.656-1,10.518-9.741-.016c.226-1.515,1.612-2.444,2.688-3.517a96.912,96.912,0,0,0,7.322-7.641" transform="translate(246.338 144.738)" fill="#80b500"/>
      <path id="Trazado_1066492" data-name="Trazado 1066492" d="M394.3,249.261l.289-.242c1.941-1.636,3.692-3.511,5.48-5.312a10.626,10.626,0,0,1,1.431-1.445,14.912,14.912,0,0,1,3.136-.019l7.828-.05c-.137,2.239.137,5.774-1.4,7.5-5.78,1.891-10.976.474-16.759-.435" transform="translate(243.061 149.276)" fill="#80b500"/>
      <path id="Trazado_1066493" data-name="Trazado 1066493" d="M394.119,255.146c2.168-5.764.595-12.143,3.77-17.983a13.1,13.1,0,0,1,8.187-6.579,45.531,45.531,0,0,1-.058,12.631c-2.5,2.64-9.141,10.945-11.9,11.931" transform="translate(242.951 142.141)" fill="#80b500"/>
      <path id="Trazado_1066494" data-name="Trazado 1066494" d="M398.762,246.552c5.784.908,10.979,2.326,16.759.435,1.09,1.718.555,3.934.383,5.871-.4,4.469-.537,9.4-1.411,13.787a4.92,4.92,0,0,1-.5,1.3l-.5.428-19.7.008c-1.665,0-5.381.467-6.694-.424l-.039-4.149a13.113,13.113,0,0,0,1.773-3.044l.118-.3c2.7-2,5.347-6.957,7.358-9.791.879-1.238,2.142-2.63,2.457-4.117" transform="translate(238.597 151.985)" fill="#d8e7d6"/>
      <path id="Trazado_1066495" data-name="Trazado 1066495" d="M427.919,288.325l-2.221-.1c-.147-.162-.373-.276-.443-.483a11.139,11.139,0,0,1,.029-2.315l.094-6.55,1.2-45.357c.079-2.336.983-6.817.5-8.921-.805-3.5-5.735-6.905-5.627-10.685.137-.061,1.111-.532,1.17-.516,1.051.3,3.773,5.153,4.953,6.244a14.217,14.217,0,0,0,5.111,2.918c1.809.647,3.637-.149,5.4-.684l1.642,11.57c.5,2.847,2.58,8.876,1.38,11.467l-.137.259a7.17,7.17,0,0,1,1.165,1.068c.364.692,6.826,38.245,6.959,40.626a3.381,3.381,0,0,1-.383,1.536l-.522.419L434,288.812c-1.047,0-3.47.294-4.369,0a7.575,7.575,0,0,1-1.282-.866Z" transform="translate(259.799 131.547)" fill="#09222d"/>
      <path id="Trazado_1066496" data-name="Trazado 1066496" d="M438.342,233.055a7.238,7.238,0,0,1,1.165,1.067c.364.693,6.826,38.245,6.959,40.628a3.38,3.38,0,0,1-.383,1.536l-.522.419-14.192-.01c-1.047,0-3.471.294-4.369,0a7.558,7.558,0,0,1-1.284-.866l.226-.393c1.852-3.388,2.758-8.764,3.912-12.521,2.876-9.328,6.34-18.819,8.591-28.3a2.881,2.881,0,0,0-.1-1.552" transform="translate(262.429 143.665)" fill="#d8e7d6"/>
      <path id="Trazado_1066497" data-name="Trazado 1066497" d="M440.155,210.11a141.235,141.235,0,0,0,25.055-3.831c2.152-.488,7.908-3.024,9.582-2.418,1.618,1.775,2.507,4.111,3.461,6.285,2.939,6.713,4.476,12.818,4.112,20.2-.191,3.823-.942,8.11-2.893,11.438-1.549,2.64-1.337,5.344-1.416,8.317l-.284,10.563-1.558,33.3-.118.375-.438.047c-3.975-.467-8.373-.086-12.388-.074l-1.628-68.083c-4.3.761-7.568,1.081-11.6-1.022-6.335-3.306-7.858-8.779-9.883-15.1" transform="translate(271.33 125.611)" fill="#09222d"/>
      <path id="Trazado_1066498" data-name="Trazado 1066498" d="M409.943,188.5l21.187-.047c3.189.013,6.865-.341,10,.121l15.127.338c5.877.946,13.029,2.649,18.966,2.168,4.206-.341,8.148-1.571,12.266-2.156,4.694,5.737,8.459,13.119,11.368,19.913a5.211,5.211,0,0,1-1.8,3.146,15.514,15.514,0,0,1-2.733,1.267l-.289.129c-1.676-.606-7.431,1.928-9.584,2.418a141.342,141.342,0,0,1-25.053,3.831c-7.332.456-15.269.8-22.577-.021a89.634,89.634,0,0,1-27.02-4.132c-1.3-1.734-.756-4.4-.6-6.5l1.115-14.459c.147-1.991.619-4.2-.364-6.018" transform="translate(252.093 116.096)" fill="#fefefe"/>
      <path id="Trazado_1066499" data-name="Trazado 1066499" d="M430.5,188.48l15.125.338c5.879.946,13.03,2.649,18.966,2.168,4.208-.341,8.15-1.571,12.266-2.156,4.694,5.737,8.46,13.119,11.368,19.911a5.211,5.211,0,0,1-1.8,3.147,15.616,15.616,0,0,1-2.732,1.267l-.291.129c-1.675-.606-7.429,1.928-9.582,2.418a141.36,141.36,0,0,1-25.055,3.831c-7.331.456-15.267.8-22.575-.021,2.069-.223,4.182-.1,6.259-.3,8.449-.821,21.639-3.5,27.812-9.72,2.89-2.911,3.129-5.135,3.1-9.047-.205-.22-.349-.521-.614-.656a15.3,15.3,0,0,0-2.525,0l-7.46-.393a49.06,49.06,0,0,1-8.333-1.671,24.27,24.27,0,0,1-9.509-4.851c-1.571-1.356-2.824-3.032-4.411-4.393" transform="translate(262.72 116.187)" fill="#cbcdc7"/>
      <path id="Trazado_1066500" data-name="Trazado 1066500" d="M444.353,117.211l.251-.086c2.079-.626,7.077-1.411,8.924-.373l.024.236c.089,1.641-.967,3.251-1.582,4.746-1.872,4.56-3.7,10.756.33,14.685,2.724,2.654,6.556,3.377,10.237,3.22,8.664-.372,16.022-4.634,21.7-10.945,2.625-2.91,4.949-6.387,4.743-10.424l-.034-.508a79.91,79.91,0,0,1,9.863,1.846,16.235,16.235,0,0,1,4.01,1.153,8.613,8.613,0,0,1,2.182.724,31.935,31.935,0,0,0-8.286,17.042,28.037,28.037,0,0,0,4.389,20.214c.8,1.165,2.6,2.9,2.893,4.225a5.983,5.983,0,0,0,1.589,2.194c1.655,1.886,6.463,6.112,6.933,8.381,2.433,1.358,4.321,3.632,6.429,5.434.816.7,2.226,1.524,2.659,2.481a19.869,19.869,0,0,1,2.127-.95c.836,1.01,2.763,2.84,3.063,4.048,2.063-.36,4.054-1.731,5.793-2.837,2.939-1.865,15.967-11.328,16.632-14.3,2.113,1.017,4.167,4.7,5.562,6.621,5.711,7.867,12.675,16.533,15.844,25.764.91,2.661,1.435,5.155.118,7.77-1.97,3.915-7.091,7.258-11.121,8.769-17.186,9.222-36.829,12.123-55.455,17.01-4.119.587-8.06,1.815-12.267,2.156-5.936.482-13.087-1.222-18.964-2.168l-15.128-.338c-3.134-.462-6.81-.108-10-.121l-21.185.047a23.75,23.75,0,0,0-4.689-.074l-11.372.01a3.756,3.756,0,0,1-2.955-1.08,19.158,19.158,0,0,1-1.715-4.238l-3.881-10.45c-.576-1.515-1.023-3.3-2.163-4.481l-.183-.175-1.277.209c-1.667.189-2.226-.343-3.4-1.321a3.394,3.394,0,0,1,.118-2.622c-1.317-.5-2.6-.875-3.273-2.261-.672-1.411-.053-2.478.373-3.855l-.668-.263a4.589,4.589,0,0,1-2.934-3.011,10.989,10.989,0,0,1,1.479-3.715,8.235,8.235,0,0,1-1.368-.79,3.515,3.515,0,0,1-1.494-2.7,4.574,4.574,0,0,1,1.469-2.677,2.533,2.533,0,0,0,.973-1.057l.113-.344c.163-1.536-.949-3.652-1.494-5.074l-3.936-9.982c-.7-1.628-1.691-3.22-2.266-4.893a3.577,3.577,0,0,1,.424-3.163,8.322,8.322,0,0,1,1.41-.944c1.067-.338,3.613-.023,4.812-.031l14.508-.118c1.557-1.568,2.653-6.484,2.806-8.7a5.875,5.875,0,0,1,1.267-.027c1.549.433,4.463,3.257,5.971,4.245,2.368,1.555,5.785,2.732,7.859,4.49l.461.01c-.133-2.926,1.132-6.141,2.016-8.9a101.6,101.6,0,0,1,13-27.494,70.561,70.561,0,0,1,4.8-6.231c1-1.156,2.6-2.5,2.924-4.014" transform="translate(235.409 71.66)" fill="#153c4f"/>
      <path id="Trazado_1066501" data-name="Trazado 1066501" d="M397.9,140.326a5.877,5.877,0,0,1,1.267-.027c1.549.433,4.463,3.257,5.971,4.245,2.37,1.555,5.785,2.733,7.859,4.49l-17.9-.011c1.558-1.566,2.654-6.484,2.806-8.7" transform="translate(243.555 86.466)" fill="#b75821"/>
      <path id="Trazado_1066502" data-name="Trazado 1066502" d="M387.085,149.046a11.108,11.108,0,0,1,1.872-.276c4.516-.2,55.534-.423,56.777.105a7.045,7.045,0,0,1,1.175,1.046l0,1.452L445.4,152.4a2.484,2.484,0,0,1-.758.226c-2.226.351-5.1.026-7.381.029l-16.607.029-21.6.018c-3.247.006-7.106.414-10.31-.071a3.269,3.269,0,0,1-1.5-.774c-.6-1.233-.441-1.44-.152-2.811" transform="translate(238.455 91.571)" fill="#a1d9ea"/>
      <path id="Trazado_1066503" data-name="Trazado 1066503" d="M387.748,161.187l.294.092c4.984,1.314,13.428-4.369,16.971.584a3.175,3.175,0,0,1-.855,2.16c-2.276,1.211-12.9,1.953-13.6,3.209,1.149.64,2.683.1,3.981-.1l7.966-1.387c1.7-.373,4.316-1.22,6.024-.653a3.637,3.637,0,0,1,2.1,1.924,3.7,3.7,0,0,1-.792,2.7c-2.614,1.615-16.232,2.208-16.808,3.85,1.086.561,2.674.016,3.844-.194,3.77-.676,13.619-3.884,15.387.632a4.533,4.533,0,0,1-1.248,3.057c-1.474,1.005-2.851.356-4.5.467-2.04.139-9.907,1-11.116,2.291,1.267.9,7.381-.617,9.228-.934a8.686,8.686,0,0,1,4.1-.192,3.361,3.361,0,0,1,1.062,2.738c-2.206,2.622-8.832,2.787-12.149,4.172l-1.277.207c-1.667.189-2.227-.343-3.4-1.321a3.387,3.387,0,0,1,.118-2.622c-1.317-.5-2.606-.875-3.273-2.261-.674-1.411-.055-2.478.373-3.855l-.669-.263a4.593,4.593,0,0,1-2.934-3.011,11,11,0,0,1,1.479-3.713,8.411,8.411,0,0,1-1.366-.792,3.515,3.515,0,0,1-1.494-2.7,4.565,4.565,0,0,1,1.469-2.677,2.554,2.554,0,0,0,.973-1.057Z" transform="translate(237.448 98.506)" fill="#b75821"/>
      <path id="Trazado_1066504" data-name="Trazado 1066504" d="M521.52,147.906c2.113,1.017,4.167,4.7,5.564,6.621,5.709,7.867,12.674,16.533,15.844,25.764.908,2.661,1.434,5.155.118,7.77-1.972,3.915-7.093,7.258-11.123,8.768-17.186,9.223-36.829,12.125-55.455,17.011-4.119.585-8.06,1.815-12.266,2.156-5.937.482-13.088-1.222-18.966-2.168l.368-.512-.289-.412-15.722-.769a3.529,3.529,0,0,1-1.936-2.409,4.739,4.739,0,0,1,.482-2.142c1.759-2.866,12.227.291,15.426-.443-1.8-1.7-12.065-1.178-15.279-2.575-1.038-.451-1.033-.829-1.46-1.83a4.8,4.8,0,0,1,.959-3.058,11.86,11.86,0,0,1,4.531.336c3.568.588,7.647,1.81,11.249,1.561.019-.21.168-.448.065-.632l-.566-.1c-3.642-.658-14.05-1.432-16.134-4.169-.06-1.605-.1-1.759.968-3.073,1.5-.53,3.016-.121,4.531.154,3.553.647,7.578,2.134,11.136,2.118l-.082-.461c-3.543-.97-7.741-1.616-11.063-3.159-.874-1.347-.836-1.45-.693-3.058,3.495-4.069,6.256,1.594,9.594.6,2.859,2.86,9.823,3.619,13.618,5.383l11.779,3.875c1.725.6,4.109,1.8,5.927,1.778l.044-.027c-.21-1.731.409-3.915.723-5.645a182.8,182.8,0,0,1,4.777-19.455c.713-2.4,2.03-5.211,2.148-7.7l4.482-13.973c2.433,1.358,4.319,3.632,6.428,5.434.815.7,2.226,1.524,2.657,2.481a19.9,19.9,0,0,1,2.129-.95c.836,1.01,2.763,2.84,3.062,4.048,2.064-.36,4.054-1.731,5.795-2.838,2.939-1.864,15.967-11.328,16.63-14.294" transform="translate(263.114 91.175)" fill="#b75821"/>
      <path id="Trazado_1066505" data-name="Trazado 1066505" d="M467.345,151.692c2.431,1.358,4.319,3.632,6.428,5.433.815.7,2.224,1.526,2.658,2.481a19.746,19.746,0,0,1,2.129-.949c.836,1.01,2.761,2.84,3.06,4.048,5.363,4.012,10.041,10.014,14.933,14.71l-29.081,15.356c-3.395,1.754-8.472,5.186-12.257,5.695-.208-1.731.411-3.915.724-5.645a182.044,182.044,0,0,1,4.778-19.455c.711-2.4,2.029-5.211,2.147-7.7Z" transform="translate(280.587 93.509)" fill="#fefefe"/>
      <path id="Trazado_1066506" data-name="Trazado 1066506" d="M464.412,151.692c2.431,1.358,4.319,3.632,6.429,5.433.815.7,2.224,1.526,2.657,2.481-.58,1.5-3.673,2.442-5.179,3.108a41.584,41.584,0,0,1-8.389,2.95Z" transform="translate(283.52 93.509)" fill="#0e2237"/>
      <path id="Trazado_1066507" data-name="Trazado 1066507" d="M429.208,117.211l.251-.086c2.079-.626,7.077-1.411,8.924-.373l.024.236c.089,1.641-.967,3.251-1.582,4.746-1.872,4.56-3.7,10.756.33,14.685,2.724,2.654,6.556,3.377,10.237,3.22,8.664-.372,16.022-4.634,21.7-10.945,2.625-2.91,4.95-6.387,4.743-10.424l-.034-.508a79.913,79.913,0,0,1,9.864,1.846,16.237,16.237,0,0,1,4.01,1.153,8.613,8.613,0,0,1,2.182.724,31.934,31.934,0,0,0-8.286,17.042,28.037,28.037,0,0,0,4.389,20.214c.8,1.165,2.6,2.9,2.893,4.225a5.984,5.984,0,0,0,1.589,2.194c1.655,1.886,6.463,6.112,6.933,8.381L492.9,187.514c-.118,2.489-1.435,5.3-2.148,7.7a182.109,182.109,0,0,0-4.777,19.455c-.315,1.73-.934,3.913-.723,5.646l-.044.026c-1.819.026-4.2-1.178-5.927-1.778L467.5,214.689c-3.794-1.764-10.757-2.523-13.618-5.381l.094-.545c.2-2.048-2.216-7.783-3.534-9.377.255-2.185-2.594-8.708-3.888-10.586l.065-.726c-.118-1.97-1.6-4.714-2.31-6.629l-3.558-9.847c-.655-1.9-1.233-4.513-2.7-5.965a6.034,6.034,0,0,0-2.871-1.734c-2.727-.54-6.34-.129-9.141-.115l-19.575.065c-.133-2.926,1.131-6.141,2.016-8.9a101.6,101.6,0,0,1,13-27.494,70.567,70.567,0,0,1,4.8-6.231c1-1.156,2.6-2.5,2.924-4.014" transform="translate(250.554 71.66)" fill="#fefefe"/>
      <path id="Trazado_1066508" data-name="Trazado 1066508" d="M472.384,119.04a8.68,8.68,0,0,1,2.182.726,31.924,31.924,0,0,0-8.286,17.041,28.041,28.041,0,0,0,4.389,20.214c.807,1.165,2.6,2.9,2.895,4.225a5.961,5.961,0,0,0,1.587,2.194c1.655,1.886,6.463,6.11,6.935,8.381L477.6,185.794c-.118,2.488-1.435,5.3-2.148,7.7a182.589,182.589,0,0,0-4.777,19.454c-.315,1.73-.934,3.913-.723,5.646l-.044.027c-1.819.024-4.2-1.182-5.927-1.778L452.2,212.968c-3.794-1.764-10.757-2.522-13.617-5.383l.092-.545c.2-2.046-2.216-7.782-3.534-9.375.257-2.185-2.594-8.709-3.886-10.586l1.051.018c11.053.162,22.283.23,30.691-8.208,4.326-4.337,6.463-9.943,8.026-15.72a15.667,15.667,0,0,0,.643-2.4c-.2-.674-1.838-2.239-2.32-2.977a29.227,29.227,0,0,1-4.865-16.113c-.019-7.982,2.507-15.886,8.233-21.617Z" transform="translate(265.846 73.381)" fill="#cbcdc7"/>
      <path id="Trazado_1066509" data-name="Trazado 1066509" d="M433.664,168.778a8.064,8.064,0,0,1,1.539-.8c1.464-.268,4.093.359,5.675.406a63.834,63.834,0,0,0,12.542-.9c1.612-.268,6.311-1.88,7.72-1.526a67.915,67.915,0,0,1-6.458,13.565c-1.248,2.014-1.817,3.456-3.96,4.562-3.794-1.764-10.757-2.523-13.619-5.383l.094-.545c.2-2.046-2.216-7.782-3.534-9.375" transform="translate(267.328 102.27)" fill="#fefefe"/>
      <path id="Trazado_1066510" data-name="Trazado 1066510" d="M352.859,69.563C354.464,71,358.407,70.7,360.588,71l18.691,3.078a275.356,275.356,0,0,1,44.643,12.138l16.024,6.193,8.745,3.808a20.59,20.59,0,0,0,4.778,1.859l.328-.134c1.511,1.489,1.214,5.171,1.382,7.2.841,10.418,3.769,20.041,13.14,25.924a21.61,21.61,0,0,0,11.108,3.707l.383,1.149c-.231,2.452-.393,7.038-1.99,8.955l-1.288.653c-1.848-1.038-6.846-.252-8.924.373l-.251.086c-.32,1.515-1.922,2.858-2.924,4.015a70.015,70.015,0,0,0-4.8,6.231,101.668,101.668,0,0,0-13,27.494c-.884,2.758-2.145,5.971-2.012,8.9l-.464-.01c-2.072-1.759-5.489-2.937-7.856-4.492-1.511-.988-4.424-3.812-5.973-4.245a6,6,0,0,0-1.269.027c-.15,2.213-1.248,7.13-2.8,8.7l-14.509.12c-1.2.008-3.745-.309-4.811.031a8.256,8.256,0,0,0-1.411.942,3.572,3.572,0,0,0-.422,3.163c.574,1.673,1.562,3.265,2.265,4.895l3.938,9.98c.545,1.424,1.655,3.54,1.494,5.074l-.113.344a2.541,2.541,0,0,1-.971,1.057,4.564,4.564,0,0,0-1.471,2.677,3.513,3.513,0,0,0,1.494,2.7,8.219,8.219,0,0,0,1.366.79,10.967,10.967,0,0,0-1.479,3.713,4.6,4.6,0,0,0,2.934,3.013l.669.263c-.428,1.377-1.046,2.442-.373,3.854.668,1.387,1.956,1.765,3.273,2.263a3.383,3.383,0,0,0-.118,2.62c1.169.978,1.73,1.51,3.394,1.321l1.279-.207.181.175c1.141,1.18,1.587,2.965,2.163,4.481l3.884,10.449a19.166,19.166,0,0,0,1.713,4.24,3.755,3.755,0,0,0,2.955,1.078l11.372-.01a23.858,23.858,0,0,1,4.688.074c.983,1.817.511,4.028.364,6.018l-1.115,14.459c-.152,2.1-.7,4.765.606,6.5-.8,3.186-.842,6.726-1.2,10l-2.19,20.852c-.291,2.711-.223,7.188-1.568,9.484a1.74,1.74,0,0,1-1.274.221,15.355,15.355,0,0,0-5.916.276l-.718.322a13.1,13.1,0,0,0-8.187,6.579c-3.176,5.842-1.6,12.22-3.771,17.985-.226,2.522-7.932,12.057-9.833,14.744l-1.571,1.7c-1.594-2.24.613-37.243-.743-44.058l-.768-.4c1.337,2.575.561,8.677.558,11.648l-.163,34.534L403.354,360.8c-1.086-1.466-2.4-3.791-4-4.62-.294-.828-.963-1.212-1.623-1.77.944-1.66.433-3.842.192-5.661-.845-6.424-2-13.226-7.529-17.353-5.588-4.17-11.034-3.742-17.466-2.824l.3-.821c.5-2.13.133-5.038.128-7.261l-.019-16.071-.171-28.782c-.036-4.195.328-8.908-.168-13.028a4.218,4.218,0,0,0-.638-1.625,6.334,6.334,0,0,0,.6-3.356l0-.48,1.125-1.311c.983-1.445.595-30.164.147-33.008,1.327-.307,2.753.456,4.051.878,3.513,1.143,8.276,3.167,11.954,2.3a10.491,10.491,0,0,0,7.03-5.029,12.758,12.758,0,0,0,1.6-5.531c.805-8.839.188-18.35.215-27.276l.021-12.217c-.006-2.355.2-4.932-.383-7.222a7.9,7.9,0,0,0,2.181-.517,5.985,5.985,0,0,0,.841-1.056c.5-1.755,0-5.329,0-7.242l-.246-25.436c-.393-7.891-5-14.042-10.654-19.121C379.008,104.735,364.9,102.77,349.5,103.647c.207-1.343-.082-1.581-.752-2.7.411-1.817-.477-4.111-.855-5.927-1.022-4.886-1.9-9.8-3.327-14.588a5.638,5.638,0,0,0,1.641-.947c2.3-1.844,6.356-6.989,6.652-9.917" transform="translate(212.405 42.881)" fill="#e6f0cc"/>
      <path id="Trazado_1066511" data-name="Trazado 1066511" d="M386.944,216.819l.175-.276c3.092-5,3.551-11.331,10.429-13.122a5.824,5.824,0,0,1,2.257.006l.5.651,1.157,1.2a9.484,9.484,0,0,1-3.737,6.26c-2.73,2.158-7.536,4.02-10.783,5.279" transform="translate(238.528 125.329)" fill="#f6ba4d"/>
      <path id="Trazado_1066512" data-name="Trazado 1066512" d="M377.938,202.961l2.693-.144c4.36,1.414,8.832,9.235,11.152,13.032l-.231.621a11.553,11.553,0,0,0-2.782-1.094c-.59-.821-1.995-1.165-2.934-1.549-2.688-1.1-7.465-2.378-9.495-4.389a3.581,3.581,0,0,1-1.135-3.2c.133-1.5,1.631-2.434,2.732-3.277" transform="translate(231.276 125.025)" fill="#f6ba4d"/>
      <path id="Trazado_1066513" data-name="Trazado 1066513" d="M373.531,217.8a8.316,8.316,0,0,1,5.111-1.182c5.779,2.69,10.453,10.287,14.129,15.429l-.055,1.094c-.85-1.345-3.086-1.914-4.521-2.518-3.739-1.573-12.822-4.545-14.939-7.749a3.717,3.717,0,0,1-.378-2.981,11.628,11.628,0,0,1,.653-2.093" transform="translate(229.772 133.508)" fill="#f6ba4d"/>
      <path id="Trazado_1066514" data-name="Trazado 1066514" d="M385.673,246.159c.747.4,1.233.905,2.064.653.482-5.365.217-10.982.265-16.376.024-2.31.575-5.877-.54-7.849.087-.645.147-.65.619-1.112.123-3.377.8-8.42-.865-11.391-1.264-2.248-3.239-7.465-3.037-10.085a5.43,5.43,0,0,1,1.915-3.905c1.18-.9,1.987-.642,3.328-.393a6.98,6.98,0,0,1,2.045,3.026c1.1,3.5-.855,7.914-2.473,11.031l-.487.984c-.569,1.429-.747,9.243-.073,10.531l.22.385c-.752,2.9-.364,6.566-.352,9.574l.053,17.451c2.363-2.923,2.89-5.771,4.531-8.989,2.04-4.009,5.882-7.35,10.439-7.916a5.2,5.2,0,0,1,4.119,1.056,4.288,4.288,0,0,1-.58,3.845c-2.252,3.824-6.236,5.551-10.374,6.551a11.278,11.278,0,0,0-3.338,1.07c-1.99,1.24-3.139,3.66-5.047,4.88l-.766-.4a5.541,5.541,0,0,0-1.667-2.623" transform="translate(236.815 120.492)" fill="#f6ba4d"/>
      <path id="Trazado_1066515" data-name="Trazado 1066515" d="M396.834,154.8c1.7-2.766,2.565-6.256,4.005-9.225a57.246,57.246,0,0,1,22.346-24.4c2.556-1.468,9.186-5.027,11.952-4.3-.318,1.515-1.92,2.858-2.924,4.014a70.8,70.8,0,0,0-4.8,6.231,101.6,101.6,0,0,0-13,27.494c-.884,2.758-2.147,5.973-2.014,8.9l-.462-.011c-2.074-1.757-5.489-2.935-7.859-4.49-1.508-.988-4.423-3.812-5.971-4.245a5.877,5.877,0,0,0-1.267.027" transform="translate(244.625 71.99)" fill="#cbcdc7"/>
      <path id="Trazado_1066516" data-name="Trazado 1066516" d="M361.408,153.259c.949.242,2.122.315,2.782,1.046,3.616.626,7.347,2.716,10.738,4.151l20.13,8.52,6.458,2.6a12.306,12.306,0,0,1,2.4.954,3.7,3.7,0,0,1,.5.7c.448,2.842.836,31.563-.147,33.008l-1.127,1.311.007.478a6.352,6.352,0,0,1-.6,3.357,4.269,4.269,0,0,1,.638,1.625c.5,4.119.133,8.832.167,13.029l.173,28.782.019,16.071c0,2.221.373,5.131-.128,7.261l-.305.821c6.433-.918,11.879-1.346,17.467,2.822,5.533,4.128,6.682,10.93,7.528,17.354.241,1.819.752,4-.191,5.661.658.558,1.327.941,1.621,1.77l-.383.726c-.448-.946-1.052-1.172-1.9-1.715l-.482.333c-5.415,3.277-14.158,1.647-19.058-1.717-1.14-.786-2.8-3.092-3.981-3.364a6.159,6.159,0,0,1-.776,1.88l-.142.251c1,2.512.545,6.11.53,8.813l-.2,15.7-.328.013c-2.232,1.073-8.267.36-10.984.365l-32.717.047c.019-1.7.364-4.216-.689-5.614l-.167-.2a16.267,16.267,0,0,1,.551,5.785l-22.583-.032-.908-1.227.034,1.065c-3.293.475-6.968.157-10.3.129l-28.564-.047-.865-1.555c1.361-2.565,1.033-7.363,1.327-10.342L299.461,291l6.737-49.814,3.837-25.551c.457-3.105,1.755-7.321,1.047-10.366a2.574,2.574,0,0,0-.576-1.464c-1.214-1.741-.723-4.651-.723-6.736.01-4.444.929-22.916-.692-25.218,11.244-.818,22.9-.225,34.185-.23h12.581a48.691,48.691,0,0,1,7.141.15l1.725-.5c.58-1.35-.162-2.9-.511-4.258L361.825,157c-.28-1.246-.829-2.523-.417-3.742" transform="translate(182.227 94.475)" fill="#153c4f"/>
      <path id="Trazado_1066517" data-name="Trazado 1066517" d="M371.434,305.778l-3.218-.254c-1.435-3-.855-9.269-1.018-12.78l-1.71-39.642L362.534,200.4a32.445,32.445,0,0,1-5.559-1.757c-5.213-2.483-8.65-7.882-10.468-13.185,7.943.137,16.43-.64,24.289.2a4.3,4.3,0,0,1,.477,3.757l-.1.255a4.29,4.29,0,0,1,.639,1.625c.5,4.12.133,8.834.166,13.03l.173,28.782.019,16.071c0,2.221.373,5.131-.128,7.259l-.306.823c6.433-.918,11.879-1.346,17.467,2.822,5.533,4.128,6.684,10.93,7.529,17.354.241,1.818.752,4-.192,5.661.658.556,1.327.941,1.621,1.77l-.383.726c-.446-.946-1.051-1.173-1.9-1.717l-.482.335c-5.417,3.277-14.16,1.647-19.059-1.717-1.14-.786-2.8-3.092-3.98-3.365a6.172,6.172,0,0,1-.778,1.88l-.142.252c1,2.512.545,6.11.53,8.813l-.2,15.7Z" transform="translate(213.601 114.2)" fill="#0e2237"/>
      <path id="Trazado_1066518" data-name="Trazado 1066518" d="M360.937,231.009l1.78.066,8.638,8.677-.614.735-9.676.047-.108-9.265Z" transform="translate(222.496 142.403)" fill="#80b500"/>
      <path id="Trazado_1066519" data-name="Trazado 1066519" d="M362.015,244.01a28.919,28.919,0,0,1-.939-6.264c2.05-1.2,8.861-.365,11.52-.343l7.337,6.994-15.452.171c3.189,1.552,9.55.677,13.156.663a14.085,14.085,0,0,1,3.278.036c1.214.43,4.673,4.571,5.79,5.664l.186.983-.482.333c-5.415,3.278-14.158,1.647-19.058-1.717-1.141-.786-2.8-3.092-3.981-3.364a6.143,6.143,0,0,1-.776,1.88l-.142.251.22-.674a4.973,4.973,0,0,0-.658-4.613" transform="translate(222.582 146.157)" fill="#80b500"/>
      <path id="Trazado_1066520" data-name="Trazado 1066520" d="M362.139,230.03c6.433-.918,11.878-1.346,17.466,2.822,5.535,4.128,6.684,10.93,7.529,17.354.241,1.819.752,4-.191,5.661-.58-1.351-2.059-2.552-3.092-3.566l-6.86-6.739c-.59-.577-1.883-1.555-2.139-2.339l-.078-.477a46.045,46.045,0,0,1-.32-8.115c0-1.133.212-2.488-.373-3.453l-.344.378a98.066,98.066,0,0,0,.241,11.166l.034.22c-3.739-3.755-7.563-8.218-11.7-11.493l-.246-.187Z" transform="translate(223.195 141.424)" fill="#80b500"/>
      <path id="Trazado_1066521" data-name="Trazado 1066521" d="M313.89,298.837c-.356-.763-.133-1.117.057-1.9l14.96-63.971,6.185-27.255c-3.446-2.918-7.389-5.509-10.576-8.679l20.875,7.384c.315,3.786,1.471,22.907-.284,25.286l-.2.247a7.973,7.973,0,0,1,1,1.258c.52,1.23.221,5.321.284,6.87l.993,36.727c.149,5.439.87,11.527.423,16.906a3.616,3.616,0,0,1-.5,1.4,16.339,16.339,0,0,1,.548,5.785l-22.582-.032-.91-1.227.036,1.065c-3.293.477-6.969.157-10.3.129" transform="translate(193.378 121.46)" fill="#09222d"/>
      <path id="Trazado_1066522" data-name="Trazado 1066522" d="M340.921,217.4a8.049,8.049,0,0,1,1,1.258c.52,1.23.221,5.323.286,6.871l.993,36.726c.147,5.439.87,11.527.422,16.906a3.609,3.609,0,0,1-.506,1.406,16.288,16.288,0,0,1,.551,5.784l-22.583-.031-.908-1.227.128-.181.663-.994c1.175-2.037,1.6-5.331,2.271-7.615l7.3-24.567,10.463-32.751a2.619,2.619,0,0,0-.074-1.586" transform="translate(197.367 134.013)" fill="#d8e7d6"/>
      <path id="Trazado_1066523" data-name="Trazado 1066523" d="M356.266,153.259c.949.242,2.122.315,2.782,1.046,3.616.626,7.347,2.716,10.738,4.151l20.13,8.52,6.458,2.6a12.3,12.3,0,0,1,2.4.954,3.7,3.7,0,0,1,.5.7c.448,2.842.836,31.563-.147,33.008L398,205.554l.006.478a6.352,6.352,0,0,1-.6,3.357l.1-.257a4.3,4.3,0,0,0-.475-3.757c-.267-.254-.306-.417-.689-.415l-46.442-.139-31.66,0c-3.471-.01-9.278-.862-12.3.453a2.574,2.574,0,0,0-.575-1.464c-1.214-1.741-.723-4.651-.723-6.736.01-4.444.929-22.916-.692-25.218,11.244-.818,22.9-.225,34.184-.23h12.581a48.692,48.692,0,0,1,7.141.15l1.725-.5c.58-1.35-.162-2.9-.511-4.258L356.684,157c-.28-1.246-.829-2.523-.417-3.742" transform="translate(187.368 94.475)" fill="#669100"/>
      <path id="Trazado_1066524" data-name="Trazado 1066524" d="M338.745,153.259c.949.242,2.122.315,2.782,1.046,3.616.626,7.347,2.716,10.738,4.151l20.13,8.52,6.458,2.6a12.307,12.307,0,0,1,2.4.954,3.7,3.7,0,0,1,.5.7c.448,2.842.836,31.563-.147,33.008l-1.127,1.311.007.478a6.352,6.352,0,0,1-.6,3.357l.1-.257a4.3,4.3,0,0,0-.475-3.757c-.267-.254-.306-.417-.689-.415l-46.442-.139c7.877-2.315,18.636-4.636,23.988-11.312a5.925,5.925,0,0,0,1.4-4.159c-.59-3.509-14.1-15.056-17.422-17.579l1.725-.5c.58-1.35-.162-2.9-.511-4.258L339.162,157c-.28-1.246-.829-2.523-.417-3.742" transform="translate(204.89 94.475)" fill="#4d6d00"/>
      <path id="Trazado_1066525" data-name="Trazado 1066525" d="M336.372,153.259c.949.242,2.122.315,2.782,1.046,1.445,3.385,1.97,7.631,2.845,11.221.378,1.56,1.214,3.745.629,5.237a4.784,4.784,0,0,1-2.939.5c.58-1.35-.162-2.9-.511-4.258L336.79,157c-.28-1.246-.829-2.523-.417-3.742" transform="translate(207.262 94.475)" fill="#0e2237"/>
      <path id="Trazado_1066526" data-name="Trazado 1066526" d="M311.861,68.483c4.9.968,10.536.47,15.56.826l.569-.453.178.179c1.243,1.384,1.287,3.559,1.867,5.287a24.052,24.052,0,0,0,4.993,8.751,24.567,24.567,0,0,0,10.808,6.888c1.508.443,5.617.445,6.566,1.259a12.885,12.885,0,0,1-.87,7.153l-.113.183.9,1.435a30.228,30.228,0,0,1,22.921-3.92,19.035,19.035,0,0,1,7.809,3.55c.428.352,1.991,2,2.37,1.987.668,1.123.957,1.359.752,2.7,15.4-.876,29.506,1.089,41.341,11.713,5.651,5.077,10.261,11.228,10.654,19.119l.246,25.438c.006,1.911.5,5.486.006,7.242a6.123,6.123,0,0,1-.841,1.054,7.87,7.87,0,0,1-2.182.519c.585,2.289.378,4.865.383,7.221l-.019,12.219c-.031,8.924.59,18.436-.217,27.274a12.778,12.778,0,0,1-1.6,5.533,10.5,10.5,0,0,1-7.033,5.029c-3.676.866-8.438-1.157-11.952-2.3-1.3-.422-2.722-1.185-4.049-.876a3.858,3.858,0,0,0-.5-.7,12.309,12.309,0,0,0-2.4-.954l-6.458-2.6-20.13-8.52c-3.391-1.435-7.122-3.525-10.738-4.151-.66-.731-1.833-.8-2.782-1.046-.414,1.219.137,2.5.417,3.742l2.389,10.009c.349,1.363,1.091,2.908.511,4.258l-1.725.5a48.7,48.7,0,0,0-7.141-.15H349.766c-11.289,0-22.941-.588-34.185.23-4.006-.82-9.569-.1-13.746-.091-1.435-1.675-.359-5.043-2.158-6.831l-.186-.165a2.239,2.239,0,0,0,.265-.984c-.065-2.754-1.356-6.27-1.951-9.005-.782-3.61-1.175-8.076-2.473-11.472a3.369,3.369,0,0,0-1.036-1.319l.236-1.185-.689-.939a3.743,3.743,0,0,0,.28-1.54c-.357-5.541-2.358-11.756-3.6-17.192-.595-2.6-.884-5.742-1.877-8.186a4.877,4.877,0,0,0-1.372-1.783c.757-1.859-.1-3.75-.564-5.661l-1.628-7.633c2.341-1.644,4.311-1.293,7.1-1.387a3.854,3.854,0,0,0,.624-.721c.79-1.463.959-4.146,1.385-5.827.546-2.124,1.1-4.276,1.809-6.351.619-1.8,1.814-3.959,1.435-5.876,1.439-1.153,2.009-3.228,2.756-4.875a46.328,46.328,0,0,1,3.986-7.216,34.26,34.26,0,0,1,4.345-5.2c1.238-1.18,2.806-2.132,3.744-3.564-.937-9.676-.092-20.18,0-29.915.026-3.183.645-7.712-.407-10.707" transform="translate(175.739 42.216)" fill="#669100"/>
      <path id="Trazado_1066527" data-name="Trazado 1066527" d="M299.589,122.371l.157-.231c1.4-2.221,1.4-5.86,1.932-8.439a6.39,6.39,0,0,1,.7-2.484c.595,2.386,2.462,9.138,1.253,11.152a31.475,31.475,0,0,1-4.039,0" transform="translate(184.679 68.558)" fill="#03624a"/>
      <path id="Trazado_1066528" data-name="Trazado 1066528" d="M358.678,121.43l.33.071c3.454.7,7.672.257,11.21.242l22.5-.07.01,9.663c0,1.641.217,3.393-.521,4.9a7.9,7.9,0,0,1-2.182.519l-18.7-.178c-2.334,0-6.159-.487-8.237.516l-.205-.553-2-.192c-.973-1.1-.747-2.213-.841-3.652-.221-3.3.142-8.312-1.371-11.27" transform="translate(221.104 74.854)" fill="#4d6d00"/>
      <path id="Trazado_1066529" data-name="Trazado 1066529" d="M348.885,164.7c2.286-2,3.972-5.071,5.328-7.744,5.646-11.147,6.193-23.091,7.484-35.289.448-4.209.674-8.3,1.852-12.39l.983,11.289c.286,2.577,1.072,5.879.183,8.363,1.513,2.958,1.149,7.969,1.371,11.268.094,1.437-.133,2.554.841,3.653l1.995.191.207.551c.812,2.074,1.047,25.425.354,27.484l-.1.209Z" transform="translate(215.067 67.36)" fill="#4d6d00"/>
      <path id="Trazado_1066530" data-name="Trazado 1066530" d="M328.915,88.326l.9,1.435a30.228,30.228,0,0,1,22.921-3.92,19.052,19.052,0,0,1,7.811,3.55c.427.352,1.99,2,2.368,1.987.669,1.123.959,1.359.752,2.7l.1.236.142.4a3.585,3.585,0,0,1,.065,2.46c-1.127,4.059-5.1,7.232-8.68,9.156a29.981,29.981,0,0,1-21.908,2.076c-4.256-1.277-8.915-3.93-11.024-8.022a6.71,6.71,0,0,1-.436-5.184l.579-1.516,6.306-.244a13.987,13.987,0,0,0,.1-5.113" transform="translate(198.242 52.447)" fill="#f6b173"/>
      <path id="Trazado_1066531" data-name="Trazado 1066531" d="M301.66,68.483c4.9.968,10.536.47,15.56.826l.569-.453.178.179c1.243,1.384,1.287,3.559,1.867,5.287a24.054,24.054,0,0,0,4.993,8.751,24.567,24.567,0,0,0,10.808,6.888c1.508.443,5.617.445,6.566,1.259a12.884,12.884,0,0,1-.87,7.153l-.113.183a13.986,13.986,0,0,1-.1,5.113l-6.306.244c-7.735-.7-17.378-.85-24.774,1.743-2.708.949-5.244,2.656-7.963,3.449-.937-9.676-.092-20.18,0-29.915.026-3.183.645-7.712-.407-10.707" transform="translate(185.939 42.216)" fill="#d8e7d6"/>
      <path id="Trazado_1066532" data-name="Trazado 1066532" d="M342.254,131.191c.87-.462,2.512-1.694,3.449-1.443,1.563.419,3.215,2.245,4.379,3.362,3.112,2.982,7.028,6.18,9.377,9.8l-.082,5.643c2.78.983,6.564,1.959,9.018,3.546l20.5,7.588.1-.21c.692-2.059.456-25.41-.354-27.483,2.079-1,5.9-.516,8.236-.514l18.7.176c.585,2.289.378,4.865.383,7.221l-.019,12.219c-.031,8.924.59,18.436-.217,27.274a12.771,12.771,0,0,1-1.6,5.531,10.492,10.492,0,0,1-7.033,5.029c-3.676.868-8.438-1.156-11.952-2.3-1.3-.422-2.722-1.185-4.049-.878a3.913,3.913,0,0,0-.5-.7,12.516,12.516,0,0,0-2.4-.954l-6.458-2.6-20.13-8.52c-3.391-1.437-7.122-3.527-10.738-4.153-.66-.731-1.833-.8-2.782-1.044-1.351-.921-3.5-1.227-5.1-1.668l-13.9-3.745c-1.809-.445-5.8-.91-7.224-2.03a10.407,10.407,0,0,1-1.151-1.372,4.579,4.579,0,0,1,.339-3.246l.162-.4a6.944,6.944,0,0,1-1.809-.724,4.029,4.029,0,0,1-1.915-2.89c.752-1.869,1.793-2.014,2.83-3.493l-2.758-2.291a3.359,3.359,0,0,1,0-2.847,4.851,4.851,0,0,1,2.816-1.54l.335-.063.3-.689a5.224,5.224,0,0,1-2.182-2.838,5.19,5.19,0,0,1,1.882-3.256c2.546-.293,5.087.542,7.534,1.154l12.262,3.113,3.97.832c.482-2-1.621-6.112-2.137-8.271Z" transform="translate(195.557 79.961)" fill="#f6b173"/>
      <path id="Trazado_1066533" data-name="Trazado 1066533" d="M312.568,118.114l45.047.016,3.257,13.638c.457,1.861,1.544,4.712,1.2,6.572l.079.323c.516,2.16,2.619,6.272,2.137,8.271l-3.97-.832-12.262-3.112c-2.447-.614-4.988-1.447-7.534-1.154a5.189,5.189,0,0,0-1.882,3.254,5.234,5.234,0,0,0,2.182,2.84l-.3.689-.333.061a4.846,4.846,0,0,0-2.816,1.54,3.351,3.351,0,0,0,0,2.848l2.756,2.291c-1.036,1.477-2.079,1.624-2.83,3.491a4.026,4.026,0,0,0,1.917,2.89,6.984,6.984,0,0,0,1.809.726l-.163.4a4.579,4.579,0,0,0-.339,3.246,10.744,10.744,0,0,0,1.151,1.372c1.431,1.119,5.415,1.586,7.224,2.029l13.9,3.745c1.6.441,3.75.748,5.1,1.668-.412,1.219.137,2.5.417,3.742l2.389,10.009c.349,1.363,1.091,2.908.511,4.258l-1.725.5a48.673,48.673,0,0,0-7.14-.15H349.766c-11.288,0-22.941-.588-34.184.23-4.006-.82-9.569-.1-13.746-.091-1.435-1.675-.359-5.042-2.158-6.831l-.186-.165a2.239,2.239,0,0,0,.265-.984c-.065-2.753-1.356-6.27-1.951-9.005-.782-3.61-1.175-8.076-2.472-11.472a3.373,3.373,0,0,0-1.038-1.319l.236-1.185-.689-.939a3.77,3.77,0,0,0,.281-1.54c-.359-5.541-2.36-11.756-3.6-17.192-.595-2.6-.884-5.742-1.877-8.186a4.877,4.877,0,0,0-1.372-1.783c.758-1.859-.1-3.749-.564-5.661l-1.626-7.633c2.339-1.642,4.309-1.293,7.1-1.387l11.16.086a31.591,31.591,0,0,0,5.181-.112,31.478,31.478,0,0,0,4.039,0" transform="translate(175.739 72.81)" fill="#68727a"/>
      <path id="Trazado_1066534" data-name="Trazado 1066534" d="M287.978,121.667l43.337.021c1.135.656,1.12,1.647,1.489,2.864l-.855,1.561c-4.2.627-9.343.061-13.633.061l-28.15.291a11.877,11.877,0,0,0-1.907-4.406Z" transform="translate(177.521 75.001)" fill="#cbcdc7"/>
      <path id="Trazado_1066535" data-name="Trazado 1066535" d="M312.568,118.114l45.047.016,3.257,13.638c.457,1.861,1.544,4.712,1.2,6.572l.079.323c.516,2.16,2.619,6.272,2.137,8.271l-3.97-.832c.949-2.307-1.007-7.7-1.587-10.171l-3.4-15.508-69.4.21-.844-1.1c2.339-1.642,4.309-1.293,7.1-1.387l11.16.086a31.591,31.591,0,0,0,5.181-.112,31.478,31.478,0,0,0,4.039,0" transform="translate(175.739 72.81)" fill="#153c4f"/>
      <path id="Trazado_1066536" data-name="Trazado 1066536" d="M101.254,82.608c1.334-1.233,1.82-3.121,2.389-4.785,2.47,4.662,9.807,8.071,14.668,9.59a38.07,38.07,0,0,0,9.888,1.571l-.478,9.563c2.646.941,9.728,2.955,11.032,5.2l.228.377.139.263c8.693,1.125,14.769,3.789,20.235,10.85l1.422,1.92,2.066,3.125c-.364,3.131,1.24,7.243,1.836,10.442a102.348,102.348,0,0,1,1.426,11.357c1.109,15.266.769,30.859.832,46.169,1.418,1.675,3.021,3.267,2.916,5.63-.063,1.456-1.233,3.288-1.922,4.571l-.816,1.773-.1,57.416v10.728a13.541,13.541,0,0,1,0,3.125,5.057,5.057,0,0,1-.8.8l-2.594.727a130.734,130.734,0,0,1-21.31,4.694c-19.116,2.064-37.24,1.673-56.348-.116L71.847,275.21l.091-35.825-2.184-.706c-.469,1.29-.773,2.488-1.89,3.369l-12.212-4.1-10.985-3.286-19.189-6.146a81.306,81.306,0,0,1-10.871-3.868A26.331,26.331,0,0,1,1.235,209.185c-3.595-10.693,1.348-20.776,6.042-30.232a351.381,351.381,0,0,1,25.907-43.579c6.335-9.125,13.064-19.517,23.265-24.673,3.031-1.531,6.387-2.124,9.674-2.858a156.349,156.349,0,0,0,16.156-4.033c3.905-3.17,10.163-5.5,14.769-7.55L101.688,82.9Z" transform="translate(0 47.973)" fill="#687b71"/>
      <path id="Trazado_1066537" data-name="Trazado 1066537" d="M75.408,136.907a4.717,4.717,0,0,1,3.154,2.061c-.052,1.9-.323,2.142-1.376,3.647a4.739,4.739,0,0,1-3.013-2.118c-.1-1.818.276-2.1,1.235-3.59" transform="translate(45.713 84.395)" fill="#fefefe"/>
      <path id="Trazado_1066538" data-name="Trazado 1066538" d="M75.415,118.009l.9.28c1.379.522,1.679,1.151,2.257,2.405-.2,1.961-.508,2.118-1.772,3.54a7.877,7.877,0,0,1-1.581-.483,2.712,2.712,0,0,1-1.592-1.966c-.272-1.791.7-2.565,1.785-3.776" transform="translate(45.36 72.746)" fill="#fefefe"/>
      <path id="Trazado_1066539" data-name="Trazado 1066539" d="M39.432,159.5c-.021,1.191.27,4.76-.365,5.561l-13.187-5.37,13.462-21.036Z" transform="translate(15.953 85.471)" fill="#fefefe"/>
      <path id="Trazado_1066540" data-name="Trazado 1066540" d="M82.6,90.675l.218-.031c2.646.941,9.728,2.955,11.032,5.2l.228.377.139.263-.39.3c-1.153.95-1.951,4.2-2.533,5.732l-6.251,16.562L77.4,109.969c-1.319-1.558-2.8-3.608-4.494-4.743l-.063-.378c3.4-3.85,7.791-9.49,9.758-14.173" transform="translate(44.902 55.877)" fill="#a1cfc0"/>
      <path id="Trazado_1066541" data-name="Trazado 1066541" d="M50.9,96.777c3.905-3.17,10.163-5.5,14.769-7.55l20.7,16.494.061.378a81.085,81.085,0,0,1-6.026,5.573l-11.724,10.7Z" transform="translate(31.378 55.003)" fill="#d8e7d6"/>
      <path id="Trazado_1066542" data-name="Trazado 1066542" d="M64.243,82.608c1.334-1.233,1.82-3.121,2.389-4.785,2.47,4.662,9.807,8.071,14.668,9.59a38.07,38.07,0,0,0,9.888,1.571l-.478,9.563-.218.031c-1.967,4.683-6.354,10.323-9.757,14.173l-20.7-16.493L64.678,82.9Z" transform="translate(37.01 47.973)" fill="#f6b173"/>
      <path id="Trazado_1066543" data-name="Trazado 1066543" d="M62.64,82.608c1.334-1.233,1.82-3.121,2.389-4.785,2.47,4.662,9.807,8.071,14.668,9.59a38.07,38.07,0,0,0,9.888,1.571l-.478,9.563-.218.031-2.724-.1c-11.018-.944-16.6-7.807-23.089-15.574Z" transform="translate(38.614 47.973)" fill="#ea593c"/>
      <path id="Trazado_1066544" data-name="Trazado 1066544" d="M34.209,161.182c3.249-5.826,7.5-11.244,11.322-16.712,1.494-2.139,3.614-4.609,4.566-7.023,3.374-8.554,2.234-20.589-1.589-28.727-.519-1.107-3.116-4.828-3.175-5.8a2.412,2.412,0,0,1,.255-.82h.677c5.788,7.279,7.83,17.619,6.831,26.717-.335,3.036-.609,7.461-2.389,9.978l.086,54.5c1.936.752,7.386,2.26,8.412,3.815l-.769.457a114.8,114.8,0,0,1-11.309-4.4c-4.161-1.691-8.436-3.2-12.474-5.163a30.707,30.707,0,0,0-.356-5.989Z" transform="translate(21.088 62.94)" fill="#425a4d"/>
      <path id="Trazado_1066545" data-name="Trazado 1066545" d="M75.516,165.335a98.454,98.454,0,0,1,9.177-16.986,7.394,7.394,0,0,1,4.982-3.22A49.4,49.4,0,0,1,96.883,145l12.928.055,17.679.091c3.045.021,6.325-.2,9.348.129a7.606,7.606,0,0,1,3.495,1.6c1.418,1.676,3.023,3.268,2.918,5.632-.065,1.456-1.233,3.286-1.922,4.57l-.816,1.773-.1,57.418V227a13.542,13.542,0,0,1,0,3.125,5.2,5.2,0,0,1-.8.8l-2.594.726a130.6,130.6,0,0,1-21.31,4.694c-19.116,2.064-37.24,1.675-56.349-.116l-14.116-2.392.091-35.822-2.182-.71c.123-1.7,1.41-4.271,2.033-5.9l6.854-17.141a45.633,45.633,0,0,1,8.713,3.833Z" transform="translate(26.601 89.343)" fill="#153c4f"/>
      <path id="Trazado_1066546" data-name="Trazado 1066546" d="M111.552,149.392l2.979.173.6.926-.312.938c-2.363,1.261-32.72.461-37.956.449a18.915,18.915,0,0,1-5.186-.246l-.233-1.141.723-.908Z" transform="translate(44.042 92.091)" fill="#fefefe"/>
      <path id="Trazado_1066547" data-name="Trazado 1066547" d="M75.516,157.555a8.7,8.7,0,0,1,4.547,1.229,4.41,4.41,0,0,1,1.219,3.495c-.2,2.434-4.746,6.749-6.309,8.687-.43.535-1.345,1.492-1.3,2.234a7.046,7.046,0,0,0,.7,1.311c1.73,1.1,4.436.651,6.5.643l13.952-.039c2.014-.006,4.725-.338,6.653.152a3.393,3.393,0,0,1,1.906,1.864,4.228,4.228,0,0,1-.608,3.121,7.472,7.472,0,0,1-2.339,1.334l.428,1.361c-.367,2.213-.756,3.445-2.64,4.823a5.69,5.69,0,0,1-2,.991l.076.816a3.8,3.8,0,0,1-1.45,3.432,14.966,14.966,0,0,1-4.767,2.544c-5.118,2.055-11.38,3.831-16.918,3.5l-6.582-.988a60.805,60.805,0,0,1-11.913-7.478L52.921,192.2c-2.316.252-5.38-1.227-7.586-1.959l-2.182-.71c.123-1.7,1.41-4.271,2.033-5.9l6.854-17.141a45.635,45.635,0,0,1,8.713,3.833Z" transform="translate(26.601 97.123)" fill="#f6b173"/>
      <path id="Trazado_1066548" data-name="Trazado 1066548" d="M83,177.677a78.377,78.377,0,0,1-11.962,1.036c-1.949.1-4.185.42-6.084-.1l-.223-.931.66-.779,17.534-.04Z" transform="translate(39.902 109.024)" fill="#e6773d"/>
      <path id="Trazado_1066549" data-name="Trazado 1066549" d="M87.4,173.932l-15.35.519a28.871,28.871,0,0,1-6.658-.323L65,173.36l.351-.755c1.532-.679,3.905-.346,5.616-.351a150.075,150.075,0,0,1,16,.317Z" transform="translate(40.066 106.137)" fill="#e6773d"/>
      <path id="Trazado_1066550" data-name="Trazado 1066550" d="M95.428,203.732c3.928-.6,8.418,0,12.432-.149,1.7-.066,3.483-.052,4.966-.994a10.263,10.263,0,0,0,3.034-2.6c2.244-3.108,3.807-7.445,5.567-10.888l11.866-23.115c2.1-4.124,4-8.5,6.422-12.439l-.1,57.418v10.728a13.541,13.541,0,0,1,0,3.125,5.27,5.27,0,0,1-.8.8l-2.594.724a130.267,130.267,0,0,1-21.31,4.694c-19.116,2.066-37.24,1.675-56.349-.115l-14.116-2.392.091-35.824c2.206.732,5.27,2.213,7.586,1.961l1.747-1.607a60.806,60.806,0,0,0,11.913,7.478,6.746,6.746,0,0,0,4.888,3.184c7.364,1.174,15.581-.718,23.05.09Z" transform="translate(27.399 94.652)" fill="#425a4d"/>
      <path id="Trazado_1066551" data-name="Trazado 1066551" d="M75.5,184.675l1.705-.082.42.469c1.149,1.327,1.122,1.895.988,3.579-.959,1.195-1.036,1.119-2.567,1.368A3.747,3.747,0,0,1,74,188.177c.023-1.807.449-2.084,1.5-3.5" transform="translate(45.619 113.791)" fill="#fefefe"/>
      <path id="Trazado_1066552" data-name="Trazado 1066552" d="M390.157,7.9a7.742,7.742,0,0,1,.978,1.335c.28.778,0,3.15,0,4.1L391,29.168l.089,54.691.034,14.008a41.491,41.491,0,0,1-.084,6.731,5.247,5.247,0,0,1-.432,1.23c1.051,2.994.432,7.523.407,10.707-.089,9.734-.934,20.239,0,29.914-.939,1.434-2.505,2.384-3.745,3.566a34.162,34.162,0,0,0-4.343,5.2,46.117,46.117,0,0,0-3.986,7.216c-.747,1.647-1.317,3.723-2.758,4.874l-.157-.828-171.137.084a8.289,8.289,0,0,0,.461-4.822,4.575,4.575,0,0,0-1.949-1.689c-2.766-1.243-6.506.551-9.146,1.5-6.152,2.337-13.255,4.872-19.869,5.286-2.363.147-5.827.677-7.722-.983.37-2.463,2.077-4.5,2.779-6.862.433-1.456.661-3.964-.17-5.289-.986-1.573-2.5-1.667-4.151-1.93l-4-5.405a32.277,32.277,0,0,1-3.778-4.806c1.3-4.313.687-9.927.687-14.419l-.239-23.265,13.006-3.718c2.522-.626,5.121-1.295,7.686-1.717,1.486-.244,3.422-.22,4.717-.957l.391-2.42.024-77.24,207.262.07c0-2.969.487-7.3-.723-9.988" transform="translate(96.995 4.873)" fill="#ebfcff"/>
      <path id="Trazado_1066553" data-name="Trazado 1066553" d="M277.127,33.039l.824,1.722-5.991,2.1-1.01-.847.558-1.157Z" transform="translate(167.025 20.367)" fill="#0d6d6d"/>
      <path id="Trazado_1066554" data-name="Trazado 1066554" d="M192.493,81.464l1.668-.236.018,15.11c0,1.159-.32,3.621,0,4.652a2.192,2.192,0,0,0,.491.574,4.282,4.282,0,0,0,1.091.443v1.007c-1.209.684-3.415.352-4.8.314l-.5-.808c.781-1.266,1.046-.482,1.807-1.154.482-.428.221-17.752.22-19.9" transform="translate(117.411 50.072)" fill="#0d6d6d"/>
      <path id="Trazado_1066555" data-name="Trazado 1066555" d="M241.214,28.776a19.666,19.666,0,0,1,1.545,1.549,41.526,41.526,0,0,1-5.5,3.1,42.151,42.151,0,0,1-6.3,3.87l-11.145,6.48L207.9,50.8l-1.358-1.657,12.587-7.272,15.419-9.007Z" transform="translate(127.322 17.739)" fill="#0d6d6d"/>
      <path id="Trazado_1066556" data-name="Trazado 1066556" d="M236.031,27.763l17.525,8.562c3.188,1.576,6.808,3.023,9.72,5.032,1.87.2,4.987,2.24,6.762,3.105a9.9,9.9,0,0,0,1.712.832c1.211.034,4.285-1.579,5.643-2.042l16.153-5.145-.556,1.156,1.01.847-18.048,5.683c-1.216.372-3.742,1.511-4.882,1.368-1.232-.155-3.618-1.7-4.84-2.271L235.2,29.7Z" transform="translate(144.987 17.114)" fill="#0d6d6d"/>
      <path id="Trazado_1066557" data-name="Trazado 1066557" d="M212.355,43.961l.293,1.188a6.443,6.443,0,0,1-1.13,4.45,6.72,6.72,0,0,1-4.82,2.784,6.5,6.5,0,0,1-7.381-6.02,6.988,6.988,0,0,1,2.161-4.812,6.742,6.742,0,0,1,4.7-1.667A6.622,6.622,0,0,1,211,42.3Z" transform="translate(122.867 24.581)" fill="#669100"/>
      <path id="Trazado_1066558" data-name="Trazado 1066558" d="M228.337,32.686a6.753,6.753,0,0,1-.9-3.1,7.985,7.985,0,0,1,2.527-5.595,6.431,6.431,0,0,1,5.1-1.523,6.686,6.686,0,0,1,4.482,2.46c1.523,1.856,1.473,3.867,1.274,6.121l-.831,1.941a6.941,6.941,0,0,1-4.757,3.089,6.666,6.666,0,0,1-4.684-1.2l-.666-.645a19.669,19.669,0,0,0-1.545-1.549" transform="translate(140.199 13.829)" fill="#669100"/>
      <path id="Trazado_1066559" data-name="Trazado 1066559" d="M274.841,36.734c-.278-2.625-.462-4.668,1.254-6.87a6.984,6.984,0,0,1,4.793-2.766,7.582,7.582,0,0,1,6.291,1.953,7.03,7.03,0,0,1,2.32,5.124A6.717,6.717,0,0,1,287.42,39.6a7.431,7.431,0,0,1-5.622,2.187,7.106,7.106,0,0,1-5.194-2.155l-.939-1.177Z" transform="translate(169.312 16.672)" fill="#669100"/>
      <path id="Trazado_1066560" data-name="Trazado 1066560" d="M195.212,118.024l-8.519,0-.42-1.007.42-.726,8.523-.036,0-24.594c-2.619.018-6.188.422-8.664-.254l-.2-1.039.558-.619,8.266-.05.01-23.2-8.494-.07-.348-.967.566-.687,8.309-.05-.011-23.864c-2.822.031-6.214.4-8.952-.168l-.2-1,.637-.676,8.5,0,.105-16.795.787-.307.685.6.112,95.267Z" transform="translate(114.693 13.512)" fill="#0d6d6d"/>
      <path id="Trazado_1066561" data-name="Trazado 1066561" d="M268.215,70.638l27.468.031c.019,5.506.968,36.827-.692,39.33l-26.738-.008Z" transform="translate(165.339 43.544)" fill="#669100"/>
      <path id="Trazado_1066562" data-name="Trazado 1066562" d="M199.284,67.633l26.587-.044.023,44.236-26.641.058Z" transform="translate(122.828 41.665)" fill="#ea593c"/>
      <path id="Trazado_1066563" data-name="Trazado 1066563" d="M157.794,70.637,170.8,66.919c2.523-.627,5.121-1.295,7.686-1.717,1.486-.246,3.424-.221,4.718-.957l.39-2.421-.04,39.386c.014,5.575-.643,11.954.107,17.424a10.208,10.208,0,0,0,2.615,5.247c2.189,2.333,5.014,3.449,7.982,4.427-6.152,2.339-13.256,4.874-19.871,5.286-2.363.149-5.826.679-7.722-.983.37-2.462,2.079-4.494,2.78-6.86.432-1.456.66-3.965-.171-5.291-.986-1.571-2.5-1.665-4.151-1.928l-4-5.407a32.262,32.262,0,0,1-3.778-4.8c1.3-4.313.687-9.927.689-14.419Z" transform="translate(96.995 38.111)" fill="#e6f0cc"/>
      <path id="Trazado_1066564" data-name="Trazado 1066564" d="M222.012,57.9l27.405-.071.094,60.038-27.476.036Z" transform="translate(136.857 35.645)" fill="#ef9034"/>
      <path id="Trazado_1066565" data-name="Trazado 1066565" d="M245.184,48.722l26.793.016c.925,1.646.225,13.651.22,16.151l-.01,58.591-26.954.013Z" transform="translate(151.142 30.034)" fill="#669100"/>
      <path id="Trazado_1066566" data-name="Trazado 1066566" d="M133.662,91.582c3.883-.776,8.43-.352,12.421-.357l23.438,0,8.116,0a16.191,16.191,0,0,1,3.252,0,14.919,14.919,0,0,1,2.633,1.723l16.25,10.845,1.033-3.317c1.649.263,3.163.356,4.149,1.928.832,1.325.6,3.833.171,5.289-.7,2.368-2.408,4.4-2.78,6.862,1.9,1.66,5.359,1.13,7.722.983,6.614-.412,13.719-2.948,19.871-5.286,2.638-.944,6.38-2.74,9.146-1.5a4.558,4.558,0,0,1,1.948,1.688,8.263,8.263,0,0,1-.461,4.822l171.139-.084.157.829c.378,1.917-.816,4.075-1.435,5.876-.708,2.074-1.262,4.225-1.809,6.351-.427,1.681-.593,4.364-1.385,5.826a3.813,3.813,0,0,1-.624.723c-2.792.094-4.762-.257-7.1,1.387l1.626,7.633c.462,1.911,1.322,3.8.566,5.661a4.89,4.89,0,0,1,1.371,1.783c.992,2.444,1.282,5.59,1.877,8.186,1.238,5.436,3.239,11.651,3.6,17.192a3.775,3.775,0,0,1-.281,1.54l.689.939-.236,1.185a3.38,3.38,0,0,1,1.038,1.317c1.3,3.4,1.691,7.864,2.472,11.474.595,2.733,1.886,6.251,1.951,9.005a2.244,2.244,0,0,1-.265.984l.186.165c1.8,1.788.723,5.156,2.158,6.829,4.177,0,9.741-.727,13.746.092,1.621,2.3.7,20.774.693,25.218,0,2.085-.491,4.993.721,6.736a2.574,2.574,0,0,1,.576,1.464c.708,3.045-.59,7.261-1.046,10.366L427.112,279.5l-6.737,49.814-2.522,22.877c-.294,2.978.034,7.777-1.327,10.34l.286.883-.517.708L384.973,364,400.648,352.6c2.565-1.869,6.108-3.934,8.124-6.383,1.06-1.288,1.626-3.551,2.156-5.129a12.126,12.126,0,0,0-1.92-4.516,7.5,7.5,0,0,0-5.137-2.965,6.568,6.568,0,0,0-3.69.718c-2.363,1.376-4.384,3.9-6.27,5.871-4.718,4.938-9.152,10.479-14.175,15.072l-.288.26a3.518,3.518,0,0,1-.575-1.62l-.38-2.939-.05-12.752c-3.923-.5-6.477-1.3-9.458-3.984a37.725,37.725,0,0,1-8.1,1.806c-2-2.092-4.086-4.534-7.2-4.655a10.8,10.8,0,0,0-7.356,3.052,7.381,7.381,0,0,0-2.383,5.249,6.369,6.369,0,0,0,.676,2.465l.105.242c.876,1.975,3.076,3.44,4.723,4.767-5.994,5.672-12.031,10.507-19.719,13.7-2.769,1.152-5.936,1.9-8.582,3.222-6.5.5-13.1.309-19.62.3-5.087,0-10.453.348-15.458-.614-4.216-2.316-8.567-3.711-12.618-6.45a47.821,47.821,0,0,1-16.184-18.448c-6.073,4.411-12.246,5.079-19.554,3.926l-5.755-.955-.27-.158-.776-.566-.162.079c-3.719,4.752-6.661,10.895-9.689,16.137l.042-38.373-1.408.191-.247,38.2c-3.812-5.963-7.51-13.1-12.193-18.406l-.635,1.225c-8.372.112-19.063.3-25.619-5.7-7.782,5.5-15.243,10.34-24.99,11.538l0,17.933-.807.207c-5.093-.679-11.023-.1-16.193-.1l-35.872.071-.346-24.856-.491-74.444,2.594-.726a5.127,5.127,0,0,0,.8-.8,13.541,13.541,0,0,0,0-3.125V249.448l.1-57.418.816-1.773c.689-1.283,1.859-3.112,1.922-4.57.105-2.363-1.5-3.955-2.916-5.632-.063-15.309.276-30.9-.832-46.169a102.351,102.351,0,0,0-1.426-11.357c-.6-3.2-2.2-7.311-1.836-10.442l-2.066-3.123a170.181,170.181,0,0,1,23.6-12.468c3.524-1.558,7.584-2.67,10.88-4.584Z" transform="translate(61.313 56.166)" fill="#e6f0cc"/>
      <path id="Trazado_1066567" data-name="Trazado 1066567" d="M237.664,181.871c10.365-1.993,20.152-8.839,26.6-17.078,1.988-2.541,3.38-5.691,5.6-7.99l.272-.278c-3.275,15.156-11.037,26.763-24.032,35.169-4.162,2.691-8.9,4.636-13.387,6.713.95-5.593,3.162-11.157,4.948-16.536" transform="translate(143.456 96.488)" fill="#425a4d"/>
      <path id="Trazado_1066568" data-name="Trazado 1066568" d="M180.684,257.218l.394-9.49c.318-6,.975-12.332,5.808-16.539,4.419-3.85,10.019-4.041,15.545-3.729l.066,10.775.1.538a50.614,50.614,0,0,0,4.605,16.119c-6.073,4.41-12.246,5.079-19.554,3.926l-5.755-.955-.27-.158-.776-.566Z" transform="translate(111.381 140.153)" fill="#425a4d"/>
      <path id="Trazado_1066569" data-name="Trazado 1066569" d="M202.438,234.086l.1.538-.011,1.482L187.44,248.768c-1.452,1.238-4.14,4.23-5.881,4.788l-.776-.566a6.655,6.655,0,0,1,.425-1.329c.831-1.2,2.982-2.62,4.114-3.616,5.3-4.66,10.992-10.508,17.115-13.96" transform="translate(111.443 144.3)" fill="#153c4f"/>
      <path id="Trazado_1066570" data-name="Trazado 1066570" d="M202.237,234.419a50.635,50.635,0,0,0,4.605,16.121c-6.073,4.41-12.246,5.077-19.554,3.925l-5.755-.955-.27-.158c1.739-.558,4.429-3.55,5.879-4.788l15.083-12.66Z" transform="translate(111.739 144.505)" fill="#425a4d"/>
      <path id="Trazado_1066571" data-name="Trazado 1066571" d="M289.951,127.214A4.855,4.855,0,0,1,291.321,129c.992,2.444,1.283,5.59,1.878,8.186,1.238,5.436,3.238,11.651,3.6,17.192a3.8,3.8,0,0,1-.28,1.54l.689.939-.236,1.185a3.378,3.378,0,0,1,1.036,1.317c1.3,3.4,1.691,7.864,2.472,11.473.595,2.733,1.888,6.251,1.951,9a2.234,2.234,0,0,1-.265.984,12.074,12.074,0,0,1-4.389,1.261,14.923,14.923,0,0,1-11.436-3.041,15.1,15.1,0,0,1-5.475-9.687c-.579-4.537,1.2-9.857,2.261-14.276l4.861-19.363c.682-2.412,2.324-5.75,2.009-8.228Z" transform="translate(173.066 78.42)" fill="#f6b173"/>
      <path id="Trazado_1066572" data-name="Trazado 1066572" d="M293.75,144.97l.689.939-.236,1.185c-2.743.078-5.894.478-8.587-.021l-.378-.845.6-.831,7.549-.373Z" transform="translate(175.832 89.365)" fill="#d13e0f"/>
      <path id="Trazado_1066573" data-name="Trazado 1066573" d="M142.186,250.838c-5.3-1.961-13.381-5.528-15.872-10.911-.638-1.374-.244-2.15.223-3.433a4.637,4.637,0,0,1,4.093-1.109c3.7.585,7.2,5.139,9.076,8.061l2.363,4.1.087-15.807c0-1.581.349-4.106,0-5.594-.158-.672-1.5-2.1-1.9-2.813-2.035-3.677-4.418-11.493-.874-14.884a3.144,3.144,0,0,1,2.168-1.106,3.735,3.735,0,0,1,3.07,1.356c1.925,2.122,1.991,6.039,1.681,8.737a20.97,20.97,0,0,1-2.21,6.787c-1.455,2.767-.769,8.726-.587,11.861,2.331-4.465,5.7-12.442,11.026-14.089a4.88,4.88,0,0,1,4.09.4,4.2,4.2,0,0,1,1.322,1.591,5.73,5.73,0,0,1-1.574,4.623c-2.793,3.437-7.311,5.569-11.226,7.479-.645.315-3.558,1.379-3.825,1.744-.425.582.032,8.389.037,9.708,1.439-3.207,3.007-6.028,6.466-7.337a7.4,7.4,0,0,1,5.084-.1c.849.383,1.01.815,1.456,1.579a6.758,6.758,0,0,1-2.775,5.063c-2.643,2.248-6.424,3.438-9.789,4.018l-.689.663.052.5.154,19.923c5.649-6.626,10.646-11.289,18.891-14.42,2.244-.23,6.076-1.057,7.951.445.6.483.556,1,.7,1.722a7.367,7.367,0,0,1-2.56,3.246c-7.78,5.5-15.241,10.34-24.99,11.538l0,17.933-.805.209c-1.14-5.6-.4-12.492-.257-18.235-5.882-1.458-11.635-3.577-16.428-7.426-1.828-1.468-5.582-4.618-5.734-7.046-.11-1.744.446-2.312,1.589-3.477a7.567,7.567,0,0,1,3-.354c7.55,1.112,13.045,9.649,17.254,15.243Z" transform="translate(74.018 127.811)" fill="#f6ba4d"/>
      <path id="Trazado_1066574" data-name="Trazado 1066574" d="M146.917,247.939a16.2,16.2,0,0,1-1.106-13.3c1.372-4.138,3.918-8.118,7.966-10.069a20.573,20.573,0,0,1,15.516-.642,16.839,16.839,0,0,1,9.729,8.7c3.584,7.786-.115,17.044.241,25.2l-.635,1.225c-8.37.112-19.061.3-25.619-5.7a7.354,7.354,0,0,0,2.56-3.246c-.147-.723-.1-1.24-.7-1.721-1.877-1.5-5.708-.674-7.951-.445" transform="translate(89.305 137.293)" fill="#425a4d"/>
      <path id="Trazado_1066575" data-name="Trazado 1066575" d="M164.708,178.845c27.657,5.666,56.5,12.807,81.771,25.648,4.051,2.059,8.444,4.078,11.886,7.1l-17.952,2.719c-29.414,2.176-54.565-17.4-75.7-35.463" transform="translate(101.533 110.247)" fill="#425a4d"/>
      <path id="Trazado_1066576" data-name="Trazado 1066576" d="M168.73,96.906c1.649.263,3.165.357,4.151,1.928.831,1.325.6,3.833.17,5.291-.7,2.366-2.409,4.4-2.779,6.86,1.894,1.662,5.359,1.132,7.722.983,6.614-.412,13.717-2.947,19.869-5.286,2.64-.944,6.38-2.74,9.146-1.5a4.572,4.572,0,0,1,1.949,1.688,8.283,8.283,0,0,1-.461,4.823,42.8,42.8,0,0,1-5.522,9.22c-5.163,6.109-13.316,9.812-20.732,12.346L163.816,138.4l-6.891-7.528c-1.584-1.81-3.259-4.086-5.431-5.192,2.6-3.818,4.182-8.519,6.681-12.49,2.861-4.549,6.647-8.425,9.522-12.965Z" transform="translate(93.387 59.737)" fill="#f6b173"/>
      <path id="Trazado_1066577" data-name="Trazado 1066577" d="M188.685,106.522l1.1.023.262.917-.225.385c-2.237,3.386-16.559,6.98-20.526,7.824a3.175,3.175,0,0,1-1-.564l.312-1.03c2.583-1.442,6.231-2.016,9.089-2.926a69.848,69.848,0,0,0,10.992-4.628" transform="translate(103.742 65.665)" fill="#e6773d"/>
      <path id="Trazado_1066578" data-name="Trazado 1066578" d="M190.772,109.207c.671.217.884.658,1.327,1.186l-.149.873a31.335,31.335,0,0,1-5.874,2.919,96.047,96.047,0,0,1-17.034,5.486l-.9-.364-.175-1.052c2.145-1.846,7.385-2.644,10.184-3.652a99.714,99.714,0,0,0,12.618-5.4" transform="translate(103.544 67.32)" fill="#e6773d"/>
      <path id="Trazado_1066579" data-name="Trazado 1066579" d="M231.756,212.307a50.005,50.005,0,0,1,23.285-28.9c10.638-5.808,22.706-6.529,34.472-4.607-5.706,14.44-13.79,25.611-28.427,31.928-8.642,3.729-17.789,3.673-27,3.037l-.3.286a3.639,3.639,0,0,1-2.323-1.447Z" transform="translate(142.681 109.631)" fill="#ef9034"/>
      <path id="Trazado_1066580" data-name="Trazado 1066580" d="M237.367,205.8a109.886,109.886,0,0,1,45.372-25.74l.873.26.291.842c-1.131,1.477-13.972,5.876-16.612,7.1a118.894,118.894,0,0,0-28.112,18.573,53.593,53.593,0,0,0-5.1,5.556l-.3.284a3.639,3.639,0,0,1-2.323-1.447l.3-.3a44.881,44.881,0,0,0,5.611-5.135" transform="translate(142.682 110.999)" fill="#d13e0f"/>
      <path id="Trazado_1066581" data-name="Trazado 1066581" d="M180.341,249.859l-4.854-4.288c-6.206-6.482-12.429-12.471-12.173-22.108A22.276,22.276,0,0,1,170,208.632c4.316-3.968,9.194-5.3,14.928-5.076a19.134,19.134,0,0,1,13.3,5.934c3.383,3.723,4.35,7.744,4,12.629-.537,7.453-7.116,14.367-12,19.493-2.593,2.717-5.176,5.449-8.019,7.909l-.457.147Z" transform="translate(100.669 125.466)" fill="#4d6d00"/>
      <path id="Trazado_1066582" data-name="Trazado 1066582" d="M173.845,245.967l.393-22.881c.032-3.938-.44-8.738.33-12.555l1.093-.685.891.577-.841,35.206-.457.147Z" transform="translate(107.165 129.358)" fill="#153c4f"/>
      <path id="Trazado_1066583" data-name="Trazado 1066583" d="M165.8,179.341c23.028-5.981,49.723-7.591,71.009,4.932,8.564,5.038,15.912,11.6,21.015,20.2,1.54,2.6,2.572,5.533,4.233,8.029l.116.758-.226,2.965-3.159-2.148c-3.441-3.018-7.836-5.037-11.887-7.1-25.267-12.841-54.112-19.982-81.771-25.648l-1.049-.858-.053-.575Z" transform="translate(101.112 107.761)" fill="#425a4d"/>
    </g>
  </g>
  <g id="Grupo_1210875" data-name="Grupo 1210875" transform="translate(265.137 287.103)">
    <g id="Grupo_1210874" data-name="Grupo 1210874" clip-path="url(#clip-path-2)">
      <rect id="Rectángulo_402429" data-name="Rectángulo 402429" width="61.95" height="104.453" transform="translate(-9.565 34.208) rotate(-74.378)" fill="url(#linear-gradient)"/>
    </g>
  </g>
  <g id="Grupo_1210877" data-name="Grupo 1210877">
    <g id="Grupo_1210876" data-name="Grupo 1210876" clip-path="url(#clip-path)">
      <path id="Trazado_1066585" data-name="Trazado 1066585" d="M235.4,205.79c-9.49-2.069-17.653-6.343-23.508-14.333-8.5-11.6-8.367-29.658-6.207-43.306,14.561,6.067,27.861,15.526,34.078,30.47l.768,11.781c-.55,4.335-.784,9.943-2.911,13.811l-.09.285-1.768.537Z" transform="translate(126.03 91.326)" fill="#ef9034"/>
      <path id="Trazado_1066586" data-name="Trazado 1066586" d="M233.22,202.4c-.824-3.758-2.641-7.282-4.187-10.788a226.984,226.984,0,0,0-11.412-22.921c-2.9-4.966-6.4-9.788-9.049-14.853.31-.918.381-.91,1.144-1.418,1.709.994,2.866,3.774,3.943,5.456,3.643,5.691,6.784,11.593,9.951,17.558,4.4,8.286,8.784,17.136,11.469,26.146l-.09.285Z" transform="translate(128.573 93.959)" fill="#d13e0f"/>
      <path id="Trazado_1066587" data-name="Trazado 1066587" d="M263.979,241.29c-1.746-1.828-3.553-3.343-4.414-5.784a6.538,6.538,0,0,1,2.531-4.848,7.559,7.559,0,0,1,5.452-1.587c4.762.6,12.279,10.028,15.578,13.564l-.021-12.471c-4.949-1.448-8.236-4.027-12.075-7.322-1.408-1.209-3.2-2.635-4.06-4.295a5.155,5.155,0,0,1-.286-2.636,4.875,4.875,0,0,1,2.678-3.018,4.627,4.627,0,0,1,3.93.276c3.537,1.915,7.09,7.172,9.634,10.242l-.018-12.279c-4.172-1.392-9.532-4.322-11.965-8.169-.246-1.464-.407-2.612.538-3.9a3.215,3.215,0,0,1,2.247-1.565,5.11,5.11,0,0,1,4.164,1.267,59.029,59.029,0,0,1,5.16,5.906c.014-1.885.582-6.007.063-7.657-.356-1.13-1.62-2.514-2.169-3.661-1.387-2.9-2.21-8.11.317-10.618a4.29,4.29,0,0,1,2.522-1.177,4.6,4.6,0,0,1,3.21,2.185c1.23,2,.566,5.767-.055,7.925a9.961,9.961,0,0,1-2.767,4.621l-.057,8.212c2.035-2.344,5.21-6.8,8.5-7.222a4.133,4.133,0,0,1,3.11,1.112,3.9,3.9,0,0,1,1.308,2.388,4.7,4.7,0,0,1-1.652,3.319,31.23,31.23,0,0,1-7.919,5.717,20.916,20.916,0,0,0-3.113,1.327c-.3.238-.3.774-.312,1.1l.019,10.951c2.033-2.691,6.86-9.867,10.45-10.449a5.537,5.537,0,0,1,4.119,1.141,4.067,4.067,0,0,1,1.385,3.277c-.933,3.792-7.091,8.131-10.381,10.121l-5.462,2.914-.018,12.843c3.063-3.808,9.261-13.282,14.244-13.732a7.329,7.329,0,0,1,5.465,1.414,6.474,6.474,0,0,1,2.334,4.287,5.723,5.723,0,0,1-1.7,4.586,85.108,85.108,0,0,1-6.944,6.113,88.9,88.9,0,0,1-8.045,6.613c-1.183.79-4.429,1.5-5.148,2.2,0,0-.006.829-.006.874l-.081,13.121.055,1.195,11.226-11.4c1.7-1.754,3.6-4.221,5.7-5.48a8.214,8.214,0,0,1,4.271-1.03,7.551,7.551,0,0,1,5.126,2.418,6.792,6.792,0,0,1,1.83,5.276c-.236,4.756-5.795,8.477-9.088,11.352-4.069,3.559-9.24,9.3-14.276,11.01a24.951,24.951,0,0,1-4.665.672c0,5.575.493,11.758-.184,17.26a3.525,3.525,0,0,1-.575-1.62l-.38-2.939-.05-12.752c-3.923-.5-6.477-1.3-9.458-3.984a66.074,66.074,0,0,0-5.341-4.377l-8.081-7.324a32.287,32.287,0,0,1-5.077-4.893,7.052,7.052,0,0,1-1.3-5.638,7.252,7.252,0,0,1,3.38-4.977c2.518-1.625,4.51-1.342,7.335-.757,7.208,4.563,12.106,12.316,18.6,17.69l-.183-13.384a39.042,39.042,0,0,1-5.215-1.941c-5.045-2.79-9.686-7.712-13.939-11.593" transform="translate(156.496 111.919)" fill="#80b500"/>
      <path id="Trazado_1066588" data-name="Trazado 1066588" d="M228.657,189.023c-1-2.619,1.133-8.338,1.946-11.053,6.53-21.806,26.736-39.2,46.148-49.643,2.913,14.338,2.7,31.435-1,45.58l-.272.278c-2.216,2.3-3.606,5.449-5.6,7.988-6.451,8.241-16.239,15.086-26.6,17.079-1.785,5.378-4,10.943-4.948,16.536l-2.03,27.339a3.642,3.642,0,0,0,2.324,1.447c-2.053,2.748-2.4,4.364-2.961,7.672l-4.157-.108-2.549.006-3.584.008a35.259,35.259,0,0,0-.157-7.274l.225-2.965-.116-.758c.318-7.858-1.133-15.384-1.733-23.146l.36-.757,1.768-.537.092-.285c2.126-3.868,2.36-9.476,2.911-13.811l-.769-11.781Z" transform="translate(137.835 79.106)" fill="#4d6d00"/>
      <path id="Trazado_1066589" data-name="Trazado 1066589" d="M240.778,195.99c5.982-19.008,13.968-37.885,24.942-54.581,1.563-2.378,3.548-5.968,5.924-7.5l.655.372a5.4,5.4,0,0,1,.294,1.078,11.668,11.668,0,0,1-1.553,2.43l-4.124,6.044c-10.4,16.1-17.652,33.852-23.631,51.983-1.786,5.378-4,10.943-4.948,16.536l-2.03,27.339a3.643,3.643,0,0,0,2.323,1.447c-2.053,2.75-2.4,4.364-2.961,7.672l-4.156-.108-2.549.006-3.585.008a35.149,35.149,0,0,0-.157-7.274l.226-2.965-.116-.758c.317-7.858-1.133-15.384-1.733-23.146l.36-.755,1.768-.538.09-.283c2.127-3.87,2.362-9.477,2.911-13.811l-.768-11.782.7-1.818.113.238c1.789,3.868,1.7,7.225,6.312,8.936a28.019,28.019,0,0,0,5.695,1.233" transform="translate(137.835 82.546)" fill="#153c4f"/>
      <path id="Trazado_1066590" data-name="Trazado 1066590" d="M226.994,165.876l.113.238c1.791,3.868,1.7,7.225,6.314,8.936a28.031,28.031,0,0,0,5.693,1.233l-4.877,16.99c-3.205-3.952-5.208-9.16-7.171-13.8l-.769-11.781Z" transform="translate(139.499 102.253)" fill="#425a4d"/>
      <path id="Trazado_1066591" data-name="Trazado 1066591" d="M228.73,174.289c1.962,4.636,3.965,9.844,7.171,13.8l-1.764,20.606c-.4,4.909-.575,10.583-2.625,15.11l-2.548.006-3.585.008a35.15,35.15,0,0,0-.157-7.274l.226-2.965-.116-.758c.317-7.856-1.133-15.382-1.733-23.144l.36-.757,1.767-.537.092-.284c2.127-3.868,2.362-9.477,2.911-13.811" transform="translate(137.836 107.439)" fill="#d8e7d6"/>
      <path id="Trazado_1066592" data-name="Trazado 1066592" d="M225.727,183.009c3.129,10.913,3.105,24.088,3.236,35.428l-3.584.008a35.259,35.259,0,0,0-.157-7.274l.225-2.966-.116-.756c.318-7.858-1.133-15.384-1.733-23.146l.36-.757Z" transform="translate(137.835 112.814)" fill="#153c4f"/>
      <path id="Trazado_1066593" data-name="Trazado 1066593" d="M247.123,204.943l2.549-.006,4.156.11,11.524.013c4.99-.015,9.854-.579,14.133,2.567,8.672,4.55,14.454,11.949,18.84,20.506l3.215,8c-2.827-.584-4.817-.868-7.337.758a7.263,7.263,0,0,0-3.38,4.975,7.053,7.053,0,0,0,1.3,5.64,32.3,32.3,0,0,0,5.079,4.893l8.081,7.324a66.368,66.368,0,0,1,5.341,4.377,37.746,37.746,0,0,1-8.1,1.806c-2-2.093-4.086-4.534-7.2-4.655a10.81,10.81,0,0,0-7.358,3.05,7.393,7.393,0,0,0-2.383,5.25,6.38,6.38,0,0,0,.677,2.465l.1.242c.876,1.974,3.075,3.44,4.723,4.767-5.994,5.672-12.033,10.507-19.719,13.7-2.769,1.151-5.937,1.9-8.582,3.222-6.5.5-13.1.307-19.622.3-5.085,0-10.452.348-15.456-.614-4.216-2.318-8.567-3.711-12.618-6.45a47.821,47.821,0,0,1-16.184-18.448,50.584,50.584,0,0,1-4.605-16.119l-.1-.538-.066-10.777c1.07-9.977,3.724-19.755,11.042-27.071,10.9-10.9,24.353-9.2,38.358-9.282Z" transform="translate(119.675 126.308)" fill="#f6ba4d"/>
      <path id="Trazado_1066594" data-name="Trazado 1066594" d="M271.494,206.586c8.672,4.55,14.454,11.949,18.84,20.506l3.215,8c-2.827-.584-4.817-.868-7.337.758a7.263,7.263,0,0,0-3.38,4.975,7.06,7.06,0,0,0,1.3,5.64,32.3,32.3,0,0,0,5.079,4.893l8.081,7.324a66.373,66.373,0,0,1,5.341,4.377,37.743,37.743,0,0,1-8.1,1.806c-2-2.093-4.086-4.534-7.2-4.655a10.8,10.8,0,0,0-7.358,3.05,7.4,7.4,0,0,0-2.383,5.25,6.38,6.38,0,0,0,.677,2.465l.105.242c.876,1.974,3.074,3.44,4.723,4.767-5.994,5.672-12.033,10.507-19.719,13.7-2.769,1.151-5.937,1.9-8.582,3.222-6.5.5-13.1.307-19.622.3-5.085,0-10.452.348-15.456-.614-4.216-2.318-8.567-3.711-12.618-6.45,2.661-.506,6.133.152,8.865.249,10.2.367,19.906.262,29.647-3.257,13.405-4.843,25.373-14.6,31.424-27.67,5.617-12.133,6.8-27.94.58-40.063a24.719,24.719,0,0,0-3.31-4.9c-.981-1.148-2.245-2.25-2.746-3.7Z" transform="translate(127.665 127.348)" fill="#ef9034"/>
      <path id="Trazado_1066595" data-name="Trazado 1066595" d="M133.662,91.582c3.883-.776,8.43-.352,12.421-.357l23.438,0,8.116,0a16.191,16.191,0,0,1,3.252,0,14.919,14.919,0,0,1,2.633,1.723l16.25,10.845c-2.877,4.541-6.663,8.415-9.524,12.965-2.5,3.97-4.08,8.672-6.679,12.489l.251.38c4.028,5.973,9.959,11.44,14.818,16.821l-35.082,34.167-11.2,10.927c-2.8,2.722-5.538,5.588-8.876,7.655a28.1,28.1,0,0,1-14.963,4.208,24.952,24.952,0,0,1-17.821-7.883,36.134,36.134,0,0,1-4.078-5.265c.689-1.283,1.859-3.112,1.922-4.57.105-2.363-1.5-3.955-2.916-5.632-.063-15.309.276-30.9-.832-46.169a102.351,102.351,0,0,0-1.426-11.357c-.6-3.2-2.2-7.311-1.836-10.442l-2.066-3.123a170.181,170.181,0,0,1,23.6-12.468c3.524-1.558,7.584-2.67,10.88-4.584Z" transform="translate(61.313 56.166)" fill="#425a4d"/>
      <path id="Trazado_1066596" data-name="Trazado 1066596" d="M133.662,91.582c3.883-.776,8.43-.352,12.421-.357l23.438,0,8.116,0a16.191,16.191,0,0,1,3.252,0,14.919,14.919,0,0,1,2.633,1.723l16.25,10.845c-2.877,4.541-6.663,8.415-9.524,12.965-2.5,3.97-4.08,8.672-6.679,12.489-1.167-.708-2.423-2.709-3.327-3.805l-47.97,35.568-30.745-48.923-2.066-3.123a170.181,170.181,0,0,1,23.6-12.468c3.524-1.558,7.584-2.67,10.88-4.584Z" transform="translate(61.313 56.166)" fill="#d8e7d6"/>
    </g>
  </g>
</svg>
