<svg id="Grupo_1210346" data-name="Grupo 1210346" xmlns="http://www.w3.org/2000/svg" xmlns:xlink="http://www.w3.org/1999/xlink" width="389.051" height="361.872" viewBox="0 0 389.051 361.872">
  <defs>
    <clipPath id="clip-path">
      <rect id="Rectángulo_401837" data-name="Rectángulo 401837" width="389.051" height="361.872" fill="none"/>
    </clipPath>
    <clipPath id="clip-path-3">
      <rect id="Rectángulo_401830" data-name="Rectángulo 401830" width="5.382" height="4.145" fill="none"/>
    </clipPath>
  </defs>
  <g id="Grupo_1210345" data-name="Grupo 1210345" clip-path="url(#clip-path)">
    <g id="Grupo_1210344" data-name="Grupo 1210344">
      <g id="Grupo_1210343" data-name="Grupo 1210343" clip-path="url(#clip-path)">
        <path id="Trazado_1064928" data-name="Trazado 1064928" d="M343.38,30.942c-8.108,6.59-19.631,13.906-29.12,17.057l14.1,2.656-58.231,68.665-116.063,33.4L16.713,299.2l108.195-.039,55.128-88.509L290.484,145.03l42.9-91.411,9.138,11.061c-1.828-9.831-.987-23.451.861-33.738" transform="translate(33.44 61.909)" fill="#ffd699"/>
        <path id="Trazado_1064929" data-name="Trazado 1064929" d="M24.516,105.977S18.227,94.7,16.7,92.3s-5.519-11.922-5.66-12.3,2.746-4.882,2.1-5.038-1.359,2.377-2.047,2.077S8.393,70.651,8,70.951c-.735.567,1.083,3.781.69,3.982S7.118,71.4,6.352,71.509,7.811,74.933,7.6,75.227s-2.53-2.833-2.947-2.167c-.228.363,2.125,2.728,1.674,2.95s-2.548-1.305-2.767-.864,1.936,1.044,2.581,2.23,1.743,1.7,2.2,3.9S9.479,91.432,11.817,95.4s7.478,12.756,7.478,12.756Z" transform="translate(7.088 141.939)" fill="#f79c8d"/>
        <path id="Trazado_1064930" data-name="Trazado 1064930" d="M13.243,81.4S20.2,88.9,21.238,91.92s-1.011,7.346-3.832,7.535-9.1-13.312-9.1-13.312Z" transform="translate(16.621 162.865)" fill="#8e9c94"/>
        <path id="Trazado_1064931" data-name="Trazado 1064931" d="M31.293,120.917c-.51-.423-1.122-.231-2.881-1.044a10.479,10.479,0,0,0-1.635-.489.2.2,0,0,1-.156-.147c-.534-2.02-2.872-11.367-3.13-14.065-.261-2.755-2.041-14.44-2.314-16.219a.2.2,0,0,0-.252-.162l-5.11,1.422a.2.2,0,0,0-.141.243c.312,1.392,2.275,10.137,2.851,14.563.462,3.529,5.717,14.851,5.825,15.574v.021a.448.448,0,0,0,.441.378h5.69c.216,0,.969.057.813-.075" transform="translate(31.349 177.638)" fill="#f48c7f"/>
        <path id="Trazado_1064932" data-name="Trazado 1064932" d="M20.925,92.423c-2.719-8.243-5.759-7.892-5.759-7.892l2.353,17.333c1.677-.459,3.862-1.482,5.54-1.954a75.363,75.363,0,0,0-2.134-7.487" transform="translate(30.344 169.126)" fill="#425a4d"/>
        <path id="Trazado_1064933" data-name="Trazado 1064933" d="M29.678,85.036c-.831-5.422-5.738-9.321-10.869-6.689A12.148,12.148,0,0,0,15.3,81.162c-2.155,2.764-2.707,6.182-4.93,8.864a21.887,21.887,0,0,0,2.983,1.9l1.386-1.848-.477,2.3A33.759,33.759,0,0,0,29.219,95.35a28.727,28.727,0,0,0,.459-10.314" transform="translate(20.745 155.075)" fill="#f7cc7f"/>
        <path id="Trazado_1064934" data-name="Trazado 1064934" d="M25.874,170.227a21.973,21.973,0,0,0-3.916-2.17c-.162-.081-.756-.459-.972-.591a7.553,7.553,0,0,1-1.557-1.377c-.447-.5-.66-2.1-.762-3.382.258-2.854,4.393-48.631,5.266-53.586.9-5.116-.471-12.919-.471-12.919L20.269,95,14.207,116,14.684,132a42.775,42.775,0,0,0-1.605,7.364c-.18,2.755,2.062,25.114,2.062,25.114a11.6,11.6,0,0,1-.12,1.975c-.165.834-1.08,2.557-.66,3.343a2.1,2.1,0,0,0,.9.984l10.89.177c.594.009.2-.375-.276-.726" transform="translate(26.148 190.076)" fill="#f48c7f"/>
        <path id="Trazado_1064935" data-name="Trazado 1064935" d="M22.695,96.033s-3.781,5.7-4.681,10.428.66,19.232-1.071,25.42C16,135.23,12.45,140.4,11.91,144.731s-2.422,16.823-2.422,16.823a10.979,10.979,0,0,1-1.308,3.688,10.848,10.848,0,0,0-1.425,1.879,5.549,5.549,0,0,0,.192,4.3c.252.546-.015.543.552.72a3.5,3.5,0,0,0,4.2-1.975,10.021,10.021,0,0,0,.822-3.634,16.874,16.874,0,0,1,.6-3.838l12.087-29.654,8.753-25.594L36.2,94.263Z" transform="translate(12.799 188.604)" fill="#f79c8d"/>
        <path id="Trazado_1064936" data-name="Trazado 1064936" d="M12.274,120.743a5.362,5.362,0,0,1-5.263-2.206,5.8,5.8,0,0,0-.5,4.312c.432.942,1.689.915,2.683.951a2.59,2.59,0,0,0,2.38-1.458,8.839,8.839,0,0,0,.7-1.6" transform="translate(12.552 237.172)" fill="#fec266"/>
        <path id="Trazado_1064937" data-name="Trazado 1064937" d="M20.213,119.31a9.842,9.842,0,0,1-6.2-.243,4.994,4.994,0,0,0-.5,2.6c.264.774.639.948.972.957,2.632.069,9.639.165,11.643.189a.329.329,0,0,0,.255-.54c-.5-.594-5.957-2.827-6.173-2.959" transform="translate(26.921 238.232)" fill="#fec266"/>
        <path id="Trazado_1064938" data-name="Trazado 1064938" d="M18.427,132.915l.681.045h.036c.225.015.45.027.675.039l.042,0c.228.012.453.021.681.03l.036,0,.693.027a45.084,45.084,0,0,0,7.817-.3c1.044-10.443,1.431-19.97,1.819-22.08.936-5.116-.816-13.192-.816-13.192l-.837-.15.528-2.989L15.739,96.124s-3.934,5.7-4.87,10.428.687,19.232-1.113,25.42c0,0,4.009.624,8.672.942" transform="translate(19.518 188.786)" fill="#f7cc7f"/>
        <path id="Trazado_1064939" data-name="Trazado 1064939" d="M17.762,84.047s-5.008-.321-6.989,1.846,4.4,19.283,4.756,22.038-1.837,10.077-1.837,10.077,11.763,2.374,15.124.144c0,0,.36-19.808,0-21.774s-3.361-9.969-4.081-10.758-6.974-1.572-6.974-1.572" transform="translate(20.793 168.13)" fill="#8e9c94"/>
        <path id="Trazado_1064940" data-name="Trazado 1064940" d="M14.629,81.875s-.027.147-.072.4a38.233,38.233,0,0,1-1.665,6.311c-.7,1.329,2.4,5.57,5.392,5.053.888-.156-.753-3.9-.672-4.294.15-.759.354-1.794.564-2.857.12-.6.237-1.206.351-1.776.318-1.62.579-2.947.579-2.947Z" transform="translate(25.594 163.595)" fill="#f7a491"/>
        <path id="Trazado_1064941" data-name="Trazado 1064941" d="M13.47,82.274c.048-.252.072-.4.072-.4l4.477-.111s-.258,1.326-.579,2.947c-.111.567-.231,1.17-.348,1.767a4.2,4.2,0,0,1-2.14-1.074,5.652,5.652,0,0,1-1.617-2.416c.054-.282.1-.528.135-.714" transform="translate(26.681 163.595)" fill="#f47458"/>
        <path id="Trazado_1064942" data-name="Trazado 1064942" d="M17.681,78.409a4.035,4.035,0,0,0-3.433,1.47c-1.323,1.716-2.749,7.019.537,9.9s6.533-.381,7.016-3.841.669-7.658-4.12-7.532" transform="translate(25.555 156.859)" fill="#f7a491"/>
        <path id="Trazado_1064943" data-name="Trazado 1064943" d="M17.306,82.154c-.393.765-1.05,1.188-1.47.945s-.444-1.059-.051-1.822,1.05-1.188,1.47-.945.444,1.056.051,1.821" transform="translate(31.022 160.594)" fill="#f7a491"/>
        <path id="Trazado_1064944" data-name="Trazado 1064944" d="M19.233,78.247s-2.821,5.044-4.837,5.275-2.281,2.914-2.281,2.914.72-6.176,2.716-7.367a7.424,7.424,0,0,1,4.4-.822" transform="translate(24.24 156.453)" fill="#f7cc7f"/>
        <path id="Trazado_1064945" data-name="Trazado 1064945" d="M14.458,81.341c.165.894-.165,1.716-.738,1.833s-1.164-.513-1.329-1.407.165-1.716.735-1.833,1.167.51,1.332,1.407" transform="translate(24.706 159.904)" fill="#f7a491"/>
        <path id="Trazado_1064946" data-name="Trazado 1064946" d="M13.887,81.477l3.052.6A1.361,1.361,0,0,1,15.292,83c-1.647-.276-1.4-1.521-1.4-1.521" transform="translate(27.761 163.021)" fill="#fff"/>
        <rect id="Rectángulo_401829" data-name="Rectángulo 401829" width="1.274" height="29.181" transform="translate(287.605 332.741) rotate(-10.727)" fill="#3c8f7c"/>
        <path id="Trazado_1064947" data-name="Trazado 1064947" d="M79.363,139.846h-1.5L83.465,110.8l1.251.237Z" transform="translate(155.784 221.699)" fill="#3c8f7c"/>
        <path id="Trazado_1064948" data-name="Trazado 1064948" d="M94.006,139.846H92.5L98.108,110.8l1.251.237Z" transform="translate(185.075 221.699)" fill="#3c8f7c"/>
        <path id="Trazado_1064949" data-name="Trazado 1064949" d="M86.536,139.76l1.221.015L82.38,110.847l-1.251.237Z" transform="translate(162.323 221.785)" fill="#184655"/>
        <path id="Trazado_1064950" data-name="Trazado 1064950" d="M116.378,89.941c6.68.714,15.325,1.47,24,16.2,9.486,16.1,4.492,40.139-2.995,46.819s-31.938,14.932-52.49,2.581c0,0-12.411-7.484-6.041-19.9,9.8-19.115,8.414-23.1,12.8-30.593s10.545-16.619,24.724-15.1" transform="translate(154.137 179.623)" fill="#f47458"/>
        <path id="Trazado_1064951" data-name="Trazado 1064951" d="M137.692,105.268c-5.927-10.053-11.835-13.594-17.111-15.058a44.236,44.236,0,0,1,6.182,8.345c9.486,16.1,4.492,40.142-2.992,46.822-6.641,5.927-26.62,13.081-45.39,6.014a19.1,19.1,0,0,0,3.823,3.28c20.553,12.348,45,4.1,52.49-2.581s12.48-30.725,3-46.822" transform="translate(156.827 180.494)" fill="#b75742"/>
        <path id="Trazado_1064952" data-name="Trazado 1064952" d="M84.144,97.983l-1.716,5.149,5.233-2.056Z" transform="translate(164.923 196.046)" fill="#f79c8d"/>
        <path id="Trazado_1064953" data-name="Trazado 1064953" d="M89.529,92.875c-.348.015-1.305.333-2.7,2.965-1.783,3.364-4.393,13.519-4.393,13.519l7.787,2.89,1-2.119,1.647-16.322s-3.244-.936-3.34-.933" transform="translate(164.932 185.827)" fill="#fead33"/>
        <path id="Trazado_1064954" data-name="Trazado 1064954" d="M95.42,92.387a47.773,47.773,0,0,0-10.293,1.464s-1.879,16.093,1.689,28.322c.8,2.737-.66,11.346-.66,11.346l23.076-.3s-2.734-20.814-1.7-24.178,1.053-15.079,1.053-15.079-.156-.024-5.182-.891a52.707,52.707,0,0,0-7.979-.681" transform="translate(169.336 184.85)" fill="#fec266"/>
        <path id="Trazado_1064955" data-name="Trazado 1064955" d="M90.359,116.048s-.51,5.873-1.449,7.5.051,4.39.1,4.768,1.978.921,5.038.6,3.013-1.029,2.767-2.17-1.876-2.6-1.975-3.685a28.249,28.249,0,0,1,.936-4.987Z" transform="translate(177.086 232.192)" fill="#f7a491"/>
        <path id="Trazado_1064956" data-name="Trazado 1064956" d="M99.954,104.719s-15.928-.882-19.487,1.266.645,6.554.645,6.554,12.967,5.621,34.678,6.869c5.14.3,5.585-13.36,4.624-14.491s-20.46-.2-20.46-.2" transform="translate(158.141 208.804)" fill="#e5b05c"/>
        <path id="Trazado_1064957" data-name="Trazado 1064957" d="M94.65,124.131c3.154-.336,2.764-1.879,2.509-3.052a10.328,10.328,0,0,0-1.6-2.416,5.288,5.288,0,0,1-2.11,1.02c-1.422.42-3.373-.408-4.615-.927a15.147,15.147,0,0,0-.42,4.054c.051.39,3.085,1.656,6.239,1.32" transform="translate(176.865 237.426)" fill="#f47458"/>
        <path id="Trazado_1064958" data-name="Trazado 1064958" d="M92.425,115.972c-.636,4.8-3.787,28.691-3.787,28.691l7.31.9s8.99-31.185,8.531-35.953-3.826-5.173-3.826-5.173-6.545-1.173-8.228,11.532" transform="translate(177.349 208.909)" fill="#f7cc7f"/>
        <path id="Trazado_1064959" data-name="Trazado 1064959" d="M110.571,93.523c-2.158-.807-3.214,18.566-3.5,26.542a93.963,93.963,0,0,1-12.138-.123c-.78-.057-2.578-.714-3.352-.816a7.97,7.97,0,0,0-1.906-.09,36.733,36.733,0,0,0-4.468,2c-.423.441-1.563,1.554-1.371,2.038s2.2-1.341,2.2-1.341l.978-.549c-1.218,1.188-3.544,2.752-3.208,3.319s2.425-1.029,3.919-2.113c-1.281,1.155-2.875,3.223-2.509,3.544.33.288,2.143-2.1,4.078-2.791.717-.255,1.434.45,2,.537a4.083,4.083,0,0,0,1.461.081l2.1-.594c.714.066.732.486,1.452.639.837.177,2.212.366,3.28.624,6.14,1.494,8.189,2.191,10.068,2.188,5.7,0,6.026-31.194.927-33.1" transform="translate(167.599 187.075)" fill="#f7a491"/>
        <path id="Trazado_1064960" data-name="Trazado 1064960" d="M99.9,112.918c.405-8.168.345-18.236-4.249-19.952-1.812-.678-5.008,3.4-4.435,20.118a34.495,34.495,0,0,0,8.684-.165" transform="translate(182.366 185.868)" fill="#fec266"/>
        <path id="Trazado_1064961" data-name="Trazado 1064961" d="M87.062,117.721a3.956,3.956,0,0,1-.5,3.388c-1.143,1.347-5.891,2.668-6.512,3.4a2.032,2.032,0,0,0-.576,1.35l13.324-.363-.147-4.012-.612-2.881Z" transform="translate(159.003 235.539)" fill="#f7a491"/>
        <path id="Trazado_1064962" data-name="Trazado 1064962" d="M87.1,119.278s3.424,1.38,5.077.564,1.6-1.044,2.083-.741.648,4.4.648,4.4l-14.98.1c-1.041-.024-1.569-.789-.723-1.443a12.361,12.361,0,0,1,1.632-.969,47.105,47.105,0,0,1,6.263-1.915" transform="translate(157.633 238.042)" fill="#f47458"/>
        <path id="Trazado_1064963" data-name="Trazado 1064963" d="M89.988,108.264c-1.029-2.161-3.373-4.972-7.493-3.277-3.928,1.614-4.984,5.585-3.745,9.648s9.4,27.962,9.69,31.245l6.518.045S93.773,127,93.481,122.431a44.143,44.143,0,0,0-3.493-14.167" transform="translate(156.583 209.022)" fill="#f7cc7f"/>
        <path id="Trazado_1064964" data-name="Trazado 1064964" d="M79.59,98.4h21.786a1.42,1.42,0,0,1,1.314.882l6.71,16.36h12.009a.608.608,0,1,1,0,1.215H87.227a2.387,2.387,0,0,1-2.179-1.407L78.294,100.4a1.421,1.421,0,0,1,1.3-2" transform="translate(156.401 196.879)" fill="#8e9c94"/>
        <path id="Trazado_1064965" data-name="Trazado 1064965" d="M82.571,102.63a1.2,1.2,0,1,0,.9-1.563,1.282,1.282,0,0,0-.9,1.563" transform="translate(165.15 202.176)" fill="#fff"/>
        <path id="Trazado_1064966" data-name="Trazado 1064966" d="M93.288,90.366l1.065,7.025s-3.892,8.366-6.215,7.64c-1.951-.609-.753-8.009-.753-8.009s1.065-3.976.744-5.966,5.158-.69,5.158-.69" transform="translate(174.115 179.972)" fill="#f7a491"/>
        <g id="Grupo_1210342" data-name="Grupo 1210342" transform="translate(262.111 269.922)" opacity="0.2">
          <g id="Grupo_1210341" data-name="Grupo 1210341">
            <g id="Grupo_1210340" data-name="Grupo 1210340" clip-path="url(#clip-path-3)">
              <path id="Trazado_1064967" data-name="Trazado 1064967" d="M87.482,91.056c-.318-1.99,5.158-.69,5.158-.69l.087.582a3.21,3.21,0,0,1-.594.978,7.2,7.2,0,0,1-4.786,2.167,10.8,10.8,0,0,0,.135-3.037" transform="translate(-87.345 -89.95)" fill="#f47458"/>
            </g>
          </g>
        </g>
        <path id="Trazado_1064968" data-name="Trazado 1064968" d="M95.645,88.24c.156-.057,1.239,8-.819,10.221s-6.077,2.941-7.517,1.194C85.718,97.726,85.8,89.062,89,86.782s6.644,1.458,6.644,1.458" transform="translate(172.659 172.16)" fill="#f7a491"/>
        <path id="Trazado_1064969" data-name="Trazado 1064969" d="M89.457,84.887a8.908,8.908,0,0,1,4.669,2.662c1.125.135,2.653.756,4.231,3.367a6.536,6.536,0,0,1-1.752,8.519,5.1,5.1,0,0,0-2.227,3.763l-.357-1.041a5.8,5.8,0,0,1-.282-2.458A4.8,4.8,0,0,1,94.1,98.22c.543-1.167-1.164-1.941-1.644-2.911-.369-.747-.387-2.458-.969-3.691l-.7-.942a4.415,4.415,0,0,0-3.169-.9c-1.569.354-1.344-5.54,1.833-4.891" transform="translate(173.421 169.745)" fill="#f7cc7f"/>
        <path id="Trazado_1064970" data-name="Trazado 1064970" d="M88.637,89.979c-.015.984.429,1.788,1,1.8s1.041-.78,1.056-1.761-.429-1.788-1-1.8-1.041.777-1.056,1.761" transform="translate(177.347 176.507)" fill="#f7a491"/>
        <path id="Trazado_1064971" data-name="Trazado 1064971" d="M89.781,89.821l-3.106-.162a1.36,1.36,0,0,0,1.374,1.293c1.662.135,1.731-1.131,1.731-1.131" transform="translate(173.421 179.392)" fill="#fff"/>
        <path id="Trazado_1064972" data-name="Trazado 1064972" d="M108.439,82.565c.339,1.392.951,3.592.951,3.592-.051.606-.228,3.124-.441,6.209l4.534-1.815a48.571,48.571,0,0,1,.15-5.335c.171-.258.459.066,1.849-1.924a3.88,3.88,0,0,0,.477-1.6s.081-1.263-.2-1.38a.584.584,0,0,0-.711.288c-.105.219-.078.726-.18.945a1.589,1.589,0,0,1-1.035.468c-.276-.015.036-3.736.036-3.736s.153-1.056.231-1.4c.066-.294.336-1.158.336-1.158s.312-1.251-.075-1.347c-.231-.057-.813.96-1.215,2.041a21.973,21.973,0,0,1-.8,2.38c-.291-.039-.135-2.08-.135-2.08a6.448,6.448,0,0,0,.279-1.374c.273-.54.453-1.542-.027-1.626a8.448,8.448,0,0,0-.72,1.257s-.249.9-.393,1.317a24.259,24.259,0,0,0-.426,2.422c-.111.426-.213.252-.258.27a10.524,10.524,0,0,1,.1-1.389,7.983,7.983,0,0,1,.1-1.347,10.284,10.284,0,0,0,.2-1.419c.075-1.056-.588-.948-.819.018-.087.366-.177.768-.27,1.173-.357,1.581-.348,3.106-.516,3.121-.222.015-.078-2.761-.078-2.761s-.339-1.536-.675-.108a12.543,12.543,0,0,0-.348,3.061,12.016,12.016,0,0,0,.084,3.241" transform="translate(216.634 147.479)" fill="#f8a492"/>
        <path id="Trazado_1064973" data-name="Trazado 1064973" d="M129.391,81.343c-.339,1.392-.951,3.592-.951,3.592.051.606.228,3.124.441,6.209l-4.534-1.816a48.571,48.571,0,0,0-.15-5.335c-.171-.261-.459.066-1.848-1.924a3.881,3.881,0,0,1-.477-1.6s-.081-1.263.2-1.38a.584.584,0,0,1,.711.288c.105.219.078.726.18.945A1.589,1.589,0,0,0,124,80.79c.276-.015-.036-3.736-.036-3.736s-.153-1.056-.231-1.4c-.066-.294-.336-1.158-.336-1.158s-.312-1.251.075-1.347c.231-.057.813.96,1.215,2.041a21.982,21.982,0,0,0,.8,2.38c.291-.039.135-2.08.135-2.08a6.447,6.447,0,0,1-.279-1.374c-.273-.54-.453-1.542.027-1.626a8.45,8.45,0,0,1,.72,1.257s.249.9.393,1.317a24.267,24.267,0,0,1,.426,2.422c.111.426.213.252.258.27a10.507,10.507,0,0,0-.1-1.389,7.982,7.982,0,0,0-.1-1.347,9.817,9.817,0,0,1-.192-1.419c-.078-1.056.585-.948.816.018.087.366.177.768.27,1.173.357,1.581.348,3.109.516,3.121.222.015.078-2.761.078-2.761s.339-1.536.675-.108a12.546,12.546,0,0,1,.348,3.061,12.02,12.02,0,0,1-.084,3.241" transform="translate(243.821 145.034)" fill="#f8a492"/>
        <path id="Trazado_1064974" data-name="Trazado 1064974" d="M122.675,114.859a34.683,34.683,0,0,0,3.142,3.5c.627.384-.279,4.912-1.987,5.209-.963.168-1.5-.891-1.5-.891l.276-1.305-3.592-3.7Z" transform="translate(238.132 229.813)" fill="#f7a491"/>
        <path id="Trazado_1064975" data-name="Trazado 1064975" d="M118.578,115.116a34.718,34.718,0,0,0,2.668,3.874c.573.459-.9,4.837-2.635,4.912-.975.045-1.371-1.074-1.371-1.074l.441-1.257-3.091-4.132Z" transform="translate(229.274 230.327)" fill="#f7a491"/>
        <path id="Trazado_1064976" data-name="Trazado 1064976" d="M121.326,116.362a26.092,26.092,0,0,1-1.861,2.146,22.442,22.442,0,0,1-1.933,1.56s-1.23,2.233-1.566,3.01c-.75,1.734-1.59,3.667-1.467,4.639.039.309.738.639,1.32.462,2.431-.747,8.639-6.431,9.426-7.955.9-1.758-3.919-3.862-3.919-3.862" transform="translate(229.068 232.82)" fill="#425a4d"/>
        <path id="Trazado_1064977" data-name="Trazado 1064977" d="M112.473,100.213c.225-.63.441-1.215.651-1.765,2.584.564,5.5,1.185,8.5,1.825l.363,11c0-.849-2.257,17.549-2.257,17.549s5.834,12.916,9.825,20.442a13.774,13.774,0,0,1-4.777,4.1c-6.194-7.424-14.3-21.009-14.635-23.268-.192-1.3-.366-22.3,2.326-29.879" transform="translate(220.193 196.977)" fill="#687b71"/>
        <path id="Trazado_1064978" data-name="Trazado 1064978" d="M127.814,102.18c-.789,8.573-2.545,24.964-2.4,26.281.441,1.644,8.246,16.811,9.654,19.019-1.116,1.68-2.845,3.5-4.7,4-.366.1-13.249-18.233-13.951-19.688-.8-1.644-2.119-10.62-2.143-21.729l-.366-11c5,1.068,9.6,2.113,13.906,3.124" transform="translate(227.91 198.194)" fill="#425a4d"/>
        <path id="Trazado_1064979" data-name="Trazado 1064979" d="M118.673,87.074l5.888.807s4.708.087,5.293.087,4.291,21.5,5.362,29.588.24,9.513.24,9.513-7.463,1.677-12.988,1.188c-5.741-.507-12.2-3.61-12.2-3.61s4.906-15.529,5.882-20.379,2.524-17.195,2.524-17.195" transform="translate(220.627 174.22)" fill="#8e9c94"/>
        <path id="Trazado_1064980" data-name="Trazado 1064980" d="M108.39,78.969s-.378,16.012.225,17.237c.879,1.782,10.764,14.413,10.764,14.413s-4.723,19.763-6.707,26.587c-.2.687-1.086,5.128-1.086,5.561,0,.96,4.177,2.179,4.675,2.107.444-.066,4.087-18.863,6.416-28.064a26.286,26.286,0,0,1,3.991-8.69l1.617-2.3L115.868,93.37s-1.53-13.855-1.53-15c0-.3-5.344-.525-5.948.6" transform="translate(216.635 156.308)" fill="#fec266"/>
        <path id="Trazado_1064981" data-name="Trazado 1064981" d="M119.725,108.885l15.487-15.778s2.158-14.923,2.311-15.484,4-.852,5.546-1c.5-.048-.258,15.892-1,18.566-.876,3.157-12.582,17.54-12.582,17.54s-2.1,7.79-1.593,13.5c.84,9.492,3.1,22.548,2.7,22.956-2.518,1.587-12.177,1.755-12.79.771-6.752-10.872,1.924-41.072,1.924-41.072" transform="translate(230.553 153.303)" fill="#fec266"/>
        <path id="Trazado_1064982" data-name="Trazado 1064982" d="M124.822,115.987a26.621,26.621,0,0,1-1.572,2.368,22.148,22.148,0,0,1-1.716,1.792s-.936,2.371-1.17,3.187c-.519,1.816-1.107,4.006-.864,4.954.078.3.747.885,1.3.525,2.131-1.386,7.82-7.883,8.4-9.495.675-1.861-4.378-3.331-4.378-3.331" transform="translate(238.983 232.07)" fill="#425a4d"/>
        <path id="Trazado_1064983" data-name="Trazado 1064983" d="M118.64,80.592a16.066,16.066,0,0,0,1.975-.039,9.219,9.219,0,0,1,2.233,0,5.049,5.049,0,0,1,3.571,2.557c.753,1.87,3.457,1.59.255,8.684-3.622,8.03-7.856,5.4-7.913,5.218s-2.092-6.8-2.092-6.8-2.533,2.512-2.491,2.4-3.451-12.306,4.462-12.021" transform="translate(226.983 161.035)" fill="#0e2e35"/>
        <path id="Trazado_1064984" data-name="Trazado 1064984" d="M115.572,89.67l-.423,3.142s-.945,4.525.273,5.4,5.17-5.528,5.17-5.528l-.417-7.961Z" transform="translate(229.694 169.514)" fill="#f7a491"/>
        <path id="Trazado_1064985" data-name="Trazado 1064985" d="M120.033,87.3a9.017,9.017,0,0,1-5.1,5.032l.357-2.665,4.6-4.948Z" transform="translate(229.971 169.514)" fill="#f47458"/>
        <path id="Trazado_1064986" data-name="Trazado 1064986" d="M121.024,82.087a4.19,4.19,0,0,0-6.011,2.26,32.036,32.036,0,0,0-1.092,3.9c-.756,3.589.432,7.451,2.065,7.763s6.587-1.164,7.73-6.248c.705-3.139-.315-6.308-2.692-7.67" transform="translate(227.47 163.149)" fill="#f7a491"/>
        <path id="Trazado_1064987" data-name="Trazado 1064987" d="M116.625,85.159a1.219,1.219,0,1,0,1.449-1.215,1.348,1.348,0,0,0-1.449,1.215" transform="translate(233.28 167.922)" fill="#f7a491"/>
        <path id="Trazado_1064988" data-name="Trazado 1064988" d="M122.735,89.405s-2.026-.24-2.263-1.689-1.722-4.942-5.245-5.056,3.724-1.551,3.973-1.458l3.253,1.2s1.593,2.773,1.6,3.013-.189,2.77-.189,2.77Z" transform="translate(228.62 162.46)" fill="#0e2e35"/>
        <path id="Trazado_1064989" data-name="Trazado 1064989" d="M117.743,85.579l-3.61-.627a1.6,1.6,0,0,0,1.422,1.71c1.927.393,2.188-1.083,2.188-1.083" transform="translate(228.351 169.974)" fill="#fff"/>
        <path id="Trazado_1064990" data-name="Trazado 1064990" d="M54.522,91.45a3.631,3.631,0,0,0,.387.939,35.787,35.787,0,0,0,3.706,4.933l2-4.516s-.327-1.416-.894-3.442c-1.933.5-3.778.8-5.2,2.086" transform="translate(109.089 178.802)" fill="#f8a492"/>
        <path id="Trazado_1064991" data-name="Trazado 1064991" d="M69.132,99.279S57.956,104.092,57.593,104c-.231-.06-4.582-7.343-4.63-14.191-.021-3.166,3.265-6.971,6.929-6.218,1.846.378,1.819.891,4.549,4.861s4.69,10.827,4.69,10.827" transform="translate(105.97 167.056)" fill="#425a4d"/>
        <path id="Trazado_1064992" data-name="Trazado 1064992" d="M62.028,117.508l-.267,4.4a24.262,24.262,0,0,0-.48,2.44c0,1.9,9.035-1.614,7.01-2.458-.183-.078-1.143-.654-1.2-1.3-.093-1-.327-3.019-.327-3.019Z" transform="translate(122.612 235.113)" fill="#f7a491"/>
        <path id="Trazado_1064993" data-name="Trazado 1064993" d="M68.484,119.014s-2.122.582-3.208.729-2.521-1.08-3.289-.75c-.846.363-.813,3.643-.813,3.643s11.379.933,14.578-.03c1.269-.384-2.932-2.236-7.268-3.592" transform="translate(122.398 237.97)" fill="#dd513a"/>
        <path id="Trazado_1064994" data-name="Trazado 1064994" d="M55.867,117.508l-.267,4.4a24.268,24.268,0,0,0-.48,2.44c0,1.9,9.035-1.614,7.01-2.458-.183-.078-1.428-1.086-1.488-1.734-.093-1-.042-2.587-.042-2.587Z" transform="translate(110.285 235.113)" fill="#f7a491"/>
        <path id="Trazado_1064995" data-name="Trazado 1064995" d="M62.367,119.014s-2.122.582-3.208.729-2.521-1.08-3.289-.75c-.846.363-.879,3.643-.879,3.643s11.43,1.089,14.644-.03c1.248-.435-2.932-2.236-7.268-3.592" transform="translate(110.027 237.97)" fill="#dd513a"/>
        <path id="Trazado_1064996" data-name="Trazado 1064996" d="M56.29,113.846,64.248,102.7c.036-.1.108-.3.216-.6.4-1.107,1.236-3.409,1.963-5.7l.009-.024c.228-.8.711-2.2,1.179-3.547.522-1.5,1.167-3.367,1.188-3.682-.018-.057-.057-.153-.108-.282a26.167,26.167,0,0,1-.825-3.346c-.087-.5-.177-1.713.417-1.713.933,0,.489,1.212.918,1.969a19.32,19.32,0,0,0,.648-2.527l.156-2.371c.03-.177-.162-1.485.5-1.485h.03c.588.045.576,1.434.819,3.784.078-.27.156-.594.213-.894a8.483,8.483,0,0,1,.2-1.242c-.12-.654-.051-1.689.648-1.59.348.048.321,1.491.321,1.491-.006.2-.027,1.722-.015,2.023.072-.51.351-2.695.9-2.695.453,0,.489.588.48,1.053-.006.276-.291,2.641-.306,2.914.213-.357.465-2.443.678-2.443.885,0,.564,2.965.24,3.736a3.75,3.75,0,0,0-.1.414,7.141,7.141,0,0,1-.759,2.2c-.555.951-1.32,2.464-1.437,2.695-.087.471-.354,2.17-.687,4.306-.144.915-.3,1.918-.465,2.956h-.009c-.03.225-.2.939-.825,3.619a31.63,31.63,0,0,1-.99,3.9c-.372.66-8.954,12.315-9.321,12.811l-.216.294Z" transform="translate(112.626 158.835)" fill="#f7a491"/>
        <path id="Trazado_1064997" data-name="Trazado 1064997" d="M62.421,83.348s-.645-1.653-1.8-1.656a1.323,1.323,0,0,1,1.194.207,2.268,2.268,0,0,1,.6,1.449" transform="translate(121.298 163.329)" fill="#f47458"/>
        <path id="Trazado_1064998" data-name="Trazado 1064998" d="M56.331,81.392,55.308,87.87s3.9,3.136,6.179,2.476c1.909-.555.6-3.052.6-3.052s-1.017-3.46-.705-5.272-5.05-.63-5.05-.63" transform="translate(110.662 162.092)" fill="#f7a491"/>
        <path id="Trazado_1064999" data-name="Trazado 1064999" d="M56.516,83.351a15.957,15.957,0,0,0,4.42,1.245,8.57,8.57,0,0,1-.105-2.575c.144-.837-.921-1.035-2.11-1.005-1.554.132-2.941.375-2.941.375l-.2,1.245a3.206,3.206,0,0,0,.933.714" transform="translate(111.212 162.093)" fill="#fe875e"/>
        <path id="Trazado_1065000" data-name="Trazado 1065000" d="M54.014,80.971c-.162,0,1.542,7.238,4.18,8.483s6.572.6,7.31-1.353c.816-2.155-2.161-9.54-5.873-10.479s-5.618,3.349-5.618,3.349" transform="translate(108.051 155.038)" fill="#f7a491"/>
        <path id="Trazado_1065001" data-name="Trazado 1065001" d="M59.211,76.66a8.323,8.323,0,0,0-3.4,3.757c-.987.468-2.185,1.482-2.758,4.219-.708,3.361,1.8,5.954,4.465,6.734s3.073,2.542,3.073,2.542l.3-1.9a7.533,7.533,0,0,0-1.482-2.476c-.891-.828.42-2.032.537-3.013.087-.756-.468-2.224-.348-3.466,0,0,1.479-2.242,2.938-2.794,2.485-.945-.624-5.167-3.328-3.607" transform="translate(105.907 152.699)" fill="#425a4d"/>
        <path id="Trazado_1065002" data-name="Trazado 1065002" d="M56.776,80.948c.345.837.2,1.665-.315,1.855s-1.218-.339-1.563-1.173-.2-1.668.315-1.855,1.218.336,1.563,1.173" transform="translate(109.463 159.538)" fill="#f7a491"/>
        <path id="Trazado_1065003" data-name="Trazado 1065003" d="M58.672,95.531l15.352-2.5s-1.746-4.4-2.371-4.4-11.607,4.8-11.607,4.8L59.17,95.18Z" transform="translate(117.392 177.331)" fill="#f8a492"/>
        <path id="Trazado_1065004" data-name="Trazado 1065004" d="M57.8,94.905s-1.53,7.4-.906,13.018.672,25.558.672,25.558l-2.383,31.911,5.654.123s6.7-31.9,6.575-31.077,2.248-22.455,2.248-22.455L61.667,94.2Z" transform="translate(110.403 188.484)" fill="#184655"/>
        <path id="Trazado_1065005" data-name="Trazado 1065005" d="M56.8,95.957s-1,6.668.249,9.591S67.758,137.161,67.884,139.5s3.268,28.2,3.268,28.2l6.572-.186,1.422-28.745-2.977-36.13L73.28,93.5Z" transform="translate(112.894 187.081)" fill="#425a4d"/>
        <path id="Trazado_1065006" data-name="Trazado 1065006" d="M55.307,84.7a5.907,5.907,0,0,0,3.133.939,10.408,10.408,0,0,0,3.646-1.518l-.3-1.005s-3.91-.57-4.006-.507S55.307,84.7,55.307,84.7" transform="translate(110.66 165.269)" fill="#f7a491"/>
        <path id="Trazado_1065007" data-name="Trazado 1065007" d="M61.063,92.18s5.807,5.48,8.429,4.543S73.2,92.591,66.8,87.91c-5.723-4.186-5.738,4.27-5.738,4.27" transform="translate(122.176 173.564)" fill="#f8a492"/>
        <path id="Trazado_1065008" data-name="Trazado 1065008" d="M80.127,106.3c-.861-4.693-7.115-19.3-7.613-21.99-.243-1.308-3.616-1.335-6.83-1.164-3.391.18-6.764.609-6.764.609s-3,.492-4.324,1.731-1.671,4.663.228,11.163c1.5,5.131,3.358,7.949,4.279,11.688.186,1.254.345,2.491.555,3.937.339,5.591,0,12.973,0,12.973s16.351,3.394,22.47-1.752c0,0-1.113-12.387-2-17.195" transform="translate(107.046 166.211)" fill="#8e9c94"/>
        <path id="Trazado_1065009" data-name="Trazado 1065009" d="M75.963,96.083s-6.416,5.3-6.791,5.3c-.24,0-9.156-6.56-11.214-11.946-1.137-2.98,1.248-6.311,3.973-6.3,1.891.006,2.731.492,6.476,3.652s7.556,9.3,7.556,9.3" transform="translate(115.382 166.337)" fill="#687b71"/>
        <path id="Trazado_1065010" data-name="Trazado 1065010" d="M115.433,78.036c-1.569-1.059-3.178-2.065-4.723-3.154a1.367,1.367,0,0,1-.5-1.047c.2-2.185.531-4.354.72-6.539a1.167,1.167,0,0,1,.81-1.209c2.149-.84,4.273-1.737,6.407-2.617.348-.141.687-.3,1.284-.555-1.02-3.274-2.026-6.512-3.058-9.831-2.749.546-5.251,1-7.733,1.557a1.523,1.523,0,0,1-1.918-.717c-1.149-1.656-2.533-3.154-3.772-4.753a1.245,1.245,0,0,1-.159-1.026c.843-2.185,1.683-4.372,2.659-6.5a1.321,1.321,0,0,0-.681-2.044,6.548,6.548,0,0,1-.954-.744l-4.732-2.545a3.21,3.21,0,0,1-.594-.123c-1.927-.786-1.554-.771-2.647.837-1.332,1.957-2.632,3.937-3.772,5.648-2.95-.276-5.708-.534-8.552-.8-1.08-2.617-2.206-5.35-3.34-8.1a32.851,32.851,0,0,0-9.8,3.049c.54,2.7,1.062,5.332,1.6,7.964a.913.913,0,0,1-.393,1.1c-1.812,1.353-3.592,2.758-5.305,4.231a1.066,1.066,0,0,1-1.341.2c-2.191-.921-4.4-1.791-6.6-2.7a.925.925,0,0,0-1.3.324,29.343,29.343,0,0,0-4.06,7.865c-.2.555.066.8.486,1.065,1.936,1.257,3.841,2.563,5.783,3.808a1.154,1.154,0,0,1,.621,1.389c-.387,2.5-.63,5.023-.948,7.742-2.38.978-5.077,2.092-7.775,3.2a30.638,30.638,0,0,0,2.98,9.942l8.4-1.728c1.617,1.867,3.076,3.637,4.642,5.308a1.467,1.467,0,0,1,.351,1.888c-.921,2.077-1.764,4.189-2.617,6.3-.168.417-.5.9.15,1.245q3.966,2.093,7.931,4.189c.564.3.918.108,1.257-.42,1.266-1.972,2.62-3.886,3.85-5.876.477-.768.987-.8,1.785-.69a53.977,53.977,0,0,0,5.936.534,1.3,1.3,0,0,1,1.455,1c.924,2.443,1.948,4.846,2.914,7.217,2.116,0,7.886-1.81,9.966-3.1-.546-2.6-1.068-5.233-1.665-7.85a1.113,1.113,0,0,1,.546-1.329c1.614-1.272,3.142-2.659,4.744-3.946a1.362,1.362,0,0,1,1.125-.216c1.957.765,3.886,1.6,5.816,2.434,1.077.468,1.509.66,1.924.381l4.519-8.4c.009-.684-.459-1.008-1.728-1.864M98.646,75.089a15.436,15.436,0,1,1-6.284-20.907A15.436,15.436,0,0,1,98.646,75.089Z" transform="translate(102.34 67.576)" fill="#d9dedb"/>
        <path id="Trazado_1065011" data-name="Trazado 1065011" d="M104.028,81.072c-2.539.249-5.068.585-7.61.78A1.847,1.847,0,0,1,95,81.195c-1.665-2.44-3.187-4.978-4.864-7.409a1.561,1.561,0,0,1-.2-1.948c1.509-2.716,2.947-5.474,4.408-8.216.237-.444.459-.9.855-1.677L83.589,54.361c-2.386,2.923-4.594,5.546-6.692,8.255a2.053,2.053,0,0,1-2.6.9c-2.617-.735-5.335-1.1-8-1.7a1.685,1.685,0,0,1-1.047-.927c-1-2.992-2-5.987-2.818-9.029-.39-1.461-1.1-1.83-2.461-1.539a8.623,8.623,0,0,1-1.626.048q-3.551.707-7.1,1.419a4.484,4.484,0,0,1-.72.381c-2.677.834-2.278.534-2.035,3.139.3,3.178.648,6.35.933,9.1l-9.567,6.509L29.439,65.378A44.323,44.323,0,0,0,21.88,76.952c2.881,2.338,5.681,4.627,8.5,6.893a1.229,1.229,0,0,1,.537,1.485c-.717,2.962-1.362,5.945-1.876,8.948a1.438,1.438,0,0,1-1.218,1.362c-3.064.924-6.107,1.918-9.168,2.854a1.244,1.244,0,0,0-1.074,1.452A39.43,39.43,0,0,0,20.119,111.6c.267.747.75.768,1.419.69,3.088-.354,6.185-.633,9.273-1.011a1.558,1.558,0,0,1,1.837.915c1.743,2.926,3.658,5.753,5.66,8.849-1.629,3.058-3.478,6.527-5.323,10A41.253,41.253,0,0,0,44.608,138.8c2.536-3.154,5.005-6.224,7.241-9,3.28.546,6.314,1.134,9.375,1.524a1.983,1.983,0,0,1,1.987,1.656c.822,2.95,1.761,5.867,2.686,8.786.183.576.252,1.365,1.224,1.164q5.915-1.233,11.832-2.458c.837-.174,1.044-.675.942-1.518-.378-3.13-.615-6.281-1.047-9.4-.165-1.206.342-1.674,1.26-2.248a72.529,72.529,0,0,0,6.623-4.537,1.741,1.741,0,0,1,2.371-.21c3.058,1.74,6.185,3.361,9.219,4.99,2.2-1.819,6.635-8.645,7.685-11.769-2.794-2.233-5.6-4.516-8.465-6.722a1.5,1.5,0,0,1-.573-1.852c.585-2.7.981-5.452,1.539-8.165a1.835,1.835,0,0,1,.984-1.191c2.689-.882,5.407-1.674,8.126-2.464,1.518-.441,2.134-.612,2.326-1.257l-2.521-12.6c-.576-.72-1.338-.651-3.394-.453M84.072,92.421A20.793,20.793,0,1,1,59.6,76.108,20.793,20.793,0,0,1,84.072,92.421" transform="translate(35.175 100.502)" fill="#b3bdb8"/>
        <path id="Trazado_1065012" data-name="Trazado 1065012" d="M70.444,54.2c-1.017-.483-2.053-.93-3.061-1.431A.821.821,0,0,1,67,52.2c-.075-1.3-.075-2.611-.159-3.91a.691.691,0,0,1,.369-.783c1.188-.684,2.356-1.4,3.532-2.11.192-.114.378-.237.705-.441-.891-1.834-1.77-3.649-2.674-5.507-1.566.564-3,1.056-4.408,1.605A.909.909,0,0,1,63.17,40.8c-.822-.87-1.77-1.629-2.641-2.458a.737.737,0,0,1-.186-.588c.3-1.359.6-2.722.981-4.06.186-.642,0-.942-.582-1.14a3.678,3.678,0,0,1-.624-.351q-1.508-.54-3.013-1.074a2,2,0,0,1-.357-.021c-1.2-.291-.984-.315-1.482.726-.609,1.272-1.2,2.551-1.716,3.658-1.758.1-3.4.2-5.1.294-.867-1.44-1.773-2.95-2.686-4.465a19.549,19.549,0,0,0-5.489,2.665c.558,1.539,1.1,3.043,1.653,4.54a.539.539,0,0,1-.135.684c-.942.96-1.864,1.942-2.74,2.962a.638.638,0,0,1-.771.24c-1.371-.345-2.749-.66-4.12-1a.545.545,0,0,0-.735.306A17.468,17.468,0,0,0,31.743,46.7c-.069.345.111.462.381.585,1.248.567,2.485,1.164,3.739,1.722a.686.686,0,0,1,.489.762c-.006,1.5.078,3.01.132,4.636-1.311.786-2.8,1.68-4.285,2.575a18.176,18.176,0,0,0,2.641,5.579c1.674-.618,3.307-1.218,4.783-1.764,1.119.954,2.134,1.864,3.2,2.707a.872.872,0,0,1,.375,1.077c-.357,1.305-.663,2.623-.978,3.937-.063.261-.213.576.2.72q2.521.873,5.038,1.755c.357.123.549-.018.7-.36.57-1.272,1.194-2.518,1.74-3.8.21-.5.507-.558.987-.564a32.4,32.4,0,0,0,3.538-.216.771.771,0,0,1,.945.459c.762,1.353,1.578,2.677,2.356,3.982a17.426,17.426,0,0,0,5.582-2.71c-.549-1.479-1.092-2.983-1.677-4.468a.664.664,0,0,1,.2-.831c.837-.891,1.611-1.84,2.44-2.74a.794.794,0,0,1,.642-.228c1.218.276,2.428.594,3.637.912.675.177.945.252,1.164.051l1.906-5.341c-.054-.4-.357-.552-1.179-.942m-10.134-.234A9.179,9.179,0,1,1,43.02,47.8v0a9.18,9.18,0,0,1,17.291,6.173" transform="translate(63.482 61.896)" fill="#eceeed"/>
        <path id="Trazado_1065013" data-name="Trazado 1065013" d="M41.259,142.913l-3.022-.012c.4-13.183.75-33.2.084-34.326a.51.51,0,0,0,.2.15l2.452-.639c.4.2.636.318.717,5.927.045,2.884.027,6.869-.048,11.841-.126,8.465-.381,16.976-.384,17.06" transform="translate(76.506 216.259)" fill="#8e9c94"/>
        <path id="Trazado_1065014" data-name="Trazado 1065014" d="M56.918,119.637H36.536a1.7,1.7,0,0,0-1.7,1.7.3.3,0,0,0,.3.3H58.319a.3.3,0,0,0,.3-.3,1.7,1.7,0,0,0-1.7-1.7" transform="translate(69.699 239.373)" fill="#8e9c94"/>
        <path id="Trazado_1065015" data-name="Trazado 1065015" d="M41.691,119.079h-2.5a1.338,1.338,0,1,0,0,2.677h2.5a1.338,1.338,0,1,0,0-2.677" transform="translate(75.743 238.256)" fill="#8e9c94"/>
        <rect id="Rectángulo_401831" data-name="Rectángulo 401831" width="1.206" height="60.097" transform="translate(43.962 300.872)" fill="#425a4d"/>
        <path id="Trazado_1065016" data-name="Trazado 1065016" d="M35.32,96.618a16.186,16.186,0,0,1,1.476-7.8,6.617,6.617,0,0,1,5.894-3.355c7.367-.009,8.3,9.723,12.991,13.477,1.434,1.149,3.037,2.083,4.39,3.319,5.008,4.567,2.752,13.024-1.846,17.03-3.19,2.779-8.2,4.357-12.135,2.185a12.368,12.368,0,0,1-4.72-5.083,69.367,69.367,0,0,1-3.709-9.438A35.164,35.164,0,0,1,35.32,96.618" transform="translate(70.633 171.004)" fill="#425a4d"/>
        <path id="Trazado_1065017" data-name="Trazado 1065017" d="M31.527,108.571l16.03-4.468s3.376-4.537,7.721-10.623c1.422,1.4,2.212,3.565,3.64,4.957L48.308,110.174a2.026,2.026,0,0,1-1.494.669l-14.731.048-5.041.4v-3.226Z" transform="translate(54.104 187.037)" fill="#f48c7f"/>
        <path id="Trazado_1065018" data-name="Trazado 1065018" d="M39.793,106.594s5.5-5.642,6.917-8.093-.963-.855-3.394-1.5c-.921-.246-.687-5.639-2.428-3.886a79.614,79.614,0,0,0-6.446,7.907Z" transform="translate(68.914 185.611)" fill="#96d9c9"/>
        <path id="Trazado_1065019" data-name="Trazado 1065019" d="M45.281,92.227s4.936-.975,7.19.906-.483,18.62-.48,21.393,1.548,10.614,1.548,10.614S38.574,127.76,36.2,123.6c0,0-.678-15.868-.576-17.864s2.32-10.155,2.932-11.028,6.728-2.476,6.728-2.476" transform="translate(71.25 184.025)" fill="#50bfa5"/>
        <path id="Trazado_1065020" data-name="Trazado 1065020" d="M41.838,89.588s.027.147.072.4a38.062,38.062,0,0,0,1.668,6.3c.705,1.326-2.41,5.564-5.407,5.047-.891-.153.756-3.892.675-4.288-.15-.759-.357-1.792-.567-2.854-.117-.6-.237-1.2-.351-1.773-.321-1.62-.582-2.944-.582-2.944Z" transform="translate(74.723 179.028)" fill="#f7a491"/>
        <path id="Trazado_1065021" data-name="Trazado 1065021" d="M41.913,89.987c-.051-.252-.075-.4-.075-.4l-4.492-.111s.261,1.323.582,2.944c.111.567.234,1.17.348,1.764a4.2,4.2,0,0,0,2.146-1.071A5.648,5.648,0,0,0,42.045,90.7c-.054-.282-.1-.528-.132-.714" transform="translate(74.723 179.028)" fill="#f47458"/>
        <path id="Trazado_1065022" data-name="Trazado 1065022" d="M40.747,86.127a4.061,4.061,0,0,1,3.445,1.467c1.326,1.713,2.758,7.01-.54,9.891s-6.554-.378-7.037-3.835S35.946,86,40.747,86.127" transform="translate(72.792 172.301)" fill="#f7a491"/>
        <path id="Trazado_1065023" data-name="Trazado 1065023" d="M36.321,89.867c.393.762,1.053,1.185,1.476.945s.441-1.059.048-1.821-1.053-1.185-1.473-.945-.444,1.059-.051,1.822" transform="translate(72.11 176.03)" fill="#f7a491"/>
        <path id="Trazado_1065024" data-name="Trazado 1065024" d="M37.757,85.965s2.83,5.038,4.852,5.269,2.29,2.911,2.29,2.911-.723-6.17-2.728-7.358a7.461,7.461,0,0,0-4.414-.822" transform="translate(75.545 171.895)" fill="#425a4d"/>
        <path id="Trazado_1065025" data-name="Trazado 1065025" d="M39.225,89.056c-.165.894.165,1.713.738,1.834s1.17-.513,1.335-1.407-.165-1.716-.738-1.833-1.17.513-1.335,1.407" transform="translate(78.398 175.341)" fill="#f7a491"/>
        <path id="Trazado_1065026" data-name="Trazado 1065026" d="M32.854,118.015s4.543,5.447,4.573,5.921-.18,5.645-.72,6.119-2.128.81-1.617,1.344c.384.4,3.352.315,5.317.207.573-.03,1.293-4.609,1.521-5.281.33-.978,1.131-3.181.831-3.862a5.726,5.726,0,0,0-1.831-1.65c-1.038-.669-5-6.188-5-6.188Z" transform="translate(65.735 229.342)" fill="#f48c7f"/>
        <path id="Trazado_1065027" data-name="Trazado 1065027" d="M39.795,116.675s-3.049,8.588-4.243,9c-.318.111-1.84.39-2.125,1.062a2.892,2.892,0,0,0,0,.879h6.356s.8-3.784,1.122-5.446c0,0,1.683-4.063,1.494-4.432s-2.6-1.065-2.6-1.065" transform="translate(66.804 233.446)" fill="#b75742"/>
        <path id="Trazado_1065028" data-name="Trazado 1065028" d="M34.27,118.37s-3.709,5.221-3.382,6.875c.174.885.951,2.041.5,2.875a2.242,2.242,0,0,1-.954,1.041l-11.571.186c-.63.009-.216-.4.294-.768a23.3,23.3,0,0,1,4.159-2.3c.174-.081.8-.483,1.032-.621a8.132,8.132,0,0,0,1.656-1.458c.828-.924,4.483-8.447,4.483-8.447Z" transform="translate(37.111 231.601)" fill="#f7a491"/>
        <path id="Trazado_1065029" data-name="Trazado 1065029" d="M24.91,119.226a10.486,10.486,0,0,0,6.587-.258,5.3,5.3,0,0,1,.531,2.749c-.282.816-.681,1-1.035,1.011-2.794.072-10.239.174-12.369.2a.349.349,0,0,1-.27-.573c.528-.627,6.329-2.992,6.557-3.13" transform="translate(36.556 238.034)" fill="#b75742"/>
        <path id="Trazado_1065030" data-name="Trazado 1065030" d="M32.433,112.7a83.2,83.2,0,0,0,5.765,6.074c1.17.828,12.414,21.531,12.414,21.531l-4.006,2.926S36.559,130.7,31.839,124c-3.988-5.669-2.518-5.308-4.864-8.756a4.608,4.608,0,0,1,.7-6.008c.213-.192.444-.39.693-.6,3.472-2.9,27.28-6.152,27.28-6.152l15.226,1.491S58.435,112.7,57.97,112.932,40.79,115.6,40.442,115.6s-8.009-2.9-8.009-2.9" transform="translate(52.364 205.056)" fill="#b75742"/>
        <path id="Trazado_1065031" data-name="Trazado 1065031" d="M81.173,103.406s2.611,7.835-1.305,11.493-27.193,3.25-34.855,3.25c0,0-3.133,8.588-3.481,9.984s-15.556,19.385-15.556,19.385L21.8,144.847s16.366-31.806,17.642-33.2,19.5-6.965,24.031-8.243,17.7,0,17.7,0" transform="translate(43.616 205.76)" fill="#f47458"/>
        <path id="Trazado_1065032" data-name="Trazado 1065032" d="M34.484,108.392l13.9-3.076S53.41,98.859,58.236,93.3c1.422,1.4,2.212,3.565,3.64,4.957L51.265,109.995a2.015,2.015,0,0,1-1.494.669l-14.731.048-5.041.4v-3.226Z" transform="translate(60.021 186.679)" fill="#f7a491"/>
        <path id="Trazado_1065033" data-name="Trazado 1065033" d="M42.75,107.411s5.5-5.642,6.917-8.093.366-6.557-2.065-7.2-10.2,9.723-10.2,9.723Z" transform="translate(74.831 184.257)" fill="#96d9c9"/>
        <path id="Trazado_1065034" data-name="Trazado 1065034" d="M22.976,93.057H45.9a1.485,1.485,0,0,1,1.377.927L54.337,111.2H66.974a.639.639,0,1,1,0,1.278H31.009A2.514,2.514,0,0,1,28.719,111L21.613,95.164a1.493,1.493,0,0,1,1.362-2.107" transform="translate(42.976 186.191)" fill="#b75742"/>
        <path id="Trazado_1065035" data-name="Trazado 1065035" d="M26.112,97.509a1.261,1.261,0,1,0,.945-1.644,1.348,1.348,0,0,0-.945,1.644" transform="translate(52.18 191.765)" fill="#fff"/>
        <path id="Trazado_1065036" data-name="Trazado 1065036" d="M84.074,102.434H15.592a1.452,1.452,0,0,1,0-2.9H84.074a1.452,1.452,0,1,1,0,2.9" transform="translate(28.292 199.14)" fill="#184655"/>
        <path id="Trazado_1065037" data-name="Trazado 1065037" d="M37.411,89.377l3.106-.162a1.363,1.363,0,0,1-1.374,1.3c-1.662.132-1.731-1.134-1.731-1.134" transform="translate(74.853 178.503)" fill="#fff"/>
        <path id="Trazado_1065038" data-name="Trazado 1065038" d="M35.39,118.6l1.4-5.84a9.476,9.476,0,0,1,8.792-7.223l17.765-.717.549-1.809-18.383.744a11.263,11.263,0,0,0-10.458,8.591l-1.491,6.2c.507.021,1.122.039,1.824.051" transform="translate(67.16 206.111)" fill="#8e9c94"/>
        <path id="Trazado_1065039" data-name="Trazado 1065039" d="M62.165,130.086s-24.406.417-26.95,0-3.646,2.773-2.884,4.444,2.848,2.317,5.924,2.467,28.67.873,29.393.189C68.235,136.628,76,110.1,78.816,100.4a3.662,3.662,0,0,0-7.022-2.083Z" transform="translate(64.212 191.515)" fill="#184655"/>
        <rect id="Rectángulo_401832" data-name="Rectángulo 401832" width="1.206" height="60.097" transform="translate(111.166 300.872)" fill="#425a4d"/>
        <rect id="Rectángulo_401833" data-name="Rectángulo 401833" width="68.11" height="0.645" transform="translate(43.962 304.761)" fill="#425a4d"/>
        <path id="Trazado_1065040" data-name="Trazado 1065040" d="M101.625,3.9s8.849,5.729,30.656,4.948c0,0-23.373,8.828-32.514,10.194L96,4.184Z" transform="translate(192.087 7.801)" fill="#e25a44"/>
        <path id="Trazado_1065041" data-name="Trazado 1065041" d="M104.593,8.943A22.528,22.528,0,0,1,98.565,16.6L96.6,8.862l.126-3.745Z" transform="translate(193.29 10.238)" fill="#b75742"/>
        <path id="Trazado_1065042" data-name="Trazado 1065042" d="M88.059,1.643s25.552-1.725,29.525-.267L121.692,17.6s-14.545-1.248-28.712,3.478Z" transform="translate(176.191 1.582)" fill="#f47458"/>
        <path id="Trazado_1065043" data-name="Trazado 1065043" d="M88.649,63.659s-1.23,2.011-1.119,2.6,1.59,6.893,2.407,7.31,2.881.336,2.419,1.152c-.351.621-4.042,1.44-6.506,1.924-.72.141-3.04-5.293-3.532-6.053-.714-1.1-2.395-3.574-2.236-4.51a7.274,7.274,0,0,1,1.746-2.611,11.49,11.49,0,0,0,1.831-3.3Z" transform="translate(160.209 120.394)" fill="#f48c7f"/>
        <path id="Trazado_1065044" data-name="Trazado 1065044" d="M89.165,62.173s-.417,4.5-.417,4.516c.057.681.039,2.407.189,3,.567,2.236,9.606-4.453,7.094-4.873a2.453,2.453,0,0,1-1.308-1.335,5.378,5.378,0,0,1,.18-2.857Z" transform="translate(177.569 121.306)" fill="#f7a491"/>
        <path id="Trazado_1065045" data-name="Trazado 1065045" d="M97.494,34.16s2.611,7.223,2.641,7.334c3.034,11.985,11.337,34.8,11.457,37.165.288,5.777-4.477,36.817-4.477,36.817l-6.6.858-.144-35.686-6.5-12.735L82.754,42.307Z" transform="translate(165.576 68.348)" fill="#b3d366"/>
        <path id="Trazado_1065046" data-name="Trazado 1065046" d="M81.579,45.071,82.14,52.4l4.027,29.735-5.386,31.422s2.806,3.664,5.552,3.583L98.945,83.088l3-40.25-2.524-8.132Z" transform="translate(161.629 69.441)" fill="#cce199"/>
        <path id="Trazado_1065047" data-name="Trazado 1065047" d="M82.607,61.253s6.455,9.657,8.06,9.795c.426.036,2.392-.093,2.956.648a8.816,8.816,0,0,1,.531,1.341l-8.1,2.329s-2.188-5.02-3.1-6.974c0,0-3.349-4.492-3.235-5.005s2.887-2.134,2.887-2.134" transform="translate(159.5 122.556)" fill="#425a4d"/>
        <path id="Trazado_1065048" data-name="Trazado 1065048" d="M88.678,68.053l.246-4.2s2.686.414,3.856-.066,3.364-1.761,3.364-1.761c5.242.369,9.4.138,9.008,1.6Z" transform="translate(177.429 124.093)" fill="#425a4d"/>
        <path id="Trazado_1065049" data-name="Trazado 1065049" d="M92.854,30.948l3.493,2.68c.672-.519,2.143-2.7,3.1-3.385l-3.19-3.478a.926.926,0,0,1-.375-.834,2.966,2.966,0,0,1,.09-.537c.1-.276.189-.6.288-.879s-.561-.828-.906-.927-.462,1.23-.609,1.623a43.366,43.366,0,0,0-1.1,4.984Z" transform="translate(185.784 47.184)" fill="#f48c7f"/>
        <path id="Trazado_1065050" data-name="Trazado 1065050" d="M119.063,28.631c-.981-1.047-2.365-1.632-3.391-2.722l-15.5,10.671S88.194,22.413,81.688,27.433a108.421,108.421,0,0,0,8.045,11.577c3.979,4.927,10.056,7.277,11.241,6.734,1.335-.612,17.741-16.691,18.089-17.114" transform="translate(163.443 51.839)" fill="#425a4d"/>
        <path id="Trazado_1065051" data-name="Trazado 1065051" d="M71.948,21.292c.513,1.365,1.4,3.514,1.4,3.514.027.618.153,3.184.315,6.326l4.36-2.389a49.505,49.505,0,0,1-.5-5.407c.141-.285.471.009,1.632-2.173a3.978,3.978,0,0,0,.285-1.674s-.072-1.284-.372-1.368a.6.6,0,0,0-.684.378c-.075.234.012.744-.063.975a1.6,1.6,0,0,1-.99.6c-.279.021-.42-3.778-.42-3.778s.024-1.086.063-1.443c.03-.306.2-1.212.2-1.212s.165-1.3-.24-1.353c-.237-.027-.7,1.071-.975,2.212a22.528,22.528,0,0,1-.516,2.5c-.3,0-.393-2.086-.393-2.086a6.7,6.7,0,0,0,.117-1.422c.207-.579.267-1.614-.225-1.641a8.38,8.38,0,0,0-.576,1.359s-.141.936-.237,1.377c-.168.78-.063,1.963-.135,2.5-.06.447-.183.282-.225.306a10.344,10.344,0,0,1-.072-1.416,8.4,8.4,0,0,1-.063-1.374,9.6,9.6,0,0,0,.024-1.458c-.051-1.077-.708-.885-.822.117-.045.384-.087.8-.132,1.221-.165,1.641.03,3.181-.141,3.214-.222.045-.414-2.776-.414-2.776s-.531-1.512-.7-.03a12.618,12.618,0,0,0,.024,3.136,12.256,12.256,0,0,0,.48,3.265" transform="translate(142.779 23.712)" fill="#f8a492"/>
        <path id="Trazado_1065052" data-name="Trazado 1065052" d="M88.919,19.826a2.528,2.528,0,0,0-4.144,1.041,1.879,1.879,0,0,0-2.383.93s-2.707-.468-2.866,3.511c0,0-1.374-.09-1.359,1.527a3.98,3.98,0,0,0,.954,2.587,1.931,1.931,0,0,0-.165,2.083,1.829,1.829,0,0,0,1.5,1.278s.531,2.071,1.521,2.6a3,3,0,0,0,2.194.069,1.417,1.417,0,0,0,1.521.87c1.053-.231,2.248-1.4,3.5-1.092s4.279-.543,4.279-.543,3.286-1.966,1.818-5.389a2.617,2.617,0,0,0-.21-3.655s.789-3.232-1.737-4.777a6.05,6.05,0,0,0-4.42-1.035" transform="translate(156.398 38.228)" fill="#f47458"/>
        <path id="Trazado_1065053" data-name="Trazado 1065053" d="M92.561,28.637l-5.35-2.752s-4.756.693-5.344.765-1.7,22.221-1.794,30.518.918,9.642.918,9.642,7.748.783,13.27-.387c5.738-1.215,11.886-5.137,11.886-5.137s-6.857-15.094-8.432-19.874-5.152-12.775-5.152-12.775" transform="translate(160.198 51.791)" fill="#f7cc7f"/>
        <path id="Trazado_1065054" data-name="Trazado 1065054" d="M99.136,45.991,81.557,31.941s-4-14.812-4.228-15.364-4.141-.369-5.726-.333c-.507.012,2.206,16.027,3.283,18.638,1.269,3.082,14.857,16.183,14.857,16.183S92.816,58.678,93,64.515c.312,9.693-.375,23.16.084,23.526,2.737,1.293,12.516.282,13.015-.786,5.492-11.811-6.965-41.264-6.965-41.264" transform="translate(143.141 32.394)" fill="#425a4d"/>
        <path id="Trazado_1065055" data-name="Trazado 1065055" d="M85.759,27.842l.8,3.082s1.491,4.4.381,5.413S81.1,31.452,81.1,31.452l-.54-7.985Z" transform="translate(161.184 46.953)" fill="#f7a491"/>
        <path id="Trazado_1065056" data-name="Trazado 1065056" d="M80.738,26.057a9.046,9.046,0,0,0,5.7,4.4l-.678-2.611-5.2-4.378Z" transform="translate(161.182 46.953)" fill="#f47458"/>
        <path id="Trazado_1065057" data-name="Trazado 1065057" d="M78.2,23.519c.147,1.209.951,2.107,1.8,2s1.416-1.164,1.269-2.374-.951-2.1-1.8-2S78.051,22.31,78.2,23.519" transform="translate(156.415 42.292)" fill="#f47458"/>
        <path id="Trazado_1065058" data-name="Trazado 1065058" d="M79.533,21.181c.084.693.987,1.155,2.02,1.032s1.8-.789,1.716-1.485-.987-1.155-2.02-1.032-1.8.789-1.716,1.485" transform="translate(159.119 39.367)" fill="#f47458"/>
        <path id="Trazado_1065059" data-name="Trazado 1065059" d="M83.393,20.854a4.214,4.214,0,0,1,5.879,2.674A31.627,31.627,0,0,1,90.1,27.5c.51,3.652-.954,7.439-2.614,7.64s-6.539-1.611-7.334-6.785c-.489-3.193.759-6.3,3.244-7.505" transform="translate(160.154 40.888)" fill="#f7a491"/>
        <path id="Trazado_1065060" data-name="Trazado 1065060" d="M82.106,24.047a1.228,1.228,0,1,1-2.389.288,1.228,1.228,0,1,1,2.389-.288" transform="translate(159.473 45.464)" fill="#f7a491"/>
        <path id="Trazado_1065061" data-name="Trazado 1065061" d="M86.969,20.2c1.881,1.152,2.731,3.145,1.9,4.45s-3.028,1.431-4.909.282-2.731-3.145-1.9-4.453,3.028-1.431,4.909-.279" transform="translate(163.552 38.847)" fill="#f47458"/>
        <path id="Trazado_1065062" data-name="Trazado 1065062" d="M84.162,20.827c.072.591-.585,1.155-1.464,1.263s-1.65-.288-1.722-.879.585-1.155,1.464-1.26,1.65.285,1.722.876" transform="translate(162.007 39.883)" fill="#f47458"/>
        <path id="Trazado_1065063" data-name="Trazado 1065063" d="M85.617,22.367a1.369,1.369,0,1,1-1.527-1.209,1.375,1.375,0,0,1,1.527,1.209" transform="translate(165.843 42.313)" fill="#f47458"/>
        <path id="Trazado_1065064" data-name="Trazado 1065064" d="M92.036,31.795s7.43,17.564,10.074,23.752c.285.672,1.722,5.047,1.776,5.486.117.969-3.955,2.713-4.465,2.7-.456-.009-6.44-18.557-9.915-27.569a26.78,26.78,0,0,0-5.1-8.294l-1.689-1.392-.162-.522s7.544.672,9.477,5.843" transform="translate(165.186 51.925)" fill="#425a4d"/>
        <rect id="Rectángulo_401834" data-name="Rectángulo 401834" width="1.374" height="123.384" transform="translate(262.861 0.325) rotate(-14.158)" fill="#425a4d"/>
        <path id="Trazado_1065065" data-name="Trazado 1065065" d="M98.363,27.795a4.024,4.024,0,0,0-.243-.8,2.252,2.252,0,0,0-.462-.738,1.445,1.445,0,0,1-.234-.489.859.859,0,0,0-.105-.192l0-.006a1.992,1.992,0,0,0-.456-.441,2.02,2.02,0,0,1-.492-.534,1.482,1.482,0,0,0-.552-.486c-.222-.108-.39-.111-.468.024-.366.63-2.194,2.632-1.452,3.6a23.472,23.472,0,0,1,1.593,2.038c.228.525,1.029.489,1.512.306a1.83,1.83,0,0,0,1.362-2.278" transform="translate(187.516 48.069)" fill="#f7a491"/>
        <rect id="Rectángulo_401835" data-name="Rectángulo 401835" width="389.051" height="1.38" transform="translate(0 360.492)" fill="#184655"/>
        <path id="Trazado_1065066" data-name="Trazado 1065066" d="M86.931,19.091a.282.282,0,0,1,.441-.069c.192.2.39.4.585.594.429.438.432.468.5.459.153-.024.156-.3.15-.405a3.273,3.273,0,0,1-.063-.681.5.5,0,0,1,.837-.378c.339.276.663.573.984.87.024-.489.036-.978.069-1.467a.2.2,0,0,1,.324-.144c.3.234,1.191.93,1.485,1.161.075.06.4.378.489.321s.078-.4.084-.471c.048-.417.069-.567.249-1.927a.229.229,0,0,1,.378-.111c1.044,1.251,1.2,1.122,1.3,1.494a.108.108,0,0,1-.123.135c-.2-.021-.249-.039-.771-.546-.135-.129-.267-.264-.393-.4-.189,1.656-.2,2.077-.612,2.2-.288.087-.336,0-2.017-1.323,0,.513-.033,1.023-.054,1.539a.22.22,0,0,1-.369.162c-1.2-.99-1.194-1.065-1.326-1.122,0,0,0-.09-.021.036-.036.219.171.687.018,1.083a.664.664,0,0,1-.882.429c-.213-.105-.27-.21-.915-.828a5.715,5.715,0,0,1-.729,1.14.886.886,0,0,1-.429.318.236.236,0,0,1-.3-.276c.15-.468.57-.579,1.113-1.794" transform="translate(171.689 33.574)" fill="#f47458"/>
        <path id="Trazado_1065067" data-name="Trazado 1065067" d="M85.355,18.425a7.611,7.611,0,0,0,1.368.117c.09,0,.258.018.318-.072.141-.216-.228-.552-.393-1.4-.072-.369-.252-1.125.243-1.275a2.681,2.681,0,0,1,.834-.009c.2,0,.4,0,.594,0-.354-1.383-.435-1.305-.294-1.614a.174.174,0,0,1,.237-.069c.276.183.2.147.663,1.885a.272.272,0,0,1-.249.345c-.27-.006-1.485-.105-1.635-.093.009.015-.006.081-.006.1a4.476,4.476,0,0,0,.405,1.584c.165.432.153,1.011-.393,1.131a5.391,5.391,0,0,1-1.374-.03c.246.84.5,1.683.741,2.527a.3.3,0,0,1-.273.381c-.543-.051-1.086-.081-1.632-.105a5.138,5.138,0,0,0,.669,1.392c.219.315-.225.7-.717-.132a4.916,4.916,0,0,1-.624-1.491.3.3,0,0,1,.276-.381c.54.009,1.08.042,1.617.087-.237-.84-.462-1.686-.7-2.527a.278.278,0,0,1,.324-.345" transform="translate(167.725 28.168)" fill="#66ccb2"/>
        <path id="Trazado_1065068" data-name="Trazado 1065068" d="M80.375,15.762A.278.278,0,0,1,80.1,15.5a6.441,6.441,0,0,1,0-2.212c.078-.387.639-.24.588.135a7.671,7.671,0,0,0-.081,1.8,5.9,5.9,0,0,0,1.3-.165.287.287,0,0,1,.363.264c-.03.477-.192,2.278-.21,2.293a.147.147,0,0,1,.048,0c.186.036.831-.1,1.125-.078.327.021.432.465.45.735.033.546-.375,1.146-.183,1.68.183.513.99-.051,1.6.369.462.321.3.867.111,1.728a.664.664,0,0,1-.3.519.14.14,0,0,1-.168-.018c-.231-.261-.114-.573.042-1.359.018-.1.084-.267.012-.357-.231-.3-.915.126-1.467-.234a1.257,1.257,0,0,1-.42-1.3c.054-.363.279-.813.162-1.185-.315.018-.63.042-.942.036a.54.54,0,0,1-.588-.537,9.536,9.536,0,0,1,.078-1.17c.018-.258.039-.516.06-.774a6.859,6.859,0,0,1-1.29.084" transform="translate(160.069 26.139)" fill="#07345a"/>
        <path id="Trazado_1065069" data-name="Trazado 1065069" d="M89.434,20.97c1.3,1.668.075,2.479-.468,1.993a.456.456,0,0,1,.027-.741c.126-.081.327.048.276.2-.042.126.1.159.162.024.078-.18-.051-.405-.129-.564-.186-.372-.42-.855-.879-.927-.681-.108-1.425.573-1.047,1.617a1.844,1.844,0,0,0,3.421-.087,2.245,2.245,0,0,0-.8-2.335c-.135-.108.03-.288.168-.228A2.242,2.242,0,0,1,91.2,22.732a2.275,2.275,0,0,1-2.56,1.353,2.159,2.159,0,0,1-1.866-2.326,1.487,1.487,0,0,1,2.665-.789" transform="translate(173.579 39.838)" fill="#3c8f7c"/>
        <path id="Trazado_1065070" data-name="Trazado 1065070" d="M80.077,15.918c.18.273.282.825-.087,1a.3.3,0,0,1-.435-.168c-.06-.2.048-.372-.126-.525a.407.407,0,0,0-.51.057c-.423.345-.315,1.1-.093,1.533a1.023,1.023,0,0,0,1.785.1,2.307,2.307,0,0,0,.252-.741c.036-.141.261-.207.333-.054a1.374,1.374,0,0,1-.609,1.617,1.639,1.639,0,0,1-1.764-.027A2.111,2.111,0,0,1,78,16.9c.048-1.4,1.5-1.858,2.08-.978" transform="translate(156.055 30.949)" fill="#f7cc7f"/>
        <path id="Trazado_1065071" data-name="Trazado 1065071" d="M56.674,81.682a1.361,1.361,0,0,0,1.846.4c1.491-.744.9-1.863.9-1.863Z" transform="translate(113.395 160.502)" fill="#fff"/>
        <path id="Trazado_1065072" data-name="Trazado 1065072" d="M81.88,24.061a1.362,1.362,0,0,0,1.491,1.158c1.668-.024,1.614-1.293,1.614-1.293Z" transform="translate(163.827 47.872)" fill="#fff"/>
      </g>
    </g>
  </g>
</svg>
