<svg xmlns="http://www.w3.org/2000/svg" xmlns:xlink="http://www.w3.org/1999/xlink" width="367.579" height="810" viewBox="0 0 367.579 810">
  <defs>
    <clipPath id="clip-path">
      <rect id="Rectángulo_401847" data-name="Rectángulo 401847" width="193" height="390" transform="translate(1210.211 3271)" fill="#fff" stroke="#707070" stroke-width="1"/>
    </clipPath>
    <clipPath id="clip-path-2">
      <rect id="Rectángulo_401846" data-name="Rectángulo 401846" width="241.637" height="363.088" fill="none"/>
    </clipPath>
    <clipPath id="clip-path-3">
      <rect id="Rectángulo_401845" data-name="Rectángulo 401845" width="320.441" height="793.761" fill="none"/>
    </clipPath>
    <clipPath id="clip-path-4">
      <rect id="Rectángulo_401848" data-name="Rectángulo 401848" width="129.159" height="143.611" fill="none"/>
    </clipPath>
    <clipPath id="clip-path-5">
      <rect id="Rectángulo_401849" data-name="Rectángulo 401849" width="41.167" height="46.105" transform="translate(0 0)" fill="none"/>
    </clipPath>
  </defs>
  <g id="Grupo_1211330" data-name="Grupo 1211330" transform="translate(-1052.472 -2795)">
    <g id="Enmascarar_grupo_1098691" data-name="Enmascarar grupo 1098691" transform="translate(16.84 -56)" clip-path="url(#clip-path)">
      <g id="Grupo_1210350" data-name="Grupo 1210350" transform="translate(1167.046 3297.675)">
        <g id="Grupo_1210349" data-name="Grupo 1210349" transform="translate(0 0)" clip-path="url(#clip-path-2)">
          <path id="Trazado_1065183" data-name="Trazado 1065183" d="M79.821,65.257c-8.25-8.4-46.189-45.314-56.107-47.331l.729,68.16c15.639,8.659,34.263,17.651,46.772,30.54.832-14.807,3.9-36.769,10.623-49.832Z" transform="translate(87.757 66.337)" fill="#4d6d00"/>
          <path id="Trazado_1065184" data-name="Trazado 1065184" d="M241.637,0C216.691,27.974,195.472,60.474,180.9,95.085l-8.489,23c-1.368,4.235-2.336,9.824-4.832,13.51l2.017,1.537c-6.727,13.063-9.791,35.02-10.623,49.832-12.508-12.889-31.132-21.886-46.772-30.54C88.49,140.757,64.629,130.5,39.439,122.447c-8.024-2.567-16.64-5.993-25.04-6.642l-1.866,3.8L11.3,170.9c-1,20.528-4.386,43.533-2.4,63.873L0,363.088H238.582Z" transform="translate(0 -0.001)" fill="#4d6d00"/>
          <path id="Trazado_1065185" data-name="Trazado 1065185" d="M121.061,178.259c-8.771-6.365-18.224-11.846-26.742-18.572C56.554,129.833,30.987,92.058,8.894,49.945L0,178.259Z" transform="translate(0 184.828)" fill="#669100"/>
          <path id="Trazado_1065186" data-name="Trazado 1065186" d="M103.307,61.25C79.6,49.588,55.732,39.331,30.541,31.274c-8.024-2.562-16.636-5.993-25.036-6.637L3.639,28.43,2.4,79.733,175.951,261.851c-22.375-52.332-31.828-110.578-25.91-167.433a15.826,15.826,0,0,0,.038-2.628c-12.508-12.885-31.132-21.882-46.772-30.54" transform="translate(8.893 91.172)" fill="#90ba54"/>
        </g>
      </g>
    </g>
    <g id="Grupo_1210348" data-name="Grupo 1210348" transform="translate(1099.61 2795)">
      <g id="Grupo_1210347" data-name="Grupo 1210347" clip-path="url(#clip-path-3)">
        <path id="Trazado_1065164" data-name="Trazado 1065164" d="M97.765,282.134l9.514,79.432S94.351,388.211,141.732,384s41.06-26.819,25.267-38.151-21.057-63.713-21.057-63.713Z" transform="translate(141.835 409.312)" fill="#331f00"/>
        <path id="Trazado_1065165" data-name="Trazado 1065165" d="M153.2,334.79V277.731H98.138V329.2s-15.271,9.337-21.53,11.006S36.417,347,39.755,358.266s30.882,9.6,30.882,9.6H145.7s10.93.836,11.764-6.676c.593-5.348-2.453-18.979-4.262-26.4" transform="translate(57.342 402.924)" fill="#331f00"/>
        <path id="Trazado_1065166" data-name="Trazado 1065166" d="M143.048,154.649l-6.512,304.129a15.212,15.212,0,0,1-15.207,14.888H81.9a15.215,15.215,0,0,1-15.2-14.71L56.609,154.649Z" transform="translate(82.127 224.36)" fill="#985c00"/>
        <path id="Trazado_1065167" data-name="Trazado 1065167" d="M157.53,154.649l38.707,304.129a15.212,15.212,0,0,1-15.21,14.888H141.6a15.215,15.215,0,0,1-15.2-14.71l-55.3-304.307Z" transform="translate(103.137 224.36)" fill="#985c00"/>
        <rect id="Rectángulo_401844" data-name="Rectángulo 401844" width="2.382" height="196.839" transform="matrix(0.984, -0.179, 0.179, 0.984, 180.123, 418.11)" fill="#3f1c27"/>
        <path id="Trazado_1065168" data-name="Trazado 1065168" d="M213.584,115.176a32.092,32.092,0,0,0-11.675-24.76L159.5,55.441l-58.98,20.643L83.546,84.191A33.565,33.565,0,0,0,64.79,109.713L46.26,238.984H69.04v52.5A13.053,13.053,0,0,0,82.093,304.54H187.2a13.055,13.055,0,0,0,13.055-13.055v-52.5h13.327Z" transform="translate(67.113 80.432)" fill="#4d6d00"/>
        <path id="Trazado_1065169" data-name="Trazado 1065169" d="M180.932,60.409A51.969,51.969,0,0,0,128.964,8.44C110.38,8.44,92.3,17.974,83.11,32.646c-3.507,4.742-8.722,17.913-12.293,31.5,0,0-11.626,3.627-13.719,7.181s6.249,9.913,6.249,9.913-1.941,27.037,5.362,31.813a32.3,32.3,0,0,0,5.992,2.892,64.334,64.334,0,0,0,23.076,4.076l15.888,40.761,32.294-35.754-5.622-13.945a51.95,51.95,0,0,0,40.595-50.672" transform="translate(82.347 12.245)" fill="#ffd699"/>
        <path id="Trazado_1065170" data-name="Trazado 1065170" d="M36.838,102.024a2.832,2.832,0,0,1,2.813-3.152,10.98,10.98,0,0,1,8.784,4.392l5.977,7.97c.076.12.152.24.23.36L60.3,122.132a18.776,18.776,0,0,1,1.995,11.842l-1.2,7.487a2.829,2.829,0,0,1-2.794,2.382H41.338a2.832,2.832,0,0,1-2.421-1.363L27.626,123.833a2.838,2.838,0,0,1-.365-.963l-.973-5.414a2.831,2.831,0,0,1,5.044-2.211l1,1.321-.468-4.933c-.037-1.546.157-2.064,1.135-2.431l1.118-.468a2.605,2.605,0,0,1,2.843.6Z" transform="translate(38.072 143.441)" fill="#ffd699"/>
        <path id="Trazado_1065171" data-name="Trazado 1065171" d="M173.122,53.91c-7.9-50.846-60-50.189-73.584-44.832S63.416,26.089,65.685,44.58c0,0,1.792-4.752,9.926-13.185,0,0,5.294,27.253,28.664,41.465a22.059,22.059,0,0,1,2.956,2.179c2.421-3.617,5.828-5.659,9.083-4.965,4.97,1.059,7.688,8.068,6.071,15.656A19.708,19.708,0,0,1,119.4,92.8c6.147,12.957,9.894,27.348,11.69,30.48,0,0,49.932-18.528,42.036-69.374" transform="translate(95.063 9.68)" fill="#3f1c27"/>
        <path id="Trazado_1065172" data-name="Trazado 1065172" d="M72.807,34.449c-1.051,2.287-3.355,3.473-5.147,2.652s-2.387-3.345-1.336-5.634,3.358-3.473,5.147-2.649,2.387,3.345,1.336,5.632" transform="translate(95.47 41.427)" fill="#3f1c27"/>
        <path id="Trazado_1065173" data-name="Trazado 1065173" d="M78.6,32.975a1.008,1.008,0,0,1-.578-.468c-.154-.274-3.882-6.632-10.225-5.274a1.016,1.016,0,0,1-1.208-.931,1.259,1.259,0,0,1,.926-1.387c7.749-1.659,12.166,5.926,12.352,6.249a1.293,1.293,0,0,1-.37,1.642,1.016,1.016,0,0,1-.9.169" transform="translate(96.587 35.801)" fill="#3f1c27"/>
        <path id="Trazado_1065174" data-name="Trazado 1065174" d="M69.841,48.033c-7.193,0-10.036-4.183-10.185-4.414a1.193,1.193,0,0,1,1.992-1.314c.172.255,4.093,5.752,15.251,2.076a1.192,1.192,0,1,1,.745,2.265,24.975,24.975,0,0,1-7.8,1.387" transform="translate(86.263 60.604)" fill="#3f1c27"/>
        <path id="Trazado_1065175" data-name="Trazado 1065175" d="M83.546,67.172A33.566,33.566,0,0,0,64.79,92.694L46.26,221.963H62.849c2.314-22.719,20.7-154.791,20.7-154.791" transform="translate(67.113 97.451)" fill="#d9dedb"/>
        <path id="Trazado_1065176" data-name="Trazado 1065176" d="M144.354,174.919H78.641a8.67,8.67,0,0,1-5.882-2.3L.768,106.145a2.374,2.374,0,0,1,1.61-4.117h67.21a10.618,10.618,0,0,1,7.2,2.814l69.776,64.428a3.256,3.256,0,0,1-2.208,5.649" transform="translate(-0.001 148.019)" fill="#3f1c27"/>
        <path id="Trazado_1065177" data-name="Trazado 1065177" d="M140.769,138.917l-37.808,4.845c-2.892-4.978-9.409-15.114-16.114-18.2-9-4.152-16.717-6.806-18.221-11.462-1.233-3.818-6.014.407-4.414,5.794.353,1.181,6.61,9.127,6.61,9.127L38.4,121.97a3.331,3.331,0,0,0-2.01,6.321L57.7,137.336l-.032,1L33.06,131.81a2.06,2.06,0,0,0-2.5,1.412l-.076.255a2.06,2.06,0,0,0,1.066,2.429l8.7,4.294-6.085-1.855a2.06,2.06,0,0,0-2.551,1.309l-.047.137a2.061,2.061,0,0,0,.946,2.463l12.923,7.213-5.6-1.958a2.061,2.061,0,0,0-1.667,3.755l23.113,12.6,9.173.049,70.322,16.256Z" transform="translate(44.097 163.395)" fill="#ffd699"/>
        <path id="Trazado_1065178" data-name="Trazado 1065178" d="M121.323,93,119.61,195.725l-44.178,9.136v41.254h71.59a24.241,24.241,0,0,0,24.241-24.241L172.975,93a25.826,25.826,0,1,0-51.652,0" transform="translate(109.435 97.451)" fill="#d9dedb"/>
        <path id="Trazado_1065179" data-name="Trazado 1065179" d="M196.134,70.839c11.933-20.461,2.534-48.413-21.18-62.656s-52.8-9.411-65.262,10.734L60.575,13.786A5.785,5.785,0,0,0,54.9,22.3c6.835,12.715,25.042,36.965,72.317,65.36s77.234,33.081,91.669,33.142a5.785,5.785,0,0,0,4.853-9.011Z" transform="translate(78.62 0)" fill="#663d00"/>
        <path id="Trazado_1065180" data-name="Trazado 1065180" d="M95.242,23.179c-5.007-3.556-7.387-3.407-6.752-2.657,18.035,21.246,56.343,22.893,57.966,22.951l.066,0a1.73,1.73,0,0,0,.978-.331l-.978-1.451c.3-.515.527-1.054.8-1.581a1.765,1.765,0,0,0-.738-.2c-.272-.012-19.979-.855-37.36-8.784-6.794-3.1-7.727-3.507-13.984-7.953" transform="translate(128.232 29.143)" fill="#3f1c27"/>
        <path id="Trazado_1065181" data-name="Trazado 1065181" d="M77.92,73.979h0a34.175,34.175,0,0,0,11.234-9.46L101.822,48S87.142,60.382,73.5,62.632Z" transform="translate(106.626 69.631)" fill="#3f1c27"/>
        <path id="Trazado_1065182" data-name="Trazado 1065182" d="M149.077,61.914c-3.835-5.4-12.357-11.5-22.155-6.593-6.279,3.147-21.456,22.748-31.554,36.431L85.315,65.967S68.25,71.683,68.4,78.873s13.4,35.975,13.4,35.975c1.757,5.61,11.639,7.274,24.243-7.041,18.748-21.29,49.6-14.4,56.2-20.827s-9.33-19.667-13.166-25.066" transform="translate(99.231 77.643)" fill="#d9dedb"/>
      </g>
    </g>
    <g id="Grupo_1210352" data-name="Grupo 1210352" transform="translate(1052.472 3430.695)">
      <g id="Grupo_1210351" data-name="Grupo 1210351" transform="translate(0 0)" clip-path="url(#clip-path-4)">
        <path id="Trazado_1065187" data-name="Trazado 1065187" d="M77.87,30.635a30.934,30.934,0,0,0-14.244,2.093c3.953,2.369,10.511,4.367,15.17,3.351-1.029-1.321-.621-3.506-.879-5.138Z" transform="translate(28.464 13.658)" fill="#072d43"/>
        <path id="Trazado_1065188" data-name="Trazado 1065188" d="M79.975,30.354a11.452,11.452,0,0,0-2.623.842l-.129,1.463a3.76,3.76,0,0,0,.074,3.1l.465.262c5.176-.156,9.506-.682,14.11-3.245-3.772-1.822-7.781-2.118-11.9-2.421" transform="translate(34.414 13.58)" fill="#072d43"/>
        <path id="Trazado_1065189" data-name="Trazado 1065189" d="M22.781,45.864c-3.854.11-14.338-.216-17.124,2.912a2.613,2.613,0,0,0-.362.562l.159,1.018C9.381,52.982,18.509,53.445,23,53.042l-.719-.832c-.052-1.99-.436-4.542.5-6.345" transform="translate(2.369 20.519)" fill="#073133"/>
        <path id="Trazado_1065190" data-name="Trazado 1065190" d="M20.958,45.631c-.977,1.835-.663,5.452-.447,7.516,3.922.483,12.482-.553,15.827-2.571a1.956,1.956,0,0,0,1.219-1.708C34.31,44.7,25.78,46.863,21.333,45.732Z" transform="translate(9.075 20.414)" fill="#073133"/>
        <path id="Trazado_1065191" data-name="Trazado 1065191" d="M18.233,35.46l-1.327.735.03,7.549c.012,1.492-.172,3.116.447,4.506a3.36,3.36,0,0,0,.2,2.268c-.935,1.8-.551,4.354-.5,6.344l.719.832h4.216c-.216-2.064-.531-5.679.447-7.516a3.081,3.081,0,0,1,.042-2.326c-1.3-2.53-.5-8.843-.494-11.851l-.651-.486Z" transform="translate(7.563 15.864)" fill="#9b2f14"/>
        <path id="Trazado_1065192" data-name="Trazado 1065192" d="M81.765,0C78.988.89,76.7,4.949,75.393,7.489A46.319,46.319,0,0,0,71.367,20.14c-2.343-.971-6.641-3.312-9.185-2.873l-.344.3.207.148c3.259,2.3,6.9,4.113,10.188,6.5,2.678,1.947,4.956,4.43,7.616,6.328l2.106.025a3.237,3.237,0,0,1-.624-1.022c-.556-1.879-.135-5.037-.148-7.107L81.15,8.331A64.675,64.675,0,0,1,81.2,1.5,3.833,3.833,0,0,1,81.765,0" transform="translate(27.664 0)" fill="#71932c"/>
        <path id="Trazado_1065193" data-name="Trazado 1065193" d="M80.046,25.117c-2.662-1.9-4.938-4.381-7.618-6.328-3.288-2.391-6.927-4.206-10.187-6.5l-.207-.148c-1.232,2.1-.405,5.979.2,8.331,1.679,6.5,5.089,12.058,11,15.5l5.64,2.652a15.3,15.3,0,0,0,.181-4.263l-.069-8.236Z" transform="translate(27.467 5.43)" fill="#5d7819"/>
        <path id="Trazado_1065194" data-name="Trazado 1065194" d="M27.136,8.941l-.787-.21c-5.788,6.8-10.02,14.387-11.808,23.178A52.225,52.225,0,0,0,.966,28.587l-.344.164A25.525,25.525,0,0,0,5.34,32c4.315,2.728,9.447,5.334,13.43,8.441a25,25,0,0,1,4.09,4.261c.486.63,1.136,2.087,1.792,2.4a6.027,6.027,0,0,0,.866.318l3.134.055-1.722-.181-.379-.479-.038-27.953-.039-6.322a12.159,12.159,0,0,1-.017-2.468,6.565,6.565,0,0,1,.68-1.13" transform="translate(0.278 3.906)" fill="#71932c"/>
        <path id="Trazado_1065195" data-name="Trazado 1065195" d="M.9,22.563a7.453,7.453,0,0,0-.792,1.223c-.414,1.206.478,5.9.787,7.357C2.415,38.252,7.4,45.882,13.528,49.794a32.859,32.859,0,0,0,11.42,4.226c-.621-1.388-.436-3.013-.449-4.506l-.029-7.549L25.8,41.23a5.912,5.912,0,0,1-.866-.317c-.654-.316-1.3-1.773-1.792-2.4a24.949,24.949,0,0,0-4.09-4.261c-3.983-3.107-9.116-5.713-13.43-8.441A25.574,25.574,0,0,1,.9,22.563" transform="translate(0 10.094)" fill="#5d7819"/>
        <path id="Trazado_1065196" data-name="Trazado 1065196" d="M81.523,43.933c.521-1.141,5.03-3.27,6.273-4.358,6.61-5.8,8.04-14.029,8.5-22.347a49.617,49.617,0,0,0-10.2,2.8A30.838,30.838,0,0,0,76.563,0,3.819,3.819,0,0,0,76,1.5a64.293,64.293,0,0,0-.051,6.829l.033,14.112c.013,2.071-.408,5.229.146,7.108a3.284,3.284,0,0,0,.625,1.022l-2.106-.026-1.064,1,.069,8.234a15.3,15.3,0,0,1-.181,4.263l0,.249.048.305c.258,1.631-.151,3.817.879,5.138l1.777-.091h.384a19,19,0,0,0,2.291-.307,3.761,3.761,0,0,1-.074-3.1l.129-1.463a11.452,11.452,0,0,1,2.623-.842" transform="translate(32.867 0)" fill="#90ba54"/>
        <path id="Trazado_1065197" data-name="Trazado 1065197" d="M78.9,35.333c-.944-1.219-.706-2.526-.706-3.985,0-2.882.672-7.319-.159-10.009l-1.284-.21-2.1-.026-1.064,1,.069,8.236a15.35,15.35,0,0,1-.181,4.261l0,.249.046.305c.259,1.633-.151,3.817.879,5.138l1.779-.091h.384a19.27,19.27,0,0,0,2.29-.305,3.764,3.764,0,0,1-.072-3.1Z" transform="translate(32.867 9.442)" fill="#762118"/>
        <path id="Trazado_1065198" data-name="Trazado 1065198" d="M78.17,35.325c-.944-1.219-.706-2.526-.706-3.985,0-2.882.672-7.319-.159-10.009l-1.284-.21c-1.278,1.974-.973,16.131-.58,19.073h.384a19.27,19.27,0,0,0,2.29-.305,3.764,3.764,0,0,1-.072-3.1Z" transform="translate(33.597 9.45)" fill="#c83e1d"/>
        <path id="Trazado_1065199" data-name="Trazado 1065199" d="M77.89,32.308,76.9,31.14l-1.146.065a9.518,9.518,0,0,0-.077,4.509,19.041,19.041,0,0,0,2.291-.307,3.761,3.761,0,0,1-.074-3.1" transform="translate(33.749 13.931)" fill="#de6845"/>
        <path id="Trazado_1065200" data-name="Trazado 1065200" d="M19.173,8.876a6.565,6.565,0,0,0-.68,1.13,12.159,12.159,0,0,0,.017,2.468l.039,6.322.038,27.953.379.479,1.722.181.65.488c-.009,3.006-.8,9.321.5,11.85,3.207-.939,6.347-1.8,9.175-3.637,5.959-3.859,10.265-10.847,11.7-17.736.525-2.529,1.533-8.641.168-10.716-4.689-.207-8.832,1.527-12.939,3.572a42.023,42.023,0,0,0-5.813-15.1c-1.546-2.492-3.427-4.747-4.956-7.251" transform="translate(8.242 3.971)" fill="#90ba54"/>
        <path id="Trazado_1065201" data-name="Trazado 1065201" d="M62.59,93.691c-3.22.333-9.168.428-11.363,3.134l-.151.2a1.881,1.881,0,0,0,1.116,1.722c3.28,2.08,10.036,2.874,13.882,2.628l-.331-.463c-.87-1.426-.475-4.862-.048-6.4a17.877,17.877,0,0,1-3.1-.822" transform="translate(22.85 41.915)" fill="#073133"/>
        <path id="Trazado_1065202" data-name="Trazado 1065202" d="M64.087,101.755A68.844,68.844,0,0,0,77.254,100.3a14.217,14.217,0,0,0,4.388-1.481c.986-.667.977-.967,1.158-2.076l-.512-.566c-2.407-2.452-9.013-2.647-12.366-2.721a22.787,22.787,0,0,0-5.3,2.07c-1.068,1.627-.6,4.339-.534,6.227" transform="translate(28.599 41.811)" fill="#073133"/>
        <path id="Trazado_1065203" data-name="Trazado 1065203" d="M70.488,104.422c.426-.968,2.653-2.268,3.493-3.086A26.713,26.713,0,0,0,80.633,90.86c.861-2.594,2.294-7.874,1.055-10.372-2.773.211-5.839,1.695-8.435,2.715-1.895-6.234-4.707-10.11-9.689-14.251a3.786,3.786,0,0,0-.517,1.44c-.58,6.2.069,12.921.026,19.185l-.24,10.3c-.052,1.521-.384,3.919.042,5.363a3.362,3.362,0,0,0,.32.682,4.818,4.818,0,0,0,1.993.567,22.787,22.787,0,0,1,5.3-2.07" transform="translate(28.033 30.848)" fill="#90ba54"/>
        <path id="Trazado_1065204" data-name="Trazado 1065204" d="M69.107,68.953c-2.653.457-4.672,2.712-6.2,4.885-2.269,3.216-2.584,6.05-3.849,9.545L51.4,81.176l-.456.646.211.819c-1.2,1.557-.909,2.714-.667,4.63a22.713,22.713,0,0,0,8.933,15.72,14.033,14.033,0,0,0,3.527,1.767,17.877,17.877,0,0,0,3.1.822c-.427,1.539-.822,4.975.048,6.4l.331.462a10.054,10.054,0,0,0,3.763.276c-.069-1.886-.534-4.6.534-6.225a4.868,4.868,0,0,1-1.994-.567,3.448,3.448,0,0,1-.318-.683c-.426-1.443-.094-3.841-.043-5.363l.242-10.3c.043-6.264-.608-12.981-.026-19.185a3.779,3.779,0,0,1,.517-1.44" transform="translate(22.49 30.848)" fill="#71932c"/>
        <path id="Trazado_1065205" data-name="Trazado 1065205" d="M61.953,86.089a6.548,6.548,0,0,0-.835,1.133,12.315,12.315,0,0,0-.065,2.562,44.279,44.279,0,0,0-.081,6.95,5.294,5.294,0,0,0,.353,1.18c-.427,1.539-.824,4.975.046,6.4l.331.463a10.094,10.094,0,0,0,3.765.276c-.069-1.887-.534-4.6.533-6.227a4.846,4.846,0,0,1-1.993-.567,5.577,5.577,0,0,1-.826-.894,8.245,8.245,0,0,1,0-1.721V89.463a8.623,8.623,0,0,0-.009-1.857,11.274,11.274,0,0,0-1.223-1.517" transform="translate(27.219 38.514)" fill="#9b2f14"/>
        <path id="Trazado_1065206" data-name="Trazado 1065206" d="M51.156,78.41c-1.2,1.557-.909,2.714-.667,4.632A22.709,22.709,0,0,0,59.424,98.76a14.024,14.024,0,0,0,3.526,1.767,17.911,17.911,0,0,0,3.1.822,5.451,5.451,0,0,1-.353-1.18,44.106,44.106,0,0,1,.082-6.95,12.318,12.318,0,0,1,.064-2.562,6.7,6.7,0,0,1,.835-1.133c-2.575-1.391-5.161-4.193-7.6-5.973-2.566-1.871-5.357-3.312-7.923-5.141" transform="translate(22.49 35.079)" fill="#5d7819"/>
      </g>
    </g>
    <g id="Grupo_1210354" data-name="Grupo 1210354" transform="translate(1140.463 3347.5)">
      <g id="Grupo_1210353" data-name="Grupo 1210353" clip-path="url(#clip-path-5)">
        <path id="Trazado_1065207" data-name="Trazado 1065207" d="M17.37,39.384c-3.537.169-9.99.018-12.685,2.519-.128.362-.354.68-.173,1.038.581,1.148,3.323,1.773,4.472,2.04a54.19,54.19,0,0,0,20.5.289,14.024,14.024,0,0,0,4.775-1.424,1.362,1.362,0,0,0,.8-1.149c-.541-1.1-1.639-1.407-2.731-1.775A31.857,31.857,0,0,0,23.1,39.748l-.549.207c0,1.479.342,2.974-.6,4.141l-1.47.584a4.338,4.338,0,0,1-1.538-.367c-1.607-.9-.845-3.229-1.229-4.768l-.042-.156Z" fill="#073133"/>
        <path id="Trazado_1065208" data-name="Trazado 1065208" d="M.657,11.865c-1.113,1.5-.535,4.371-.265,6.212,1.146,7.809,5.156,13.348,11.43,17.966l5.548,3.34.3.006-.2-11.608a48.725,48.725,0,0,1-3.629-4.362,74.416,74.416,0,0,0-7.4-7.166,39.084,39.084,0,0,0-3.882-2.829c-.738-.489-1.485-.768-1.9-1.559" fill="#5d7819"/>
        <path id="Trazado_1065209" data-name="Trazado 1065209" d="M23.1,39.747a37.107,37.107,0,0,0,7.908-5.772c6.762-6.307,9.831-14.218,10.16-23.343a55.1,55.1,0,0,0-10.674,4.673,24.283,24.283,0,0,0-1.475-5.223,22.59,22.59,0,0,0-6.131-8.265A9.341,9.341,0,0,0,20.326,0c-3.779,2.9-7.415,6.421-9.078,11.014-.41,1.14-.722,3.345-1.368,4.28A29.267,29.267,0,0,0,.946,11.779l-.288.086c.416.791,1.163,1.07,1.9,1.559a39.084,39.084,0,0,1,3.882,2.829,74.634,74.634,0,0,1,7.4,7.166,48.725,48.725,0,0,0,3.629,4.362l.2,11.608.042.155c.384,1.539-.378,3.863,1.229,4.768a4.338,4.338,0,0,0,1.538.367l1.47-.584c.945-1.166.6-2.662.6-4.141Z" fill="#90ba54"/>
        <path id="Trazado_1065210" data-name="Trazado 1065210" d="M20.111,26.285a7.334,7.334,0,0,0-2.642,1.5l.2,11.607.042.156c.383,1.539-.378,3.863,1.229,4.768a4.333,4.333,0,0,0,1.538.367l1.47-.584c.945-1.166.6-2.662.6-4.141l-.03-12.331c-.507-.807-1.555-1.034-2.409-1.339" fill="#c83e1d"/>
        <path id="Trazado_1065211" data-name="Trazado 1065211" d="M20.111,26.285a7.334,7.334,0,0,0-2.642,1.5l.2,11.607.042.156c.383,1.539-.378,3.863,1.229,4.768a4.333,4.333,0,0,0,1.538.367c-.99-1.2-.428-15.854-.366-18.4" fill="#762118"/>
        <path id="Trazado_1065212" data-name="Trazado 1065212" d="M20.326,0c-3.78,2.9-7.415,6.421-9.078,11.015-.41,1.139-.723,3.344-1.368,4.279A29.277,29.277,0,0,0,.946,11.779l-.289.086c.417.791,1.164,1.07,1.9,1.559a39.1,39.1,0,0,1,3.883,2.829,74.514,74.514,0,0,1,7.4,7.166,48.735,48.735,0,0,0,3.63,4.362,7.334,7.334,0,0,1,2.642-1.5,59.244,59.244,0,0,0,.1-7.339c.008-6.281-.246-12.681.11-18.945" fill="#71932c"/>
      </g>
    </g>
  </g>
</svg>
