<svg xmlns="http://www.w3.org/2000/svg" xmlns:xlink="http://www.w3.org/1999/xlink" width="110" height="110" viewBox="0 0 110 110">
  <defs>
    <clipPath id="clip-path">
      <rect id="Rectángulo_401853" data-name="Rectángulo 401853" width="69.259" height="75.25" fill="#fff"/>
    </clipPath>
  </defs>
  <g id="Grupo_1211333" data-name="Grupo 1211333" transform="translate(-230.051 -3043)">
    <circle id="Elipse_11509" data-name="Elipse 11509" cx="55" cy="55" r="55" transform="translate(230.051 3043)" fill="#d02411"/>
    <g id="Grupo_1210361" data-name="Grupo 1210361" transform="translate(250.688 3055.5)">
      <g id="Grupo_1210360" data-name="Grupo 1210360" transform="translate(0 0)" clip-path="url(#clip-path)">
        <path id="Trazado_1065222" data-name="Trazado 1065222" d="M20.005,67.442A11.545,11.545,0,0,1,22.7,72.865a8.393,8.393,0,0,1,.136.9,1.211,1.211,0,0,1-1.361,1.48c-2.022.012-4.044,0-6.065,0H1.833c-1.611,0-2.051-.511-1.739-2.1a11.393,11.393,0,0,1,6.338-8.378l.673-.339A6.532,6.532,0,0,1,9.39,53.49c-.325-1-.632-2.006-.991-2.994a.961.961,0,0,0-.523-.453c-1.24-.5-2.482-1-3.739-1.453a1.447,1.447,0,0,1-1.054-1.548q.028-3.83,0-7.66a1.449,1.449,0,0,1,1.07-1.538c1.233-.448,2.46-.916,3.667-1.429a1.43,1.43,0,0,0,.661-.7q1.254-2.913,2.432-5.859a1.324,1.324,0,0,0,.026-.9c-.508-1.237-1.061-2.454-1.62-3.671a1.415,1.415,0,0,1,.334-1.778q2.754-2.713,5.471-5.468a1.4,1.4,0,0,1,1.773-.334c1.191.552,2.388,1.09,3.608,1.576a1.576,1.576,0,0,0,1.02-.02A5.831,5.831,0,0,0,25,16.026a9.806,9.806,0,0,1,4.8-4.466c.2-.1.407-.2.608-.3.02-.01.029-.041.073-.109a6.4,6.4,0,0,1-2.034-5.364,6.2,6.2,0,0,1,2.119-4.153,6.379,6.379,0,0,1,8.51-.019C41.853,4.11,41.9,7.5,39.2,11.225c.181.1.353.191.53.276a11.541,11.541,0,0,1,5.743,5.992,2.246,2.246,0,0,0,.785.821c.324.232.77.3,1.073.55a2.222,2.222,0,0,0,2.756.056c.862-.467,1.8-.8,2.688-1.218a1.369,1.369,0,0,1,1.72.29q2.78,2.8,5.573,5.58a1.333,1.333,0,0,1,.3,1.652c-.557,1.216-1.117,2.432-1.613,3.674a1.539,1.539,0,0,0,.037,1.036q1.152,2.915,2.395,5.795a1.41,1.41,0,0,0,.668.692c1.206.514,2.432.985,3.665,1.431a1.416,1.416,0,0,1,1.046,1.478q-.013,3.906,0,7.811a1.375,1.375,0,0,1-1,1.431c-1.233.451-2.465.908-3.665,1.432a1.586,1.586,0,0,0-.732.816c-.366.91-.64,1.855-.966,2.827a6.415,6.415,0,0,1,3.929,4.859,6.351,6.351,0,0,1-2,5.9c.228.123.417.227.61.322a11.384,11.384,0,0,1,6.432,8.476c.295,1.541-.148,2.039-1.729,2.039H48.109c-1.424,0-1.84-.445-1.64-1.841a11.189,11.189,0,0,1,2.444-5.546c.141-.175.29-.346.448-.537a.974.974,0,0,0-1.272-.158c-1.884.841-3.812,1.587-5.706,2.405a1.53,1.53,0,0,0-.758.7c-.518,1.2-.969,2.437-1.427,3.667a1.413,1.413,0,0,1-1.487,1.029q-3.868-.033-7.735,0a1.436,1.436,0,0,1-1.528-1.076c-.417-1.163-.921-2.3-1.315-3.468a1.445,1.445,0,0,0-1.034-.944q-2.683-1.022-5.311-2.18c-.887-.392-.86-.453-1.783.146m33.487-3.023a1.753,1.753,0,0,0-.15-.21A6.159,6.159,0,0,1,51.807,57.5a6.233,6.233,0,0,1,5.486-4.27.839.839,0,0,0,.565-.453c.416-1.111.831-2.224,1.136-3.367a1.868,1.868,0,0,1,1.294-1.424c1.119-.393,2.211-.86,3.328-1.259a.687.687,0,0,0,.531-.773q-.031-2.729,0-5.461a.688.688,0,0,0-.525-.777c-1.163-.417-2.3-.9-3.464-1.322a1.608,1.608,0,0,1-1.116-1.216,23.942,23.942,0,0,0-2.833-6.827,1.549,1.549,0,0,1-.085-1.579c.533-1.143,1.02-2.31,1.55-3.454a.639.639,0,0,0-.141-.855c-1.339-1.306-2.642-2.649-3.987-3.948a.868.868,0,0,0-.755-.145q-1.753.71-3.463,1.524a1.613,1.613,0,0,1-1.712-.1c-.416-.269-.865-.489-1.34-.753-.3.848-.918.981-1.661.979q-9.747-.02-19.491.005a1.661,1.661,0,0,1-1.787-.969,11.823,11.823,0,0,0-1.1.622,1.869,1.869,0,0,1-2.121.138c-1.034-.525-2.121-.944-3.166-1.446a.67.67,0,0,0-.911.17q-1.9,1.96-3.861,3.861a.732.732,0,0,0-.165.99c.518,1.1.981,2.216,1.492,3.315a1.689,1.689,0,0,1-.1,1.719,23.4,23.4,0,0,0-2.77,6.691A1.664,1.664,0,0,1,9.5,38.4c-1.329.479-2.637,1.012-3.981,1.531,0,2.073-.014,4.12.022,6.166a.884.884,0,0,0,.492.6c1.14.48,2.291.932,3.458,1.342a1.714,1.714,0,0,1,1.153,1.277c.279.995.632,1.969.921,2.962a1.461,1.461,0,0,0,1.276,1.134,6.361,6.361,0,0,1,4.839,7.649,6.869,6.869,0,0,1-1.857,3.274,3.01,3.01,0,0,0,4.217.344,3.169,3.169,0,0,1,.344-.158,1.5,1.5,0,0,1,1.576.083,24.113,24.113,0,0,0,6.827,2.834,1.6,1.6,0,0,1,1.22,1.109c.416,1.138.886,2.255,1.288,3.4a.764.764,0,0,0,.877.591c1.77-.029,3.539-.037,5.307.005a.815.815,0,0,0,.916-.661A35.857,35.857,0,0,1,39.71,68.5a2.007,2.007,0,0,1,1.1-.995,30.783,30.783,0,0,0,6.973-2.9,2.074,2.074,0,0,1,1.414-.083,16.479,16.479,0,0,1,1.875.8.9.9,0,0,0,.625.06c.611-.284,1.194-.63,1.8-.959M66.52,72.785c-.523-3.591-4.532-6.692-8.654-6.725-4.1-.031-8.121,3.049-8.733,6.725Zm-46.382.009c-.738-3.836-4.81-6.885-8.915-6.726-4.136.16-8.067,3.272-8.474,6.726Zm6.026-53.259H43.539a8.949,8.949,0,0,0-9.481-6.656c-3.694.213-7.563,3.464-7.895,6.656M34.82,2.427a3.992,3.992,0,1,0,4,4,4,4,0,0,0-4-4m23,53.236A3.976,3.976,0,1,0,61.8,59.648a3.946,3.946,0,0,0-3.984-3.984M7.457,59.615a3.973,3.973,0,1,0,4.015-3.952,3.943,3.943,0,0,0-4.015,3.952" transform="translate(0 0)" fill="#fff"/>
        <path id="Trazado_1065223" data-name="Trazado 1065223" d="M8.549,33.794A20.264,20.264,0,1,1,28.8,54.049,20.244,20.244,0,0,1,8.549,33.794m2.427-.068A17.837,17.837,0,1,0,28.849,15.943,17.85,17.85,0,0,0,10.976,33.726" transform="translate(6.012 9.506)" fill="#fff"/>
        <path id="Trazado_1065224" data-name="Trazado 1065224" d="M24.627,35.1c0-.933.041-1.869-.024-2.8a1.6,1.6,0,0,0-.506-.857,10.384,10.384,0,0,1,.194-15.106c1.1-1.041,1.518-1.053,2.63-.068a10.342,10.342,0,0,1,.761,15.016,2.064,2.064,0,0,0-.64,1.673c.053.724.012,1.455.012,2.18.09.072.179.145.269.216a2.3,2.3,0,0,1,.295-.586,11.276,11.276,0,0,1,9.7-3.665c1.361.119,1.734.577,1.576,1.831A11.392,11.392,0,0,1,28.2,42.954l-1.146.066c0,1.318,0,2.6,0,3.878,0,.329.014.659-.015.986a1.106,1.106,0,0,1-1.124,1.105,1.093,1.093,0,0,1-1.233-.983,10.279,10.279,0,0,1-.053-1.589c-.005-1.109,0-2.219,0-3.361-.85-.089-1.656-.123-2.441-.262a11.433,11.433,0,0,1-9.4-9.9c-.136-1.114.22-1.625,1.349-1.753a11.278,11.278,0,0,1,9.779,3.432c.189.192.361.4.542.6.056-.027.111-.055.167-.08m0-7.2c0-.267,0-.533,0-.8,0-1.01-.022-2.022.019-3.03a1.138,1.138,0,0,1,1.061-1.18,1.1,1.1,0,0,1,1.255.753,2.641,2.641,0,0,1,.089.9c.009,1.066,0,2.133,0,3.354a7.5,7.5,0,0,0-1.448-9.378,7.469,7.469,0,0,0-.979,9.385m11.6,5.652c-2.981-.419-7.249,2.131-8.116,4.929.775-.562,1.5-1.049,2.185-1.591,1.235-.981,1.771-1.017,2.419-.274.581.664.247,1.347-1.022,2.27-.525.382-1.049.766-1.676,1.223,2.928-.576,6.093-3.981,6.21-6.558m-20.794-.017c.409,2.839,3.8,6.483,6.008,6.4-.657-.482-1.266-.925-1.872-1.371-.874-.642-1.078-1.317-.593-1.957s1.138-.642,1.993-.027,1.722,1.254,2.695,1.959a8.726,8.726,0,0,0-8.23-5.006" transform="translate(8.976 10.937)" fill="#fff"/>
      </g>
    </g>
  </g>
</svg>
