<svg xmlns="http://www.w3.org/2000/svg" xmlns:xlink="http://www.w3.org/1999/xlink" width="110" height="110" viewBox="0 0 110 110">
  <defs>
    <clipPath id="clip-path">
      <rect id="Rectángulo_401856" data-name="Rectángulo 401856" width="69.708" height="73.091" fill="#fff"/>
    </clipPath>
  </defs>
  <g id="Grupo_1211336" data-name="Grupo 1211336" transform="translate(-230.051 -3475)">
    <circle id="Elipse_11512" data-name="Elipse 11512" cx="55" cy="55" r="55" transform="translate(230.051 3475)" fill="#d02411"/>
    <g id="Grupo_1210367" data-name="Grupo 1210367" transform="translate(250.837 3497.5)">
      <g id="Grupo_1210366" data-name="Grupo 1210366" transform="translate(0 0)" clip-path="url(#clip-path)">
        <path id="Trazado_1065236" data-name="Trazado 1065236" d="M49.716,57.462a8.393,8.393,0,0,1,5.249,4.458c.694,1.324.635,1.678-.666,2.482-3,1.857-6.014,2.076-9.018.03-.942-.642-1.835-1.357-2.75-2.038.1-.186.192-.374.289-.56-.706.874-1.46,1.711-2.105,2.626-1.785,2.535-3.524,5.1-5.285,7.655-.391.566-.794,1.16-1.625.921-.856-.245-.821-.975-.825-1.66-.008-1.177-.042-2.356.012-3.532a1.222,1.222,0,0,0-.825-1.31c-3.079-1.48-6.159-2.961-9.211-4.495-2.447-1.231-4.837-2.577-7.293-3.789a4.131,4.131,0,0,0-2.014-.333c-1.455.1-2.9.38-4.351.51-5.026.453-8.29-2.17-8.939-7.162-.142-1.1-.217-2.2-.342-3.3A1.15,1.15,0,0,1,1.057,46.51a64.981,64.981,0,0,1,7.006-.792,7.454,7.454,0,0,1,7.569,7.321c.117,2.206.907,3.494,2.958,4.1a3.429,3.429,0,0,1,.557.254,34.838,34.838,0,0,1,.306-4.26,7.365,7.365,0,0,1,3.055-4.38,1.242,1.242,0,0,1,1.729.18c4.033,3.465,3.978,8.219,1.446,11.338a1.639,1.639,0,0,0-.145.374l7.349,3.707V47.186c-1.593,0-3.183.024-4.772-.011a5.441,5.441,0,0,1-1.882-.267,3.4,3.4,0,0,1-1.321-5.415,2.1,2.1,0,0,0,.435-1.324,15.387,15.387,0,0,0-3.871-9.08,1.428,1.428,0,0,0-.86-.521c-2.309-.042-4.619-.023-7.045-.023A10.981,10.981,0,0,1,13.56,31.9a1.4,1.4,0,0,0,.868,1.586,3.53,3.53,0,0,1,1.48,4.458A3.643,3.643,0,0,1,8.9,36.337a3.776,3.776,0,0,1,1.739-2.924,1.652,1.652,0,0,0,.6-1.065c.089-.847.017-1.71.032-2.567.02-1.181.363-1.534,1.536-1.542,2.02-.012,4.04,0,5.961,0-.953-2.425-1.882-4.789-2.879-7.325H7.693c-2.7,0-2.7,0-2.7-2.737,0-3.1-.012-6.211.011-9.314a1.237,1.237,0,0,0-.7-1.266,3.543,3.543,0,0,1-1.673-4.13A3.665,3.665,0,0,1,6.135.827a3.618,3.618,0,0,1,3.5,2.634,3.711,3.711,0,0,1-1.64,4.174,1.555,1.555,0,0,0-.7,1.009c-.051,3.139-.029,6.28-.023,9.421a3.091,3.091,0,0,0,.079.471h8.511A18.354,18.354,0,0,1,34.2,0,18.257,18.257,0,0,1,52,18.526h8.7V16.493c0-2.213-.038-4.427.017-6.638a2.487,2.487,0,0,0-1.171-2.635,3.283,3.283,0,0,1-1.072-4.107,3.64,3.64,0,0,1,6.919.5,3.524,3.524,0,0,1-1.667,3.948,1.292,1.292,0,0,0-.738,1.351c.024,3.389.015,6.78.009,10.169,0,1.53-.294,1.823-1.8,1.826-3.136,0-6.273,0-9.214,0-1.013,2.508-1.978,4.89-2.962,7.325,1.987,0,4.08,0,6.173,0,1.457,0,1.72.276,1.737,1.767,0,.429.03.859,0,1.284a2.5,2.5,0,0,0,1.127,2.588,3.491,3.491,0,0,1,.185,5.282,3.653,3.653,0,0,1-5.263-.15c-1.414-1.557-1.324-4.237.491-5.256,1.5-.84,1.21-1.9,1.184-3.2-2.555,0-5.041-.015-7.527.021a1.252,1.252,0,0,0-.772.474,15.962,15.962,0,0,0-3.995,9.594,2.145,2.145,0,0,0,.371,1.165A3.4,3.4,0,0,1,40,47.164c-1.528.074-3.062.014-4.683.014V68.221c3.062-4.305,5.484-9.018,10.72-11.064a8.026,8.026,0,0,1-2.5-7.49,9.236,9.236,0,0,1,2.693-4.652c.485-.51,1.078-.389,1.637.041,2.677,2.061,4.181,4.636,3.636,8.135a2.169,2.169,0,0,0,.024.386c1.177-.474,2.2-.943,2.185-2.487a11.17,11.17,0,0,1,.409-2.744c1.018-4.081,4.631-6.341,9.186-5.774,1.661.207,3.318.442,4.976.683,1.249.182,1.546.571,1.374,1.793-.17,1.2-.306,2.406-.553,3.591-.981,4.7-4.572,7.159-9.342,6.457-1.445-.214-2.9-.392-4.348-.554a1.811,1.811,0,0,0-1.024.118c-1.511.863-2.989,1.782-4.681,2.8M32.956,18.539c0-1.013-.048-1.97.014-2.92a1.656,1.656,0,0,0-.919-1.8A3.436,3.436,0,0,1,30.589,9.9a3.642,3.642,0,0,1,6.934-.3c.715,1.891-.071,3.568-2.237,4.793v4.142H49.509c.68-5.052-2.72-11.244-7.7-14.116A15.738,15.738,0,0,0,18.27,18.539Zm-14.441,2.42A15.08,15.08,0,0,0,21.751,27.9a1.536,1.536,0,0,0,1.042.323c1.958.03,3.918.015,5.876.015h4.178V20.959ZM35.24,28.231c3.45,0,6.792.006,10.136-.012a.931.931,0,0,0,.642-.282,14.93,14.93,0,0,0,3.3-6.953H35.24ZM27.688,40.272H32.8V30.606H24.067a18.761,18.761,0,0,1,3.621,9.666M10.875,55.828a26.774,26.774,0,0,1-3.083-1.645,1.567,1.567,0,0,1-.426-1.414c.1-.3.819-.477,1.29-.553.264-.044.583.218.869.359,1.287.638,2.571,1.281,3.974,1.981-.064-.774-.079-1.378-.17-1.969A5.4,5.4,0,0,0,8,47.967c-1.831.07-3.651.41-5.455.627-.357,6,2.911,8.635,8.334,7.234m24.35-25.247v9.672h4.658a49.566,49.566,0,0,1,1.367-5.046,49.176,49.176,0,0,1,2.314-4.626ZM56.145,50.9c1.4-.837,2.685-1.589,3.951-2.369.669-.413,1.325-.5,1.757.226.444.748.115,1.333-.624,1.76-1.025.591-2.019,1.234-3.151,1.934,6.042,1.467,8.946-.825,9.1-7.034-1.4-.186-2.8-.391-4.205-.556-4.175-.486-6.632,1.631-6.83,6.039M33.654,44.89c1.957,0,3.915-.009,5.871,0,.8.006,1.48-.18,1.507-1.1s-.662-1.193-1.442-1.2q-5.872-.018-11.744,0c-.786,0-1.461.254-1.445,1.189s.686,1.121,1.487,1.115c1.922-.015,3.844,0,5.765,0m-10.286,14.4c2.461-2.228,2.322-6.4-.215-7.984a5.236,5.236,0,0,0,.215,7.984m29.27,3.32a5.038,5.038,0,0,0-7.616-2.054,5.059,5.059,0,0,0,7.616,2.054m-4.864-7.156c2.35-2.2,1.99-6.35-.685-7.863a5.328,5.328,0,0,0,.685,7.863m9.3-18.86c-.109-.784-.466-1.316-1.346-1.336a1.311,1.311,0,1,0-.086,2.62c.851.027,1.283-.471,1.433-1.284M61.8,5.781c.928-.014,1.414-.5,1.411-1.316a1.353,1.353,0,0,0-2.706.008A1.208,1.208,0,0,0,61.8,5.781M34.18,9.514a1.379,1.379,0,0,0-1.439,1.395,1.278,1.278,0,0,0,1.41,1.287,1.225,1.225,0,0,0,1.295-1.375A1.253,1.253,0,0,0,34.18,9.514M6.273,5.756c.656.092,1.14-.373,1.195-1.19A1.213,1.213,0,0,0,6.239,3.149,1.2,1.2,0,0,0,4.82,4.365c-.047.824.326,1.346,1.452,1.392m7.6,30.78a1.224,1.224,0,0,0-1.354-1.277A1.189,1.189,0,0,0,11.2,36.576a1.2,1.2,0,0,0,1.342,1.3,1.242,1.242,0,0,0,1.33-1.342" transform="translate(0 0)" fill="#fff"/>
      </g>
    </g>
  </g>
</svg>
