<svg xmlns="http://www.w3.org/2000/svg" xmlns:xlink="http://www.w3.org/1999/xlink" width="451.91" height="291.128" viewBox="0 0 451.91 291.128">
  <defs>
    <clipPath id="clip-path">
      <rect id="Rectángulo_402669" data-name="Rectángulo 402669" width="451.91" height="291.128" fill="none"/>
    </clipPath>
  </defs>
  <g id="Grupo_1211331" data-name="Grupo 1211331" transform="translate(-269.051 -4979)">
    <g id="Grupo_1211258" data-name="Grupo 1211258" transform="translate(269.051 4979)">
      <g id="Grupo_1211257" data-name="Grupo 1211257" clip-path="url(#clip-path)">
        <path id="Trazado_1067398" data-name="Trazado 1067398" d="M267.083,52.926c-1.039.052-2.382-.336-3.041.176-.7.546-.21,1.952-.222,2.98-.007.671-.085,1.073-.9.987-1.03-.109-2.34.412-3.03-.2-.655-.583-.215-1.9-.186-2.887.025-.86-.255-1.153-1.088-1.052-.982.12-2.3-.438-2.869.24-.484.572-.225,1.842-.153,2.793s-.279,1.128-1.156,1.119c-2.981-.034-3.027,0-2.977-2.987.017-.989-.309-1.191-1.224-1.179-2.888.041-2.925.006-2.884,2.952.014.927-.2,1.235-1.185,1.218-2.984-.052-3.031-.007-2.981-3,.016-.992-.314-1.186-1.222-1.173-2.874.04-2.931.006-2.858,2.858.028,1.09-.3,1.338-1.346,1.311-2.843-.071-2.889-.021-2.83-2.9.021-.984-.208-1.3-1.239-1.273-2.878.066-2.938.017-2.859,2.87.03,1.1-.3,1.332-1.342,1.306-2.82-.07-2.879-.023-2.8-2.807.034-1.118-.294-1.4-1.383-1.368-2.748.077-2.819.025-2.72,2.755.044,1.2-.325,1.46-1.463,1.423-2.691-.088-2.768-.03-2.661-2.689.049-1.232-.3-1.689-1.5-1.467a2.661,2.661,0,0,1-.481,0c-2.232,0-2.232,0-2.121,2.218-.015,1.721,0,3.442-.058,5.162-.023.69.205.93.884.869s1.358-.044,2.037-.062c.281.016.561.045.842.045q24.447,0,48.895,0c.241,0,.481-.026.722-.04l.186-.18c.015-2.412.008-4.824.059-7.235.015-.671-.25-.815-.844-.785" fill="#fe9900"/>
        <path id="Trazado_1067399" data-name="Trazado 1067399" d="M267.083,52.926c-1.039.052-2.382-.336-3.041.176-.7.546-.21,1.952-.222,2.98-.007.671-.085,1.073-.9.987-1.03-.109-2.34.412-3.03-.2-.655-.583-.215-1.9-.186-2.887.025-.86-.255-1.153-1.088-1.052-.982.12-2.3-.438-2.869.24-.484.572-.225,1.842-.153,2.793s-.279,1.128-1.156,1.119c-2.981-.034-3.027,0-2.977-2.987.017-.989-.309-1.191-1.224-1.179-2.888.041-2.925.006-2.884,2.952.014.927-.2,1.235-1.185,1.218-2.984-.052-3.031-.007-2.981-3,.016-.992-.314-1.186-1.222-1.173-2.874.04-2.931.006-2.858,2.858.028,1.09-.3,1.338-1.346,1.311-2.843-.071-2.889-.021-2.83-2.9.021-.984-.208-1.3-1.239-1.273-2.878.066-2.938.017-2.859,2.87.03,1.1-.3,1.332-1.342,1.306-2.82-.07-2.879-.023-2.8-2.807.034-1.118-.294-1.4-1.383-1.368-2.748.077-2.819.025-2.72,2.755.044,1.2-.325,1.46-1.463,1.423-2.691-.088-2.768-.03-2.661-2.689.049-1.232-.3-1.689-1.5-1.467a2.661,2.661,0,0,1-.481,0c-2.232,0-2.232,0-2.121,2.218-.015,1.721,0,3.442-.058,5.162-.023.69.205.93.884.869s1.358-.044,2.037-.062c.281.016.561.045.842.045q24.447,0,48.895,0c.241,0,.481-.026.722-.04l.186-.18c.015-2.412.008-4.824.059-7.235C267.942,53.04,267.677,52.9,267.083,52.926Z" fill="none" stroke="#fe9900" stroke-miterlimit="10" stroke-width="2"/>
        <path id="Trazado_1067400" data-name="Trazado 1067400" d="M220.562,28.2c0-2.973-.059-5.947.029-8.918.035-1.161-.365-1.436-1.432-1.373-1.4.082-2.812.045-4.217.01-.678-.018-.937.2-.875.9.545,6.092.145,12.2.22,18.3.014,1.108.3,1.469,1.4,1.387a32.177,32.177,0,0,1,3.854-.007c.792.036,1.043-.225,1.033-1.019-.038-3.093-.015-6.187-.015-9.28" fill="#3c4c61"/>
        <path id="Trazado_1067401" data-name="Trazado 1067401" d="M220.562,28.2c0-2.973-.059-5.947.029-8.918.035-1.161-.365-1.436-1.432-1.373-1.4.082-2.812.045-4.217.01-.678-.018-.937.2-.875.9.545,6.092.145,12.2.22,18.3.014,1.108.3,1.469,1.4,1.387a32.177,32.177,0,0,1,3.854-.007c.792.036,1.043-.225,1.033-1.019C220.539,34.39,220.562,31.3,220.562,28.2Z" fill="none" stroke="#3c4c61" stroke-miterlimit="10" stroke-width="2"/>
        <path id="Trazado_1067402" data-name="Trazado 1067402" d="M181.327,50.83a18.525,18.525,0,1,1,18.55-18.524,18.492,18.492,0,0,1-18.55,18.524M175.99,18.911a14.111,14.111,0,0,0-8.922,11.381,13.658,13.658,0,0,0,2.9,10.835A14.44,14.44,0,0,0,194,39.249a4.062,4.062,0,0,0,.267-.908,7.118,7.118,0,0,0,1.324-3.888,13.622,13.622,0,0,0-3.973-12.13,6.07,6.07,0,0,0-2.85-2.186,8.727,8.727,0,0,0-4.543-1.894,13.35,13.35,0,0,0-8.234.668" fill="#c9c9c7"/>
        <path id="Trazado_1067403" data-name="Trazado 1067403" d="M181.327,50.83a18.525,18.525,0,1,1,18.55-18.524A18.492,18.492,0,0,1,181.327,50.83ZM175.99,18.911a14.111,14.111,0,0,0-8.922,11.381,13.658,13.658,0,0,0,2.9,10.835A14.44,14.44,0,0,0,194,39.249a4.062,4.062,0,0,0,.267-.908,7.118,7.118,0,0,0,1.324-3.888,13.622,13.622,0,0,0-3.973-12.13,6.07,6.07,0,0,0-2.85-2.186,8.727,8.727,0,0,0-4.543-1.894A13.35,13.35,0,0,0,175.99,18.911Z" fill="none" stroke="#c9c9c7" stroke-miterlimit="10" stroke-width="3"/>
        <path id="Trazado_1067404" data-name="Trazado 1067404" d="M48.017,99.114c0-2.393,0-2.374,2.433-2.778q10.243-1.7,20.48-3.443c.635-.108.943-.107.9.674a32.673,32.673,0,0,0,0,3.327c.032.673-.234.839-.862.942Q59.9,99.652,48.847,101.548c-.749.128-.889-.117-.839-.771.043-.551.009-1.108.009-1.663" fill="#b3b9cc"/>
        <path id="Trazado_1067405" data-name="Trazado 1067405" d="M48.017,99.114c0-2.393,0-2.374,2.433-2.778q10.243-1.7,20.48-3.443c.635-.108.943-.107.9.674a32.673,32.673,0,0,0,0,3.327c.032.673-.234.839-.862.942Q59.9,99.652,48.847,101.548c-.749.128-.889-.117-.839-.771C48.051,100.226,48.017,99.669,48.017,99.114Z" fill="none" stroke="#b4b9cc" stroke-miterlimit="10" stroke-width="2"/>
        <path id="Trazado_1067406" data-name="Trazado 1067406" d="M59.915,87.325c3.681,0,7.361-.007,11.041.013.283,0,.8-.255.82.318.013.444-.448.344-.736.393q-11.108,1.867-22.214,3.738c-.6.1-.863.031-.823-.667.073-1.218-.383-2.777.213-3.563.567-.746,2.216-.207,3.388-.221,2.77-.034,5.541-.011,8.311-.011" fill="#b4b9cc"/>
        <path id="Trazado_1067407" data-name="Trazado 1067407" d="M59.915,87.325c3.681,0,7.361-.007,11.041.013.283,0,.8-.255.82.318.013.444-.448.344-.736.393q-11.108,1.867-22.214,3.738c-.6.1-.863.031-.823-.667.073-1.218-.383-2.777.213-3.563.567-.746,2.216-.207,3.388-.221C54.374,87.3,57.145,87.325,59.915,87.325Z" fill="none" stroke="#b4b9cc" stroke-miterlimit="10" stroke-width="2"/>
        <path id="Trazado_1067408" data-name="Trazado 1067408" d="M48.075,106.487c2.559-.434,5.118-.872,7.678-1.3,5.037-.84,10.08-1.648,15.109-2.532.853-.149,1.036.067.96.839-.108,1.089.473,2.549-.241,3.174-.613.536-2.035.168-3.1.17q-9.575.006-19.149,0H48.088c0-.117-.009-.235-.013-.353" fill="#b3b9cb"/>
        <path id="Trazado_1067409" data-name="Trazado 1067409" d="M48.075,106.487c2.559-.434,5.118-.872,7.678-1.3,5.037-.84,10.08-1.648,15.109-2.532.853-.149,1.036.067.96.839-.108,1.089.473,2.549-.241,3.174-.613.536-2.035.168-3.1.17q-9.575.006-19.149,0H48.088C48.084,106.723,48.079,106.605,48.075,106.487Z" fill="none" stroke="#b4b9cc" stroke-miterlimit="10" stroke-width="2"/>
        <path id="Trazado_1067410" data-name="Trazado 1067410" d="M62.3,52.131c2.983,1.144,5.863.756,8.925-.312-.773,2.312-1.49,4.42-2.177,6.538-.132.409-.393.413-.72.413-1.778-.006-3.556-.014-5.334.005-.469,0-.715-.067-.706-.631.031-1.972.012-3.944.012-6.013" fill="#fdec7f"/>
        <path id="Trazado_1067411" data-name="Trazado 1067411" d="M62.3,52.131c2.983,1.144,5.863.756,8.925-.312-.773,2.312-1.49,4.42-2.177,6.538-.132.409-.393.413-.72.413-1.778-.006-3.556-.014-5.334.005-.469,0-.715-.067-.706-.631C62.315,56.172,62.3,54.2,62.3,52.131Z" fill="none" stroke="#fdec7f" stroke-miterlimit="10" stroke-width="2"/>
        <path id="Trazado_1067412" data-name="Trazado 1067412" d="M48.622,51.83c3.054,1.037,5.932,1.474,8.914.284,0,2.05-.017,3.985.012,5.92.008.549-.124.759-.715.746q-2.608-.055-5.218,0a.8.8,0,0,1-.926-.654c-.649-2.026-1.324-4.043-2.067-6.3" fill="#fdec7f"/>
        <path id="Trazado_1067413" data-name="Trazado 1067413" d="M48.622,51.83c3.054,1.037,5.932,1.474,8.914.284,0,2.05-.017,3.985.012,5.92.008.549-.124.759-.715.746q-2.608-.055-5.218,0a.8.8,0,0,1-.926-.654C50.04,56.1,49.365,54.085,48.622,51.83Z" fill="none" stroke="#fdec7f" stroke-miterlimit="10" stroke-width="2"/>
        <path id="Trazado_1067414" data-name="Trazado 1067414" d="M44.4,44.483a2.376,2.376,0,1,1,2.425-2.266A2.4,2.4,0,0,1,44.4,44.483" fill="#fdec7f"/>
        <path id="Trazado_1067415" data-name="Trazado 1067415" d="M44.4,44.483a2.376,2.376,0,1,1,2.425-2.266A2.4,2.4,0,0,1,44.4,44.483Z" fill="none" stroke="#fdec7f" stroke-miterlimit="10" stroke-width="2"/>
        <path id="Trazado_1067416" data-name="Trazado 1067416" d="M75.361,44.483a2.376,2.376,0,1,1,2.4-2.293,2.4,2.4,0,0,1-2.4,2.293" fill="#fdec7f"/>
        <path id="Trazado_1067417" data-name="Trazado 1067417" d="M75.361,44.483a2.376,2.376,0,1,1,2.4-2.293A2.4,2.4,0,0,1,75.361,44.483Z" fill="none" stroke="#fdec7f" stroke-miterlimit="10" stroke-width="2"/>
        <path id="Trazado_1067418" data-name="Trazado 1067418" d="M94.2,36.576c-1.775.163-2.369.673-2.676,2.425-.954,5.425-3.318,10.288-5.948,15.048-2.393,4.326-4.945,8.568-6.7,13.219a35.04,35.04,0,0,0-2.32,12.066c-.027,2.5-.784,3.229-3.312,3.231-2.612,0-2.612,0-2.612-2.637a1.162,1.162,0,0,0,0-.118c-.822-8.771,1.818-16.9,4.617-25,.283-.823.6-1.637.829-2.475a6.2,6.2,0,0,1,3.2-4.379c3.5-1.874,4.245-6.572,2-9.857a7.13,7.13,0,1,0-11.77,8.052c.2.291.419.569.658.891a9.713,9.713,0,0,1-4.156,1.028,4.194,4.194,0,0,1-3.775-2.052c-1.329-2.084-3.225-2.088-4.6-.006A4.532,4.532,0,0,1,52.9,48.024a9.251,9.251,0,0,1-3.229-.989,7.305,7.305,0,0,0,1.719-6.509,7.122,7.122,0,0,0-13.949.257,7,7,0,0,0,4.183,7.84,2.325,2.325,0,0,1,1.45,1.64,186.047,186.047,0,0,1,5.8,19.311,12,12,0,0,1,.343,2.7c-.026,3.133-.036,6.267.009,9.4.011.744-.189.978-.922.91-.708-.066-1.427-.009-2.141-.015-1.94-.017-2.862-.881-2.869-2.829A35.679,35.679,0,0,0,40.32,65.654a75.338,75.338,0,0,0-4.131-7.881c-2.3-3.972-4.71-7.9-6.163-12.284-2.034-6.142-3.034-12.428-1.63-18.836,1.776-8.1,6.826-13.805,13.835-17.87a35.32,35.32,0,0,1,39.413,2.711,27.8,27.8,0,0,1,6.7,7.494c.965,1.58,1.654,1.858,3.451,1.441a26.814,26.814,0,0,1,1.92,5.475c-1.487.7-2.067,1.529-1.9,2.736s1.037,1.894,2.6,2.074a42.5,42.5,0,0,1-.215,5.862" fill="#fdec7f"/>
        <path id="Trazado_1067419" data-name="Trazado 1067419" d="M94.2,36.576c-1.775.163-2.369.673-2.676,2.425-.954,5.425-3.318,10.288-5.948,15.048-2.393,4.326-4.945,8.568-6.7,13.219a35.04,35.04,0,0,0-2.32,12.066c-.027,2.5-.784,3.229-3.312,3.231-2.612,0-2.612,0-2.612-2.637a1.162,1.162,0,0,0,0-.118c-.822-8.771,1.818-16.9,4.617-25,.283-.823.6-1.637.829-2.475a6.2,6.2,0,0,1,3.2-4.379c3.5-1.874,4.245-6.572,2-9.857a7.13,7.13,0,1,0-11.77,8.052c.2.291.419.569.658.891a9.713,9.713,0,0,1-4.156,1.028,4.194,4.194,0,0,1-3.775-2.052c-1.329-2.084-3.225-2.088-4.6-.006A4.532,4.532,0,0,1,52.9,48.024a9.251,9.251,0,0,1-3.229-.989,7.305,7.305,0,0,0,1.719-6.509,7.122,7.122,0,0,0-13.949.257,7,7,0,0,0,4.183,7.84,2.325,2.325,0,0,1,1.45,1.64,186.047,186.047,0,0,1,5.8,19.311,12,12,0,0,1,.343,2.7c-.026,3.133-.036,6.267.009,9.4.011.744-.189.978-.922.91-.708-.066-1.427-.009-2.141-.015-1.94-.017-2.862-.881-2.869-2.829A35.679,35.679,0,0,0,40.32,65.654a75.338,75.338,0,0,0-4.131-7.881c-2.3-3.972-4.71-7.9-6.163-12.284-2.034-6.142-3.034-12.428-1.63-18.836,1.776-8.1,6.826-13.805,13.835-17.87a35.32,35.32,0,0,1,39.413,2.711,27.8,27.8,0,0,1,6.7,7.494c.965,1.58,1.654,1.858,3.451,1.441a26.814,26.814,0,0,1,1.92,5.475c-1.487.7-2.067,1.529-1.9,2.736s1.037,1.894,2.6,2.074A42.5,42.5,0,0,1,94.2,36.576Z" fill="none" stroke="#fdec7f" stroke-miterlimit="10" stroke-width="2"/>
        <path id="Trazado_1067420" data-name="Trazado 1067420" d="M167.441,3.882c-6.218.788-12.36,6.392-14.2,12.97a19.728,19.728,0,0,0-.743,5.356c.008,6.718-.011,13.437.008,20.155a18.56,18.56,0,0,0,18.724,18.8c11.869.034,23.736.009,35.606.006.319,0,.64-.032.961-.049a1.191,1.191,0,0,0-.724-.892,62.954,62.954,0,0,1-5.9-4.075c-2.282-1.676-4.351-3.605-6.534-5.4A24.094,24.094,0,0,1,183.7,54.868a22.7,22.7,0,0,1-23.429-30.857,23.293,23.293,0,0,1,10.108-11.6c-.459-.162-.487-.6-.612-.971-.852-2.495-1.664-5-2.321-7.558" fill="#de4545"/>
        <path id="Trazado_1067421" data-name="Trazado 1067421" d="M167.441,3.882c-6.218.788-12.36,6.392-14.2,12.97a19.728,19.728,0,0,0-.743,5.356c.008,6.718-.011,13.437.008,20.155a18.56,18.56,0,0,0,18.724,18.8c11.869.034,23.736.009,35.606.006.319,0,.64-.032.961-.049a1.191,1.191,0,0,0-.724-.892,62.954,62.954,0,0,1-5.9-4.075c-2.282-1.676-4.351-3.605-6.534-5.4A24.094,24.094,0,0,1,183.7,54.868a22.7,22.7,0,0,1-23.429-30.857,23.293,23.293,0,0,1,10.108-11.6c-.459-.162-.487-.6-.612-.971C168.91,8.945,168.1,6.437,167.441,3.882Z" fill="none" stroke="#d95041" stroke-miterlimit="10" stroke-width="2"/>
        <path id="Trazado_1067422" data-name="Trazado 1067422" d="M167.441,3.882c.657,2.555,1.469,5.063,2.321,7.558.125.369.153.809.612.971a24.777,24.777,0,0,1,9.894-2.731A22.659,22.659,0,0,1,202.982,39.1a23.563,23.563,0,0,1-8.343,11.66c2.183,1.79,4.252,3.719,6.534,5.4a62.954,62.954,0,0,0,5.9,4.075,1.191,1.191,0,0,1,.724.892l2.175.009c.062-.059.125-.119.189-.178.016-2.734.042-5.467.044-8.2.006-10.255.038-20.51-.009-30.764A18.411,18.411,0,0,0,195.469,3.829a16.737,16.737,0,0,0-3.589-.37q-10.377.015-20.752,0a12.042,12.042,0,0,0-3.687.418" fill="#e74e4e"/>
        <path id="Trazado_1067423" data-name="Trazado 1067423" d="M167.441,3.882c.657,2.555,1.469,5.063,2.321,7.558.125.369.153.809.612.971a24.777,24.777,0,0,1,9.894-2.731A22.659,22.659,0,0,1,202.982,39.1a23.563,23.563,0,0,1-8.343,11.66c2.183,1.79,4.252,3.719,6.534,5.4a62.954,62.954,0,0,0,5.9,4.075,1.191,1.191,0,0,1,.724.892l2.175.009c.062-.059.125-.119.189-.178.016-2.734.042-5.467.044-8.2.006-10.255.038-20.51-.009-30.764A18.411,18.411,0,0,0,195.469,3.829a16.737,16.737,0,0,0-3.589-.37q-10.377.015-20.752,0A12.042,12.042,0,0,0,167.441,3.882Z" fill="none" stroke="#d95041" stroke-miterlimit="10" stroke-width="2"/>
        <path id="Trazado_1067424" data-name="Trazado 1067424" d="M82.4,68.551a74.1,74.1,0,0,1,5.755-11.188l.613-1.043c3.565-6.078,5.611-11.384,6.437-16.7.186-1.2-.035-1.633-1.125-2.027-1.154.127-1.36.368-1.572,1.581-1,5.673-3.5,10.735-6.059,15.36-.4.735-.816,1.466-1.227,2.2a81.688,81.688,0,0,0-5.414,10.892,34.169,34.169,0,0,0-2.255,11.724c-.034,3.034-1.243,4.218-4.313,4.22-1.54,0-2.376,0-3-.625s-.616-1.472-.616-3.013c-.807-8.688,1.637-16.664,4.671-25.446l.236-.669c.214-.6.416-1.167.573-1.745a7.138,7.138,0,0,1,3.7-5,5.175,5.175,0,0,0,2.578-3.394,6.358,6.358,0,0,0-.928-5.018,6.151,6.151,0,0,0-8.49-1.642,6.117,6.117,0,0,0-1.628,8.565c.131.19.269.373.417.569l.95,1.276-1.112.519a10.633,10.633,0,0,1-4.571,1.121h-.009a5.182,5.182,0,0,1-4.617-2.515c-.452-.707-.962-1.1-1.436-1.1a2.079,2.079,0,0,0-1.483,1.11,5.5,5.5,0,0,1-5.7,2.457,10.273,10.273,0,0,1-3.572-1.095l-1.072-.567.759-.944a6.274,6.274,0,0,0,1.526-5.657,6.123,6.123,0,0,0-12,.233A6.027,6.027,0,0,0,42.005,47.7a3.309,3.309,0,0,1,2.017,2.246l.494,1.465a172.161,172.161,0,0,1,5.333,17.953,13.057,13.057,0,0,1,.368,2.918c-.022,2.573-.041,5.963.008,9.377a1.927,1.927,0,0,1-.518,1.522,1.855,1.855,0,0,1-1.5.4,12.269,12.269,0,0,0-1.3-.019c-.253.006-.505.013-.76.009-2.516-.022-3.852-1.345-3.861-3.824A34.84,34.84,0,0,0,39.4,66.049a73.758,73.758,0,0,0-4.077-7.774l-.708-1.218a60.485,60.485,0,0,1-5.539-11.252c-2.423-7.317-2.949-13.469-1.656-19.365,1.7-7.771,6.516-14,14.308-18.521a36.168,36.168,0,0,1,40.53,2.787,28.894,28.894,0,0,1,6.94,7.761c.691,1.133.947,1.293,2.123,1.043.974-.9.973-1.307.169-2.561C86.264,8.777,78.68,3.63,68.3,1.212,67.145.94,65.932.738,64.76.544c-.535-.09-1.069-.178-1.6-.274H56.322a1.572,1.572,0,0,1-.889.243A38.07,38.07,0,0,0,41.6,4.893c-8.419,4.64-13.74,10.785-16.268,18.789-2.256,7.149-1.82,14.683,1.375,23.714A67.629,67.629,0,0,0,32.49,58.837L33.521,60.6c4.261,7.328,6.13,13.465,6.062,19.894a5.557,5.557,0,0,0,3.285,5.1,2.331,2.331,0,0,1,1.407,2.312q-.024,5.655-.018,11.306,0,4.7-.012,9.392a2.769,2.769,0,0,0,.555,1.819c2.6,3.429,4.691,6.212,6.57,8.757a2.1,2.1,0,0,0,1.879.955h.03c2.317-.02,4.54-.028,6.7-.028,2.233,0,4.4.01,6.523.03a2.18,2.18,0,0,0,2-1.007c2.032-2.765,4.134-5.567,6.427-8.568a3.073,3.073,0,0,0,.66-2.022q-.034-8.625-.014-17.254l0-3.449,0-.151a1.827,1.827,0,0,1,1.062-1.922c2.525-1.2,3.695-3.2,3.682-6.3A30.427,30.427,0,0,1,82.4,68.551m-6.98-29.82a3.377,3.377,0,0,1-.034,6.753h-.035a3.377,3.377,0,0,1,.069-6.753M61.3,50.676l1.358.521c2.408.923,4.949.824,8.238-.323l1.924-.672-1.254,3.743c-.546,1.625-1.064,3.17-1.566,4.72a1.6,1.6,0,0,1-1.675,1.1l-.575,0c-1.582-.006-3.163-.011-4.745.007h-.079a1.491,1.491,0,0,1-1.638-1.647c.022-1.414.018-2.827.015-4.274Zm7.527,11.905-.6,2.465c-.237.961-.468,1.9-.684,2.845a1.671,1.671,0,0,1-1.78,1.4h-.015q-5.823-.025-11.648,0h-.014a1.672,1.672,0,0,1-1.783-1.4c-.22-.965-.457-1.929-.7-2.916l-.586-2.394ZM66.878,73.773c-.03,2.676-.03,5.39,0,8.066a1.549,1.549,0,0,1-1.749,1.738c-1.281-.024-2.562-.02-3.842-.016l-1.49,0-1.434,0c-1.222-.006-2.439-.01-3.658.016-.026,0-.051,0-.076,0a1.682,1.682,0,0,1-1.228-.433,1.74,1.74,0,0,1-.446-1.307c.028-2.676.028-5.39,0-8.066a1.743,1.743,0,0,1,.438-1.3,1.723,1.723,0,0,1,1.3-.442c3.5.024,7.017.024,10.451,0a1.77,1.77,0,0,1,1.3.442,1.74,1.74,0,0,1,.439,1.3M44.447,45.484c-.023,0-.048,0-.072,0a3.318,3.318,0,1,1,.072,0m5.29,12.948c-.475-1.478-.963-2.953-1.48-4.522l-1.212-3.672,1.9.645c3.4,1.155,5.858,1.245,8.224.3l1.37-.547,0,3.192c0,1.424-.008,2.806.014,4.187a1.552,1.552,0,0,1-1.737,1.761c-1.777-.037-3.515-.037-5.173,0-.022,0-.045,0-.069,0a1.771,1.771,0,0,1-1.832-1.351M47.42,86.954c.739-.979,2.078-.824,3.156-.7a9.829,9.829,0,0,0,1.016.082c1.979-.024,3.959-.019,5.935-.015l2.387,0,2.24,0c2.936,0,5.872,0,8.809.015a1.546,1.546,0,0,1,1.332.235,1.351,1.351,0,0,1,.481,1.052c.009.313-.072,1.332-1.479,1.4l-6.824,1.136q-7.74,1.3-15.479,2.606a2.881,2.881,0,0,1-.51.051,1.468,1.468,0,0,1-1.01-.353,1.709,1.709,0,0,1-.468-1.41,9.205,9.205,0,0,0-.045-1.161,4.241,4.241,0,0,1,.459-2.946M47.011,100.7c.027-.349.019-.7.013-1.056l-.007-.528c0-2.862.36-3.282,3.211-3.756,6.885-1.144,13.711-2.285,20.532-3.451a1.812,1.812,0,0,1,1.593.281,1.744,1.744,0,0,1,.477,1.431,30.95,30.95,0,0,0,0,3.226,1.766,1.766,0,0,1-1.7,1.976c-7.414,1.218-14.855,2.466-22.115,3.712a3.018,3.018,0,0,1-.5.047,1.5,1.5,0,0,1-1.044-.371,1.771,1.771,0,0,1-.458-1.511m22.228,12.819c-.78,1.031-1.527,2.018-2.252,3.02a2.028,2.028,0,0,1-1.837.825q-5.222-.006-10.438,0h-.017a2.161,2.161,0,0,1-1.911-.9c-.708-.985-1.438-1.953-2.2-2.968l-2.11-2.81h22.9Zm3-6.1a2.612,2.612,0,0,1-1.786.539c-.362,0-.73-.034-1.08-.065-.306-.028-.61-.056-.887-.056h0q-7.181,0-14.362,0l-7,0-.073-2.192,3.289-.559q2.627-.445,5.254-.887l4.464-.738c3.547-.586,7.094-1.17,10.635-1.793a1.924,1.924,0,0,1,1.682.326,1.843,1.843,0,0,1,.446,1.6,5.583,5.583,0,0,0,.054,1.021,3.026,3.026,0,0,1-.632,2.806" fill="#020201"/>
        <path id="Trazado_1067425" data-name="Trazado 1067425" d="M112.127,35.977c-.937-.005-1.877-.013-2.814-.007-.515,0-1.716.137-1.747,1.341a1.241,1.241,0,0,0,.327.934,1.964,1.964,0,0,0,1.419.48q1.424,0,2.85-.007c.713,0,1.437-.008,2.163-.008,1.107,0,2.223.01,3.33.043a2.141,2.141,0,0,0,2.184-.961V36.9a2.172,2.172,0,0,0-2.183-.962c-1.847.058-3.718.047-5.529.036" fill="#020202"/>
        <path id="Trazado_1067426" data-name="Trazado 1067426" d="M7.048,7.719a2.34,2.34,0,0,0-1.014-.267,1.188,1.188,0,0,0-1.144.776c-.488,1.04.4,1.678.967,1.966q3.28,1.657,6.576,3.29l2.2,1.094a2.215,2.215,0,0,0,.985.346h.049A1.406,1.406,0,0,0,17,13.85a1.375,1.375,0,0,0-.868-1.591c-3.309-1.688-6.592-3.313-9.082-4.54" fill="#030303"/>
        <path id="Trazado_1067427" data-name="Trazado 1067427" d="M102.838,58.463a1.323,1.323,0,0,0,.812,1.561q4.521,2.309,9.078,4.548a2.023,2.023,0,0,0,1.5.224,1.224,1.224,0,0,0,.7-.666c.5-1.021-.266-1.674-1-2.042q-2.965-1.494-5.941-2.963l-2.839-1.412a2.333,2.333,0,0,0-.955-.328,1.378,1.378,0,0,0-1.358,1.078" fill="#030303"/>
        <path id="Trazado_1067428" data-name="Trazado 1067428" d="M102.849,13.136a1.343,1.343,0,0,0,.113,1.043,1.312,1.312,0,0,0,1.811.591c2.932-1.418,5.893-2.911,8.756-4.356l.754-.38a1.319,1.319,0,0,0,.787-1.056,1.534,1.534,0,0,0-.658-1.351,1.251,1.251,0,0,0-.685-.2,1.431,1.431,0,0,0-.626.148c-3.293,1.572-6.509,3.206-9.494,4.736a1.45,1.45,0,0,0-.758.826" fill="#030303"/>
        <path id="Trazado_1067429" data-name="Trazado 1067429" d="M15.693,57.4a1.672,1.672,0,0,0-.7.164c-.841.385-1.664.807-2.488,1.228q-.591.3-1.184.6l-1.782.884c-1.343.665-2.686,1.33-4.013,2.023a1.33,1.33,0,0,0-.734,1.544A1.465,1.465,0,0,0,6.18,64.9l.057-.011a1.87,1.87,0,0,0,.415-.112l1.353-.666c2.716-1.337,5.526-2.72,8.258-4.128a1.362,1.362,0,0,0-.57-2.58" fill="#030303"/>
        <path id="Trazado_1067430" data-name="Trazado 1067430" d="M0,37.349c0,.82.622,1.358,1.581,1.374,1.05.015,2.1.011,3.15.008l1.347,0,1.415,0c1.069,0,2.135.009,3.2-.009a1.387,1.387,0,1,0,0-2.748q-2.3-.016-4.59-.016-2.27,0-4.54.016A1.389,1.389,0,0,0,0,37.349" fill="#020202"/>
        <path id="Trazado_1067431" data-name="Trazado 1067431" d="M94.413,30.714c-1.561-.18-2.431-.875-2.6-2.073s.413-2.041,1.9-2.737c1.677.084,2.647.81,2.819,2.112.164,1.23-.556,2.144-2.123,2.7" fill="#060604"/>
        <path id="Trazado_1067432" data-name="Trazado 1067432" d="M69.369,111.689c-1.128,1.5-2.182,2.865-3.191,4.263a1.069,1.069,0,0,1-1.026.411q-5.221-.009-10.444,0a1.18,1.18,0,0,1-1.112-.485c-.987-1.372-2.017-2.713-3.125-4.193Z" fill="#caf3fa"/>
        <path id="Trazado_1067433" data-name="Trazado 1067433" d="M69.369,111.689c-1.128,1.5-2.182,2.865-3.191,4.263a1.069,1.069,0,0,1-1.026.411q-5.221-.009-10.444,0a1.18,1.18,0,0,1-1.112-.485c-.987-1.372-2.017-2.713-3.125-4.193Z" fill="none" stroke="#caf3fa" stroke-miterlimit="10" stroke-width="2"/>
        <path id="Trazado_1067434" data-name="Trazado 1067434" d="M431.706,210.548l-9.288-9.078-2.078,1.973,8.318,8.245h-1.214c-.419,0-.82-.006-1.207-.013-.818-.014-1.592-.025-2.342.03a3.493,3.493,0,0,1-2.977-1.225q-5.181-5.292-10.4-10.555-5.711-5.779-11.4-11.579c-2.187-2.237-4.622-3.057-7.237-2.435a15.377,15.377,0,0,0-3.419,1.447c-.533.276-1.069.554-1.615.8l-.311.142-2.859-2.758.441-.539.559-.616a12.232,12.232,0,0,1,8.353-3.3h.086a12.088,12.088,0,0,1,8.493,3.387c3.327,3.3,6.361,6.336,9.273,9.288a2.11,2.11,0,0,1,.4.594l1.827-1.707c-1-1.048-1.993-2.105-2.981-3.159-2.441-2.606-4.966-5.3-7.612-7.746-3.685-3.4-8.232-4.324-13.506-2.736a17.547,17.547,0,0,0-9.1,6.458l7.106,6.932.369-.352c.569-.545,1.174-1.122,1.792-1.685,3.38-3.076,5.98-2.64,9.318,1.341a135.323,135.323,0,0,0,17.271,17.448,9.454,9.454,0,0,1,1.207,1.217l1.177,1.316-11.433,0q-9.948,0-19.9.008c-6.828.017-11.967,3.9-13.414,10.133a19.907,19.907,0,0,0-.375,2.834c-.041.455-.081.91-.132,1.363l-.052.442H365.13l-.091-.386c-.173-.749-.312-1.494-.447-2.226a19.138,19.138,0,0,0-1.125-4.275c-2.315-5.232-6.565-7.886-12.634-7.889q-10.049,0-20.1,0h-11.31l1.15-1.294c.208-.238.361-.413.525-.579q8.438-8.544,16.876-17.081l.74-.755c.778-.8,1.582-1.629,2.447-2.374a4.6,4.6,0,0,1,4.9-.825,10.746,10.746,0,0,1,2.51,1.813c.213.19.429.381.648.565.306.257.611.518.88.753l.8-.022,6.785-6.463c-.157-.175-.312-.351-.467-.526-.566-.641-1.1-1.247-1.694-1.8-5.6-5.228-14.983-7.378-22.356.261-6.475,6.711-13.214,13.381-19.73,19.832q-3.345,3.311-6.685,6.627a2.45,2.45,0,0,0-.819,2c.051,2.047.042,4.126.033,6.136q-.006,1.209-.008,2.416a1.553,1.553,0,0,0,1.553,1.554h6.2V226a1.318,1.318,0,0,0,2.637,0v-.489a11.112,11.112,0,0,1,11.074-11.11q7.119-.025,14.235,0c.974,0,1.961,0,2.943-.01,2.574-.016,5.235-.034,7.848.119a10.15,10.15,0,0,1,9.44,9.988c.069,3.979.068,7.039-.007,9.922a18.659,18.659,0,0,1-17.572,18c-3.683.144-7.426.1-11.045.069-1.523-.015-3.045-.031-4.567-.033a8.341,8.341,0,0,1-1.568-.163,13.2,13.2,0,0,1-10.775-12.909c-.021-1.759-.016-3.52-.01-5.293v-.531a1.356,1.356,0,1,0-2.711,0v.488c0,1.686,0,3.347,0,5.008a16.2,16.2,0,0,0,16.08,16.16c4.772.033,9.1.033,13.233,0a21.542,21.542,0,0,0,21.185-17.12c.16-.714.461-1.372,1.543-1.372h.063c2.032.045,4.106.045,6.166,0h.06a1.46,1.46,0,0,1,1.562,1.355,21.594,21.594,0,0,0,21.291,17.139c4.483.027,8.894.028,13.112,0a15.857,15.857,0,0,0,16.1-16.136c.007-3.787.005-7.574,0-11.382v-5.73h7.673l.06-.407-.06-11.012m-114.779,5.525c-.622.908-1.217,1.774-1.835,2.625a1.373,1.373,0,0,1-1.035.459c-.817.011-1.636.014-2.468.014h-2.808v-4.709h9.255Zm-.215-5.653a3.691,3.691,0,0,1-2.734,1.3c-.112,0-.229-.005-.349-.016a20.7,20.7,0,0,0-2.28-.034c-.389.007-.793.015-1.22.015h-1.043l.654-.813c.114-.142.209-.266.293-.374a4.982,4.982,0,0,1,.454-.545l6.091-6.1q9.721-9.73,19.457-19.443a11.93,11.93,0,0,1,8.837-3.322,12.189,12.189,0,0,1,8.778,4.156l.317.373-3.328,2.963-.33-.267c-.168-.132-.345-.271-.513-.423a7.846,7.846,0,0,0-11.1.249c-7.927,7.989-15.117,15.276-21.981,22.277m56.272,23.508h-8.3v-4.567h8.3v4.567h0m48.334,5.026a13.15,13.15,0,0,1-13.4,13.544c-2.279.023-4.533.034-6.748.034s-4.386-.011-6.506-.034a18.773,18.773,0,0,1-18.9-19.144l0-1.772c-.005-2.258-.012-4.515.009-6.773a10.158,10.158,0,0,1,9.65-10.3c3.037-.142,6.127-.106,9.116-.073,1.177.013,2.352.027,3.528.03l.494-.061,3.642,0c2.715,0,5.431-.007,8.145.007a11.056,11.056,0,0,1,10.977,11.056l0,2.158q.006,5.667,0,11.335m7.612-19.794h0l-1.685,0-1.179,0c-.886,0-1.773-.005-2.658-.027a1.407,1.407,0,0,1-1.012-.708c-.52-.714-1.025-1.439-1.57-2.221l-1.211-1.734h9.315Z"/>
        <rect id="Rectángulo_402666" data-name="Rectángulo 402666" width="2.594" height="2.558" transform="translate(332.263 219.244)"/>
        <rect id="Rectángulo_402667" data-name="Rectángulo 402667" width="2.556" height="2.551" transform="translate(324.861 219.239)"/>
        <path id="Trazado_1067435" data-name="Trazado 1067435" d="M416.857,196.058l-1.7,1.8,1.7,1.729,1.764-1.852Z"/>
        <rect id="Rectángulo_402668" data-name="Rectángulo 402668" width="2.54" height="2.582" transform="translate(384.323 219.225)"/>
        <path id="Trazado_1067436" data-name="Trazado 1067436" d="M78.079,172.352a1.418,1.418,0,0,1,1.622-1.288c2.556.015,5.113,0,7.669.008,1.092,0,1.6.488,1.612,1.561q.028,2.541,0,5.083c-.012,1.08-.513,1.556-1.6,1.567-1.07.011-2.142.037-3.21-.011-.585-.026-.74.148-.735.732q.042,5.084.01,10.167c-.059,9.009-3.774,16.088-11.256,21.142a24.306,24.306,0,0,1-2.8,1.549,4.252,4.252,0,0,0,.04,7.79,24.208,24.208,0,0,1,13.411,16.792,23.809,23.809,0,0,1,.6,5.569c.006,3.478.017,6.956-.013,10.434,0,.613.134.819.772.787,1.1-.056,2.2-.03,3.3-.01a1.324,1.324,0,0,1,1.474,1.42c.031,1.783,0,3.567.013,5.35a1.822,1.822,0,0,1-.872,1.44H31.728a1.991,1.991,0,0,1-.883-1.885c.049-1.545.007-3.092.016-4.638.007-1.213.47-1.682,1.659-1.691,1.07-.008,2.142-.037,3.21.013.566.026.686-.158.682-.7-.024-3.418-.061-6.838,0-10.256.176-10.352,4.82-17.95,14.088-22.66a4.257,4.257,0,0,0-.042-7.76,24.223,24.223,0,0,1-13.64-17.725,22.965,22.965,0,0,1-.414-4.609c0-3.508-.016-7.016.012-10.524.005-.586-.153-.756-.736-.731-1.1.047-2.2.026-3.3.009a1.347,1.347,0,0,1-1.512-1.475q-.037-2.631,0-5.262c.016-1.03.551-1.473,1.7-1.473q11.772,0,23.545,0c5.708,0,11.416.008,17.124-.007.935,0,1.549.322,1.709,1.295-.221,1.1-.588,1.389-1.784,1.39q-10.419,0-20.837,0-5.565,0-11.129.025c-1.841-.009-3.682-.022-5.523-.025-2.261,0-2.245,0-2.146,2.274.022.483.189.6.631.591,2.346-.025,4.691-.026,7.037-.035.356.009.712.027,1.068.027H84.231c2.122,0,2.1,0,2.095-2.147,0-.612-.206-.733-.765-.724-1.93.031-3.862.016-5.792.01-1.114,0-1.483-.317-1.69-1.394M41.191,259.73c.356.009.712.025,1.069.025q21.05,0,42.1,0c1.955,0,1.906,0,1.973-1.919.03-.824-.24-.958-.993-.956q-21.673.033-43.348.017c-.267,0-.534.018-.8.028-1.841-.01-3.681-.024-5.522-.028-2.261-.005-2.244,0-2.146,2.277.021.485.19.593.632.589,2.345-.025,4.691-.025,7.037-.034m5.531-80.415c-2.347-.01-4.694,0-7.041-.043-.556-.009-.615.228-.613.688.016,3.774-.023,7.548.029,11.322a20.389,20.389,0,0,0,1.49,7.375A21.438,21.438,0,0,0,51.552,210.41a6.793,6.793,0,0,1,3.372,3.159,7.105,7.105,0,0,1-3.279,9.5,20.981,20.981,0,0,0-12.437,17.9c-.4,4.231-.07,8.494-.138,12.742-.006.4.149.508.524.505,2.376-.022,4.752-.027,7.129-.038a1.192,1.192,0,0,0,.176.028q16.595,0,33.19.02c.667,0,.689-.291.687-.8-.014-3.6,0-7.2-.014-10.8a19.329,19.329,0,0,0-.4-3.986,21.593,21.593,0,0,0-12.342-15.707,6.393,6.393,0,0,1-3.117-3.055,6.951,6.951,0,0,1,3.283-9.411c7.443-3.715,11.691-9.717,12.458-18.021.375-4.056.048-8.144.145-12.216.018-.784-.175-.977-.968-.974-8.476.032-16.951.018-25.427.021-2.557,0-5.114.019-7.671.029" fill="#020202"/>
        <path id="Trazado_1067437" data-name="Trazado 1067437" d="M41.191,173.774q5.565-.014,11.129-.025,10.419-.007,20.837,0c1.2,0,1.563-.293,1.784-1.39l3.139-.005c.206,1.077.576,1.391,1.689,1.4,1.931.006,3.862.02,5.792-.01.559-.009.765.112.765.724,0,2.147.027,2.147-2.094,2.147q-20.988,0-41.974,0c-.356,0-.712-.017-1.068-.027q0-1.4,0-2.8" fill="#e37c70"/>
        <path id="Trazado_1067438" data-name="Trazado 1067438" d="M46.722,179.315c2.557-.01,5.114-.027,7.671-.029,8.476,0,16.951.011,25.427-.021.793,0,.986.19.968.974-.1,4.072.23,8.16-.145,12.216-.767,8.3-5.015,14.306-12.458,18.021a6.951,6.951,0,0,0-3.283,9.411,6.393,6.393,0,0,0,3.117,3.055,21.593,21.593,0,0,1,12.342,15.707,19.329,19.329,0,0,1,.4,3.986c.015,3.6,0,7.2.014,10.8,0,.506-.02.8-.687.8q-16.6-.034-33.19-.02a1.192,1.192,0,0,1-.176-.028q0-1.411-.007-2.821c.325-.015.65-.043.975-.044,3.028,0,6.057.005,9.085-.005,1.123,0,1.459-.285,1.747-1.364l3.112,0c.268,1.073.61,1.356,1.747,1.361,2.527.011,5.054,0,7.581,0,1.754,0,3.508.014,5.261-.005,1.024-.012,1.582-.427,1.587-1.3a79.379,79.379,0,0,0-.12-9.535c-1.217-10.547-11.455-18.49-21.7-15.979A5.628,5.628,0,0,1,58.5,222.64c.587.986,1.233,1.283,2,.92.88-.413,1.033-1.251.426-2.328a5.408,5.408,0,0,0-.006-8.967c.576-1.006.5-1.76-.23-2.238-.746-.491-1.5-.246-2.127.69A4.286,4.286,0,0,1,56,209.068c.911.122,1.819.317,2.734.355A18.451,18.451,0,0,0,77.583,193.79c.5-3.4.206-6.827.235-10.242.007-.935-.548-1.363-1.615-1.366q-6.467-.017-12.933,0c-1.033,0-1.393.338-1.633,1.382H58.523c-.28-1.107-.628-1.379-1.821-1.386q-4.992-.025-9.984-.043,0-1.41,0-2.82" fill="#dadada"/>
        <path id="Trazado_1067439" data-name="Trazado 1067439" d="M46.717,251.36l.006,2.82c-2.376.011-4.753.017-7.129.038-.375,0-.53-.109-.524-.505.068-4.248-.258-8.511.139-12.741a20.976,20.976,0,0,1,12.436-17.9,7.106,7.106,0,0,0,3.28-9.5,6.792,6.792,0,0,0-3.372-3.159,21.439,21.439,0,0,1-10.966-11.753,20.4,20.4,0,0,1-1.49-7.376c-.052-3.773-.012-7.548-.029-11.322,0-.459.057-.7.614-.687,2.346.039,4.693.032,7.04.042q0,1.41,0,2.821l-2.939.042c-1.328.019-1.762.444-1.767,1.772q-.012,3.435,0,6.868a17.7,17.7,0,0,0,2.681,9.383A20.051,20.051,0,0,0,56,209.069a4.284,4.284,0,0,0,2.572,1.648,1.454,1.454,0,0,0,.556,1.637,1.5,1.5,0,0,0,1.8-.088,5.408,5.408,0,0,1,.007,8.966c-1.457-.738-2.364-.212-2.43,1.408a5.635,5.635,0,0,0-2.515,1.855.681.681,0,0,1-.153.085,18.823,18.823,0,0,0-13.578,15.178c-.485,3.4-.193,6.822-.22,10.234-.007.855.529,1.279,1.478,1.314,1.067.039,2.135.037,3.2.054m13.247-36.026a1.415,1.415,0,1,0,1.374,1.454,1.439,1.439,0,0,0-1.374-1.454" fill="#c7c7c7"/>
        <path id="Trazado_1067440" data-name="Trazado 1067440" d="M41.19,256.926c.267-.009.534-.027.8-.027q21.673,0,43.348-.018c.753,0,1.022.133.993.957-.067,1.917-.018,1.919-1.973,1.919h-42.1c-.356,0-.712-.017-1.068-.026q0-1.4,0-2.8" fill="#e37c70"/>
        <path id="Trazado_1067441" data-name="Trazado 1067441" d="M41.191,173.774q0,1.4,0,2.8c-2.345.01-4.691.011-7.037.036-.442,0-.609-.108-.63-.591-.1-2.276-.116-2.279,2.146-2.275,1.84,0,3.681.017,5.522.026" fill="#d95041"/>
        <path id="Trazado_1067442" data-name="Trazado 1067442" d="M41.19,256.926q0,1.4,0,2.8c-2.346.009-4.692.01-7.037.034-.442.005-.611-.1-.632-.588-.1-2.279-.115-2.282,2.146-2.277,1.841,0,3.681.017,5.522.027" fill="#d95041"/>
        <path id="Trazado_1067443" data-name="Trazado 1067443" d="M46.717,251.359c-1.068-.016-2.136-.015-3.2-.054-.949-.035-1.485-.458-1.478-1.313.027-3.413-.265-6.837.22-10.234A18.823,18.823,0,0,1,55.834,224.58a.7.7,0,0,0,.153-.085c10.25-2.511,20.487,5.432,21.7,15.979a79.172,79.172,0,0,1,.12,9.535c0,.872-.563,1.287-1.586,1.3-1.754.019-3.508.005-5.262.005-2.527,0-5.053.008-7.58,0-1.138-.005-1.479-.288-1.747-1.36.279-1.067.569-1.311,1.674-1.313,3.682-.008,7.364-.015,11.045.009.594,0,.867-.121.817-.776a19.041,19.041,0,0,1,0-2.137.9.9,0,0,0-.453-.878c-2.823-1.86-5.567-3.849-8.466-5.58a11.687,11.687,0,0,0-12.507-.08c-2.43,1.4-4.691,3.1-7.028,4.671-1.206.637-2.3,1.209-2.1,2.993.216,1.928.049,1.947,2.116,1.728,3.37.016,6.741.044,10.111.039a1.458,1.458,0,0,1,1.678,1.32c-.288,1.079-.624,1.36-1.747,1.364-3.028.01-6.056,0-9.084.005-.325,0-.65.029-.975.044m.185-10.926c1.484-.981,2.958-1.978,4.453-2.942,5.1-3.284,10.385-3.637,15.766-.8,1.778.936,3.395,2.177,5.082,3.283.932.611,1.857,1.23,2.865,1.9a8.5,8.5,0,0,0,0-1,15.963,15.963,0,0,0-5.377-10.252c-6.645-5.81-14.74-4.759-20.107.6a15.856,15.856,0,0,0-4.886,10.737l2.209-1.523" fill="#040404"/>
        <path id="Trazado_1067444" data-name="Trazado 1067444" d="M47.969,198.718c1.753.014,3.506.039,5.259.04,6.333.005,12.666-.008,19,.018a1.151,1.151,0,0,0,1.218-.737,16.687,16.687,0,0,0,1.715-7.48c-.01-1.606-.032-3.212.014-4.817.019-.676-.137-.912-.871-.9-3.656.04-7.314.006-10.971.027-.94.005-1.546-.324-1.695-1.3.24-1.044.6-1.379,1.633-1.382q6.467-.02,12.933,0c1.067,0,1.622.431,1.614,1.366-.028,3.415.27,6.844-.234,10.242a18.452,18.452,0,0,1-18.854,15.633c-.914-.037-1.822-.232-2.733-.354a20.056,20.056,0,0,1-11.3-8.868,17.7,17.7,0,0,1-2.681-9.383q-.013-3.433,0-6.868c0-1.329.439-1.753,1.766-1.772l2.94-.043q4.992.021,9.983.044c1.194.006,1.542.278,1.822,1.385a1.467,1.467,0,0,1-1.691,1.3c-3.368-.011-6.736.017-10.1.03-.414-.014-.832,0-1.243-.049-.6-.068-.833.122-.816.772.044,1.693.019,3.388.015,5.083a16.1,16.1,0,0,0,1.645,7.135c.366.758.8,1.122,1.64.88m23.166,2.76H49.094c1.435,2.349,6.425,5.093,9.569,5.269,4.926.275,8.954-1.6,12.472-5.269" fill="#040404"/>
        <path id="Trazado_1067445" data-name="Trazado 1067445" d="M46.713,243.866c2.337-1.566,4.6-3.265,7.028-4.67a11.687,11.687,0,0,1,12.507.079c2.9,1.731,5.643,3.721,8.466,5.581a.9.9,0,0,1,.453.877,19.041,19.041,0,0,0,0,2.137c.051.655-.223.78-.817.776-3.681-.023-7.363-.016-11.045-.009-1.1,0-1.4.246-1.674,1.313l-3.113,0a1.456,1.456,0,0,0-1.678-1.319c-3.37,0-6.741-.024-10.111-.039l-.021-4.722m7.709,1.987a1.41,1.41,0,0,0,1.376-1.436,1.415,1.415,0,1,0-2.829.083,1.4,1.4,0,0,0,1.453,1.353m12.454-1.432a1.415,1.415,0,1,0-2.83.075,1.414,1.414,0,0,0,1.456,1.357,1.4,1.4,0,0,0,1.374-1.432M59.884,243.1a1.448,1.448,0,0,0,1.454-1.375,1.416,1.416,0,0,0-2.831-.078,1.451,1.451,0,0,0,1.377,1.453" fill="#fcde75"/>
        <path id="Trazado_1067446" data-name="Trazado 1067446" d="M58.5,222.64c.066-1.621.973-2.146,2.429-1.408.607,1.078.453,1.915-.426,2.328-.77.363-1.416.066-2-.92" fill="#080808"/>
        <path id="Trazado_1067447" data-name="Trazado 1067447" d="M60.925,212.266a1.5,1.5,0,0,1-1.8.088,1.453,1.453,0,0,1-.556-1.636c.628-.937,1.381-1.181,2.127-.691.729.479.806,1.232.23,2.239" fill="#080808"/>
        <path id="Trazado_1067448" data-name="Trazado 1067448" d="M59.964,215.334a1.415,1.415,0,1,1-1.456,1.371,1.441,1.441,0,0,1,1.456-1.371" fill="#080808"/>
        <path id="Trazado_1067449" data-name="Trazado 1067449" d="M47.969,198.718c-.836.242-1.273-.122-1.64-.88a16.086,16.086,0,0,1-1.644-7.135c0-1.7.029-3.39-.016-5.084-.017-.649.215-.84.816-.771.411.046.829.035,1.244.049,0,2.527-.064,5.055.005,7.579a22.279,22.279,0,0,0,1.143,5.72,4.521,4.521,0,0,1,.092.522" fill="#d6d6d6"/>
        <path id="Trazado_1067450" data-name="Trazado 1067450" d="M49.578,231.219c-.48,1.13-1,2.243-1.43,3.393a15.133,15.133,0,0,0-1.247,5.821c-.671.464-1.343.927-2.208,1.523a15.851,15.851,0,0,1,4.885-10.737" fill="#d6d6d6"/>
        <path id="Trazado_1067451" data-name="Trazado 1067451" d="M46.713,243.866q.01,2.361.02,4.721c-2.066.219-1.9.2-2.116-1.728-.2-1.784.89-2.356,2.1-2.993" fill="#e6bf57"/>
        <path id="Trazado_1067452" data-name="Trazado 1067452" d="M71.135,201.478c-3.518,3.671-7.546,5.544-12.472,5.269-3.144-.176-8.134-2.92-9.569-5.269Z" fill="#f9dc74"/>
        <path id="Trazado_1067453" data-name="Trazado 1067453" d="M54.422,245.853a1.4,1.4,0,0,1-1.453-1.354,1.415,1.415,0,1,1,2.829-.082,1.41,1.41,0,0,1-1.376,1.436" fill="#080704"/>
        <path id="Trazado_1067454" data-name="Trazado 1067454" d="M66.876,244.421a1.4,1.4,0,0,1-1.374,1.432,1.414,1.414,0,0,1-1.456-1.357,1.415,1.415,0,1,1,2.83-.075" fill="#080704"/>
        <path id="Trazado_1067455" data-name="Trazado 1067455" d="M59.884,243.1a1.451,1.451,0,0,1-1.377-1.453,1.416,1.416,0,0,1,2.831.078,1.448,1.448,0,0,1-1.454,1.375" fill="#080704"/>
        <path id="Trazado_1067456" data-name="Trazado 1067456" d="M61.339,230.559a1.416,1.416,0,0,1-2.831.074,1.416,1.416,0,0,1,2.831-.074" fill="#080704"/>
        <path id="Trazado_1067457" data-name="Trazado 1067457" d="M224.808,225.445l.11-12.716s6.936-.99,10.018.441-.055,12.991-.055,12.991l-4.018.165-6-.661" fill="#ece3db"/>
        <path id="Trazado_1067458" data-name="Trazado 1067458" d="M193.692,216.793c-.3.042-.609.074-.915.1a10.807,10.807,0,0,0-3.089.643l-1.186.487.762,1.032a3.4,3.4,0,0,0,2.54,1.2q9.5,1.29,18.992,2.573l13.2,1.782.205-11.974-8.262,1.121q-11.124,1.509-22.249,3.029" fill="#fdb330"/>
        <path id="Trazado_1067459" data-name="Trazado 1067459" d="M243.289,217.293l-.292-.566a13.445,13.445,0,0,0-5.767-3.655,9.874,9.874,0,0,0-2.406-.367l-1.032-.019.18,13.219,1.056-.075a9.208,9.208,0,0,0,7.977-6.317l.681.658Z" fill="#fdb330"/>
        <path id="Trazado_1067460" data-name="Trazado 1067460" d="M179.775,210.031c1.606,2.1,3.206,4.215,4.825,6.311.325.42.094.706-.136,1.012-2.8,3.728-5.666,7.408-8.366,11.206a3.643,3.643,0,0,1-3.48,1.665c-5.85-.1-11.7-.038-17.553-.045a2.116,2.116,0,0,1-1.092-.113c1.551-3.112,3.207-6.163,4.595-9.333a2.989,2.989,0,0,1,3.437-2.1c2.481.181,4.985.047,7.479.049a2.4,2.4,0,0,0,1.86-.584,1.8,1.8,0,0,0,.5-1.847,1.754,1.754,0,0,0-1.372-1.323,5.434,5.434,0,0,0-1.141-.1c-2.942-.007-5.884-.024-8.825.011a1.148,1.148,0,0,1-1.232-.78c-.6-1.336-1.282-2.638-1.93-3.955q9.591-.011,19.181-.025c1.085,0,2.17-.033,3.255-.05m-3.429,8.035a1.935,1.935,0,0,0,2.67.077,1.99,1.99,0,0,0,.029-2.755,1.938,1.938,0,0,0-2.671.024,1.874,1.874,0,0,0-.028,2.654" fill="#d95041"/>
        <path id="Trazado_1067461" data-name="Trazado 1067461" d="M179.775,210.031c1.606,2.1,3.206,4.215,4.825,6.311.325.42.094.706-.136,1.012-2.8,3.728-5.666,7.408-8.366,11.206a3.643,3.643,0,0,1-3.48,1.665c-5.85-.1-11.7-.038-17.553-.045a2.116,2.116,0,0,1-1.092-.113c1.551-3.112,3.207-6.163,4.595-9.333a2.989,2.989,0,0,1,3.437-2.1c2.481.181,4.985.047,7.479.049a2.4,2.4,0,0,0,1.86-.584,1.8,1.8,0,0,0,.5-1.847,1.754,1.754,0,0,0-1.372-1.323,5.434,5.434,0,0,0-1.141-.1c-2.942-.007-5.884-.024-8.825.011a1.148,1.148,0,0,1-1.232-.78c-.6-1.336-1.282-2.638-1.93-3.955q9.591-.011,19.181-.025C177.6,210.079,178.69,210.048,179.775,210.031Zm-3.429,8.035a1.935,1.935,0,0,0,2.67.077,1.99,1.99,0,0,0,.029-2.755,1.938,1.938,0,0,0-2.671.024A1.874,1.874,0,0,0,176.346,218.066Z" fill="none" stroke="#d95041" stroke-miterlimit="10" stroke-width="2"/>
        <path id="Trazado_1067462" data-name="Trazado 1067462" d="M246.848,217.926c2.663.021,5.326.017,7.989.013l14.7-.023.444-.443c.02-.082.042-.164.063-.246a4.371,4.371,0,0,0,.144-.692l-.926-.925-.3,0c-.427-.007-.854-.013-1.281-.013l-20.732,0-.131,0a1.367,1.367,0,0,1-1.563-1.136c-1.516-6.173-6.511-9.633-12.733-8.808q-14.326,1.893-28.646,3.848l-12.6,1.7a5.087,5.087,0,0,0-3.236,1.423,1.706,1.706,0,0,1-1.305.685,1.768,1.768,0,0,1-1.246-.881q-2.2-2.973-4.422-5.936-2.031-2.718-4.055-5.441a1.871,1.871,0,0,0-1.666-.845h-.008q-7.467.02-14.936.011l-9.157,0a1.268,1.268,0,0,0-1.293,2.1q.874,1.761,1.757,3.518l4.968,9.983-1.318-.1c-.245-.019-.465-.04-.669-.059-.377-.036-.7-.067-1.013-.067L153,215.58a17.757,17.757,0,0,0-2.384.079,1.073,1.073,0,0,0-.872.635,1.1,1.1,0,0,0,.113,1.088,1.358,1.358,0,0,0,1.261.543h.037l5.456-.064-2.257,4.513c-1.5,3-2.969,5.933-4.429,8.872a1.594,1.594,0,0,0-.133,1.5,1.5,1.5,0,0,0,1.34.533c8.1.015,16.191,0,24.283.013h0a1.736,1.736,0,0,0,1.531-.745q1.764-2.4,3.549-4.774l.665-.889c1.483-1.983,2.964-3.965,4.464-5.935a1.29,1.29,0,0,0,.07-.109,1.166,1.166,0,0,1,2.059-.219,5.712,5.712,0,0,0,3.7,1.712q4.6.614,9.193,1.239l5.349.724q3.994.538,7.989,1.093c6.254.862,12.721,1.753,19.091,2.522a11.04,11.04,0,0,0,12.163-8.726,1.459,1.459,0,0,1,1.613-1.259m-61.767-.143c-.828,1.1-1.644,2.177-2.461,3.253-1.966,2.591-4,5.269-5.91,7.959a4.345,4.345,0,0,1-3.961,1.982h-.143c-4.1-.068-8.274-.058-12.308-.051q-2.616.006-5.233,0h0c-.065,0-.129,0-.2.008a2.249,2.249,0,0,1-1.234-.2l-.665-.337.333-.667c.456-.916.922-1.828,1.388-2.738,1.091-2.135,2.22-4.343,3.191-6.561a3.72,3.72,0,0,1,4.179-2.55c1.705.124,3.466.1,5.166.07.739-.011,1.478-.023,2.216-.023.017,0,.033,0,.049,0a1.7,1.7,0,0,0,1.321-.361,1.053,1.053,0,0,0,.3-1.119,1.006,1.006,0,0,0-.81-.791,4.781,4.781,0,0,0-.983-.079l-1.331,0c-2.5-.008-4.99-.016-7.482.014a1.887,1.887,0,0,1-1.923-1.221c-.426-.937-.887-1.859-1.348-2.78l-1.286-2.552-2.865-5.627.273-.372a1.267,1.267,0,0,1,1.238-.48c6.534,0,12.987,0,19.441.006l.12,0a1.628,1.628,0,0,1,1.51.642c.55.751,1.115,1.492,1.681,2.232,1.026,1.345,2.088,2.735,3.049,4.179l1.194,1.564q1.794,2.355,3.6,4.7a1.435,1.435,0,0,1-.114,1.9m38.671,6.548-12.923-1.744q-9.5-1.284-18.991-2.573a3.45,3.45,0,0,1-3.267-3.935,3.066,3.066,0,0,1,1.922-2.261,5.025,5.025,0,0,1,1.2-.3q15.279-2.071,30.562-4.128l0-.05.528-.021a.864.864,0,0,1,.867.3l.263.363-.12.247.147,3.579Zm7.886-8.584q.015,4.146.04,8.289a1.227,1.227,0,0,1-.366.974,1.068,1.068,0,0,1-.707.244,1.647,1.647,0,0,1-.283-.026c-1-.16-1.923-.282-2.811-.375a1.21,1.21,0,0,1-1.186-1.352c.027-2.61.039-5.22.052-7.831l.011-2.128-.014-.958c-.012-.888-.023-1.776-.049-2.664a1.126,1.126,0,0,1,1.09-1.238c.974-.115,1.946-.241,2.914-.4a1.192,1.192,0,0,1,1,.226,1.22,1.22,0,0,1,.353.987c-.025.8-.033,1.61-.043,2.414l-.011.922Zm11.411,1.766v.17a7.048,7.048,0,0,1-.3,1.8l-.7,1.618a9.036,9.036,0,0,1-7.039,4.477l-.792.057-.207-16.5a1.127,1.127,0,0,1,.272-.949,1.069,1.069,0,0,1,.881-.277,8.874,8.874,0,0,1,6.1,3.365,8.1,8.1,0,0,1,1.784,6.237" fill="#040303"/>
        <path id="Trazado_1067463" data-name="Trazado 1067463" d="M270.659,217.851a5.431,5.431,0,0,0,.271-1.629c1.167.752.133,1.138-.271,1.629" fill="#ececec"/>
        <path id="Trazado_1067464" data-name="Trazado 1067464" d="M242.3,217.683c0-.084,0-.169,0-.253,0,.084,0,.168,0,.253" fill="#fbfbfa"/>
        <path id="Trazado_1067465" data-name="Trazado 1067465" d="M176.346,218.066a1.874,1.874,0,0,1,.028-2.654,1.938,1.938,0,0,1,2.671-.024,1.99,1.99,0,0,1-.029,2.755,1.935,1.935,0,0,1-2.67-.077" fill="#060202"/>
        <path id="Trazado_1067466" data-name="Trazado 1067466" d="M260.427,70.836l.012.618A5.414,5.414,0,0,0,270.878,73.5a.814.814,0,0,0,.04-.13,1.622,1.622,0,0,1,.36-.736V50.33a2.519,2.519,0,0,0-2.23-.792q-13.152.024-26.306.022-13.528,0-27.057.023h-.016a2.209,2.209,0,0,1-1.718-.539,2.1,2.1,0,0,1-.4-1.629,28.294,28.294,0,0,0,0-3.877,1.673,1.673,0,0,1,.37-1.287,1.794,1.794,0,0,1,1.346-.416c2.326.044,4.692.028,6.983.013,1.2-.008,1.641-.449,1.644-1.624q.024-12.012,0-24.023c0-1.257-.417-1.663-1.708-1.672-2.522-.017-5.454-.032-8.314.012a2.119,2.119,0,0,1-2.219-1.373C207.641,4.8,201.02.422,191.976.149,185.07-.06,178.031.029,171.223.113l-.825.01a21.916,21.916,0,0,0-21.231,21.184c-.106,7.158-.106,14.543,0,21.95A21.864,21.864,0,0,0,170.243,64.52c.511.015,1.021.013,1.536.014h11.475q37.55,0,75.1-.027h.01a2.187,2.187,0,0,1,1.662.527,2.124,2.124,0,0,1,.429,1.648c-.079,1.371-.053,2.786-.028,4.154M210.962,44.723l-.007,8.026c0,1.868-.014,3.736-.028,5.6l-.017,2.553a.879.879,0,0,1-.278.763.863.863,0,0,1-.736.206l-2.1-.008-.253.017c-.236.016-.47.032-.7.032l-10,.006q-5.85,0-11.7.006-6.954,0-13.91-.018a19.378,19.378,0,0,1-19.473-19.545q-.017-5.9-.006-11.808,0-4.175,0-8.349a20.528,20.528,0,0,1,.769-5.559c1.917-6.852,8.255-12.644,14.762-13.5a12.908,12.908,0,0,1,3.848-.432h6.226q7.265,0,14.524-.006h.031a17.6,17.6,0,0,1,3.72.388A19.075,19.075,0,0,1,210.945,21.98c.036,7.582.026,15.29.017,22.743m2.707-27.12a1.656,1.656,0,0,1,1.292-.431c1.4.036,2.8.072,4.154-.008a2.2,2.2,0,0,1,1.715.456,2.173,2.173,0,0,1,.511,1.688c-.062,2.108-.05,4.261-.039,6.342.005.851.01,1.7.01,2.553l0,2.513c-.005,2.252-.009,4.505.019,6.758a1.822,1.822,0,0,1-.45,1.375,1.782,1.782,0,0,1-1.368.4,31.745,31.745,0,0,0-3.764.006c-.109.008-.224.014-.342.014a1.864,1.864,0,0,1-1.3-.426,2.261,2.261,0,0,1-.564-1.714c-.026-2.053,0-4.138.031-6.153a118.289,118.289,0,0,0-.249-12.086,1.647,1.647,0,0,1,.349-1.289M268.64,71.581a2.768,2.768,0,0,1-2.793,2.675h-.008a2.747,2.747,0,0,1-2.779-2.8h0c-.023-.619-.018-1.24-.012-1.86l0-.481,0-.336,0-.795c0-.652.006-1.305-.008-1.958a1.5,1.5,0,0,1,.361-1.162,1.352,1.352,0,0,1,1.046-.338c.991.044,1.989.027,2.835,0a1.377,1.377,0,0,1,1.029.341,1.406,1.406,0,0,1,.358,1.039c-.009.75-.006,1.5,0,2.252,0,1.141.008,2.282-.029,3.422m-50.575-9.665c-.206,0-.412-.014-.619-.028l-.263-.017-.574.01c-.453.005-.9.009-1.355.05-.057.005-.146.012-.253.012a1.467,1.467,0,0,1-1.026-.359,1.643,1.643,0,0,1-.423-1.294c.041-1.219.045-2.439.05-3.659l.008-1.486c-.063-1.235-.1-1.939.388-2.45s1.2-.511,2.483-.511l.19.006a.759.759,0,0,0,.158,0,2.1,2.1,0,0,1,1.8.317,2.312,2.312,0,0,1,.585,1.917,6.263,6.263,0,0,0,.056,1.743,6.316,6.316,0,0,0,1.705.162l.176,0a1.492,1.492,0,0,0,.648-.054,1.8,1.8,0,0,0,.041-.591c-.052-1.433-.084-2.3.47-2.889s1.353-.6,2.825-.64l.154,0a1.8,1.8,0,0,1,2.154,2.14,6.126,6.126,0,0,0,.081,1.86,6.244,6.244,0,0,0,1.838.172l.144,0a1.389,1.389,0,0,0,.553-.042,4.306,4.306,0,0,0,.021-.493c-.041-1.494-.066-2.4.505-2.995s1.4-.608,2.941-.642l.145,0a2.047,2.047,0,0,1,1.545.461,2.072,2.072,0,0,1,.463,1.576,6.446,6.446,0,0,0,.105,1.959,5.977,5.977,0,0,0,1.848.177l.145,0a1.518,1.518,0,0,0,.554-.043,3.458,3.458,0,0,0,.023-.5c-.038-1.5-.061-2.4.515-3s1.424-.6,2.983-.622l.1,0a2.007,2.007,0,0,1,1.527.456,1.971,1.971,0,0,1,.455,1.479,6.273,6.273,0,0,0,.126,2.049,6.031,6.031,0,0,0,1.985.183l.133,0a1.289,1.289,0,0,0,.418-.034c-.015-.012.009-.13.005-.424-.022-1.6-.035-2.48.538-3.08s1.427-.608,2.983-.63h.1a2.039,2.039,0,0,1,1.528.458,1.979,1.979,0,0,1,.457,1.482,6.29,6.29,0,0,0,.125,2.052,6.133,6.133,0,0,0,2.009.172h.1a2.1,2.1,0,0,0,.4-.023,1.477,1.477,0,0,0,0-.288c-.012-.17-.032-.35-.05-.534a3.764,3.764,0,0,1,.378-2.8,2.532,2.532,0,0,1,2.394-.545,4.539,4.539,0,0,0,.958.045,1.813,1.813,0,0,1,1.447.341A1.863,1.863,0,0,1,260.453,54c-.009.29-.048.6-.09.921-.063.487-.158,1.223.025,1.386s.771.113,1.277.061A6.355,6.355,0,0,1,263,56.322l.064.006c.005-.059.009-.141.01-.255a7.151,7.151,0,0,0-.072-.88c-.11-.908-.246-2.038.585-2.683a3.461,3.461,0,0,1,2.47-.375,7.96,7.96,0,0,0,.992.042,1.569,1.569,0,0,1,1.234.362,1.591,1.591,0,0,1,.4,1.189c-.037,1.751-.043,3.5-.05,5.255l-.008,1.9a.852.852,0,0,1-.984,1l-.125.009c-.182.014-.366.027-.55.027q-24.444,0-48.895,0" fill="#020201"/>
        <path id="Trazado_1067467" data-name="Trazado 1067467" d="M261.8,68.776c0,.883-.027,1.767.007,2.649a2.041,2.041,0,0,0,4.08.131c.062-1.884.009-3.772.032-5.658.006-.468-.147-.635-.617-.622-.962.027-1.927.039-2.889,0-.594-.027-.633.278-.623.734.02.922.006,1.846.006,2.769Z" fill="#dddddb"/>
        <path id="Trazado_1067468" data-name="Trazado 1067468" d="M265.867,60.945l-.186.18c.166.048.222-.018.186-.18" fill="#e69d21"/>
        <path id="Trazado_1067469" data-name="Trazado 1067469" d="M210.16,60.948l-.189.178c.159.042.213-.027.189-.178" fill="#de4545"/>
        <path id="Trazado_1067470" data-name="Trazado 1067470" d="M181.4,10.654c-.359,0-.72.008-1.083.026a23.729,23.729,0,0,0-9.5,2.628,22.1,22.1,0,0,0-9.62,11.068,21.7,21.7,0,0,0,22.4,29.5,22.947,22.947,0,0,0,10.492-3.952A22.407,22.407,0,0,0,202.028,38.8,21.658,21.658,0,0,0,181.4,10.654m19.479,21.651A19.47,19.47,0,0,1,181.354,51.83h-.028a19.525,19.525,0,0,1,0-39.05h.03a19.463,19.463,0,0,1,19.518,19.525" fill="#030202"/>
        <path id="Trazado_1067471" data-name="Trazado 1067471" d="M191.618,22.322a6.081,6.081,0,0,0-2.85-2.185,16.968,16.968,0,0,1-1.733,2.72c-1.123,1.2-1.917-.627-2.986-.522-.573.057-.576-.327-.469-.8.248-1.09.434-2.194.644-3.292a13.354,13.354,0,0,0-8.233.668,14.109,14.109,0,0,0-8.922,11.382,13.652,13.652,0,0,0,2.9,10.834A14.438,14.438,0,0,0,194,39.248a4.114,4.114,0,0,0,.266-.908c-.907-.427-1.8-.9-2.726-1.265-.667-.265-.78-.537-.521-1.245a10.518,10.518,0,0,0-.332-7.972c-.452-1.072-1.98-1.833-1.545-2.963.394-1.025,1.618-1.728,2.476-2.573" fill="#d5d5d3"/>
        <path id="Trazado_1067472" data-name="Trazado 1067472" d="M193.9,37.055l.021.01a8.145,8.145,0,0,0,.676-2.738,12.609,12.609,0,0,0-3.036-10.621c-.055.046-.109.092-.165.137a4.484,4.484,0,0,0-1.323,1.411c-.054.141.29.529.567.84a5.106,5.106,0,0,1,.967,1.377,11.571,11.571,0,0,1,.352,8.7c.671.269,1.316.584,1.941.888" fill="#030303"/>
        <path id="Trazado_1067473" data-name="Trazado 1067473" d="M183.787,21.985a3.416,3.416,0,0,0,.437.271c.011-.015.041-.041.078-.081a8.429,8.429,0,0,0,1.087-1.652c.025-.045.05-.09.076-.135a7.459,7.459,0,0,0-2.447-.96c-.122.657-.244,1.314-.384,1.968a3.638,3.638,0,0,1,1.153.589" fill="#060606"/>
        <path id="Trazado_1067474" data-name="Trazado 1067474" d="M423.991,63.1q.014,11.735.023,23.469c0,.187,1.317,4.527,1.274,4.713-.735-.068-2.237-4.917-2.53-5.371q-12.987-20-25.932-40.033c-3.094-4.779-6.167-9.57-9.28-14.335a1.181,1.181,0,0,1,.158-1.8c2.291-2.209,4.532-4.47,6.757-6.746.57-.583.846-.55,1.309.134,2.678,3.969,5.419,7.9,8.105,11.861.719,1.059,1.559,1.629,2.861,1.173a15.864,15.864,0,0,1,2.345,3.5c-.9,1.6-.112,2.8.8,4.112,4.168,5.978,8.263,12.008,12.366,18.031a2.845,2.845,0,0,0,1.741,1.294" fill="#544d55"/>
        <path id="Trazado_1067475" data-name="Trazado 1067475" d="M423.991,63.1q.014,11.735.023,23.469c0,.187,1.317,4.527,1.274,4.713-.735-.068-2.237-4.917-2.53-5.371q-12.987-20-25.932-40.033c-3.094-4.779-6.167-9.57-9.28-14.335a1.181,1.181,0,0,1,.158-1.8c2.291-2.209,4.532-4.47,6.757-6.746.57-.583.846-.55,1.309.134,2.678,3.969,5.419,7.9,8.105,11.861.719,1.059,1.559,1.629,2.861,1.173a15.864,15.864,0,0,1,2.345,3.5c-.9,1.6-.112,2.8.8,4.112,4.168,5.978,8.263,12.008,12.366,18.031A2.845,2.845,0,0,0,423.991,63.1Z" fill="none" stroke="#544d55" stroke-miterlimit="10" stroke-width="2"/>
        <path id="Trazado_1067476" data-name="Trazado 1067476" d="M416.865,91.263C414.777,88,412.7,84.73,410.6,81.481Q402.23,68.568,393.84,55.668c-2.915-4.5-5.787-9.034-8.7-13.535-.254-.393-.385-1-1.045-1.005.817-.845,1.674-1.656,2.439-2.546.65-.755.99-.547,1.461.189,3.2,4.99,6.444,9.956,9.667,14.934q9.188,14.193,18.369,28.388,2.59,4.006,5.181,8.013c.208.321,3.915.743,3.859,1.182-1.592.351-6.6.007-8.2-.025" fill="#675d67"/>
        <path id="Trazado_1067477" data-name="Trazado 1067477" d="M416.865,91.263C414.777,88,412.7,84.73,410.6,81.481Q402.23,68.568,393.84,55.668c-2.915-4.5-5.787-9.034-8.7-13.535-.254-.393-.385-1-1.045-1.005.817-.845,1.674-1.656,2.439-2.546.65-.755.99-.547,1.461.189,3.2,4.99,6.444,9.956,9.667,14.934q9.188,14.193,18.369,28.388,2.59,4.006,5.181,8.013c.208.321,3.915.743,3.859,1.182C423.475,91.639,418.466,91.295,416.865,91.263Z" fill="none" stroke="#675d67" stroke-miterlimit="10" stroke-width="2"/>
        <path id="Trazado_1067478" data-name="Trazado 1067478" d="M444.55,69.4c-5.415.016-10.829.021-16.243.061-.706,0-.848-.276-.845-.9q.028-6.182,0-12.362c0-.659.173-.871.852-.866,5.414.037,10.83.037,16.245.049-.147.36-.267.733-.445,1.077q-1.266,2.451-2.562,4.886a2.081,2.081,0,0,0-.009,2.124c.416.753.856,1.495,1.226,2.27A26.156,26.156,0,0,1,444.55,69.4" fill="#fc7f86"/>
        <path id="Trazado_1067479" data-name="Trazado 1067479" d="M444.55,69.4c-5.415.016-10.829.021-16.243.061-.706,0-.848-.276-.845-.9q.028-6.182,0-12.362c0-.659.173-.871.852-.866,5.414.037,10.83.037,16.245.049-.147.36-.267.733-.445,1.077q-1.266,2.451-2.562,4.886a2.081,2.081,0,0,0-.009,2.124c.416.753.856,1.495,1.226,2.27A26.156,26.156,0,0,1,444.55,69.4Z" fill="none" stroke="#fc7f86" stroke-miterlimit="10" stroke-width="2"/>
        <path id="Trazado_1067480" data-name="Trazado 1067480" d="M327.165,59.816c-1.538-.413-1.934-.275-2.818,1.091q-8.142,12.564-16.286,25.126c-.27.414-.732,4.809-1.452,4.815-.045-.147.249-4.011.249-4.158q.008-11.792.029-23.582a2.862,2.862,0,0,0,1.746-1.293Q319.168,46.4,329.728,31c1.8-2.624,3.628-5.226,5.391-7.873.464-.695.749-.7,1.312-.123,2.226,2.276,4.466,4.54,6.759,6.748.668.642.6,1.1.143,1.8q-6.716,10.315-13.386,20.661c-.17.264-.32.543-.509.792a2.016,2.016,0,0,0,.163,2.946l-2.436,3.861" fill="#544d55"/>
        <path id="Trazado_1067481" data-name="Trazado 1067481" d="M327.165,59.816c-1.538-.413-1.934-.275-2.818,1.091q-8.142,12.564-16.286,25.126c-.27.414-.732,4.809-1.452,4.815-.045-.147.249-4.011.249-4.158q.008-11.792.029-23.582a2.862,2.862,0,0,0,1.746-1.293Q319.168,46.4,329.728,31c1.8-2.624,3.628-5.226,5.391-7.873.464-.695.749-.7,1.312-.123,2.226,2.276,4.466,4.54,6.759,6.748.668.642.6,1.1.143,1.8q-6.716,10.315-13.386,20.661c-.17.264-.32.543-.509.792a2.016,2.016,0,0,0,.163,2.946Z" fill="none" stroke="#544d55" stroke-miterlimit="10" stroke-width="2"/>
        <path id="Trazado_1067482" data-name="Trazado 1067482" d="M410.6,81.481q-8.369-12.914-16.759-25.813c-2.916-4.5-5.787-9.034-8.7-13.535-.255-.393-.385-1-1.045-1-.457.431-.912.864-1.371,1.293-1.077,1.007-1.868,1-2.945-.049-.984-.961-1.948-1.942-2.92-2.914-1.506-1.506-1.506-1.506-3.033,0-1.332,1.316-2.055,1.323-3.371.01-3.059-3.052-6.125-6.1-9.158-9.177-.539-.548-.868-.568-1.407,0-1.493,1.562-3.039,3.073-4.575,4.594-1.159,1.146-1.969,1.166-3.137.035-1.016-.983-1.979-2.021-2.98-3.02-1.112-1.108-1.125-1.1-1.95.169q-7.365,11.373-14.726,22.748c-.929,1.435-1.36,1.6-2.918,1.135l-2.436,3.862c1.013,1.237,1.042,1.642.142,3.035q-6.716,10.385-13.436,20.766c-1.636,2.535-5.2,5.343-6.821,7.891.47.018,2.907-.2,3.376-.2,9.931,0,19.861.022,29.791,0q2.365-.006,4.732-.024v.038H385.58v-.011q14.937.011,29.873,0c.471,0,.941-.031,1.412-.048-2.087-3.261-4.159-6.533-6.265-9.782" fill="#544d55"/>
        <path id="Trazado_1067483" data-name="Trazado 1067483" d="M410.6,81.481q-8.369-12.914-16.759-25.813c-2.916-4.5-5.787-9.034-8.7-13.535-.255-.393-.385-1-1.045-1-.457.431-.912.864-1.371,1.293-1.077,1.007-1.868,1-2.945-.049-.984-.961-1.948-1.942-2.92-2.914-1.506-1.506-1.506-1.506-3.033,0-1.332,1.316-2.055,1.323-3.371.01-3.059-3.052-6.125-6.1-9.158-9.177-.539-.548-.868-.568-1.407,0-1.493,1.562-3.039,3.073-4.575,4.594-1.159,1.146-1.969,1.166-3.137.035-1.016-.983-1.979-2.021-2.98-3.02-1.112-1.108-1.125-1.1-1.95.169q-7.365,11.373-14.726,22.748c-.929,1.435-1.36,1.6-2.918,1.135l-2.436,3.862c1.013,1.237,1.042,1.642.142,3.035q-6.716,10.385-13.436,20.766c-1.636,2.535-5.2,5.343-6.821,7.891.47.018,2.907-.2,3.376-.2,9.931,0,19.861.022,29.791,0q2.365-.006,4.732-.024v.038H385.58v-.011q14.937.011,29.873,0c.471,0,.941-.031,1.412-.048C414.778,88,412.706,84.73,410.6,81.481Z" fill="none" stroke="#544d55" stroke-linecap="round" stroke-linejoin="round" stroke-width="2"/>
        <path id="Trazado_1067484" data-name="Trazado 1067484" d="M307.944,91.4c.152-.206.306-.41.476-.6l1.427-2.257c1.125-1.781,2.251-3.563,3.394-5.333q4-6.2,8.019-12.4l5.416-8.368c.688-1.063.707-1.169.062-1.965-1.013-.262-1.107-.177-1.762.836l-5,7.723q-5.635,8.706-11.285,17.4a1.985,1.985,0,0,0-.127.248,1.94,1.94,0,0,1-.938,1.067,6.6,6.6,0,0,1-.98,1.884c-.1.15-.2.3-.3.452-.729,1.154-.749,1.4.167,2.166h.548a2.305,2.305,0,0,0,.883-.861" fill="#020202"/>
        <path id="Trazado_1067485" data-name="Trazado 1067485" d="M410.5,43.352c3.788,5.433,7.577,11,11.242,16.38l1.129,1.658a2.148,2.148,0,0,0,1.152.948,1.92,1.92,0,0,0,1.046-.721v-.685l-3.151-4.587q-4.7-6.834-9.369-13.689l-.234-.349c-.916-1.372-1.483-2.122-2.729-1.969-.42,1.016.065,1.8.914,3.014" fill="#030303"/>
        <path id="Trazado_1067486" data-name="Trazado 1067486" d="M382.2,37.857c-.581,1.066-1.143.915-1.884.092-1.078-1.194-2.254-2.3-3.4-3.429s-1.987-1.133-3.122-.033c-1.7,1.643-1.7,1.644-3.4-.064q-4.08-4.082-8.164-8.161c-1.25-1.246-2.033-1.24-3.284,0-1.559,1.551-3.125,3.094-4.655,4.672-.421.435-.682.43-1.087,0q-1.29-1.374-2.659-2.67c-.37-.35-.482-.6-.169-1.076q6.248-9.536,12.457-19.1a1.97,1.97,0,0,1,.8.834q2.18,3.414,4.39,6.81c4.268,6.561,8.556,13.11,12.8,19.69a9.293,9.293,0,0,1,1.39,2.427" fill="#e8f4fd"/>
        <path id="Trazado_1067487" data-name="Trazado 1067487" d="M382.2,37.857a9.293,9.293,0,0,0-1.39-2.427c-4.241-6.58-8.529-13.129-12.8-19.69q-2.209-3.4-4.39-6.81a1.97,1.97,0,0,0-.8-.834l2.461-3.968c.5.054.563.465.738.735q9.4,14.5,18.8,29c.46.705.474,1.1-.169,1.648-.864.732-1.645,1.56-2.46,2.347" fill="#d6e9fb"/>
        <path id="Trazado_1067488" data-name="Trazado 1067488" d="M384.311,39.838c.558-.563,1.135-1.145,1.652-1.744a1.7,1.7,0,0,1,1.357-.733,1.789,1.789,0,0,1,1.3,1.005q3.249,5.063,6.532,10.1L421.839,89.7c.037.056.768.213.807.267.166.23-.3.442-.239.87l1.4,1.454c.024,0,.05,0,.079,0,.121,0,.275.016.428.032a5.248,5.248,0,0,0,.861.047,5.264,5.264,0,0,0-.047-.861c-.023-.214-.045-.427-.055-.629-.161-.248-.333-.49-.506-.732a7.742,7.742,0,0,1-1.323-2.446,1.927,1.927,0,0,1-.968-1.088,2.48,2.48,0,0,0-.149-.286Q409.291,66.549,396.49,46.748l-3.3-5.111q-3.127-4.845-6.271-9.679a1.913,1.913,0,0,1,.267-2.75c2.491-2.4,4.911-4.858,6.741-6.731a1.627,1.627,0,0,1,1.293-.631,1.67,1.67,0,0,1,1.173.87c1.439,2.134,2.9,4.256,4.355,6.378q1.881,2.736,3.75,5.482c.672.992,1.2,1.1,1.783.948.616-.921.669-1-.137-2.177q-4.752-6.947-9.511-13.888c-.427-.621-.812-.964-1.115-.992-.272-.024-.734.232-1.257.755l-3.342,3.338q-2.331,2.333-4.668,4.659c-.039.039-.076.084-.114.13a1.434,1.434,0,0,1-2.3-.142q-1.923-2.976-3.828-5.963c-3.389-5.295-6.892-10.771-10.5-16.032-.283-.411-.6-.934-.936-1.5-.768-1.278-2.2-3.657-3.037-3.675L365.3,0c-.1,0-.734.24-1.575,1.488-1.005,1.489-1.973,3-2.942,4.513q-.669,1.046-1.343,2.089l-12.375,19.1a1.435,1.435,0,0,1-2.218.234L342.9,25.482c-2.119-2.119-4.222-4.223-6.332-6.321-.338-.336-.811-.728-1.2-.693-.373.035-.76.492-1.019.87q-14.016,20.434-28.021,40.877c-.412.6-.586,1.089-.491,1.375.089.267.479.532,1.1.744a2.308,2.308,0,0,0,1.085-.941q10.366-15.173,20.759-30.325l.335-.489q.874-1.275,1.754-2.544c1.221-1.767,2.442-3.534,3.632-5.321a1.671,1.671,0,0,1,1.168-.868,1.625,1.625,0,0,1,1.3.636c2.1,2.148,4.373,4.451,6.743,6.731a1.92,1.92,0,0,1,.252,2.753Q338.7,40.04,333.481,48.135l-3.061,4.744a6.534,6.534,0,0,1-.384.584,1.262,1.262,0,0,0-.007,1.853c1,.256,1.114.251,1.861-.9l14.725-22.748c.506-.78.811-1.251,1.411-1.315s1.017.344,1.7,1.023c.426.425.847.858,1.267,1.291.563.579,1.125,1.159,1.705,1.721.865.837,1.216.833,2.088-.03l.686-.677c1.283-1.268,2.611-2.58,3.875-3.9a1.75,1.75,0,0,1,1.23-.648,1.728,1.728,0,0,1,1.253.643q3.828,3.884,7.7,7.723l1.452,1.449c1.019,1.015,1.278,1.012,2.314-.012,1.828-1.805,2.286-1.805,4.091,0l.875.878c.676.68,1.353,1.36,2.039,2.03.787.768,1.125.771,1.908.037l1.369-1.29c.226-.235.48-.49.734-.746m-1.52-1.507a1.844,1.844,0,0,1-1.316,1.023,1.39,1.39,0,0,1-.144.008,2.253,2.253,0,0,1-1.569-.911c-.815-.9-1.71-1.776-2.576-2.62l-.794-.777c-.858-.846-1.226-.85-2.074-.028-1.995,1.934-2.453,1.93-4.456-.072L367.7,32.788q-2.754-2.757-5.512-5.511a2.269,2.269,0,0,0-3.194,0l-.349.347c-1.28,1.27-2.56,2.541-3.814,3.835a1.547,1.547,0,0,1-1.087.552h-.009a1.528,1.528,0,0,1-1.078-.561c-.842-.9-1.725-1.785-2.628-2.639a1.428,1.428,0,0,1-.28-2.031q5.074-7.746,10.121-15.511l4.35-6.832a1.411,1.411,0,0,1,1.2-.672h.007a1.46,1.46,0,0,1,1.238.687l.053.089,6.12,9.443q6.17,9.531,12.357,19.051a2.621,2.621,0,0,1-.433,3.39c-.441.4-.862.817-1.285,1.237-.226.223-.451.447-.68.668" fill="#040303"/>
        <path id="Trazado_1067489" data-name="Trazado 1067489" d="M444.55,69.4a26.156,26.156,0,0,0-1.785-3.664c-.37-.775-.81-1.517-1.226-2.27a2.081,2.081,0,0,1,.009-2.124q1.3-2.433,2.562-4.886c.178-.344.3-.717.445-1.077h4.34c-.894,1.665-1.681,3.226-2.557,4.736a4.192,4.192,0,0,0,0,4.545c.876,1.509,1.66,3.071,2.555,4.74Z" fill="#f6626d"/>
        <path id="Trazado_1067490" data-name="Trazado 1067490" d="M444.55,69.4a26.156,26.156,0,0,0-1.785-3.664c-.37-.775-.81-1.517-1.226-2.27a2.081,2.081,0,0,1,.009-2.124q1.3-2.433,2.562-4.886c.178-.344.3-.717.445-1.077h4.34c-.894,1.665-1.681,3.226-2.557,4.736a4.192,4.192,0,0,0,0,4.545c.876,1.509,1.66,3.071,2.555,4.74Z" fill="none" stroke="#f6626d" stroke-miterlimit="10" stroke-width="2"/>
        <path id="Trazado_1067491" data-name="Trazado 1067491" d="M428.646,72.208c6.215.047,12.536.037,18.644.026l1.745,0a2.836,2.836,0,0,0,2.572-1.177,2.924,2.924,0,0,0-.18-2.871l-.108-.2c-.776-1.46-1.579-2.969-2.415-4.419a2.183,2.183,0,0,1,.013-2.373c.753-1.306,1.478-2.665,2.181-3.979l.288-.538A2.545,2.545,0,0,0,448.9,52.55q-8.52,0-17.039,0h-5.242c-1.842,0-1.951.108-1.952,1.92v.595c0,8.427-.007,29.3.011,37.31h1.895l.032-17.366c.014-.305.037-.605.071-.905.111-1,.344-1.895,1.939-1.895Zm-.36-2a1.592,1.592,0,0,1-1.168-.4,1.689,1.689,0,0,1-.406-1.255c.021-4.7.019-8.629,0-12.353a1.646,1.646,0,0,1,.4-1.225,1.588,1.588,0,0,1,1.209-.4q6.279.042,12.557.042l9.278.006-.592,1.1c-.281.52-.549,1.031-.814,1.532-.59,1.119-1.147,2.176-1.755,3.226a3.783,3.783,0,0,0,0,3.789c.617,1.064,1.182,2.137,1.779,3.273.257.489.519.986.791,1.493l.59,1.1-9.356.01c-4.159.01-8.319.02-12.478.051Z" fill="#040303"/>
      </g>
    </g>
    <path id="Trazado_1069289" data-name="Trazado 1069289" d="M25.452-13.228a16.272,16.272,0,0,1-1.5,7.145A11.065,11.065,0,0,1,19.7-1.3,11.847,11.847,0,0,1,13.418.379a12.015,12.015,0,0,1-6.254-1.62A11.047,11.047,0,0,1,2.909-5.875a15.8,15.8,0,0,1-1.6-6.917v-1.554A16.344,16.344,0,0,1,2.8-21.5,11.038,11.038,0,0,1,7.06-26.286a11.93,11.93,0,0,1,6.32-1.687,11.814,11.814,0,0,1,6.254,1.668,11.237,11.237,0,0,1,4.274,4.747,15.875,15.875,0,0,1,1.545,7.06Zm-6.766-1.156a11.6,11.6,0,0,0-1.374-6.245,4.407,4.407,0,0,0-3.932-2.132q-5,0-5.288,7.5l-.019,2.028A11.934,11.934,0,0,0,9.419-6.993a4.4,4.4,0,0,0,4,2.179A4.348,4.348,0,0,0,17.3-6.955a11.608,11.608,0,0,0,1.383-6.159Zm28.939,4.3q0,5.041-2.085,7.751A6.982,6.982,0,0,1,39.666.379,6.059,6.059,0,0,1,34.625-2.1L34.36,0H28.636V-29.11h6.387v10.253a5.846,5.846,0,0,1,4.605-2.028,6.985,6.985,0,0,1,5.913,2.748q2.085,2.748,2.085,7.732Zm-6.406-.4a8.362,8.362,0,0,0-.786-4.217,2.65,2.65,0,0,0-2.416-1.26,3.057,3.057,0,0,0-2.994,1.649v8.149a3.074,3.074,0,0,0,3.032,1.63,2.713,2.713,0,0,0,2.862-2.2A15.812,15.812,0,0,0,41.22-10.48ZM57.31-20.506V.7a7.444,7.444,0,0,1-2.085,5.61,8.009,8.009,0,0,1-5.761,1.971,13.6,13.6,0,0,1-3.013-.322V3.127a12.22,12.22,0,0,0,1.8.171A2.337,2.337,0,0,0,50.9.663V-20.506Zm-6.88-5.288a2.851,2.851,0,0,1,.985-2.236,3.718,3.718,0,0,1,2.558-.872,3.718,3.718,0,0,1,2.558.872,2.851,2.851,0,0,1,.985,2.236,2.851,2.851,0,0,1-.985,2.236,3.718,3.718,0,0,1-2.558.872,3.718,3.718,0,0,1-2.558-.872A2.851,2.851,0,0,1,50.431-25.793ZM70.842.379A10.541,10.541,0,0,1,63.2-2.435,9.719,9.719,0,0,1,60.286-9.76v-.531a12.593,12.593,0,0,1,1.166-5.553,8.528,8.528,0,0,1,3.4-3.724,10.27,10.27,0,0,1,5.307-1.317A8.876,8.876,0,0,1,76.982-18.2q2.5,2.682,2.5,7.476v2.483h-12.7a4.6,4.6,0,0,0,1.5,2.71,4.455,4.455,0,0,0,2.994.985,5.74,5.74,0,0,0,4.738-2.123l2.919,3.449A8.159,8.159,0,0,1,75.551-.6,11.432,11.432,0,0,1,70.842.379Zm-.72-16.336q-2.8,0-3.336,3.715H73.23v-.493a3.164,3.164,0,0,0-.777-2.378A3.092,3.092,0,0,0,70.122-15.957ZM89.49-25.6v5.1h3.373v4.435H89.49V-6.69a2.4,2.4,0,0,0,.417,1.611,2.236,2.236,0,0,0,1.649.455,9.369,9.369,0,0,0,1.592-.114V-.171a11.787,11.787,0,0,1-3.6.55,6.691,6.691,0,0,1-4.871-1.554A6.37,6.37,0,0,1,83.1-5.894V-16.071H80.488v-4.435H83.1v-5.1ZM102.112,0H95.707V-20.506h6.406ZM95.328-25.793a2.851,2.851,0,0,1,.985-2.236,3.718,3.718,0,0,1,2.558-.872,3.718,3.718,0,0,1,2.558.872,2.851,2.851,0,0,1,.985,2.236,2.851,2.851,0,0,1-.985,2.236,3.718,3.718,0,0,1-2.558.872,3.718,3.718,0,0,1-2.558-.872A2.851,2.851,0,0,1,95.328-25.793ZM114.223-7.6l3.241-12.906h6.728L117.5,0h-6.519l-6.69-20.506h6.747Zm10.512-2.843a12.1,12.1,0,0,1,1.194-5.468,8.538,8.538,0,0,1,3.43-3.686,10.331,10.331,0,0,1,5.25-1.289,9.429,9.429,0,0,1,7.259,2.852,10.945,10.945,0,0,1,2.653,7.761v.227a10.619,10.619,0,0,1-2.663,7.609A9.454,9.454,0,0,1,134.646.379a9.561,9.561,0,0,1-7.031-2.625,10.266,10.266,0,0,1-2.862-7.116Zm6.387.4a7.63,7.63,0,0,0,.891,4.169,2.967,2.967,0,0,0,2.634,1.327q3.411,0,3.487-5.25v-.644q0-5.515-3.525-5.515-3.2,0-3.468,4.757Zm26.949,4.283a1.475,1.475,0,0,0-.853-1.308,12.972,12.972,0,0,0-3.241-1.023,14.778,14.778,0,0,1-3.942-1.393,6.6,6.6,0,0,1-2.369-2.094,5,5,0,0,1-.815-2.824,5.668,5.668,0,0,1,2.331-4.653,9.6,9.6,0,0,1,6.1-1.829,10.639,10.639,0,0,1,6.519,1.838,5.749,5.749,0,0,1,2.464,4.833h-6.406q0-2.464-2.6-2.464a2.574,2.574,0,0,0-1.687.559,1.731,1.731,0,0,0-.682,1.393,1.589,1.589,0,0,0,.834,1.383,7.879,7.879,0,0,0,2.663.872,23.01,23.01,0,0,1,3.212.815q4.624,1.592,4.624,5.7a5.37,5.37,0,0,1-2.492,4.567A10.929,10.929,0,0,1,155.285.379a11.153,11.153,0,0,1-4.7-.948,7.859,7.859,0,0,1-3.222-2.577,5.836,5.836,0,0,1-1.156-3.43h5.97a2.468,2.468,0,0,0,.948,2.075,3.9,3.9,0,0,0,2.331.654,3.066,3.066,0,0,0,1.962-.531A1.7,1.7,0,0,0,158.071-5.761Z" transform="translate(396.736 5140.859)" fill="#12263f"/>
    <g id="Grupo_1211260" data-name="Grupo 1211260" transform="translate(269.051 4979)">
      <g id="Grupo_1211259" data-name="Grupo 1211259" clip-path="url(#clip-path)">
        <text id="Tiempo" transform="translate(25.839 285.596)" font-size="20.415" font-family="Roboto-Light, Roboto" font-weight="300"><tspan x="0" y="0">Tiempo</tspan></text>
        <text id="Realista" transform="translate(332.855 285.596)" font-size="20.415" font-family="Roboto-Light, Roboto" font-weight="300"><tspan x="0" y="0">Realista</tspan></text>
      </g>
    </g>
    <path id="Trazado_1069290" data-name="Trazado 1069290" d="M9.669-4.067H3.08L1.585,0H.3L5.791-14.514H6.958L12.45,0H11.174ZM3.459-5.114H9.28l-2.911-7.9ZM15.64,0h-1.2V-15.311h1.2Zm7.227-.807a3.15,3.15,0,0,0,2.088-.7,2.473,2.473,0,0,0,.912-1.819h1.146a3.377,3.377,0,0,1-.618,1.8,3.872,3.872,0,0,1-1.51,1.271A4.551,4.551,0,0,1,22.867.2,4.167,4.167,0,0,1,19.5-1.276a5.964,5.964,0,0,1-1.241-3.967V-5.6a6.742,6.742,0,0,1,.558-2.821,4.3,4.3,0,0,1,1.6-1.894,4.416,4.416,0,0,1,2.437-.668,4.159,4.159,0,0,1,2.926,1.057,3.853,3.853,0,0,1,1.231,2.781H25.867a2.933,2.933,0,0,0-.912-2.043,2.953,2.953,0,0,0-2.1-.778A2.974,2.974,0,0,0,20.35-8.8a5.277,5.277,0,0,0-.892,3.27v.349a5.159,5.159,0,0,0,.892,3.22A3,3,0,0,0,22.867-.807ZM36.2,0a5.641,5.641,0,0,1-.229-1.505,4.16,4.16,0,0,1-1.6,1.261A4.9,4.9,0,0,1,32.317.2,3.615,3.615,0,0,1,29.8-.668a2.825,2.825,0,0,1-.962-2.193,2.887,2.887,0,0,1,1.311-2.492A6.3,6.3,0,0,1,33.8-6.27h2.163V-7.5a2.363,2.363,0,0,0-.713-1.819,2.946,2.946,0,0,0-2.078-.663,3.253,3.253,0,0,0-2.063.638,1.9,1.9,0,0,0-.817,1.535l-1.2-.01a2.774,2.774,0,0,1,1.2-2.228,4.606,4.606,0,0,1,2.941-.942,4.2,4.2,0,0,1,2.846.9,3.237,3.237,0,0,1,1.072,2.517v5.1A6.33,6.33,0,0,0,37.48-.12V0ZM32.456-.857a4,4,0,0,0,2.138-.578A3.4,3.4,0,0,0,35.965-2.98V-5.353H33.832a5.345,5.345,0,0,0-2.791.653,1.96,1.96,0,0,0-1.007,1.739,1.928,1.928,0,0,0,.673,1.505A2.535,2.535,0,0,0,32.456-.857Zm9.011-9.928.04,1.844a4.283,4.283,0,0,1,1.515-1.52,3.938,3.938,0,0,1,2-.523,3.235,3.235,0,0,1,2.582.977,4.406,4.406,0,0,1,.857,2.931V0H47.279V-7.087a3.3,3.3,0,0,0-.613-2.153,2.4,2.4,0,0,0-1.929-.708,3.017,3.017,0,0,0-1.959.693,4.059,4.059,0,0,0-1.261,1.869V0H40.331V-10.786ZM52.333-1.007H59.34V0H50.857V-.877L57.4-9.759h-6.34v-1.027H58.9V-9.9ZM68.282,0a5.641,5.641,0,0,1-.229-1.505,4.16,4.16,0,0,1-1.6,1.261A4.9,4.9,0,0,1,64.394.2a3.615,3.615,0,0,1-2.517-.867,2.825,2.825,0,0,1-.962-2.193,2.887,2.887,0,0,1,1.311-2.492,6.3,6.3,0,0,1,3.653-.917h2.163V-7.5a2.363,2.363,0,0,0-.713-1.819,2.946,2.946,0,0,0-2.078-.663,3.253,3.253,0,0,0-2.063.638,1.9,1.9,0,0,0-.817,1.535l-1.2-.01a2.774,2.774,0,0,1,1.2-2.228,4.606,4.606,0,0,1,2.941-.942,4.2,4.2,0,0,1,2.846.9,3.237,3.237,0,0,1,1.072,2.517v5.1A6.33,6.33,0,0,0,69.558-.12V0ZM64.534-.857a4,4,0,0,0,2.138-.578A3.4,3.4,0,0,0,68.042-2.98V-5.353H65.909a5.345,5.345,0,0,0-2.791.653,1.96,1.96,0,0,0-1.007,1.739,1.928,1.928,0,0,0,.673,1.505A2.535,2.535,0,0,0,64.534-.857ZM81.091-5.283a6.5,6.5,0,0,1-1.116,4,3.566,3.566,0,0,1-3,1.48,3.876,3.876,0,0,1-3.409-1.675L73.515,0H72.4V-15.311h1.186v6.091a3.749,3.749,0,0,1,3.369-1.764,3.6,3.6,0,0,1,3.025,1.46,6.573,6.573,0,0,1,1.111,4.062Zm-1.2-.209a5.618,5.618,0,0,0-.827-3.294,2.7,2.7,0,0,0-2.333-1.161,3.283,3.283,0,0,0-1.944.563,3.424,3.424,0,0,0-1.206,1.65v4.864a3.2,3.2,0,0,0,3.17,2.033A2.678,2.678,0,0,0,79.062-2,6.006,6.006,0,0,0,79.894-5.492ZM85.058,0h-1.2V-15.311h1.2Zm7.416.2a4.682,4.682,0,0,1-2.487-.678,4.619,4.619,0,0,1-1.729-1.889,5.889,5.889,0,0,1-.618-2.716v-.429a6.347,6.347,0,0,1,.6-2.8,4.8,4.8,0,0,1,1.68-1.959,4.144,4.144,0,0,1,2.333-.713A3.894,3.894,0,0,1,95.37-9.644a5.438,5.438,0,0,1,1.151,3.663v.668h-7.7v.229a4.516,4.516,0,0,0,1.052,3.055A3.345,3.345,0,0,0,92.524-.807a3.887,3.887,0,0,0,1.69-.349,3.747,3.747,0,0,0,1.331-1.116l.748.568A4.352,4.352,0,0,1,92.474.2ZM92.255-9.968a2.982,2.982,0,0,0-2.268.987A4.559,4.559,0,0,0,88.866-6.33h6.469v-.13a3.958,3.958,0,0,0-.887-2.532A2.749,2.749,0,0,0,92.255-9.968Z" transform="translate(589.17 5097.881)"/>
    <path id="Trazado_1069291" data-name="Trazado 1069291" d="M3.459-14.514,8.812-1.7l5.373-12.809h1.635V0H14.593V-6.32l.1-6.479L9.29,0H8.343L2.961-12.749l.1,6.39V0H1.834V-14.514ZM23.4.2a4.682,4.682,0,0,1-2.487-.678,4.619,4.619,0,0,1-1.729-1.889,5.889,5.889,0,0,1-.618-2.716v-.429a6.347,6.347,0,0,1,.6-2.8,4.8,4.8,0,0,1,1.68-1.959,4.144,4.144,0,0,1,2.333-.713,3.894,3.894,0,0,1,3.115,1.341,5.438,5.438,0,0,1,1.151,3.663v.668h-7.7v.229A4.516,4.516,0,0,0,20.8-2.029,3.346,3.346,0,0,0,23.445-.807a3.887,3.887,0,0,0,1.69-.349,3.747,3.747,0,0,0,1.331-1.116l.748.568A4.352,4.352,0,0,1,23.4.2ZM23.176-9.968a2.982,2.982,0,0,0-2.268.987A4.559,4.559,0,0,0,19.787-6.33h6.469v-.13a3.958,3.958,0,0,0-.887-2.532A2.749,2.749,0,0,0,23.176-9.968Zm6.11,4.476a6.5,6.5,0,0,1,1.121-4,3.609,3.609,0,0,1,3.045-1.49A3.751,3.751,0,0,1,36.782-9.26v-6.051h1.186V0H36.852L36.8-1.435A3.852,3.852,0,0,1,33.433.2a3.6,3.6,0,0,1-3.005-1.5,6.534,6.534,0,0,1-1.141-4.052Zm1.206.209a5.624,5.624,0,0,0,.827,3.255A2.676,2.676,0,0,0,33.652-.837a3.211,3.211,0,0,0,3.13-1.944V-7.845a3.187,3.187,0,0,0-3.11-2.1A2.708,2.708,0,0,0,31.33-8.767,6.01,6.01,0,0,0,30.492-5.283ZM42.444,0h-1.2V-10.786h1.2ZM41.039-13.906a.808.808,0,0,1,.219-.573.78.78,0,0,1,.6-.234.8.8,0,0,1,.6.234.8.8,0,0,1,.224.573.781.781,0,0,1-.224.568.805.805,0,0,1-.6.229.789.789,0,0,1-.6-.229A.79.79,0,0,1,41.039-13.906ZM54.366-5.283a6.5,6.5,0,0,1-1.116,4,3.566,3.566,0,0,1-3,1.48A3.876,3.876,0,0,1,46.84-1.475L46.79,0H45.674V-15.311H46.86v6.091a3.749,3.749,0,0,1,3.369-1.764,3.6,3.6,0,0,1,3.025,1.46,6.573,6.573,0,0,1,1.111,4.062Zm-1.2-.209a5.618,5.618,0,0,0-.827-3.294A2.7,2.7,0,0,0,50.01-9.948a3.283,3.283,0,0,0-1.944.563,3.424,3.424,0,0,0-1.206,1.65v4.864A3.2,3.2,0,0,0,50.03-.837,2.678,2.678,0,0,0,52.338-2,6.006,6.006,0,0,0,53.17-5.492ZM58.333,0h-1.2V-15.311h1.2ZM65.75.2a4.682,4.682,0,0,1-2.487-.678,4.619,4.619,0,0,1-1.729-1.889,5.889,5.889,0,0,1-.618-2.716v-.429a6.347,6.347,0,0,1,.6-2.8,4.8,4.8,0,0,1,1.68-1.959,4.144,4.144,0,0,1,2.333-.713,3.894,3.894,0,0,1,3.115,1.341A5.438,5.438,0,0,1,69.8-5.981v.668H62.1v.229a4.516,4.516,0,0,0,1.052,3.055A3.345,3.345,0,0,0,65.8-.807a3.887,3.887,0,0,0,1.69-.349A3.747,3.747,0,0,0,68.82-2.273l.748.568A4.352,4.352,0,0,1,65.75.2ZM65.53-9.968a2.982,2.982,0,0,0-2.268.987A4.559,4.559,0,0,0,62.141-6.33h6.469v-.13a3.958,3.958,0,0,0-.887-2.532A2.749,2.749,0,0,0,65.53-9.968Z" transform="translate(443.919 5067.055)"/>
    <path id="Trazado_1069292" data-name="Trazado 1069292" d="M9.848-6.958H3.06v5.921h7.805V0H1.834V-14.514h8.981v1.047H3.06v5.472H9.848Zm9.779,4.217a1.7,1.7,0,0,0-.713-1.425,5.5,5.5,0,0,0-2.148-.842,9.691,9.691,0,0,1-2.228-.7,2.968,2.968,0,0,1-1.176-.962,2.4,2.4,0,0,1-.384-1.376,2.566,2.566,0,0,1,1.067-2.108,4.308,4.308,0,0,1,2.731-.832,4.434,4.434,0,0,1,2.9.892,2.863,2.863,0,0,1,1.092,2.328h-1.2a1.932,1.932,0,0,0-.792-1.575,3.118,3.118,0,0,0-2-.628,3.119,3.119,0,0,0-1.889.523,1.615,1.615,0,0,0-.713,1.361,1.471,1.471,0,0,0,.593,1.251,6.274,6.274,0,0,0,2.163.812,10.167,10.167,0,0,1,2.352.787,3.047,3.047,0,0,1,1.161,1.007A2.577,2.577,0,0,1,20.823-2.8a2.583,2.583,0,0,1-1.1,2.183A4.706,4.706,0,0,1,16.846.2a4.831,4.831,0,0,1-3.055-.912A2.808,2.808,0,0,1,12.62-3.02h1.2a2.074,2.074,0,0,0,.882,1.63,3.606,3.606,0,0,0,2.148.583,3.39,3.39,0,0,0,2.014-.548A1.645,1.645,0,0,0,19.627-2.741Zm12.55-2.542a6.5,6.5,0,0,1-1.116,4A3.556,3.556,0,0,1,28.07.2a3.992,3.992,0,0,1-3.389-1.555v5.5H23.495V-10.786H24.6l.06,1.525a3.827,3.827,0,0,1,3.379-1.724A3.587,3.587,0,0,1,31.076-9.52a6.639,6.639,0,0,1,1.1,4.067Zm-1.2-.209a5.547,5.547,0,0,0-.847-3.26,2.732,2.732,0,0,0-2.362-1.2,3.3,3.3,0,0,0-1.884.528,3.323,3.323,0,0,0-1.206,1.535v5.173A3.167,3.167,0,0,0,25.907-1.3a3.536,3.536,0,0,0,1.884.488,2.707,2.707,0,0,0,2.347-1.2A6.04,6.04,0,0,0,30.981-5.492ZM39,.2a4.682,4.682,0,0,1-2.487-.678,4.619,4.619,0,0,1-1.729-1.889,5.889,5.889,0,0,1-.618-2.716v-.429a6.347,6.347,0,0,1,.6-2.8,4.8,4.8,0,0,1,1.68-1.959,4.144,4.144,0,0,1,2.333-.713,3.894,3.894,0,0,1,3.115,1.341,5.438,5.438,0,0,1,1.151,3.663v.668h-7.7v.229A4.516,4.516,0,0,0,36.4-2.029,3.345,3.345,0,0,0,39.045-.807a3.887,3.887,0,0,0,1.69-.349,3.747,3.747,0,0,0,1.331-1.116l.748.568A4.352,4.352,0,0,1,39,.2ZM38.776-9.968a2.982,2.982,0,0,0-2.268.987A4.559,4.559,0,0,0,35.387-6.33h6.469v-.13a3.958,3.958,0,0,0-.887-2.532A2.749,2.749,0,0,0,38.776-9.968ZM49.352-.807a3.15,3.15,0,0,0,2.088-.7,2.473,2.473,0,0,0,.912-1.819H53.5a3.377,3.377,0,0,1-.618,1.8,3.872,3.872,0,0,1-1.51,1.271A4.551,4.551,0,0,1,49.352.2a4.167,4.167,0,0,1-3.364-1.475,5.964,5.964,0,0,1-1.241-3.967V-5.6a6.742,6.742,0,0,1,.558-2.821,4.3,4.3,0,0,1,1.6-1.894,4.416,4.416,0,0,1,2.437-.668,4.159,4.159,0,0,1,2.926,1.057A3.853,3.853,0,0,1,53.5-7.147H52.353a2.933,2.933,0,0,0-.912-2.043,2.953,2.953,0,0,0-2.1-.778A2.974,2.974,0,0,0,46.835-8.8a5.277,5.277,0,0,0-.892,3.27v.349a5.159,5.159,0,0,0,.892,3.22A3,3,0,0,0,49.352-.807ZM57.2,0H56V-10.786h1.2Zm.618-15.191H59.26l-2.3,2.791H55.911ZM61.144,0V-9.809H59.35v-.977h1.794v-1.106a3.653,3.653,0,0,1,.937-2.676,3.539,3.539,0,0,1,2.642-.952,7.147,7.147,0,0,1,2.751.588l-.2,1.027a6.151,6.151,0,0,0-2.472-.528q-2.462,0-2.462,2.562v1.087h2.522v.977H62.341V0Zm6.978,0h-1.2V-10.786h1.2Zm7.257-.807a3.15,3.15,0,0,0,2.088-.7,2.473,2.473,0,0,0,.912-1.819h1.146a3.377,3.377,0,0,1-.618,1.8A3.872,3.872,0,0,1,77.4-.259,4.551,4.551,0,0,1,75.379.2a4.167,4.167,0,0,1-3.364-1.475,5.964,5.964,0,0,1-1.241-3.967V-5.6a6.742,6.742,0,0,1,.558-2.821,4.3,4.3,0,0,1,1.6-1.894,4.416,4.416,0,0,1,2.437-.668,4.159,4.159,0,0,1,2.926,1.057,3.853,3.853,0,0,1,1.231,2.781H78.379a2.933,2.933,0,0,0-.912-2.043,2.953,2.953,0,0,0-2.1-.778A2.974,2.974,0,0,0,72.862-8.8a5.277,5.277,0,0,0-.892,3.27v.349a5.159,5.159,0,0,0,.892,3.22A3,3,0,0,0,75.379-.807ZM81.25-5.552a6.347,6.347,0,0,1,.6-2.8,4.6,4.6,0,0,1,1.7-1.939,4.591,4.591,0,0,1,2.5-.693,4.437,4.437,0,0,1,3.489,1.51,5.819,5.819,0,0,1,1.336,4v.249a6.4,6.4,0,0,1-.6,2.816,4.5,4.5,0,0,1-1.7,1.929,4.66,4.66,0,0,1-2.5.678,4.441,4.441,0,0,1-3.484-1.51,5.806,5.806,0,0,1-1.341-4Zm1.2.329a4.894,4.894,0,0,0,1,3.175A3.213,3.213,0,0,0,86.075-.807a3.2,3.2,0,0,0,2.617-1.241,5.055,5.055,0,0,0,1-3.275v-.229a5.487,5.487,0,0,0-.459-2.263A3.684,3.684,0,0,0,87.949-9.4a3.286,3.286,0,0,0-1.894-.563,3.187,3.187,0,0,0-2.6,1.251,5.063,5.063,0,0,0-1.007,3.275Z" transform="translate(283.256 5135.484)"/>
    <g id="Grupo_1211262" data-name="Grupo 1211262" transform="translate(269.051 4979)">
      <g id="Grupo_1211261" data-name="Grupo 1211261" clip-path="url(#clip-path)">
        <path id="Trazado_1067492" data-name="Trazado 1067492" d="M45.531,107.8s-22.151,3.925-19.257,20.035" fill="none" stroke="#050505" stroke-linecap="round" stroke-linejoin="round" stroke-width="1.465"/>
        <path id="Trazado_1067493" data-name="Trazado 1067493" d="M21.683,119.459l1.33-.617,4.044,8.7,2.5-9.266,1.414.381-3.543,13.153Z" fill="#050505"/>
        <path id="Trazado_1067494" data-name="Trazado 1067494" d="M83.651,109.783s13.211,4.183,31.046-18.495c26.872-34.171,49.541-17.175,49.541-17.175" fill="none" stroke="#050505" stroke-linecap="round" stroke-linejoin="round" stroke-width="1.465"/>
        <path id="Trazado_1067495" data-name="Trazado 1067495" d="M248.708,89.526s38.752,23.561,51.3-17.394" fill="none" stroke="#050505" stroke-linecap="round" stroke-linejoin="round" stroke-width="1.465"/>
        <path id="Trazado_1067496" data-name="Trazado 1067496" d="M330.49,144.535h.542c2.311,0,19.029.047,21.337-.018a1.557,1.557,0,0,1,1.416,2.446c-.662,1.049-1.231,2.156-1.864,3.224a.569.569,0,0,0,.006.672c.623,1.057,1.186,2.151,1.843,3.186a1.562,1.562,0,0,1-1.413,2.474c-2.308-.07-19.027-.019-21.337-.019h-.53v.51q0,1.821,0,3.641a1.7,1.7,0,0,1-2.916,1.327q-5.706-5.068-11.416-10.134a1.661,1.661,0,0,1,.01-2.662q5.7-5.073,11.415-10.134a1.7,1.7,0,0,1,2.906,1.3q0,1.819,0,3.641v.542M352.577,155c-.771-1.349-1.482-2.622-2.223-3.878a1.084,1.084,0,0,1,.005-1.224c.669-1.131,1.31-2.278,1.962-3.42.075-.132.147-.266.247-.449h-.558c-2.544,0-19.494,0-22.037,0-.73,0-.979-.246-.981-.97,0-1.491,0-2.982-.007-4.473a2.273,2.273,0,0,0-.126-.518,2.313,2.313,0,0,0-.437.243q-5.565,4.926-11.126,9.857a1.833,1.833,0,0,1-.447.214c.224.245.285.326.36.392q5.64,5.007,11.286,10.008a1.488,1.488,0,0,0,.372.178,1.76,1.76,0,0,0,.118-.435c.009-1.477.005-2.953.006-4.43,0-.877.214-1.094,1.078-1.094h22.508Z"/>
        <path id="Trazado_1067497" data-name="Trazado 1067497" d="M330.49,144.535h.542c2.311,0,19.029.047,21.337-.018a1.557,1.557,0,0,1,1.416,2.446c-.662,1.049-1.231,2.156-1.864,3.224a.569.569,0,0,0,.006.672c.623,1.057,1.186,2.151,1.843,3.186a1.562,1.562,0,0,1-1.413,2.474c-2.308-.07-19.027-.019-21.337-.019h-.53v.51q0,1.821,0,3.641a1.7,1.7,0,0,1-2.916,1.327q-5.706-5.068-11.416-10.134a1.661,1.661,0,0,1,.01-2.662q5.7-5.073,11.415-10.134a1.7,1.7,0,0,1,2.906,1.3q0,1.819,0,3.641ZM352.577,155c-.771-1.349-1.482-2.622-2.223-3.878a1.084,1.084,0,0,1,.005-1.224c.669-1.131,1.31-2.278,1.962-3.42.075-.132.147-.266.247-.449h-.558c-2.544,0-19.494,0-22.037,0-.73,0-.979-.246-.981-.97,0-1.491,0-2.982-.007-4.473a2.273,2.273,0,0,0-.126-.518,2.313,2.313,0,0,0-.437.243q-5.565,4.926-11.126,9.857a1.833,1.833,0,0,1-.447.214c.224.245.285.326.36.392q5.64,5.007,11.286,10.008a1.488,1.488,0,0,0,.372.178,1.76,1.76,0,0,0,.118-.435c.009-1.477.005-2.953.006-4.43,0-.877.214-1.094,1.078-1.094h22.508Z" fill="none" stroke="#000" stroke-miterlimit="10" stroke-width="1"/>
        <path id="Trazado_1067498" data-name="Trazado 1067498" d="M352.577,155H330.069c-.864,0-1.078.217-1.078,1.094,0,1.477,0,2.953-.006,4.43a1.76,1.76,0,0,1-.118.435,1.488,1.488,0,0,1-.372-.178q-5.647-5-11.286-10.008c-.075-.066-.136-.147-.36-.392a1.833,1.833,0,0,0,.447-.214q5.566-4.925,11.126-9.857a2.313,2.313,0,0,1,.437-.243,2.273,2.273,0,0,1,.126.518c.01,1.491,0,2.982.007,4.473,0,.724.251.969.981.97,2.543,0,19.493,0,22.037,0h.558c-.1.183-.172.317-.247.449-.652,1.142-1.293,2.289-1.962,3.42a1.084,1.084,0,0,0-.005,1.224c.741,1.256,1.452,2.529,2.223,3.878" fill="#80b500"/>
        <path id="Trazado_1067499" data-name="Trazado 1067499" d="M359.128,144.97l-3.55,5.546,3.467,5.6" fill="none" stroke="#000" stroke-linecap="round" stroke-linejoin="round" stroke-width="2"/>
        <path id="Trazado_1067500" data-name="Trazado 1067500" d="M363.751,144.97l-3.55,5.546,3.467,5.6" fill="none" stroke="#000" stroke-linecap="round" stroke-linejoin="round" stroke-width="2"/>
        <path id="Trazado_1067501" data-name="Trazado 1067501" d="M407.216,156.5h-.542c-2.311,0-19.029-.047-21.337.018a1.557,1.557,0,0,1-1.416-2.446c.662-1.049,1.231-2.156,1.864-3.224a.569.569,0,0,0-.006-.672c-.623-1.057-1.186-2.151-1.843-3.186a1.562,1.562,0,0,1,1.413-2.474c2.308.07,19.027.019,21.337.019h.53v-.51q0-1.821,0-3.641a1.7,1.7,0,0,1,2.916-1.327q5.706,5.069,11.416,10.134a1.661,1.661,0,0,1-.01,2.662q-5.7,5.073-11.415,10.134a1.7,1.7,0,0,1-2.906-1.3q0-1.819,0-3.641V156.5M385.129,146.03c.771,1.349,1.482,2.622,2.223,3.878a1.084,1.084,0,0,1-.005,1.224c-.669,1.131-1.31,2.278-1.962,3.42-.075.132-.147.266-.247.449h.558c2.544,0,19.494,0,22.037,0,.73,0,.979.246.981.97,0,1.491,0,2.982.007,4.473a2.275,2.275,0,0,0,.126.518,2.312,2.312,0,0,0,.437-.243q5.565-4.926,11.126-9.857a1.832,1.832,0,0,1,.447-.214c-.224-.245-.285-.326-.36-.392q-5.64-5.007-11.286-10.008a1.487,1.487,0,0,0-.372-.178,1.76,1.76,0,0,0-.118.435c-.009,1.477-.005,2.953-.006,4.43,0,.877-.214,1.094-1.078,1.094H385.129Z"/>
        <path id="Trazado_1067502" data-name="Trazado 1067502" d="M407.216,156.5h-.542c-2.311,0-19.029-.047-21.337.018a1.557,1.557,0,0,1-1.416-2.446c.662-1.049,1.231-2.156,1.864-3.224a.569.569,0,0,0-.006-.672c-.623-1.057-1.186-2.151-1.843-3.186a1.562,1.562,0,0,1,1.413-2.474c2.308.07,19.027.019,21.337.019h.53v-.51q0-1.821,0-3.641a1.7,1.7,0,0,1,2.916-1.327q5.706,5.069,11.416,10.134a1.661,1.661,0,0,1-.01,2.662q-5.7,5.073-11.415,10.134a1.7,1.7,0,0,1-2.906-1.3q0-1.819,0-3.641ZM385.129,146.03c.771,1.349,1.482,2.622,2.223,3.878a1.084,1.084,0,0,1-.005,1.224c-.669,1.131-1.31,2.278-1.962,3.42-.075.132-.147.266-.247.449h.558c2.544,0,19.494,0,22.037,0,.73,0,.979.246.981.97,0,1.491,0,2.982.007,4.473a2.275,2.275,0,0,0,.126.518,2.312,2.312,0,0,0,.437-.243q5.565-4.926,11.126-9.857a1.832,1.832,0,0,1,.447-.214c-.224-.245-.285-.326-.36-.392q-5.64-5.007-11.286-10.008a1.487,1.487,0,0,0-.372-.178,1.76,1.76,0,0,0-.118.435c-.009,1.477-.005,2.953-.006,4.43,0,.877-.214,1.094-1.078,1.094H385.129Z" fill="none" stroke="#000" stroke-miterlimit="10" stroke-width="1"/>
        <path id="Trazado_1067503" data-name="Trazado 1067503" d="M385.129,146.029h22.508c.864,0,1.077-.217,1.078-1.094,0-1.477,0-2.953.006-4.43a1.76,1.76,0,0,1,.118-.435,1.487,1.487,0,0,1,.372.178q5.648,5,11.286,10.008c.075.066.136.147.36.392a1.833,1.833,0,0,0-.447.214q-5.566,4.925-11.126,9.857a2.312,2.312,0,0,1-.437.243,2.275,2.275,0,0,1-.126-.518c-.01-1.491,0-2.982-.007-4.473,0-.724-.251-.969-.981-.97-2.543,0-19.493,0-22.037,0h-.558c.1-.183.172-.317.247-.449.652-1.142,1.293-2.289,1.962-3.42a1.084,1.084,0,0,0,.005-1.224c-.741-1.256-1.452-2.529-2.223-3.878" fill="#80b500"/>
        <path id="Trazado_1067504" data-name="Trazado 1067504" d="M378.578,156.062l3.55-5.546-3.467-5.6" fill="none" stroke="#000" stroke-linecap="round" stroke-linejoin="round" stroke-width="2"/>
        <path id="Trazado_1067505" data-name="Trazado 1067505" d="M373.954,156.062l3.55-5.546-3.467-5.6" fill="none" stroke="#000" stroke-linecap="round" stroke-linejoin="round" stroke-width="2"/>
      </g>
    </g>
  </g>
</svg>
