<svg xmlns="http://www.w3.org/2000/svg" xmlns:xlink="http://www.w3.org/1999/xlink" width="924.303" height="266.328" viewBox="0 0 924.303 266.328">
  <defs>
    <clipPath id="clip-path">
      <rect id="Rectángulo_402057" data-name="Rectángulo 402057" width="924.303" height="266.328" fill="none"/>
    </clipPath>
    <clipPath id="clip-path-4">
      <path id="Trazado_1065666" data-name="Trazado 1065666" d="M86.675,136.669c-3.492,1.7-7.831,13.742-7.831,13.742a2.87,2.87,0,0,1-1.367,1.272c-1.677.682-2.5-.844-3.652-1.611-1.4-.929-3.2-.7-4.843-.965s-1.853-2.1-3.034-3.3C54.775,134.4,51.915,175.21,51.915,175.21l132.555-.729a6.738,6.738,0,0,0-2.459-5.975,6.278,6.278,0,0,0-6.243-.812,11.4,11.4,0,0,1-2.64,1.119c-2.131.328-3.914-1.7-4.811-3.722s-1.434-4.341-3.054-5.807a3.825,3.825,0,0,0-3.2-.833,4.461,4.461,0,0,1-5.25-3.492c0-.021-.008-.043-.013-.065-.535-2.723-.622-5.657-2.724-7.74a3.6,3.6,0,0,0-3.647-.972c-2.122.723-2.4,3.132-3.219,5.03-.718,1.663-2.82,3.152-4.116,1.918-.764-.728-1.266-2.295-2.227-1.888-.623.264-.63,1.161-.973,1.758-.648,1.121-2.427.859-3.243-.139a7.86,7.86,0,0,1-1.211-3.662c-.3-1.612-.922-3.4-2.775-3.635a2.993,2.993,0,0,0-2.343.793c-1.581,1.413-1.857,3.532-2.091,5.538l-.628,5.345a6.7,6.7,0,0,1-9.556,5.37l-.094-.044a13.175,13.175,0,0,0-3.406-1.049,9.7,9.7,0,0,1-7.571-6.317,9.865,9.865,0,0,0-1.352-2.6c-1.557-2.112-2.922-9.4-7.25-5.94a4.275,4.275,0,0,1-6.846-2.321c-1.09-4.152-2.62-7.8-4.3-7.8a1.25,1.25,0,0,0-.557.135" fill="none"/>
    </clipPath>
    <linearGradient id="linear-gradient" x1="-0.391" y1="3.233" x2="-0.383" y2="3.233" gradientUnits="objectBoundingBox">
      <stop offset="0" stop-color="#80b500"/>
      <stop offset="0.017" stop-color="#80b500"/>
      <stop offset="0.998" stop-color="#ccdd63"/>
      <stop offset="1" stop-color="#ccdd63"/>
    </linearGradient>
  </defs>
  <g id="Grupo_1210626" data-name="Grupo 1210626" transform="translate(20.697 -6)">
    <g id="Grupo_1210625" data-name="Grupo 1210625" transform="translate(-20.697 6)" clip-path="url(#clip-path)">
      <g id="Grupo_1210608" data-name="Grupo 1210608">
        <g id="Grupo_1210607" data-name="Grupo 1210607" clip-path="url(#clip-path)">
          <path id="Trazado_1065639" data-name="Trazado 1065639" d="M904.338,266.328H19.965A19.965,19.965,0,0,1,0,246.363V19.965A19.965,19.965,0,0,1,19.965,0H904.338A19.965,19.965,0,0,1,924.3,19.965v226.4a19.965,19.965,0,0,1-19.965,19.965" fill="#425a4d"/>
          <rect id="Rectángulo_401988" data-name="Rectángulo 401988" width="9.577" height="41.482" transform="translate(218.862 144.572)" fill="#28362e"/>
          <rect id="Rectángulo_401989" data-name="Rectángulo 401989" width="9.577" height="23.168" transform="translate(234.402 162.886)" fill="#28362e"/>
          <rect id="Rectángulo_401990" data-name="Rectángulo 401990" width="9.577" height="23.168" transform="translate(327.643 162.886)" fill="#28362e"/>
          <rect id="Rectángulo_401991" data-name="Rectángulo 401991" width="9.577" height="33.543" transform="translate(265.483 152.511)" fill="#28362e"/>
          <rect id="Rectángulo_401992" data-name="Rectángulo 401992" width="9.577" height="33.543" transform="translate(296.563 152.511)" fill="#28362e"/>
          <rect id="Rectángulo_401993" data-name="Rectángulo 401993" width="9.577" height="13.658" transform="translate(249.942 172.396)" fill="#28362e"/>
          <rect id="Rectángulo_401994" data-name="Rectángulo 401994" width="9.577" height="13.658" transform="translate(312.103 172.396)" fill="#28362e"/>
          <rect id="Rectángulo_401995" data-name="Rectángulo 401995" width="9.577" height="61.21" transform="translate(281.023 124.844)" fill="#28362e"/>
          <rect id="Rectángulo_401996" data-name="Rectángulo 401996" width="9.577" height="21.163" transform="translate(218.862 164.891)" fill="#fe9900"/>
          <rect id="Rectángulo_401997" data-name="Rectángulo 401997" width="9.577" height="11.82" transform="translate(234.402 174.234)" fill="#ccdd63"/>
          <rect id="Rectángulo_401998" data-name="Rectángulo 401998" width="9.577" height="11.82" transform="translate(327.643 174.234)" fill="#80b500"/>
          <rect id="Rectángulo_401999" data-name="Rectángulo 401999" width="9.577" height="17.113" transform="translate(265.483 168.941)" fill="#ccdd63"/>
          <rect id="Rectángulo_402000" data-name="Rectángulo 402000" width="9.577" height="17.113" transform="translate(296.563 168.941)" fill="#80b500"/>
          <rect id="Rectángulo_402001" data-name="Rectángulo 402001" width="9.577" height="6.968" transform="translate(249.942 179.086)" fill="#d02411"/>
          <rect id="Rectángulo_402002" data-name="Rectángulo 402002" width="9.577" height="6.968" transform="translate(312.103 179.086)" fill="#fe9900"/>
          <rect id="Rectángulo_402003" data-name="Rectángulo 402003" width="9.577" height="31.228" transform="translate(281.023 154.826)" fill="#d02411"/>
        </g>
      </g>
      <text id="_12" data-name="12" transform="translate(220.361 196.146)" fill="#fff" font-size="6.267" font-family="Montserrat-Bold, Montserrat" font-weight="700"><tspan x="0" y="0">12</tspan></text>
      <text id="_13" data-name="13" transform="translate(235.959 196.146)" fill="#fff" font-size="6.267" font-family="Montserrat-Bold, Montserrat" font-weight="700"><tspan x="0" y="0">13</tspan></text>
      <text id="_14" data-name="14" transform="translate(251.563 196.146)" fill="#fff" font-size="6.267" font-family="Montserrat-Bold, Montserrat" font-weight="700"><tspan x="0" y="0">14</tspan></text>
      <text id="_15" data-name="15" transform="translate(267.162 196.146)" fill="#fff" font-size="6.267" font-family="Montserrat-Bold, Montserrat" font-weight="700"><tspan x="0" y="0">15</tspan></text>
      <text id="_16" data-name="16" transform="translate(282.76 196.146)" fill="#fff" font-size="6.267" font-family="Montserrat-Bold, Montserrat" font-weight="700"><tspan x="0" y="0">16</tspan></text>
      <text id="_17" data-name="17" transform="translate(298.358 196.146)" fill="#fff" font-size="6.267" font-family="Montserrat-Bold, Montserrat" font-weight="700"><tspan x="0" y="0">17</tspan></text>
      <text id="_18" data-name="18" transform="translate(313.956 196.146)" fill="#fff" font-size="6.267" font-family="Montserrat-Bold, Montserrat" font-weight="700"><tspan x="0" y="0">18</tspan></text>
      <text id="_19" data-name="19" transform="translate(329.554 196.146)" fill="#fff" font-size="6.267" font-family="Montserrat-Bold, Montserrat" font-weight="700"><tspan x="0" y="0">19</tspan></text>
      <g id="Grupo_1210612" data-name="Grupo 1210612">
        <g id="Grupo_1210611" data-name="Grupo 1210611" clip-path="url(#clip-path)">
          <rect id="Rectángulo_402005" data-name="Rectángulo 402005" width="153.14" height="3.634" transform="translate(56.229 84.705)" fill="#28362e"/>
          <rect id="Rectángulo_402006" data-name="Rectángulo 402006" width="51.016" height="3.634" transform="translate(56.228 84.705)" fill="#80b500"/>
          <path id="Trazado_1065640" data-name="Trazado 1065640" d="M114.08,74.412H100.408v7.129h5.539l1.3,1.325,1.3-1.325h5.538Z" fill="#b3d366"/>
          <path id="Trazado_1065641" data-name="Trazado 1065641" d="M166.633,91.445H152.961v7.129H158.5l1.3,1.325,1.3-1.325h5.538Z" fill="#b3d366"/>
          <rect id="Rectángulo_402007" data-name="Rectángulo 402007" width="153.14" height="3.634" transform="translate(56.229 101.482)" fill="#28362e"/>
          <rect id="Rectángulo_402008" data-name="Rectángulo 402008" width="103.569" height="3.634" transform="translate(56.228 101.482)" fill="#fe9900"/>
          <path id="Trazado_1065642" data-name="Trazado 1065642" d="M442.349,89.529c-3.44,1.986-9.77,3.025-15.844,2.91a50.9,50.9,0,0,1-16.269-2.925,32.325,32.325,0,0,1-10.2-5.933,18.426,18.426,0,0,0-4.408-3.231,17.411,17.411,0,0,0-8.073-1.484,18.082,18.082,0,0,0-7.9,2.46c-4.6,2.462-8.9,5-13.222,7.537-2.955,1.736-6.329,3.974-12.317,3.973-7.814,0-14.443-2.124-20.628-4.014s-13.645-3.743-21.286-3.1c-5.733.485-9.18,3.49-11.644,5.313-3.352,2.48-6.025,5.107-11.108,7.14a14.841,14.841,0,0,1-5.53,1.2,12.475,12.475,0,0,1-6.167-1.641,30.737,30.737,0,0,1-5.7-4.4,23.743,23.743,0,0,0-6.23-4.279c-6.558-3.007-17.841-3.119-26.026-1.068v14.523H441.933Z" fill="#28362e"/>
          <path id="Trazado_1065643" data-name="Trazado 1065643" d="M239.795,87.985c8.185-2.051,19.467-1.94,26.025,1.068a23.726,23.726,0,0,1,6.231,4.279,30.669,30.669,0,0,0,5.7,4.4,12.484,12.484,0,0,0,6.166,1.641,14.841,14.841,0,0,0,5.531-1.2c5.083-2.032,7.756-4.659,11.107-7.139,2.465-1.823,5.912-4.828,11.645-5.314,7.64-.647,15.1,1.205,21.285,3.1s12.815,4.013,20.628,4.014c5.988,0,9.362-2.237,12.318-3.974,4.321-2.539,8.62-5.074,13.221-7.536a18.086,18.086,0,0,1,7.9-2.461,17.41,17.41,0,0,1,8.073,1.485,18.39,18.39,0,0,1,4.407,3.23,32.33,32.33,0,0,0,10.2,5.934,50.938,50.938,0,0,0,16.27,2.924c6.074.115,12.4-.924,15.844-2.909" fill="none" stroke="#4eaa30" stroke-miterlimit="10" stroke-width="1.982"/>
          <path id="Trazado_1065644" data-name="Trazado 1065644" d="M393.609,61.561c0,2.624-4.751,10.8-4.751,10.8s-4.751-8.173-4.751-10.8a4.751,4.751,0,0,1,9.5,0" fill="#28362e"/>
          <path id="Trazado_1065645" data-name="Trazado 1065645" d="M390.266,71.919a1.408,1.408,0,1,1-1.408-1.407,1.407,1.407,0,0,1,1.408,1.407" fill="#fe9900"/>
          <path id="Trazado_1065646" data-name="Trazado 1065646" d="M319.727,67.488c0,2.624-4.751,10.8-4.751,10.8s-4.751-8.173-4.751-10.8a4.751,4.751,0,1,1,9.5,0" fill="#28362e"/>
          <path id="Trazado_1065647" data-name="Trazado 1065647" d="M316.384,78.286a1.408,1.408,0,1,1-1.408-1.408,1.407,1.407,0,0,1,1.408,1.408" fill="#fe9900"/>
          <path id="Trazado_1065648" data-name="Trazado 1065648" d="M288.7,81.629c0,2.624-4.751,10.8-4.751,10.8s-4.751-8.173-4.751-10.8a4.751,4.751,0,0,1,9.5,0" fill="#28362e"/>
          <path id="Trazado_1065649" data-name="Trazado 1065649" d="M285.361,92.426a1.408,1.408,0,1,1-1.408-1.407,1.408,1.408,0,0,1,1.408,1.407" fill="#fe9900"/>
          <path id="Trazado_1065650" data-name="Trazado 1065650" d="M286.49,81.78a2.536,2.536,0,1,1-2.536-2.536,2.536,2.536,0,0,1,2.536,2.536" fill="#19102c"/>
          <path id="Trazado_1065651" data-name="Trazado 1065651" d="M317.513,67.427a2.536,2.536,0,1,1-2.536-2.536,2.536,2.536,0,0,1,2.536,2.536" fill="#19102c"/>
          <path id="Trazado_1065652" data-name="Trazado 1065652" d="M391.394,62.048a2.536,2.536,0,1,1-2.536-2.536,2.535,2.535,0,0,1,2.536,2.536" fill="#19102c"/>
          <path id="Trazado_1065653" data-name="Trazado 1065653" d="M55.5,186.252a1.078,1.078,0,1,1-1.084-1.072,1.078,1.078,0,0,1,1.084,1.072" fill="#fe9900"/>
          <path id="Trazado_1065654" data-name="Trazado 1065654" d="M66.132,186.193a1.078,1.078,0,1,1-1.084-1.072,1.078,1.078,0,0,1,1.084,1.072" fill="#80b500"/>
          <path id="Trazado_1065655" data-name="Trazado 1065655" d="M76.761,186.135a1.078,1.078,0,1,1-1.084-1.072,1.078,1.078,0,0,1,1.084,1.072" fill="#fe9900"/>
          <path id="Trazado_1065656" data-name="Trazado 1065656" d="M87.389,186.076A1.078,1.078,0,1,1,86.305,185a1.078,1.078,0,0,1,1.084,1.072" fill="#80b500"/>
          <path id="Trazado_1065657" data-name="Trazado 1065657" d="M98.017,186.018a1.078,1.078,0,1,1-1.084-1.072,1.078,1.078,0,0,1,1.084,1.072" fill="#fe9900"/>
          <path id="Trazado_1065658" data-name="Trazado 1065658" d="M108.645,185.96a1.078,1.078,0,1,1-1.084-1.072,1.078,1.078,0,0,1,1.084,1.072" fill="#80b500"/>
          <path id="Trazado_1065659" data-name="Trazado 1065659" d="M119.274,185.9a1.078,1.078,0,1,1-1.084-1.072,1.078,1.078,0,0,1,1.084,1.072" fill="#fe9900"/>
          <path id="Trazado_1065660" data-name="Trazado 1065660" d="M129.9,185.843a1.078,1.078,0,1,1-1.084-1.072,1.078,1.078,0,0,1,1.084,1.072" fill="#80b500"/>
          <path id="Trazado_1065661" data-name="Trazado 1065661" d="M140.53,185.784a1.078,1.078,0,1,1-1.084-1.072,1.078,1.078,0,0,1,1.084,1.072" fill="#fe9900"/>
          <path id="Trazado_1065662" data-name="Trazado 1065662" d="M151.158,185.726a1.078,1.078,0,1,1-1.084-1.072,1.078,1.078,0,0,1,1.084,1.072" fill="#80b500"/>
          <path id="Trazado_1065663" data-name="Trazado 1065663" d="M161.786,185.667A1.078,1.078,0,1,1,160.7,184.6a1.078,1.078,0,0,1,1.084,1.072" fill="#fe9900"/>
          <path id="Trazado_1065664" data-name="Trazado 1065664" d="M172.415,185.609a1.079,1.079,0,1,1-1.085-1.072,1.079,1.079,0,0,1,1.085,1.072" fill="#80b500"/>
          <path id="Trazado_1065665" data-name="Trazado 1065665" d="M183.043,185.551a1.078,1.078,0,1,1-1.084-1.072,1.078,1.078,0,0,1,1.084,1.072" fill="#fe9900"/>
        </g>
      </g>
      <text id="_1" data-name="1" transform="matrix(1, -0.006, 0.006, 1, 53.284, 196.083)" fill="#80b500" font-size="6.267" font-family="Montserrat-Bold, Montserrat" font-weight="700"><tspan x="0" y="0">1</tspan></text>
      <text id="_2" data-name="2" transform="matrix(1, -0.006, 0.006, 1, 73.757, 195.971)" fill="#80b500" font-size="6.267" font-family="Montserrat-Bold, Montserrat" font-weight="700"><tspan x="0" y="0">2</tspan></text>
      <text id="_3" data-name="3" transform="matrix(1, -0.006, 0.006, 1, 95.271, 195.852)" fill="#80b500" font-size="6.267" font-family="Montserrat-Bold, Montserrat" font-weight="700"><tspan x="0" y="0">3</tspan></text>
      <text id="_4" data-name="4" transform="matrix(1, -0.006, 0.006, 1, 116.169, 195.737)" fill="#80b500" font-size="6.267" font-family="Montserrat-Bold, Montserrat" font-weight="700"><tspan x="0" y="0">4</tspan></text>
      <text id="_5" data-name="5" transform="matrix(1, -0.006, 0.006, 1, 137.683, 195.619)" fill="#80b500" font-size="6.267" font-family="Montserrat-Bold, Montserrat" font-weight="700"><tspan x="0" y="0">5</tspan></text>
      <text id="_6" data-name="6" transform="matrix(1, -0.006, 0.006, 1, 158.582, 195.504)" fill="#80b500" font-size="6.267" font-family="Montserrat-Bold, Montserrat" font-weight="700"><tspan x="0" y="0">6</tspan></text>
      <text id="_7" data-name="7" transform="matrix(1, -0.006, 0.006, 1, 179.481, 195.389)" fill="#80b500" font-size="6.267" font-family="Montserrat-Bold, Montserrat" font-weight="700"><tspan x="0" y="0">7</tspan></text>
      <g id="Grupo_1210614" data-name="Grupo 1210614">
        <g id="Grupo_1210613" data-name="Grupo 1210613" clip-path="url(#clip-path-4)">
          <rect id="Rectángulo_402010" data-name="Rectángulo 402010" width="132.819" height="40.805" transform="translate(51.915 134.405)" fill="url(#linear-gradient)"/>
        </g>
      </g>
      <text id="_" data-name="     " transform="translate(490.207 46.143)" fill="#49a1eb" font-size="6.267" font-family="Montserrat-Bold, Montserrat" font-weight="700"><tspan x="0" y="0" xml:space="preserve">     </tspan></text>
      <text id="_2-2" data-name="              " transform="translate(499.074 46.143)" fill="#49a1eb" font-size="6.267" font-family="Montserrat-Bold, Montserrat" font-weight="700"><tspan x="0" y="0" xml:space="preserve">              </tspan></text>
      <text id="S_M_T_W_T_F_S" data-name="S M T W T F S" transform="translate(490.207 59.873)" fill="#ccdd63" font-size="6.267" font-family="Montserrat-Bold, Montserrat" font-weight="700"><tspan x="0" y="0">S</tspan><tspan y="0" letter-spacing="2.078em"> </tspan><tspan y="0">M</tspan><tspan y="0" letter-spacing="1.762em"> </tspan><tspan y="0">T</tspan><tspan y="0" letter-spacing="2.099em"> </tspan><tspan y="0">W</tspan><tspan y="0" letter-spacing="1.554em"> </tspan><tspan y="0">T</tspan><tspan y="0" letter-spacing="2.099em"> </tspan><tspan y="0">F</tspan><tspan y="0" letter-spacing="2.078em"> </tspan><tspan y="0">S</tspan></text>
      <text id="_3-2" data-name="   " transform="translate(490.207 72.883)" fill="#fff" font-size="6.267" font-family="Montserrat-Bold, Montserrat" font-weight="700"><tspan x="0" y="0" xml:space="preserve" letter-spacing="2.717em">  </tspan><tspan y="0"> </tspan></text>
      <text id="_1_2_3_4" data-name="1 2 3 4" transform="translate(546.608 72.883)" fill="#fff" font-size="6.267" font-family="Montserrat-Bold, Montserrat" font-weight="700"><tspan x="0" y="0">1</tspan><tspan y="0" letter-spacing="2.325em"> </tspan><tspan y="0">2</tspan><tspan y="0" letter-spacing="2.127em"> </tspan><tspan y="0">3</tspan><tspan y="0" letter-spacing="2.125em"> </tspan><tspan y="0">4</tspan></text>
      <text id="_5_6_7_8_9_10_11" data-name="5 6 7 8 9 10 11" transform="translate(490.207 85.893)" fill="#fff" font-size="6.267" font-family="Montserrat-Bold, Montserrat" font-weight="700"><tspan x="0" y="0">5</tspan><tspan y="0" letter-spacing="2.121em"> </tspan><tspan y="0">6</tspan><tspan y="0" letter-spacing="2.08em"> </tspan><tspan y="0">7</tspan><tspan y="0" letter-spacing="2.097em"> </tspan><tspan y="0">8</tspan><tspan y="0" letter-spacing="2.057em"> </tspan><tspan y="0">9</tspan><tspan y="0" letter-spacing="2.08em"> </tspan><tspan y="0">10</tspan><tspan y="0" letter-spacing="1.646em"> </tspan><tspan y="0">11</tspan></text>
      <text id="_12_13_14_15_16_17_18" data-name="12 13 14 15 16 17 18" transform="translate(490.207 98.903)" fill="#fff" font-size="6.267" font-family="Montserrat-Bold, Montserrat" font-weight="700"><tspan x="0" y="0">12</tspan><tspan y="0" letter-spacing="1.735em"> </tspan><tspan y="0">13</tspan><tspan y="0" letter-spacing="1.733em"> </tspan><tspan y="0">14</tspan><tspan y="0" letter-spacing="1.636em"> </tspan><tspan y="0">15</tspan><tspan y="0" letter-spacing="1.729em"> </tspan><tspan y="0">16</tspan><tspan y="0" letter-spacing="1.688em"> </tspan><tspan y="0">17</tspan><tspan y="0" letter-spacing="1.705em"> </tspan><tspan y="0">18</tspan></text>
      <text id="_19_20_21_22_23_24_25" data-name="19 20 21 22 23 24 25" transform="translate(490.207 111.913)" fill="#fff" font-size="6.267" font-family="Montserrat-Bold, Montserrat" font-weight="700"><tspan x="0" y="0">19</tspan><tspan y="0" letter-spacing="1.688em"> </tspan><tspan y="0" letter-spacing="-0.002em">2</tspan><tspan y="0">0</tspan><tspan y="0" letter-spacing="1.45em"> </tspan><tspan y="0">21</tspan><tspan y="0" letter-spacing="1.735em"> </tspan><tspan y="0">22</tspan><tspan y="0" letter-spacing="1.537em"> </tspan><tspan y="0">23</tspan><tspan y="0" letter-spacing="1.535em"> </tspan><tspan y="0" letter-spacing="-0.01em">2</tspan><tspan y="0">4</tspan><tspan y="0" letter-spacing="1.448em"> </tspan><tspan y="0">25</tspan></text>
      <text id="_26_27_28_29_30_31" data-name="26 27 28 29 30      31" transform="translate(490.207 124.923)" fill="#fff" font-size="6.267" font-family="Montserrat-Bold, Montserrat" font-weight="700"><tspan x="0" y="0" letter-spacing="-0.002em">2</tspan><tspan y="0">6</tspan><tspan y="0" letter-spacing="1.492em"> </tspan><tspan y="0" letter-spacing="-0.002em">2</tspan><tspan y="0">7</tspan><tspan y="0" letter-spacing="1.508em"> </tspan><tspan y="0">28</tspan><tspan y="0" letter-spacing="1.467em"> </tspan><tspan y="0">29</tspan><tspan y="0" letter-spacing="1.49em"> </tspan><tspan y="0" xml:space="preserve">30      31</tspan></text>
      <text id="JUNE" transform="translate(535.688 41.94)" fill="#fe9900" font-size="10.482" font-family="Montserrat-Bold, Montserrat" font-weight="700"><tspan x="0" y="0">JUNE</tspan></text>
      <g id="Grupo_1210616" data-name="Grupo 1210616">
        <g id="Grupo_1210615" data-name="Grupo 1210615" clip-path="url(#clip-path)">
          <rect id="Rectángulo_402011" data-name="Rectángulo 402011" width="13.466" height="83.419" transform="translate(852.957 43.164)" fill="#28362e"/>
          <rect id="Rectángulo_402012" data-name="Rectángulo 402012" width="13.466" height="5.771" transform="translate(852.959 110.467)" fill="#ccdd63"/>
          <rect id="Rectángulo_402013" data-name="Rectángulo 402013" width="13.466" height="5.771" transform="translate(852.957 100.675)" fill="#ccdd63"/>
          <rect id="Rectángulo_402014" data-name="Rectángulo 402014" width="13.466" height="5.771" transform="translate(852.956 90.882)" fill="#80b500"/>
          <rect id="Rectángulo_402015" data-name="Rectángulo 402015" width="13.466" height="5.771" transform="translate(852.954 81.09)" fill="#80b500"/>
          <rect id="Rectángulo_402016" data-name="Rectángulo 402016" width="13.466" height="5.771" transform="translate(852.953 71.297)" fill="#d02411"/>
          <rect id="Rectángulo_402017" data-name="Rectángulo 402017" width="13.466" height="5.771" transform="translate(852.951 61.505)" fill="#eca7a0"/>
          <rect id="Rectángulo_402018" data-name="Rectángulo 402018" width="13.466" height="5.77" transform="translate(852.959 120.814)" fill="#ccdd63"/>
          <rect id="Rectángulo_402019" data-name="Rectángulo 402019" width="13.466" height="83.419" transform="translate(828.216 43.164)" fill="#28362e"/>
          <rect id="Rectángulo_402020" data-name="Rectángulo 402020" width="13.466" height="5.771" transform="translate(828.217 110.467)" fill="#80b500"/>
          <rect id="Rectángulo_402021" data-name="Rectángulo 402021" width="13.466" height="5.771" transform="translate(828.216 100.675)" fill="#d02411"/>
          <rect id="Rectángulo_402022" data-name="Rectángulo 402022" width="13.466" height="5.771" transform="translate(828.214 90.882)" fill="#fe9900"/>
          <rect id="Rectángulo_402023" data-name="Rectángulo 402023" width="13.466" height="5.77" transform="translate(828.217 120.814)" fill="#ccdd63"/>
        </g>
      </g>
      <text id="_400" data-name="400" transform="translate(805.35 49.738)" fill="#ccdd63" font-size="6.267" font-family="Montserrat-Bold, Montserrat" font-weight="700"><tspan x="0" y="0">400</tspan></text>
      <text id="_300" data-name="300" transform="translate(805.355 83.209)" fill="#ccdd63" font-size="6.267" font-family="Montserrat-Bold, Montserrat" font-weight="700"><tspan x="0" y="0">300</tspan></text>
      <text id="_200" data-name="200" transform="translate(805.35 103.056)" fill="#ccdd63" font-size="6.267" font-family="Montserrat-Bold, Montserrat" font-weight="700"><tspan x="0" y="0" letter-spacing="-0.001em">2</tspan><tspan y="0">00</tspan></text>
      <text id="_100" data-name="100" transform="translate(805.35 124.915)" fill="#ccdd63" font-size="6.267" font-family="Montserrat-Bold, Montserrat" font-weight="700"><tspan x="0" y="0">100</tspan></text>
      <g id="Grupo_1210618" data-name="Grupo 1210618">
        <g id="Grupo_1210617" data-name="Grupo 1210617" clip-path="url(#clip-path)">
          <path id="Trazado_1065667" data-name="Trazado 1065667" d="M531.33,232.722a40.951,40.951,0,1,1,40.952-40.951,41,41,0,0,1-40.952,40.951m0-75.883a34.931,34.931,0,1,0,34.932,34.932,34.971,34.971,0,0,0-34.932-34.932" fill="#28362e"/>
          <path id="Trazado_1065668" data-name="Trazado 1065668" d="M553.491,226.2l-3.266-5.057c.686-.443,1.366-.917,2.021-1.408l3.612,4.816c-.767.575-1.563,1.13-2.367,1.649" fill="#eca7a0"/>
          <path id="Trazado_1065669" data-name="Trazado 1065669" d="M558.1,222.736l-3.94-4.552c.617-.534,1.225-1.1,1.806-1.677l4.248,4.266c-.681.677-1.392,1.338-2.114,1.963" fill="#eca7a0"/>
          <path id="Trazado_1065670" data-name="Trazado 1065670" d="M562.188,218.667l-4.535-3.959c.537-.615,1.06-1.259,1.554-1.912l4.8,3.631c-.579.765-1.191,1.519-1.821,2.24" fill="#eca7a0"/>
          <path id="Trazado_1065671" data-name="Trazado 1065671" d="M565.668,214.065l-5.043-3.287c.445-.684.873-1.394,1.27-2.11l5.264,2.922c-.467.84-.968,1.672-1.491,2.475" fill="#eca7a0"/>
          <path id="Trazado_1065672" data-name="Trazado 1065672" d="M568.472,209.016l-5.458-2.541c.347-.744.67-1.507.962-2.27l5.622,2.151c-.342.894-.72,1.789-1.126,2.66" fill="#eca7a0"/>
          <path id="Trazado_1065673" data-name="Trazado 1065673" d="M570.534,203.618l-5.762-1.743c.237-.784.448-1.584.629-2.379l5.871,1.33c-.212.934-.46,1.873-.738,2.792" fill="#eca7a0"/>
          <path id="Trazado_1065674" data-name="Trazado 1065674" d="M571.81,197.99l-5.951-.913c.124-.8.22-1.626.286-2.443l6,.488c-.078.959-.191,1.924-.336,2.868" fill="#eca7a0"/>
          <path id="Trazado_1065675" data-name="Trazado 1065675" d="M572.279,192.241l-6.019-.067,0-.4c0-.686-.021-1.381-.06-2.061l6.009-.351c.047.8.071,1.607.071,2.411Z" fill="#eca7a0"/>
          <path id="Trazado_1065676" data-name="Trazado 1065676" d="M496.653,187.537l-5.976-.724c.115-.953.266-1.913.448-2.853l5.91,1.147c-.155.8-.284,1.618-.382,2.43" fill="#eca7a0"/>
          <path id="Trazado_1065677" data-name="Trazado 1065677" d="M565.972,187.259c-.1-.811-.24-1.628-.4-2.429l5.9-1.192c.19.938.349,1.9.472,2.847Z" fill="#eca7a0"/>
          <path id="Trazado_1065678" data-name="Trazado 1065678" d="M497.589,182.711l-5.814-1.564c.249-.925.535-1.853.849-2.759l5.688,1.97c-.268.773-.511,1.564-.723,2.353" fill="#eca7a0"/>
          <path id="Trazado_1065679" data-name="Trazado 1065679" d="M565,182.437c-.218-.786-.467-1.574-.741-2.344l5.671-2.019c.322.9.616,1.831.871,2.755Z" fill="#eca7a0"/>
          <path id="Trazado_1065680" data-name="Trazado 1065680" d="M499.2,178.061l-5.533-2.371c.379-.885.793-1.765,1.232-2.615l5.351,2.758c-.374.724-.727,1.474-1.05,2.228" fill="#eca7a0"/>
          <path id="Trazado_1065681" data-name="Trazado 1065681" d="M563.349,177.807c-.326-.746-.685-1.491-1.065-2.215l5.33-2.8c.446.85.867,1.725,1.25,2.6Z" fill="#eca7a0"/>
          <path id="Trazado_1065682" data-name="Trazado 1065682" d="M501.456,173.683l-5.144-3.128c.5-.817,1.03-1.629,1.585-2.412l4.912,3.48c-.474.669-.929,1.362-1.353,2.06" fill="#eca7a0"/>
          <path id="Trazado_1065683" data-name="Trazado 1065683" d="M561.064,173.454c-.43-.695-.89-1.384-1.368-2.047l4.886-3.518c.559.777,1.1,1.584,1.6,2.4Z" fill="#eca7a0"/>
          <path id="Trazado_1065684" data-name="Trazado 1065684" d="M558.188,169.461c-.524-.63-1.076-1.248-1.641-1.838l4.347-4.164c.662.69,1.308,1.414,1.921,2.151Z" fill="#eca7a0"/>
          <path id="Trazado_1065685" data-name="Trazado 1065685" d="M554.781,165.9c-.6-.549-1.238-1.084-1.881-1.591l3.723-4.73c.754.593,1.5,1.22,2.205,1.864Z" fill="#eca7a0"/>
          <path id="Trazado_1065686" data-name="Trazado 1065686" d="M550.912,162.857c-.678-.46-1.38-.9-2.087-1.313l3.026-5.2c.828.481,1.649,1,2.443,1.537Z" fill="#eca7a0"/>
          <path id="Trazado_1065687" data-name="Trazado 1065687" d="M546.652,160.382c-.734-.36-1.491-.7-2.248-1.005l2.26-5.58c.889.361,1.777.757,2.639,1.18Z" fill="#eca7a0"/>
          <path id="Trazado_1065688" data-name="Trazado 1065688" d="M542.089,158.533c-.778-.252-1.574-.48-2.366-.676l1.447-5.843c.93.23,1.864.5,2.777.793Z" fill="#eca7a0"/>
          <path id="Trazado_1065689" data-name="Trazado 1065689" d="M537.317,157.351c-.8-.139-1.626-.252-2.439-.334l.607-5.99c.953.1,1.915.229,2.859.392Z" fill="#eca7a0"/>
          <path id="Trazado_1065690" data-name="Trazado 1065690" d="M529.956,156.865l-.234-6.015c.956-.038,1.926-.041,2.884-.012l-.185,6.017c-.82-.025-1.647-.022-2.465.01" fill="#eca7a0"/>
          <path id="Trazado_1065691" data-name="Trazado 1065691" d="M559.641,191.77a28.311,28.311,0,1,1-28.312-28.312A28.312,28.312,0,0,1,559.641,191.77Z" fill="none" stroke="#2d4437" stroke-miterlimit="10" stroke-width="4.095"/>
          <path id="Trazado_1065692" data-name="Trazado 1065692" d="M529.16,222.053a30.36,30.36,0,0,1-.007-60.565,2.048,2.048,0,0,1,.274,4.087,26.264,26.264,0,1,0,28.1,28.1,2.048,2.048,0,0,1,4.086.274,30.4,30.4,0,0,1-32.452,28.106" fill="#ccdd63"/>
        </g>
      </g>
      <text id="_95" data-name="95" transform="translate(519.941 196.311)" fill="#fff" font-size="18.489" font-family="Montserrat-Bold, Montserrat" font-weight="700"><tspan x="0" y="0">95</tspan></text>
      <text id="_17-2" data-name="17" transform="translate(621.813 197.162)" fill="#fff" font-size="18.489" font-family="Montserrat-Bold, Montserrat" font-weight="700"><tspan x="0" y="0">17</tspan></text>
      <g id="Grupo_1210620" data-name="Grupo 1210620">
        <g id="Grupo_1210619" data-name="Grupo 1210619" clip-path="url(#clip-path)">
          <path id="Trazado_1065693" data-name="Trazado 1065693" d="M631.174,232.018a40.248,40.248,0,1,1,40.248-40.248,40.294,40.294,0,0,1-40.248,40.248m0-76.4a36.153,36.153,0,1,0,36.152,36.153,36.193,36.193,0,0,0-36.152-36.153" fill="#28362e"/>
          <path id="Trazado_1065694" data-name="Trazado 1065694" d="M631.174,224.722a32.951,32.951,0,1,1,32.951-32.952,32.989,32.989,0,0,1-32.951,32.952m0-61.808A28.856,28.856,0,1,0,660.03,191.77a28.889,28.889,0,0,0-28.856-28.856" fill="#28362e"/>
          <path id="Trazado_1065695" data-name="Trazado 1065695" d="M631.174,232.019a2.048,2.048,0,1,1,0-4.1,36.153,36.153,0,0,0,0-72.306,2.048,2.048,0,1,1,0-4.1,40.248,40.248,0,0,1,0,80.5" fill="#fff"/>
          <path id="Trazado_1065696" data-name="Trazado 1065696" d="M656.413,211.65a2.047,2.047,0,0,1-1.671-3.229,28.856,28.856,0,1,0-47.136-33.3,2.048,2.048,0,0,1-3.345-2.363,32.952,32.952,0,1,1,53.826,38.027,2.047,2.047,0,0,1-1.674.866" fill="#fe9900"/>
        </g>
      </g>
      <text id="_67" data-name="67" transform="translate(819.277 197.169)" fill="#fff" font-size="18.489" font-family="Montserrat-Bold, Montserrat" font-weight="700"><tspan x="0" y="0" letter-spacing="-0.003em">6</tspan><tspan y="0">7</tspan></text>
      <g id="Grupo_1210622" data-name="Grupo 1210622">
        <g id="Grupo_1210621" data-name="Grupo 1210621" clip-path="url(#clip-path)">
          <path id="Trazado_1065697" data-name="Trazado 1065697" d="M797.98,193.951a32.952,32.952,0,1,1,35.062,30.7,32.99,32.99,0,0,1-35.062-30.7m61.674-4.09a28.856,28.856,0,1,0-26.884,30.7,28.89,28.89,0,0,0,26.884-30.7" fill="#28362e"/>
          <path id="Trazado_1065698" data-name="Trazado 1065698" d="M812.7,218.27a2.047,2.047,0,0,1,3.111-1.881,28.857,28.857,0,1,0,30.109-49.237,2.048,2.048,0,1,1,2.137-3.494,32.952,32.952,0,0,1-34.382,56.225,2.044,2.044,0,0,1-.975-1.613" fill="#fe9900"/>
          <circle id="Elipse_11513" data-name="Elipse 11513" cx="41.528" cy="41.528" r="41.528" transform="translate(789.332 150.242)" fill="none" stroke="#ccdd63" stroke-linecap="round" stroke-linejoin="round" stroke-width="2.591" stroke-dasharray="0 7.774"/>
        </g>
      </g>
      <text id="LOREM_IPSUM" data-name="LOREM IPSUM" transform="translate(712.769 199.503)" fill="#ccdd63" font-size="4.853" font-family="Montserrat-Bold, Montserrat" font-weight="700"><tspan x="0" y="0" letter-spacing="-0.011em">L</tspan><tspan y="0">OREM IPSUM</tspan></text>
      <text id="_2020" data-name="2020" transform="translate(724.886 206.219)" fill="#ccdd63" font-size="4.853" font-family="Montserrat-Bold, Montserrat" font-weight="700"><tspan x="0" y="0" letter-spacing="-0.001em">2</tspan><tspan y="0" letter-spacing="-0.005em">0</tspan><tspan y="0" letter-spacing="-0.002em">2</tspan><tspan y="0">0</tspan></text>
      <text id="_21" data-name="21" transform="translate(721.939 187.701)" fill="#fff" font-size="18.489" font-family="Montserrat-Bold, Montserrat" font-weight="700"><tspan x="0" y="0">21</tspan></text>
      <g id="Grupo_1210624" data-name="Grupo 1210624">
        <g id="Grupo_1210623" data-name="Grupo 1210623" clip-path="url(#clip-path)">
          <path id="Trazado_1065699" data-name="Trazado 1065699" d="M731.016,231.95a40.179,40.179,0,1,1,40.18-40.179,40.226,40.226,0,0,1-40.18,40.179m0-73.25a33.07,33.07,0,1,0,33.071,33.071A33.108,33.108,0,0,0,731.016,158.7" fill="#28362e"/>
          <path id="Trazado_1065700" data-name="Trazado 1065700" d="M735.645,231.685l-.809-7.063a32.9,32.9,0,0,0,3.944-.7l1.662,6.911a40.085,40.085,0,0,1-4.8.849" fill="#ccdd63"/>
          <path id="Trazado_1065701" data-name="Trazado 1065701" d="M724.968,231.5a39.991,39.991,0,0,1-10.268-3L717.589,222a32.864,32.864,0,0,0,8.441,2.466Z" fill="#ccdd63"/>
          <path id="Trazado_1065702" data-name="Trazado 1065702" d="M744.182,229.742l-2.326-6.718c1-.347,2-.749,2.972-1.2l2.973,6.456c-1.179.544-2.4,1.034-3.619,1.457" fill="#ccdd63"/>
          <path id="Trazado_1065703" data-name="Trazado 1065703" d="M704.852,222.264c-.983-.844-1.936-1.745-2.83-2.679l5.131-4.919c.736.768,1.52,1.509,2.33,2.205Z" fill="#fe9900"/>
          <path id="Trazado_1065704" data-name="Trazado 1065704" d="M757.568,221.929l-4.7-5.334a33.213,33.213,0,0,0,5.778-6.643l5.934,3.914a40.359,40.359,0,0,1-7.012,8.063" fill="#ccdd63"/>
          <path id="Trazado_1065705" data-name="Trazado 1065705" d="M699.466,216.65a40.364,40.364,0,0,1-2.78-3.995l6.069-3.7a33.473,33.473,0,0,0,2.289,3.29Z" fill="#fe9900"/>
          <path id="Trazado_1065706" data-name="Trazado 1065706" d="M769.226,204.235l-6.759-2.2a32.878,32.878,0,0,0,1.007-3.88l6.977,1.363a40.278,40.278,0,0,1-1.225,4.72" fill="#ccdd63"/>
          <path id="Trazado_1065707" data-name="Trazado 1065707" d="M692.388,202.863a40.226,40.226,0,0,1-1.547-10.575l7.108-.088a33.1,33.1,0,0,0,1.273,8.705Z" fill="#fe9900"/>
          <path id="Trazado_1065708" data-name="Trazado 1065708" d="M771.127,195.175l-7.076-.678c.1-1.062.153-2.141.153-3.209l7.109-.058v.058c0,1.294-.063,2.6-.186,3.887" fill="#ccdd63"/>
          <path id="Trazado_1065709" data-name="Trazado 1065709" d="M699.209,182.687l-6.837-1.948c.355-1.244.775-2.487,1.251-3.693l6.613,2.6c-.39.992-.736,2.013-1.027,3.036" fill="#fe9900"/>
          <path id="Trazado_1065710" data-name="Trazado 1065710" d="M701.556,176.73l-6.329-3.237a40.35,40.35,0,0,1,2.479-4.195l5.889,3.982a33.127,33.127,0,0,0-2.039,3.45" fill="#fe9900"/>
          <path id="Trazado_1065711" data-name="Trazado 1065711" d="M666.081,46.108h-.632V47.37l-.559.559s-.7-.142-.911,0a3.689,3.689,0,0,1-.773.281l-3.291-1.054H659L657.53,48.21s.354.419-.276,0a13.672,13.672,0,0,0-2.245-.959l-.981-.655-1.749-.068h-3.713c-.214,0-2.316.28-2.316.28l-.7.069s-1.052-.139-1.614-.281-.768-.7-1.259-.488a3.376,3.376,0,0,1-1.543-.049h-.7s-.21-.395-.979,0a5.03,5.03,0,0,1-1.894.469c-.489.068-1.541.875-1.89.612s-.842-.086-1.193,0-1.329.3-1.329.3a1.271,1.271,0,0,0-.49.959l-.913.3s-1.331-.28-1.54,0,.351-.28-.21.281l-.56.559h.979l.421.142h0c-.208.349-.35.486-.56.559s-.42-.21-.84,0-.49-.4-.773.011-.349.338-.63.621a5.625,5.625,0,0,0-.561.7l-.279.911h-.49l.63.769h1.891l.772-.42,1.12-.208.981-.349,1.121-.21.981-.281,1.331-.07a15.132,15.132,0,0,1,1.681.42c.281.141,1.262.49,1.262.49l.772.628.63.983-.21.842c-.21.42-.142.63-.281.911a3.713,3.713,0,0,0,0,1.257s-.139-.347.21.425a9.605,9.605,0,0,1,.771,1.54c0,.279.279.979,0,1.12s-.49.772-.771.7.63-.278-.278-.068-.843.629-1.192.84a3,3,0,0,0-.7.7l-.561.771a6.781,6.781,0,0,1-.488.7,10.043,10.043,0,0,0-.772,1.611v.7l.42,1.613a2.206,2.206,0,0,1,.42.767c.071.349.42,1.12.491,1.333s.351,1.4.351,1.4a4.029,4.029,0,0,0,.349,1.192c.212.28.774,1.4.774,1.4s.491,1.258.559,1.468a2.787,2.787,0,0,0,.491.632c.349.141.349.771.349.141a4.251,4.251,0,0,0-.281-1.333,5.385,5.385,0,0,0-.139-.558c-.068-.213-.139-.35-.21-.562a5.561,5.561,0,0,1-.139-.559l-.21-.7V72.1l.278-1.118.7.979.42.844.21.84.071.488.209.42s.825,1.063,1.05,1.4a4.289,4.289,0,0,1,.564,1.4v.91l.349.913.84.913c.632.348,1.052.7,1.4.7s1.191.981,1.472.91.49-.419.84-.351,1.193.354,1.193.354a.565.565,0,0,1,.491,0c.207.139.627.488.839.63s1.121.771,1.121.771h1.611l.42.767.139.422.493.7.559.56.349.364a3.448,3.448,0,0,0,1.055.69h.769a1.95,1.95,0,0,0,1.122,0l.84.093.071,2.219.071.768-.142.491-.559.7s-.144.276-.281.489-.139.563-.351.7a5.212,5.212,0,0,0-.561.489,1.187,1.187,0,0,0-.139.91l.349.842-.349.911a2.687,2.687,0,0,0,0,.771,3.4,3.4,0,0,1,.209.559,4.761,4.761,0,0,0,.42,1.123c.142.208,1.262,1.328,1.262,1.609a7.472,7.472,0,0,0,.35,1.262,9.933,9.933,0,0,0,1.12,1.191l.349.422.493.489.91.769s.42.631.84.7a4.727,4.727,0,0,1,1.333.912,6.876,6.876,0,0,1-.071,2.171l.21.561a5.623,5.623,0,0,1,.073.84,2.932,2.932,0,0,0,.139,1.05,6.3,6.3,0,0,1,.349,1.332,11.657,11.657,0,0,0,.142,1.4c.071.491.137,1.191.137,1.191l-.279,1.05a20.385,20.385,0,0,1-.139,2.175,13.126,13.126,0,0,0,0,1.68l-.07.49.629,1.333s.911.908.911,1.118a3.7,3.7,0,0,0,.422.91l-.422.914a2.523,2.523,0,0,1,.068.49c0,.208.774,1.05.774,1.05a9.179,9.179,0,0,1,.7,1.259c.069.283-.632.491,0,.7a4.36,4.36,0,0,1,1.05.418,3.472,3.472,0,0,0,.63.281h.771l.352-.56.632-.559.278-2.384-.278-.911c-.49-.349-.422.142-.49-.349s-.142-.208-.072-.49a6.8,6.8,0,0,1,.84-1.194l-.84-.909-.351-.419.913.139.559-.84v-.49l.981-.213,1.26-.628.423-.771-.7-.632-.35-.7.35-.491.7.138h.627c.281-.421,1.542-1.751,1.542-1.751s-.278-.42,0-.63.982-1.052.911-1.262a5.578,5.578,0,0,1,0-1.05c0-.21,0-1.049,0-1.049l.767-.842,1.472-.63.908-.842.633.349.771-.767v-.563l.491-.841v-1.12s.7-1.123.561-1.333a6.565,6.565,0,0,1,.015-1.681v-.421l.685-.91a9.107,9.107,0,0,0,1.121-1.75,3.092,3.092,0,0,1,.42-.845s.349-.769,0-1.049a3.557,3.557,0,0,1-.632-.7,1.221,1.221,0,0,0-.7-.351,2.283,2.283,0,0,1-.979-.278c-.283-.142-1.12-.633-1.12-.633a7.681,7.681,0,0,0-.911-.561c-.212-.07-.071-.139-.981.14a14.925,14.925,0,0,0-1.543.561l-.139-.771c-.422-.35.139-.14-.422-.35s-.63-.21-.84-.141-.84.21-.84.21l-.283-.35h0l-.561-.348-.42.488-.349.21-.207-.489a2.8,2.8,0,0,1,.348-.7,7.172,7.172,0,0,1,.56-.63l-.7-1.824s0-.139-.349-.488-.281-.561-.632-.7.071.071-.35-.137a2.247,2.247,0,0,0-.842-.28c-.558-.142,0,.068-.558-.142s-.77-.141-1.189-.42a3.27,3.27,0,0,1-.774-.846,3.393,3.393,0,0,0-1.052-.754c-.557-.221-1.4-.5-1.4-.5a7.623,7.623,0,0,0-2.031-.14,4.2,4.2,0,0,0-.632-.422c-.279-.139.349,0-.562-.28a2.732,2.732,0,0,0-1.189-.21l-.07.351h0l-.142.7-.42.5v-.784a2.825,2.825,0,0,1,.281-.84l-.069-.352-.841.491a2.153,2.153,0,0,0-.7.142l-.913.629-.63.714-.91.34-.63-.34a6.556,6.556,0,0,1-1.12,0h-.52l-.67-.291-.351-.633.068-.842s.071-.558.071-.839V81.7a10.332,10.332,0,0,0-1.191-.28,4.136,4.136,0,0,0-.913-.071,2.164,2.164,0,0,1-.769-.068.8.8,0,0,1-.071-.562,5.377,5.377,0,0,1,.562-1.118l.42-.634.28-.56-.212-.561-.488-.139a2.274,2.274,0,0,0-.84.139,3.182,3.182,0,0,0-.491.493l-.42.628s-.351.492-.561.563-1.259.279-1.259.279l-.706-.069-.627-.419-.212-.491c0-.352-.84-1.822-.84-2.1a5.036,5.036,0,0,1,.49-1.191,10.209,10.209,0,0,0,.42-1.333,6.6,6.6,0,0,1,.84-1.26l.705-.422.906-.49,1.894-.14.422.769,1.05-.769.559-.283.7-.137.63.352.6.276.588.283.212.561a5.017,5.017,0,0,0,.139.981l.42.7.632.28.42-.419a2.54,2.54,0,0,0-.071-.979,5.344,5.344,0,0,1-.209-1.191l.07-.562a1.443,1.443,0,0,1,.489-.91,16.241,16.241,0,0,1,1.332-1.052c.491-.21-.07.28.491-.21s.7-.352,1.05-.7a7.752,7.752,0,0,1,.839-.7c.071-.349.213-.278.352-.771a4.673,4.673,0,0,1,.842-1.26l1.052-.7.84-.56,1.4-.91.63-.42.351-.563.491-.348a5.347,5.347,0,0,1,.7-.351,3.077,3.077,0,0,1,.561-.21c.12-.04,1.4-.561,1.4-.561l.283.632.977-.212.773-.279.208-.419a2.672,2.672,0,0,0-.77-.213,7.219,7.219,0,0,0-.771.071l-.209-.491s.351-.21.419-.422.21-.559.21-.559h-.559a5.409,5.409,0,0,1-.632.071,3.581,3.581,0,0,0-.7.21l-.561.141h0c-.561-.071-.071-.984-.071-.984l1.194-.488.769-.281h1.262l1.05-.21.981-.139a8.935,8.935,0,0,0,.84-.419c.351-.213,1.4-.423,1.54-.7s.774-.772.562-.772a1.6,1.6,0,0,1-.562-.068,3.156,3.156,0,0,0-.7-.071l-.212-.49-.068-.42-.072-.63-.209-1.682c-.352-.352.419-.561-.352-.352a7.969,7.969,0,0,0-1.75.841l-.84.209c-.21-.63-.142-.63-.071-.91a1.675,1.675,0,0,0,0-.63,4.665,4.665,0,0,0-1.823-.63l-.769-.071-.491.352a5.739,5.739,0,0,1-.983.979l-.277.212-.143.7-.069.632a1.091,1.091,0,0,1-.488.561c-.422.281-.773.491-.773.491l-1.05.7-.42.418-.142.561a2.441,2.441,0,0,1-.979.981l-.7-.137.144-1.052.21-.632a.7.7,0,0,0-.354-.42c-.278-.139.354.139-.981-.42s-2.1-.842-2.1-.842a5.1,5.1,0,0,0-.49-.63.9.9,0,0,1-.208-.561l.42-.769,1.05-.909,1.474-.492.769-.491.979-.564.771-.068,1.4-.278-.349-.423h0c.63-.278.21-.21.63-.278a4.669,4.669,0,0,1,.7-.071l1.189-.28.84-.63.7-.771-.769-.071-.842.561c-.418.208.071.281-.418.208a4.028,4.028,0,0,0-.983,0s.491-.418.283-.63a2.955,2.955,0,0,1-.422-.838l-.281-.42Z" fill="#28362e" fill-rule="evenodd"/>
          <path id="Trazado_1065712" data-name="Trazado 1065712" d="M696.505,67.406l-1.263.84s-.559-.979-1.26-.418-.56-.141-1.684.418-1.678,1.122-2.38,1.122h-.7c-.982-.559-1.262-.342-1.823.25a6.956,6.956,0,0,0-.982,1.432v.979s-.325.4-.7.842c-3.779,4.482-3.779,3.784-3.779,4.482s-.282,1.963,0,2.524a1.927,1.927,0,0,1-.123,1.4,1.746,1.746,0,0,1,0,1.542l.68,1.118.981,1.976,1.4,1.949.982.84h5.323l2.242-.559,1.82.559h1.263l.841.7h.982s.556,1.4,0,2.1.248,1.4.248,1.4l1.151,2.527v.976l.7,1.265v3.22l-.559,1.68.559,1.124a3.525,3.525,0,0,1,0,1.26,8.3,8.3,0,0,0,.063,1.963l.64,1.262.979,2.382s-.7.279,0,1.538a24.636,24.636,0,0,0,2.1,2.944h2.38s1.263.981,1.4,0-.841,1.4,1.122-1.541,2.941-3.925,2.941-4.347v-.976l1.122-.982s.277-.28,0-.981.14-1.262.98-2.1a7.285,7.285,0,0,1,1.682-1.262c1.262-2.1,1.681-2.524,1.541-2.944s-.562-.278-.977-1.4-.283-.139-.423-1.122a5.358,5.358,0,0,1,.7-2.519l.136-.423,1.265-1.821,1.12-1.182,1.54-2.04,1.262-1.684a10.673,10.673,0,0,0,.842-1.808v-1l.418-.7-1.824.7a23.74,23.74,0,0,1-2.939-.419l-.841-1.96-.979-.984-.982-1.4-.982-1.264-.7-.842a7.26,7.26,0,0,0-.562-1.118,17.123,17.123,0,0,1-.837-1.824l-.422-1.679a.881.881,0,0,1,.7-.843,4.864,4.864,0,0,1,1.259,1.262l1.12,1.4.7,1.4.838,1.54.283.982c.419.983.982,2.1.982,2.1l.7,1.542,1.54.281,1.4-.561,1.541-.564L724.391,81l1.4-1.26,1.123-.981.843-1.123-.706-2.382-.976-.279h0c-.7-.142-.684.175-1.122.42l-1.263.7h0l-.979-.558h0a4.27,4.27,0,0,1-.841-1.262l-.279-1.121-.562-1.123.417-.979,1.124,1.119,1.261.844.981.839,1.4.421,1.546.139.839.84,4.062.141,1.965.42.84.981v1.543l.837.979v1.122a19.3,19.3,0,0,0,.7,2.1c.281.419,1.12,1.4,1.12,1.4a4.216,4.216,0,0,1,.7,1.262,4.785,4.785,0,0,0,.983,1.439,2.967,2.967,0,0,0,1.262-2V83.1l.7-1.262V81a10.471,10.471,0,0,0,2.1-1.541l1.4-1.542,1.684-.979,1.118.139.839.84,1.124,1.4v.844c.139.838.839.557.839.557l.979.139c.283.7.842,2.1.842,2.1v2.955a3.984,3.984,0,0,1,0,1.388l.84,1.4a16.594,16.594,0,0,0,1.123,1.262l1.12,1.481h.562a2.01,2.01,0,0,0,0-1.342c-.281-.559-.981-1.821-.981-1.821a7.557,7.557,0,0,1-1.263-1.644l-.141-.725V84.081l.141-.7h0a6.47,6.47,0,0,1,1.682,1.4l.684,1.131a3.544,3.544,0,0,0,1.557-.572,6.651,6.651,0,0,1,1.342-1.682v-.84a1,1,0,0,0-.639-.981,2.108,2.108,0,0,1-.981-1.262l-.842-1.4.42-1.123,1.4-1.118h.639a7.645,7.645,0,0,0,2.583-.422l1.263-.84.7-.843.422-.837V72.732a3.561,3.561,0,0,1,0-1.262,2.087,2.087,0,0,0,0-.981l-.563-1.121a1.821,1.821,0,0,1-.557-1.962h-.843l-.841-.281h0c-.84-1.12-1.261-1.821-1.261-1.821l.841-.981a2.919,2.919,0,0,0,1.682.84,6.875,6.875,0,0,1,1.607.842v.981c1.2.561,1.617.7,1.617,1.12s.7.84.7.84l.982-.559-.562-1.962-.98-.981.282-1.121.559-1.26h.7V61.381l.843-1.262v-.981l-.843-1.121s-.839-1.4-1.26-1.54a3.566,3.566,0,0,0-1.263,0l-.839-.422-.705-1.12c.142-1.121,2.947-2.661,2.947-2.661h3.64l1.266-1.262h2.1v5.043l2.1,1.4,1.123.558a7.757,7.757,0,0,0,0-1.823,12.88,12.88,0,0,0-.844-1.538.924.924,0,0,0-.419-.983,1.688,1.688,0,0,1-.7-1.121,6.232,6.232,0,0,1,2.023-.557l.639-.143,2.8-.84-1.823-1.123h-.417l1.677-.7h2.1a1.49,1.49,0,0,0-1.12-.84c-.841-.142-.841-1.123-1.824-1.123h-2.524l-.839-.42h0c-.977-.281-1.4.279-1.822,0s-1.68-.081-1.68-.081a18.239,18.239,0,0,0-2.524.5c-1.117-.7-.977-.3-2.24-.57a15.174,15.174,0,0,1-2.523-.829h-2.521c-.981-.424-1.664-1.4-2.864-1.264s-2.042.562-2.462.562h-1.121l-.98.7c-1.68,0-1.963-.283-2.521,0s-.844-.283-1.266,0-1.4.7-1.679,0,1.679-.729-1.542-1.275-3.5.263-4.062,0l-.562-.27h-1.539a3.992,3.992,0,0,1-1.4,0H739.1l1.4-.979c-.28.979-1.4,0-1.4,0h-.983a9.789,9.789,0,0,1-2.1-1.262L734.2,43.305l-.983.281s-1.242-.422-1.393-.281a20.422,20.422,0,0,1-2.25.7l-1.4.422c-.84.842-.84,1.4-.84,1.4v2.239l-1.125.561-.278-1.542-.42-1.258-.842-1.122-1.121.42.14.7.981,1.541c-.981,0-2.8-1.541-2.8-1.541a7.236,7.236,0,0,1-2.245.836c-.7.7-.7.422-1.818.563a8.5,8.5,0,0,0-2.664,1.123,7.871,7.871,0,0,0-2.385.84l-2.1.839-.98-.28-.421-.84-.281-.7,1.963.279c.7,0,.7-.559.7-.559l-.7-.7-2.1-.281-1.682-.282s-.839-1.26-1.258-.836-1.124-.844-1.544,0-2.1,1.118-2.1,1.118l-1.539.982-.984.7-.843.842h0c-1.259,1.119-.42.7-1.259,1.119h0c-.84.422-1.26,1.962-1.26,1.962a19.5,19.5,0,0,0,1.963-.139.81.81,0,0,1,.556.837v.7l1.827.28,1.678-1.4a5.864,5.864,0,0,0-.139-1.958l.841-.705,1.12-1.258c.842-.281.561.561.422.979l-.14.422h0a16.132,16.132,0,0,0,3.081,1.26l.28.842s-.557.837-.978.837-1.35-.7-1.519-.278l-.164.42-.841,1.123a6.063,6.063,0,0,1-1.684,1.12h-.837l-1.262-.139-2.1.139s.281-.559-.7.142a13.9,13.9,0,0,1-1.961,1.4,5.312,5.312,0,0,0-1.122.7c-.98.7-.98.84-1.823,1.119a5.71,5.71,0,0,0-.838.28L690.9,59.7s.7.558.56.981.563-1.684-.14.42-1.681,1.962-1.681,1.962h-1.26a7.579,7.579,0,0,0-1.123.14l-.979,2.1-.143.982.984,1.12h.98l1.963-.281s1.54-1.12,1.54-1.54.84-1.262.84-1.262l1.123-1.12c.839-.14,3.083-.562,3.083-.562l1.259-.84.842.559.559,1.121a21.48,21.48,0,0,1,1.121,1.963l.561.981,1.121-.7c-.14-.981-1.54-2.1-1.54-2.1l-.7-1.683c-.562-.7.283-.84.283-.84l2.378,1.54a2.836,2.836,0,0,0,.284,1.262,6.7,6.7,0,0,1,.838,1.26,4.457,4.457,0,0,0,.56.983l.561.84.585-.278.677-.7.842-1.121a3.625,3.625,0,0,1,1.259-.981,4.3,4.3,0,0,0,1.263-.84v-.981l1.12-1.4.7.139,2.238-1.4.981.7v1.4l.7,1.121.281,1.123a3.151,3.151,0,0,1-1.965.42l-.977-.142a8.679,8.679,0,0,0-1.542.142l-.982.419-.981.7a2.73,2.73,0,0,0-.281,1.963,16.028,16.028,0,0,0,2.1.7l.982.141a8.475,8.475,0,0,0,1.541-.419v1.122l-.419.977-.281.844h0a2.4,2.4,0,0,1-1.823.279l-.979-.279-.843.14-1.121.139-1.681-.7-1.4-.562a5.328,5.328,0,0,1-.7,1.4,7.571,7.571,0,0,1-1.819.278,4.589,4.589,0,0,1-2.523-1.542,11.687,11.687,0,0,1-.7-1.4c-.145-.422-.422-1.262-.422-1.262l-.982-.139Z" fill="#28362e" fill-rule="evenodd"/>
          <path id="Trazado_1065713" data-name="Trazado 1065713" d="M751.433,88.284l.323.677,1.361,2.826a23.055,23.055,0,0,0,1.121,2.663c.42.7,1.26,1.821,1.26,1.821h1.12c.74,0-2.811-6.316-3.5-6.864" fill="#28362e" fill-rule="evenodd"/>
          <path id="Trazado_1065714" data-name="Trazado 1065714" d="M764.183,88.284s-.837.562-1.26.842l-.418.281s-1.122,1.121-1.823,1.68l-.7.559h0c-1.262,0,0,1.823,0,1.823a6.473,6.473,0,0,0,2.38,1.26l1.819-.7.983-.842V90.806l-.42-.842h0a1.858,1.858,0,0,0,.42-1.68Z" fill="#28362e" fill-rule="evenodd"/>
          <path id="Trazado_1065715" data-name="Trazado 1065715" d="M775.4,100.334h-2.1a3.491,3.491,0,0,1-.981.7,6.256,6.256,0,0,0-1.26.839s-.559-1.4-.981-.766a7.279,7.279,0,0,1-1.679,1.609c-.423.278-.845,1.12-1.4,1.54s-1.766,1.4-1.766,1.4l-.619.562-2.281,1.12a6.251,6.251,0,0,0-1.219,2.382v2.243l-.7,1.541v1.978h4.062l2.661-.579,1.4-.279,1.677-.42,1.544.7.982.579c.842-.438,1.823.824,1.682,1.244s.981,1.4.981,1.4h1.4l1.4-.842a23.652,23.652,0,0,1,2.663-1.806,3.9,3.9,0,0,0,1.819-1.839c.139-.7,1.826-1.821,1.543-2.38s1.043-.7.031-1.123-.453-1.4-.871-1.681-.842.141-1.542-1.822-.98-2.941-.98-2.941a8.282,8.282,0,0,0-.422-1.541,4.525,4.525,0,0,1-.28-.983l-.142-.7-.979-.144-.7,1.542-.561,1.262-.7.843a.746.746,0,0,1-.7.559c-.562,0-1.118-1.26-1.118-1.26s-.84-.842-.56-1.262,1.819,0,1.258-.842Z" fill="#28362e" fill-rule="evenodd"/>
          <path id="Trazado_1065716" data-name="Trazado 1065716" d="M780.9,94.238a4.618,4.618,0,0,0-3.512.051c-.179.082-1.527.8-1.637.06,0-.014-.034-.129-.526-.425-.524-.316-1.117-.917-1.367-.629a1.632,1.632,0,0,0-.523,1.48l1.156.727,1.138.769,2.329.491s.63.526,0,.842a.688.688,0,0,0-.316.946,5.041,5.041,0,0,0,1.26.524h2.418l.946-1.262,1.049,1.262,1.333.526s.8-.944,0-1.472-1.017-1.545-1.333-1.72-.523-.59-.839-.906a3.977,3.977,0,0,0-1.576-1.264" fill="#28362e" fill-rule="evenodd"/>
          <path id="Trazado_1065717" data-name="Trazado 1065717" d="M713.533,97.517a1.155,1.155,0,1,1-1.154-1.154,1.154,1.154,0,0,1,1.154,1.154" fill="#fe9900"/>
          <path id="Trazado_1065718" data-name="Trazado 1065718" d="M764.631,93.219a1.154,1.154,0,1,1-1.154-1.154,1.154,1.154,0,0,1,1.154,1.154" fill="#fe9900"/>
          <path id="Trazado_1065719" data-name="Trazado 1065719" d="M766.94,110.388a1.155,1.155,0,1,1-1.154-1.154,1.154,1.154,0,0,1,1.154,1.154" fill="#fe9900"/>
          <path id="Trazado_1065720" data-name="Trazado 1065720" d="M771.5,114.33a1.154,1.154,0,1,1-1.154-1.154,1.154,1.154,0,0,1,1.154,1.154" fill="#fe9900"/>
          <path id="Trazado_1065721" data-name="Trazado 1065721" d="M769.66,108.079a1.154,1.154,0,1,1-1.154-1.154,1.154,1.154,0,0,1,1.154,1.154" fill="#fe9900"/>
          <path id="Trazado_1065722" data-name="Trazado 1065722" d="M775.611,111.167a1.155,1.155,0,1,1-1.154-1.154,1.154,1.154,0,0,1,1.154,1.154" fill="#fe9900"/>
          <path id="Trazado_1065723" data-name="Trazado 1065723" d="M780.306,94.373a1.155,1.155,0,1,1-1.154-1.154,1.154,1.154,0,0,1,1.154,1.154" fill="#fe9900"/>
          <path id="Trazado_1065724" data-name="Trazado 1065724" d="M724.531,66.993a1.155,1.155,0,1,1-1.154-1.154,1.154,1.154,0,0,1,1.154,1.154" fill="#ccdd63"/>
          <path id="Trazado_1065725" data-name="Trazado 1065725" d="M736.838,49.448a1.155,1.155,0,1,1-1.154-1.154,1.154,1.154,0,0,1,1.154,1.154" fill="#ccdd63"/>
          <path id="Trazado_1065726" data-name="Trazado 1065726" d="M741.083,47.794a1.155,1.155,0,1,1-1.154-1.154,1.154,1.154,0,0,1,1.154,1.154" fill="#ccdd63"/>
          <path id="Trazado_1065727" data-name="Trazado 1065727" d="M731.6,46.639a1.154,1.154,0,1,1-1.154-1.154,1.154,1.154,0,0,1,1.154,1.154" fill="#ccdd63"/>
          <path id="Trazado_1065728" data-name="Trazado 1065728" d="M737.114,44.675a1.155,1.155,0,1,1-1.154-1.154,1.154,1.154,0,0,1,1.154,1.154" fill="#ccdd63"/>
          <path id="Trazado_1065729" data-name="Trazado 1065729" d="M742.238,44.675a1.154,1.154,0,1,1-1.154-1.154,1.154,1.154,0,0,1,1.154,1.154" fill="#ccdd63"/>
          <path id="Trazado_1065730" data-name="Trazado 1065730" d="M739.147,51.488a1.154,1.154,0,1,1-1.154-1.154,1.154,1.154,0,0,1,1.154,1.154" fill="#ccdd63"/>
          <path id="Trazado_1065731" data-name="Trazado 1065731" d="M757.873,74.051a1.154,1.154,0,1,1-1.154-1.154,1.154,1.154,0,0,1,1.154,1.154" fill="#ccdd63"/>
          <path id="Trazado_1065732" data-name="Trazado 1065732" d="M713.533,101.814a1.155,1.155,0,1,1-1.154-1.154,1.154,1.154,0,0,1,1.154,1.154" fill="#fe9900"/>
          <path id="Trazado_1065733" data-name="Trazado 1065733" d="M709.563,95.528a1.154,1.154,0,1,1-1.154-1.154,1.154,1.154,0,0,1,1.154,1.154" fill="#fe9900"/>
          <path id="Trazado_1065734" data-name="Trazado 1065734" d="M659.989,66.993a1.155,1.155,0,1,1-1.154-1.154,1.154,1.154,0,0,1,1.154,1.154" fill="#80b500"/>
          <path id="Trazado_1065735" data-name="Trazado 1065735" d="M678.908,103.921a1.155,1.155,0,1,1-1.154-1.154,1.154,1.154,0,0,1,1.154,1.154" fill="#80b500"/>
          <path id="Trazado_1065736" data-name="Trazado 1065736" d="M677.754,99.6a1.155,1.155,0,1,1-1.154-1.154,1.154,1.154,0,0,1,1.154,1.154" fill="#80b500"/>
          <path id="Trazado_1065737" data-name="Trazado 1065737" d="M659.989,65.839a1.155,1.155,0,1,1-1.154-1.154,1.154,1.154,0,0,1,1.154,1.154" fill="#80b500"/>
          <path id="Trazado_1065738" data-name="Trazado 1065738" d="M644,56.005a1.155,1.155,0,1,1-1.154-1.154A1.154,1.154,0,0,1,644,56.005" fill="#80b500"/>
          <path id="Trazado_1065739" data-name="Trazado 1065739" d="M664.838,64.053a1.155,1.155,0,1,1-1.155-1.154,1.155,1.155,0,0,1,1.155,1.154" fill="#80b500"/>
          <path id="Trazado_1065740" data-name="Trazado 1065740" d="M641.9,70.235a1.155,1.155,0,1,1-1.154-1.154,1.154,1.154,0,0,1,1.154,1.154" fill="#80b500"/>
          <path id="Trazado_1065741" data-name="Trazado 1065741" d="M643.39,59.468a1.155,1.155,0,1,1-1.154-1.154,1.154,1.154,0,0,1,1.154,1.154" fill="#80b500"/>
          <path id="Trazado_1065742" data-name="Trazado 1065742" d="M671.178,51.756a1.154,1.154,0,1,1-1.154-1.154,1.154,1.154,0,0,1,1.154,1.154" fill="#80b500"/>
          <path id="Trazado_1065743" data-name="Trazado 1065743" d="M640.743,57.16a1.154,1.154,0,1,1-1.154-1.154,1.154,1.154,0,0,1,1.154,1.154" fill="#80b500"/>
          <path id="Trazado_1065744" data-name="Trazado 1065744" d="M713.533,93.219a1.155,1.155,0,1,1-1.154-1.154,1.154,1.154,0,0,1,1.154,1.154" fill="#fe9900"/>
          <rect id="Rectángulo_402028" data-name="Rectángulo 402028" width="1.783" height="8.146" transform="translate(361.667 183.698)" fill="#ccdd63"/>
          <rect id="Rectángulo_402029" data-name="Rectángulo 402029" width="1.783" height="18.29" transform="translate(364.589 173.554)" fill="#80b500"/>
          <rect id="Rectángulo_402030" data-name="Rectángulo 402030" width="1.783" height="53.063" transform="translate(367.511 138.781)" fill="#fe9900"/>
          <rect id="Rectángulo_402031" data-name="Rectángulo 402031" width="1.783" height="46.961" transform="translate(370.433 144.883)" fill="#80b500"/>
          <rect id="Rectángulo_402032" data-name="Rectángulo 402032" width="1.783" height="28.582" transform="translate(373.356 163.262)" fill="#ccdd63"/>
          <rect id="Rectángulo_402033" data-name="Rectángulo 402033" width="1.783" height="12.556" transform="translate(376.278 179.288)" fill="#80b500"/>
          <rect id="Rectángulo_402034" data-name="Rectángulo 402034" width="1.783" height="33.949" transform="translate(379.2 157.895)" fill="#fe9900"/>
          <rect id="Rectángulo_402035" data-name="Rectángulo 402035" width="1.783" height="5.132" transform="translate(382.122 186.712)" fill="#ccdd63"/>
          <rect id="Rectángulo_402036" data-name="Rectángulo 402036" width="1.783" height="17.958" transform="translate(385.044 173.886)" fill="#ccdd63"/>
          <rect id="Rectángulo_402037" data-name="Rectángulo 402037" width="1.783" height="29.612" transform="translate(387.967 162.232)" fill="#fe9900"/>
          <rect id="Rectángulo_402038" data-name="Rectángulo 402038" width="1.783" height="41.51" transform="translate(390.889 150.334)" fill="#ccdd63"/>
          <rect id="Rectángulo_402039" data-name="Rectángulo 402039" width="1.783" height="18.452" transform="translate(393.811 173.392)" fill="#80b500"/>
          <rect id="Rectángulo_402040" data-name="Rectángulo 402040" width="1.783" height="5.94" transform="translate(396.733 185.904)" fill="#fe9900"/>
          <rect id="Rectángulo_402041" data-name="Rectángulo 402041" width="1.783" height="31.964" transform="translate(399.655 159.88)" fill="#fe9900"/>
          <rect id="Rectángulo_402042" data-name="Rectángulo 402042" width="1.783" height="13.88" transform="translate(402.577 177.964)" fill="#ccdd63"/>
          <rect id="Rectángulo_402043" data-name="Rectángulo 402043" width="1.783" height="2.264" transform="translate(405.5 189.58)" fill="#ccdd63"/>
          <rect id="Rectángulo_402044" data-name="Rectángulo 402044" width="1.783" height="22.334" transform="translate(408.422 169.51)" fill="#ccdd63"/>
          <rect id="Rectángulo_402045" data-name="Rectángulo 402045" width="1.783" height="31.523" transform="translate(411.344 160.321)" fill="#fe9900"/>
          <rect id="Rectángulo_402046" data-name="Rectángulo 402046" width="1.783" height="5.94" transform="translate(414.266 185.904)" fill="#ccdd63"/>
          <rect id="Rectángulo_402047" data-name="Rectángulo 402047" width="1.783" height="35.916" transform="translate(417.188 155.928)" fill="#80b500"/>
          <rect id="Rectángulo_402048" data-name="Rectángulo 402048" width="1.783" height="26.007" transform="translate(420.11 165.837)" fill="#fe9900"/>
          <rect id="Rectángulo_402049" data-name="Rectángulo 402049" width="1.783" height="21.911" transform="translate(423.033 169.933)" fill="#80b500"/>
          <rect id="Rectángulo_402050" data-name="Rectángulo 402050" width="1.783" height="45.895" transform="translate(425.955 145.949)" fill="#ccdd63"/>
          <rect id="Rectángulo_402051" data-name="Rectángulo 402051" width="1.783" height="34.317" transform="translate(428.877 157.527)" fill="#fe9900"/>
          <rect id="Rectángulo_402052" data-name="Rectángulo 402052" width="1.783" height="30.016" transform="translate(431.799 161.828)" fill="#80b500"/>
          <rect id="Rectángulo_402053" data-name="Rectángulo 402053" width="1.783" height="52.015" transform="translate(434.721 139.829)" fill="#fe9900"/>
          <rect id="Rectángulo_402054" data-name="Rectángulo 402054" width="1.783" height="20.257" transform="translate(437.644 171.587)" fill="#ccdd63"/>
          <rect id="Rectángulo_402055" data-name="Rectángulo 402055" width="1.783" height="41.51" transform="translate(440.566 150.334)" fill="#ccdd63"/>
        </g>
      </g>
    </g>
  </g>
</svg>
