<svg xmlns="http://www.w3.org/2000/svg" xmlns:xlink="http://www.w3.org/1999/xlink" width="207.619" height="169.386" viewBox="0 0 207.619 169.386">
  <defs>
    <clipPath id="clip-path">
      <rect id="Rect치ngulo_402549" data-name="Rect치ngulo 402549" width="207.619" height="169.386" fill="none"/>
    </clipPath>
  </defs>
  <g id="Grupo_1211004" data-name="Grupo 1211004" clip-path="url(#clip-path)">
    <path id="Trazado_1067171" data-name="Trazado 1067171" d="M17.115,185.272A17.114,17.114,0,1,0,0,168.158a17.147,17.147,0,0,0,17.115,17.114" transform="translate(0 -75.938)" fill="#f2f7e5" fill-rule="evenodd"/>
    <path id="Trazado_1067172" data-name="Trazado 1067172" d="M365.817,189.181A17.115,17.115,0,1,0,348.7,172.067a17.147,17.147,0,0,0,17.114,17.115" transform="translate(-175.313 -77.903)" fill="#f2f7e5" fill-rule="evenodd"/>
    <path id="Trazado_1067173" data-name="Trazado 1067173" d="M250.953,24.9A12.449,12.449,0,1,0,238.5,12.449,12.473,12.473,0,0,0,250.953,24.9" transform="translate(-119.91 0)" fill="#f2f7e5" fill-rule="evenodd"/>
    <path id="Trazado_1067174" data-name="Trazado 1067174" d="M338.841,65.083a13.576,13.576,0,1,0-13.576-13.577,13.6,13.6,0,0,0,13.576,13.577" transform="translate(-163.53 -19.07)" fill="#fec266" fill-rule="evenodd"/>
    <path id="Trazado_1067175" data-name="Trazado 1067175" d="M351.846,23.714a1.388,1.388,0,0,1-2.766,0l-.669-5.316a2.081,2.081,0,1,1,4.133-.349,2.187,2.187,0,0,1-.028.349Z" transform="translate(-175.152 -8.028)" fill="#fead33" fill-rule="evenodd"/>
    <path id="Trazado_1067176" data-name="Trazado 1067176" d="M351.846,97.633a1.387,1.387,0,0,0-2.766,0l-.669,5.316a2.081,2.081,0,1,0,4.133.349,2.192,2.192,0,0,0-.028-.349Z" transform="translate(-175.152 -48.445)" fill="#fead33" fill-rule="evenodd"/>
    <path id="Trazado_1067177" data-name="Trazado 1067177" d="M369.264,29.685a1.388,1.388,0,0,1-2.4-1.383l2.078-4.939a2.178,2.178,0,0,1,.149-.317,2.082,2.082,0,0,1,3.606,2.082,2.128,2.128,0,0,1-.2.287h0Z" transform="translate(-184.379 -11.064)" fill="#fead33" fill-rule="evenodd"/>
    <path id="Trazado_1067178" data-name="Trazado 1067178" d="M331.954,93.795a1.387,1.387,0,0,0-2.4-1.383l-3.238,4.269a2.119,2.119,0,0,0-.2.287,2.082,2.082,0,1,0,3.756,1.765Z" transform="translate(-163.82 -46.16)" fill="#fead33" fill-rule="evenodd"/>
    <path id="Trazado_1067179" data-name="Trazado 1067179" d="M381.131,44.618a1.388,1.388,0,0,1-1.384-2.4l4.269-3.238h0a2.053,2.053,0,0,1,.287-.2,2.081,2.081,0,1,1,2.081,3.6,2.13,2.13,0,0,1-.315.149Z" transform="translate(-190.621 -19.359)" fill="#fead33" fill-rule="evenodd"/>
    <path id="Trazado_1067180" data-name="Trazado 1067180" d="M317.021,81.929a1.388,1.388,0,0,0-1.383-2.4L310.7,81.611a2.129,2.129,0,0,0-.317.149,2.082,2.082,0,1,0,2.082,3.605,2.191,2.191,0,0,0,.286-.2Z" transform="translate(-155.524 -39.919)" fill="#fead33" fill-rule="evenodd"/>
    <path id="Trazado_1067181" data-name="Trazado 1067181" d="M384.968,64.511a1.388,1.388,0,0,1,0-2.766l5.316-.67a2.12,2.12,0,0,1,.349-.029,2.081,2.081,0,1,1-.349,4.134Z" transform="translate(-192.906 -30.691)" fill="#fead33" fill-rule="evenodd"/>
    <path id="Trazado_1067182" data-name="Trazado 1067182" d="M311.05,64.511a1.387,1.387,0,0,0,0-2.766l-5.316-.67a2.12,2.12,0,0,0-.349-.029,2.081,2.081,0,1,0,.349,4.134Z" transform="translate(-152.489 -30.691)" fill="#fead33" fill-rule="evenodd"/>
    <path id="Trazado_1067183" data-name="Trazado 1067183" d="M379.747,81.929a1.388,1.388,0,0,1,1.384-2.4l4.939,2.077a2.166,2.166,0,0,1,.316.149,2.082,2.082,0,1,1-2.369,3.406Z" transform="translate(-190.621 -39.919)" fill="#fead33" fill-rule="evenodd"/>
    <path id="Trazado_1067184" data-name="Trazado 1067184" d="M315.638,44.617a1.388,1.388,0,0,0,1.383-2.4l-4.269-3.238h0a2.164,2.164,0,0,0-.286-.2,2.082,2.082,0,1,0-1.766,3.754Z" transform="translate(-155.524 -19.359)" fill="#fead33" fill-rule="evenodd"/>
    <path id="Trazado_1067185" data-name="Trazado 1067185" d="M366.869,93.795a1.388,1.388,0,0,1,2.4-1.383l3.237,4.269a2.081,2.081,0,1,1-3.406,2.368,2.131,2.131,0,0,1-.149-.316Z" transform="translate(-184.379 -46.16)" fill="#fead33" fill-rule="evenodd"/>
    <path id="Trazado_1067186" data-name="Trazado 1067186" d="M329.558,29.685a1.388,1.388,0,0,0,2.4-1.383l-2.078-4.939a2.082,2.082,0,1,0-3.756,1.765,2.211,2.211,0,0,0,.2.287Z" transform="translate(-163.82 -11.064)" fill="#fead33" fill-rule="evenodd"/>
    <path id="Trazado_1067187" data-name="Trazado 1067187" d="M146.493,216.813a61.239,61.239,0,1,0-61.239-61.239,61.358,61.358,0,0,0,61.239,61.239" transform="translate(-42.862 -47.428)" fill="#cce199" fill-rule="evenodd"/>
    <path id="Trazado_1067188" data-name="Trazado 1067188" d="M176.682,26.053l8.426-.82a12.614,12.614,0,0,1,13.736,11.3L200.828,56.9a12.614,12.614,0,0,1-11.3,13.736l-8.425.82a12.613,12.613,0,0,1-13.736-11.3l-1.984-20.367a12.613,12.613,0,0,1,11.3-13.736" transform="translate(-83.118 -12.656)" fill="#663d00" fill-rule="evenodd"/>
    <path id="Trazado_1067189" data-name="Trazado 1067189" d="M163.834,39.748c-19.6,2.459-35.588,9.969-35.719,16.772s15.65,10.326,35.246,7.867,35.589-9.969,35.719-16.773-15.65-10.326-35.246-7.867" transform="translate(-64.411 -19.59)" fill="#985c00" fill-rule="evenodd"/>
    <path id="Trazado_1067190" data-name="Trazado 1067190" d="M154.005,77.216a82.1,82.1,0,0,0,22.373-.041,92.752,92.752,0,0,0,21.472-5.188L193.6,64.539l-5.006,2.128L162.047,64.4Z" transform="translate(-77.427 -32.378)" fill="#663d00" fill-rule="evenodd"/>
    <path id="Trazado_1067191" data-name="Trazado 1067191" d="M186.822,131.842a8.924,8.924,0,0,1,3.651-.307c2.137.234,12.962,0,12.962,0a6.83,6.83,0,0,1,2.411.912l-.094,1.275s-7,2.4-7.189,2.4-9.231-.643-9.231-.643-2.7-1.48-2.509-3.633" transform="translate(-93.921 -66.1)" fill="#30295e" fill-rule="evenodd"/>
    <rect id="Rect치ngulo_402548" data-name="Rect치ngulo 402548" width="16.458" height="11.793" transform="translate(94.238 61.857)" fill="#d58881"/>
    <path id="Trazado_1067192" data-name="Trazado 1067192" d="M185.126,140.231S201.6,146.755,203,147.538a9.66,9.66,0,0,1,2.03,1.431,100.584,100.584,0,0,0-1.5,25.045c.58,9.7-.743,21.949-1.659,28.857H143.064c.97-7.071,1.889-13.876,2.14-16.23.573-5.364-3.839-33.034-5.453-37.273l20.3-9.81c1.276-.482,2.723-1.35,2.74-2.841.027-2.351.021-1.811.048-4.162,0,0,.129-.305.322-.342,3.9,3.39,14.883,3.532,19.023.6.192.041.315.35.315.35-.026,2.351-.02,1.812-.048,4.162-.017,1.491,1.409,2.392,2.674,2.9" transform="translate(-70.261 -66.471)" fill="#b3bdb8" fill-rule="evenodd"/>
    <path id="Trazado_1067193" data-name="Trazado 1067193" d="M206.885,194.976c-.12,3.152-.118,6.687.109,10.475.488,8.168-.373,18.147-1.2,25.22-13.111.964-31.507.889-37.468-.635-7.475-1.908-16.453-1.962-20.824-2.856.559-4.15,1.006-7.569,1.171-9.1.3-2.769-.737-11.481-2.027-19.846,2.576,6.44,7.393,6.219,7.393,6.219s40.1-2.495,46.218-3.539,6.337-6.169,6.337-6.169Z" transform="translate(-73.726 -97.909)" fill="#687b71" fill-rule="evenodd"/>
    <path id="Trazado_1067194" data-name="Trazado 1067194" d="M194.992,210.892s-41.146,1.98-43.2,2.469-4.115,2-3.955,5.888-1.461,32.3-9.5,34.057c0,0-.381,6.441-.406,8.589,0,.3-.114,1.158-.3,2.4a61.254,61.254,0,0,0,68.457,1.3c-1.27-8.711-4.285-24.754-4.285-24.754s-4.154-21.224-4.632-24.2-.444-5.81-2.184-5.753" transform="translate(-69.198 -106.027)" fill="#d08174" fill-rule="evenodd"/>
    <path id="Trazado_1067195" data-name="Trazado 1067195" d="M142.091,274.007a5.911,5.911,0,0,1-3.444,2.775s-.381,6.441-.406,8.589a2.409,2.409,0,0,0,.118.7c2.6-.161,7.468-.419,11.028-1.75S179.278,266.8,179.278,266.8L204.8,279.239c-.51-5.38-2.339-11.686-2.58-13.93l-24.413-7.724Z" transform="translate(-69.502 -129.503)" fill="#be7775" fill-rule="evenodd"/>
    <path id="Trazado_1067196" data-name="Trazado 1067196" d="M157.029,246.664l1.163-.025s5.731-.5,10.08-.451,29.107-4.724,34.18-5.536,7.641-.847,10.332.393-.109,9.034-.109,9.034l-5.077,5.567-1.8-.876s-8.2-1.8-9.937-1.715-33.007,14.76-34.857,15.456-3.979-21.848-3.979-21.848" transform="translate(-78.948 -120.699)" fill="#e9baa8" fill-rule="evenodd"/>
    <path id="Trazado_1067197" data-name="Trazado 1067197" d="M206.1,262.829c-1.131.491-2.377,1.043-3.7,1.634L188.944,255.7l2.35-.777L208.37,260.9Z" transform="translate(-94.993 -128.166)" fill="#d58881" fill-rule="evenodd"/>
    <path id="Trazado_1067198" data-name="Trazado 1067198" d="M126.665,166.714s-6.94,3.116-8.334,13.073-1.1,18.2-2.464,25.213-2.856,14.8-1.772,20.694,6.78,10.819,14.072,10.519c3.035-.1,10.33-1.28,10.872-1.632a1.733,1.733,0,0,0,.683-.727c1.986-9.483-1.738-24.041-1.862-24.444a.57.57,0,0,0-.52-.408c-.647.033-3.777.3-5.057.416-.231.011-.415.027-.548.047,0,0,.922-1.5-.1-1.544a27.574,27.574,0,0,0,.894-6.138c.239-4.089-3.73-31.371-5.863-35.07" transform="translate(-57.175 -83.817)" fill="#8e9c94" fill-rule="evenodd"/>
    <path id="Trazado_1067199" data-name="Trazado 1067199" d="M211.379,246.132s-22.8-3.254-26.478-3.656-12.311,2.555-14.284,3.218-2.322,1.831-2.322,1.831l5.641-.148s6.5,2.743,10.465,4.937,26.155,11.759,26.971,11.973.007-18.154.007-18.154" transform="translate(-84.612 -121.889)" fill="#e9baa8" fill-rule="evenodd"/>
    <path id="Trazado_1067200" data-name="Trazado 1067200" d="M259.215,165.912c7.395,2.627,11.206,22.915,14.612,30.82,6.719,15.6,2.115,32.677-13.681,32.2l0,.007c-1.459.14-8.606-1.151-9.673-1.777s-3.537-6.31-2.824-12.359,3.443-8.015,3.443-8.015l4.395.218a1.283,1.283,0,0,1,1.517-1.229l.686-3.387s-1.8-27.379,1.524-36.479" transform="translate(-124.444 -83.414)" fill="#8e9c94" fill-rule="evenodd"/>
    <path id="Trazado_1067201" data-name="Trazado 1067201" d="M242.91,152.95s.852,21.564,1.215,25.455a.658.658,0,0,1-.571.787,21.725,21.725,0,0,1-2.612.251.846.846,0,0,1-.711-.494c-.173-.462-2.3-27.991-2.3-27.991a1.692,1.692,0,0,1,.514-.136c.154.014,4.05,1.5,4.05,1.5a.932.932,0,0,1,.412.624" transform="translate(-119.624 -75.827)" fill="#d08174" fill-rule="evenodd"/>
    <path id="Trazado_1067202" data-name="Trazado 1067202" d="M161.076,154.069c.061.744,2.117,24.137,2.477,27.978a.658.658,0,0,1-.571.787,21.764,21.764,0,0,1-2.612.252.956.956,0,0,1-.711-.5c-.155-.412-2.137-16.95-3.12-26.328.09-.137.069-.332.253-.495a9.419,9.419,0,0,1,3.836-1.817c.14-.017.342.108.447.12" transform="translate(-78.702 -77.398)" fill="#d08174" fill-rule="evenodd"/>
    <path id="Trazado_1067203" data-name="Trazado 1067203" d="M164.62,209.949l1.43-.155a.6.6,0,0,1,.658.532l.3,2.719a.6.6,0,0,1-.533.662l-1.436.157a.6.6,0,0,1-.657-.533c-.09-.908-.2-1.817-.3-2.725a.6.6,0,0,1,.131-.435.593.593,0,0,1,.4-.221Zm1.457.24-1.426.156a.205.205,0,0,0-.176.218c.087.9.191,1.828.3,2.731a.2.2,0,0,0,.217.175l1.438-.156a.206.206,0,0,0,.18-.226l-.3-2.723a.208.208,0,0,0-.075-.132.2.2,0,0,0-.143-.044Z" transform="translate(-82.491 -105.474)" fill="#fff" fill-rule="evenodd"/>
    <path id="Trazado_1067204" data-name="Trazado 1067204" d="M244.295,205.462l1.43-.156a.6.6,0,0,1,.658.533l.3,2.719a.6.6,0,0,1-.533.662l-1.436.157a.6.6,0,0,1-.657-.533c-.089-.908-.2-1.816-.3-2.724a.6.6,0,0,1,.533-.657Zm1.457.24-1.426.156a.2.2,0,0,0-.131.075.211.211,0,0,0-.046.143c.088.9.192,1.827.3,2.73a.205.205,0,0,0,.218.176l1.438-.157a.2.2,0,0,0,.136-.076.2.2,0,0,0,.045-.151l-.3-2.722a.206.206,0,0,0-.218-.176Z" transform="translate(-122.549 -103.218)" fill="#fff" fill-rule="evenodd"/>
    <path id="Trazado_1067205" data-name="Trazado 1067205" d="M207.378,144.284s-6.414,4.157-18.4.8" transform="translate(-95.012 -72.54)" fill="none" stroke="#30295e" stroke-linecap="round" stroke-linejoin="round" stroke-width="1.417"/>
    <path id="Trazado_1067206" data-name="Trazado 1067206" d="M210.456,246c-4.3-.612-22.32-3.171-25.555-3.523-3.678-.4-12.31,2.555-14.284,3.218s-2.322,1.83-2.322,1.83l5.641-.148s6.5,2.744,10.465,4.937" transform="translate(-84.612 -121.889)" fill="none" stroke="#d58881" stroke-linecap="round" stroke-linejoin="round" stroke-width="1.417"/>
    <path id="Trazado_1067207" data-name="Trazado 1067207" d="M143.545,215.625s-2.606-9.611-7.427-13.082" transform="translate(-68.434 -101.83)" fill="none" stroke="#663b55" stroke-linecap="round" stroke-linejoin="round" stroke-width="1.417"/>
    <path id="Trazado_1067208" data-name="Trazado 1067208" d="M117.373,230.37s3.45-14.364,3.871-16.592" transform="translate(-59.01 -107.479)" fill="none" stroke="#663b55" stroke-linecap="round" stroke-linejoin="round" stroke-width="1.417"/>
    <path id="Trazado_1067209" data-name="Trazado 1067209" d="M142.145,252.692s-5.553,2.6-7.719,8.161" transform="translate(-67.584 -127.043)" fill="none" stroke="#663b55" stroke-linecap="round" stroke-linejoin="round" stroke-width="1.417"/>
    <path id="Trazado_1067210" data-name="Trazado 1067210" d="M142.6,249.586s-4.219-.11-7.066,1.829" transform="translate(-68.141 -125.481)" fill="none" stroke="#663b55" stroke-linecap="round" stroke-linejoin="round" stroke-width="1.417"/>
    <path id="Trazado_1067211" data-name="Trazado 1067211" d="M263.541,248.557s7.054.2,8.651,4.092" transform="translate(-132.498 -124.964)" fill="none" stroke="#663b55" stroke-linecap="round" stroke-linejoin="round" stroke-width="1.417"/>
    <path id="Trazado_1067212" data-name="Trazado 1067212" d="M266.592,246.05a19.615,19.615,0,0,1,5.319.375" transform="translate(-134.031 -123.686)" fill="none" stroke="#663b55" stroke-linecap="round" stroke-linejoin="round" stroke-width="1.417"/>
    <path id="Trazado_1067213" data-name="Trazado 1067213" d="M267.2,209.064s-.065-8.413,5.106-12.557" transform="translate(-134.339 -98.796)" fill="none" stroke="#663b55" stroke-linecap="round" stroke-linejoin="round" stroke-width="1.417"/>
    <path id="Trazado_1067214" data-name="Trazado 1067214" d="M295.641,214.192s2.764,10.588,1.544,13.792" transform="translate(-148.636 -107.687)" fill="none" stroke="#663b55" stroke-linecap="round" stroke-linejoin="round" stroke-width="1.417"/>
    <path id="Trazado_1067215" data-name="Trazado 1067215" d="M267.686,230.363s1.335-2.878,3.249-3.775" transform="translate(-134.581 -113.919)" fill="none" stroke="#663b55" stroke-linecap="round" stroke-linejoin="round" stroke-width="1.417"/>
    <path id="Trazado_1067216" data-name="Trazado 1067216" d="M215.418,146.435s-3.633,4.271-12.11,4.568" transform="translate(-102.215 -73.621)" fill="none" stroke="#30295e" stroke-linecap="round" stroke-linejoin="round" stroke-width="1.417"/>
    <path id="Trazado_1067217" data-name="Trazado 1067217" d="M164.317,89.212c-.115.028-.228.06-.34.1h0a4.749,4.749,0,1,0,4.043.524c.27,1.381.235,3.13-1.525,3.494L166.25,90.6a1.632,1.632,0,0,0-1.933-1.388" transform="translate(-80.792 -44.843)" fill="#e59b98" fill-rule="evenodd"/>
    <path id="Trazado_1067218" data-name="Trazado 1067218" d="M231.579,81.836c.118,0,.235.01.353.021h0a4.75,4.75,0,1,1-3.838,1.375c.03,1.406.438,3.107,2.236,3.088l-.345-2.716a1.632,1.632,0,0,1,1.592-1.769" transform="translate(-113.981 -41.144)" fill="#e59b98" fill-rule="evenodd"/>
    <path id="Trazado_1067219" data-name="Trazado 1067219" d="M167.952,60.766a16.277,16.277,0,0,0,.077,2.464l1.587,14.7a16.257,16.257,0,0,0,32.326-3.489l-1.587-14.7a16.227,16.227,0,0,0-.529-2.712c-2.888-4.7-7.986-4.676-9.674-4.529-2.236.194-4.373.486-14,1.652a9.241,9.241,0,0,0-8.2,6.614" transform="translate(-84.431 -26.374)" fill="#e9baa8" fill-rule="evenodd"/>
    <path id="Trazado_1067220" data-name="Trazado 1067220" d="M196.083,106.484a4.207,4.207,0,0,0,8.373-.827h-.007a.729.729,0,0,0-.794-.652l-6.913.683a.728.728,0,0,0-.651.794Z" transform="translate(-98.582 -52.791)" fill="#30295e" fill-rule="evenodd"/>
    <path id="Trazado_1067221" data-name="Trazado 1067221" d="M199.867,112.714a4.209,4.209,0,0,0,4.869-.183,2.617,2.617,0,0,0-2.546-1.308,2.653,2.653,0,0,0-2.323,1.491" transform="translate(-100.485 -55.915)" fill="#c35a5a" fill-rule="evenodd"/>
    <path id="Trazado_1067222" data-name="Trazado 1067222" d="M204.927,105l-6.5.642a1.478,1.478,0,0,0,.871,1.533c.607.134,5.3-.453,5.592-.857a2.5,2.5,0,0,0,.034-1.318" transform="translate(-99.762 -52.792)" fill="#fff" fill-rule="evenodd"/>
    <path id="Trazado_1067223" data-name="Trazado 1067223" d="M180.9,82.923a.577.577,0,0,1-.625-.97,5.4,5.4,0,0,1,5.049-.525.577.577,0,1,1-.483,1.048,4.231,4.231,0,0,0-3.942.446" transform="translate(-90.502 -40.734)" fill="#30295e" fill-rule="evenodd"/>
    <path id="Trazado_1067224" data-name="Trazado 1067224" d="M218.371,78.9a4.23,4.23,0,0,0-3.947.4.577.577,0,1,1-.7-.92,5.4,5.4,0,0,1,5.044-.565.577.577,0,0,1-.4,1.082" transform="translate(-107.339 -38.935)" fill="#30295e" fill-rule="evenodd"/>
    <path id="Trazado_1067225" data-name="Trazado 1067225" d="M168.642,75.215s2.31-1.245,1.864-5.379-.337-3.116-.569-5.273A5.854,5.854,0,0,1,175.168,58l15.752-1.7a5.853,5.853,0,0,1,6.512,5.3c.232,2.157.122,1.139.568,5.274s2.97,4.857,2.97,4.857c-.355-3.278.506-4.675.506-4.675l-.41-3.8c-1.137-10.921-9.36-10.946-11.6-10.752s-4.373.486-14,1.652-8.881,11.462-8.881,11.462l.554,5.141s1.138,1.181,1.493,4.46" transform="translate(-83.75 -26.373)" fill="#331f00" fill-rule="evenodd"/>
    <path id="Trazado_1067226" data-name="Trazado 1067226" d="M218.549,84.967h0A1.322,1.322,0,0,1,220,86.138l.184,1.711a1.319,1.319,0,1,1-2.623.283l-.185-1.711a1.324,1.324,0,0,1,1.17-1.453" transform="translate(-109.285 -42.714)" fill="#30295e" fill-rule="evenodd"/>
    <path id="Trazado_1067227" data-name="Trazado 1067227" d="M200.748,95.5a12.251,12.251,0,0,0-.757,1.816c-.379,1.447,2.378,2.023,2.368.546a5.487,5.487,0,0,0-.473-1.845c-.678-1.624-.688-1.432-1.138-.517" transform="translate(-100.529 -47.665)" fill="#e59b98" fill-rule="evenodd"/>
    <path id="Trazado_1067228" data-name="Trazado 1067228" d="M182.26,93.308a.517.517,0,0,1-.764-.2.694.694,0,0,1,.151-.88,4.512,4.512,0,0,1,4.812-.5.7.7,0,0,1,.282.853.51.51,0,0,1-.726.3,3.532,3.532,0,0,0-3.755.428" transform="translate(-91.202 -45.873)" fill="#30295e" fill-rule="evenodd"/>
    <path id="Trazado_1067229" data-name="Trazado 1067229" d="M166.861,41.108c19.6-2.459,35.377,1.064,35.245,7.867-.044,2.3-1.905,4.686-5.107,6.928,4.5-2.62,7.192-5.512,7.245-8.288.13-6.8-15.65-10.327-35.246-7.867-12.965,1.627-24.352,5.465-30.613,9.845,6.532-3.8,16.871-7.029,28.475-8.484" transform="translate(-69.575 -19.589)" fill="#fe9900" fill-rule="evenodd"/>
    <path id="Trazado_1067230" data-name="Trazado 1067230" d="M6.892,109.592l9.747-.089c3.843-.035,3.595-5.67-.019-5.637l-9.746.09c-3.843.035-3.595,5.67.018,5.636" transform="translate(-2.054 -52.219)" fill="#d58881" fill-rule="evenodd"/>
    <path id="Trazado_1067231" data-name="Trazado 1067231" d="M53.251,56.022q.1-.581.228-1.118t.3-1.042a9.536,9.536,0,0,1,1.673-3.077,7.679,7.679,0,0,1,2.562-2.014,8.748,8.748,0,0,1,2.81-.8,11.5,11.5,0,0,1,3.2.094q.539.089,1.075.224c.361.09.718.2,1.068.314h0a.153.153,0,0,1,.088.077.149.149,0,0,1,.008.115l0,.01a18.022,18.022,0,0,1-3.2,5.4c-2.133,2.377-5.351,4.181-9.726,1.988a.149.149,0,0,1-.082-.164" transform="translate(-26.771 -24.08)" fill="#80b500" fill-rule="evenodd"/>
    <path id="Trazado_1067232" data-name="Trazado 1067232" d="M40.345,81.665a7.014,7.014,0,0,0-2.721.546,4.142,4.142,0,0,0-4.865-1.024A7.595,7.595,0,0,0,18.2,84.222q0,.223.013.443A4.144,4.144,0,0,0,13.661,89.6c-.074-.005-.148-.008-.223-.008a3.071,3.071,0,0,0-2.37,5.023c2.644.355,5.241.249,6.606.456,1.6.245,14.843-5.971,27.029-11.9a7.007,7.007,0,0,0-4.358-1.512" transform="translate(-5.213 -38.525)" fill="#425a4d" fill-rule="evenodd"/>
    <path id="Trazado_1067233" data-name="Trazado 1067233" d="M27.838,38.48c.028-.472.037-.93.03-1.375s-.035-.887-.078-1.305a11.492,11.492,0,0,0-1.145-4.063,9.238,9.238,0,0,0-2.474-3.049,10.526,10.526,0,0,0-3.088-1.695,13.8,13.8,0,0,0-3.783-.741c-.439-.026-.881-.033-1.323-.023s-.9.038-1.339.085h0a.183.183,0,0,0-.164.2l0,.013a21.692,21.692,0,0,0,2.322,7.2c1.873,3.361,5.174,6.339,10.9,4.929a.183.183,0,0,0,.139-.171" transform="translate(-7.278 -13.184)" fill="#ccdd63" fill-rule="evenodd"/>
    <path id="Trazado_1067234" data-name="Trazado 1067234" d="M43.553,70.269V56.708c0-3.821-1.807-5.844-3.615-7.568" transform="translate(-20.079 -24.706)" fill="none" stroke="#663b55" stroke-linecap="round" stroke-linejoin="round" stroke-width="2.126"/>
    <path id="Trazado_1067235" data-name="Trazado 1067235" d="M47.208,77.372V68.319c0-2.551,1.807-3.9,3.614-5.051" transform="translate(-23.734 -31.809)" fill="none" stroke="#663b55" stroke-linecap="round" stroke-linejoin="round" stroke-width="2.126"/>
    <path id="Trazado_1067236" data-name="Trazado 1067236" d="M17.693,99.717a6.049,6.049,0,0,1,8.384-5.577,3.562,3.562,0,0,1,4.182-.88,6.528,6.528,0,0,1,5.984-3.918" transform="translate(-8.895 -44.917)" fill="none" stroke="#663b55" stroke-linecap="round" stroke-linejoin="round" stroke-width="1.417"/>
    <path id="Trazado_1067237" data-name="Trazado 1067237" d="M68.268,94.623l3.382,2.994,10.644,2.526a2.215,2.215,0,0,0,2.976-2.152V91.2a3.071,3.071,0,0,0-2.779-3.006h0L70.724,86.914Z" transform="translate(-34.322 -43.697)" fill="#e9baa8" fill-rule="evenodd"/>
    <path id="Trazado_1067238" data-name="Trazado 1067238" d="M75.068,106.367l10.644,2.526a2.216,2.216,0,0,0,2.977-2.151V105.7c-2-.542-4.267-1.14-5.116-1.293a8.428,8.428,0,0,0-3.463.269Z" transform="translate(-37.741 -52.446)" fill="#d58881" fill-rule="evenodd"/>
    <path id="Trazado_1067239" data-name="Trazado 1067239" d="M6.485,115.518l9.748-.09c3.842-.035,3.594-5.669-.02-5.637l-9.746.09c-3.843.035-3.595,5.67.018,5.637" transform="translate(-1.849 -55.199)" fill="#e9baa8" fill-rule="evenodd"/>
    <path id="Trazado_1067240" data-name="Trazado 1067240" d="M20.849,115.13l9.731-.572c3.836-.226,3.309-5.841-.3-5.629l-9.731.572c-3.836.226-3.309,5.841.3,5.629" transform="translate(-8.999 -54.762)" fill="#e9baa8" fill-rule="evenodd"/>
    <path id="Trazado_1067241" data-name="Trazado 1067241" d="M8.1,118.609a18.306,18.306,0,0,0-.163-1.885,1.025,1.025,0,0,0-.876-.777l-.771,0A1.723,1.723,0,0,0,4.6,117.365a2.819,2.819,0,0,0,2.346,1.249Z" transform="translate(-2.315 -58.294)" fill="#d58881" fill-rule="evenodd"/>
    <path id="Trazado_1067242" data-name="Trazado 1067242" d="M41.886,108.627l14.682-5.664c-1.345-1.759-2.034-3.365-1-4.842.7-1-2.832-.562-7.2.288l-8.709,4.484c-2.753,1.417-1.094,7.015,2.228,5.733" transform="translate(-19.241 -49.042)" fill="#e9baa8" fill-rule="evenodd"/>
    <path id="Trazado_1067243" data-name="Trazado 1067243" d="M43.833,99.62a1.734,1.734,0,0,1,.438-1.108l-4.2-.293c-.909.143-1.913.323-2.967.529l-8.71,4.484a2.369,2.369,0,0,0-.561.4l-6.105.359a2.362,2.362,0,0,0-.245-.008l-5.614.051a2.835,2.835,0,0,0,1.258,1.629h0a3.238,3.238,0,0,0,2,.417l7.879-.17.072,0,.19,0,.186,0,.182,0,.178,0,.174,0,.169,0,.164,0,.159,0,.152,0,.147,0,.141,0,.134,0,.128,0,.121,0,.115,0,.106,0,.1,0,.091,0H29.8l.075,0H30a9.867,9.867,0,0,0,1.954-.66l-.017-.038c2.984-1.275,8.577-3.992,11.895-5.528" transform="translate(-7.979 -49.38)" fill="#d58881" fill-rule="evenodd"/>
    <path id="Trazado_1067244" data-name="Trazado 1067244" d="M44.228,97.328,60.978,91.3c4.233-1.524-1.435-8.7-7.873-5.57l-11.12,5.408c-2.98,1.449-1.341,7.479,2.244,6.189" transform="translate(-20.33 -42.709)" fill="#e9baa8" fill-rule="evenodd"/>
    <path id="Trazado_1067245" data-name="Trazado 1067245" d="M27.564,104.578l7.243-.548a3.045,3.045,0,1,0-.459-6.072l-7.243.548a3.045,3.045,0,0,0,.459,6.072" transform="translate(-12.212 -49.245)" fill="#e9baa8" fill-rule="evenodd"/>
    <path id="Trazado_1067246" data-name="Trazado 1067246" d="M28.225,106.816l1.425-.107c.448-.034.49-.547.49-.547s-.172-1.606-.359-2.338a1.11,1.11,0,0,0-1-.768l-.83.063a1.861,1.861,0,0,0-1.71,1.989h0a1.859,1.859,0,0,0,1.988,1.709" transform="translate(-13.188 -51.812)" fill="#d58881" fill-rule="evenodd"/>
    <path id="Trazado_1067247" data-name="Trazado 1067247" d="M44.563,43.441A96.661,96.661,0,0,1,156.971,28.977m38.05,37.6a96.745,96.745,0,0,1,.04,94.411m-172.832-8.4a96.885,96.885,0,0,1,.453-78.553" transform="translate(-7.106 -8.655)" fill="none" stroke="#8e9c94" stroke-linecap="round" stroke-linejoin="round" stroke-width="2.126" stroke-dasharray="2.126 6.378"/>
  </g>
</svg>
