<svg xmlns="http://www.w3.org/2000/svg" xmlns:xlink="http://www.w3.org/1999/xlink" width="110" height="110" viewBox="0 0 110 110">
  <defs>
    <clipPath id="clip-path">
      <rect id="Rect치ngulo_401851" data-name="Rect치ngulo 401851" width="65.099" height="65.12" fill="#fff"/>
    </clipPath>
  </defs>
  <g id="Grupo_1211331" data-name="Grupo 1211331" transform="translate(-230.051 -2767)">
    <circle id="Elipse_11507" data-name="Elipse 11507" cx="55" cy="55" r="55" transform="translate(230.051 2767)" fill="#d02411"/>
    <g id="Grupo_1210357" data-name="Grupo 1210357" transform="translate(251.457 2789.69)">
      <rect id="Rect치ngulo_401850" data-name="Rect치ngulo 401850" width="1.971" height="1.848" transform="translate(22.407 26.523)" fill="#fff"/>
      <g id="Grupo_1210356" data-name="Grupo 1210356" transform="translate(0 0)">
        <g id="Grupo_1210355" data-name="Grupo 1210355" clip-path="url(#clip-path)">
          <path id="Trazado_1065213" data-name="Trazado 1065213" d="M50.843,8.088l2.3-2.424C54.6,7.113,55.987,8.5,57.432,9.939L55,12.175c.263.647.426,1.131.661,1.576a.7.7,0,0,0,.523.285c.994.027,1.987.013,3.03.013v6c-.962,0-1.928.022-2.892-.011-.432-.015-.565.177-.781.527a1.459,1.459,0,0,0,.474,2.216,14.125,14.125,0,0,1,1.356,1.338c.03.03.048.068.031.042L53.188,28.4c-.59-.585-1.28-1.23-1.92-1.922-.321-.348-.572-.341-1.028-.227-1.036.26-1.282.862-1.172,1.829a19.358,19.358,0,0,1,.015,2.133h-6c0-.977-.018-1.926.008-2.876.012-.411-.135-.576-.5-.8a1.491,1.491,0,0,0-2.269.5,17.548,17.548,0,0,1-1.355,1.471l-4.29-4.3c.673-.673,1.363-1.388,2.083-2.068.277-.262.24-.467.155-.818a1.535,1.535,0,0,0-2.005-1.287,13.969,13.969,0,0,1-1.985.017v-6c.992,0,1.942-.021,2.891.011.424.014.577-.153.79-.515a1.481,1.481,0,0,0-.487-2.223,17.3,17.3,0,0,1-1.435-1.328L38.976,5.7c.6.609,1.3,1.284,1.962,1.994.288.308.5.29.915.19,1.114-.272,1.388-.922,1.248-1.967a15.493,15.493,0,0,1-.016-2.008h6c0,1,.018,1.985-.008,2.974a.579.579,0,0,0,.477.674c.42.129.819.332,1.292.53M34.866,15.981v2.162h2.806c.61,1.306,1.173,2.478,1.7,3.67a.662.662,0,0,1-.161.566c-.6.622-1.239,1.211-1.865,1.811l1.608,1.625c.412-.448.8-.895,1.215-1.317.87-.886.871-.872,1.925-.287a7.769,7.769,0,0,0,1.152.526c.571.2,1.16.358,1.791.549v2.991h2.121v-2.87l4.153-1.747,1.89,2.024,1.673-1.543-2.094-1.984c.475-1.228.955-2.35,1.332-3.5.143-.44.32-.551.742-.536.817.03,1.634.008,2.461.008V15.973c-.9,0-1.767.013-2.63-.013a.617.617,0,0,1-.477-.253c-.485-1.228-.935-2.469-1.482-3.941L54.692,10,53.137,8.357,51.228,10.38c-1.264-.489-2.408-.967-3.578-1.365-.374-.126-.506-.256-.494-.641.025-.841.007-1.683.007-2.549H45.007c0,.894.017,1.741-.013,2.585a.679.679,0,0,1-.282.521c-1.224.489-2.466.938-3.874,1.463l-1.862-1.94L37.306,9.978l2.1,1.99L37.73,15.981Z" transform="translate(1.768 0.21)" fill="#fff"/>
          <path id="Trazado_1065214" data-name="Trazado 1065214" d="M53.343.918C52.049.491,50.677.3,49.341,0H46.416a3.048,3.048,0,0,1-.425.105,15.6,15.6,0,0,0-5.472,1.542,16.958,16.958,0,0,0-9.876,14.433c-.1,1.107-.014,2.231-.014,3.406A23.442,23.442,0,0,0,8.507,23.694L9.718,25.16c.207-.157.387-.3.572-.434a21.263,21.263,0,0,1,20.328-3.19,1.175,1.175,0,0,1,.651.647A17.39,17.39,0,0,0,42.92,33.837a1.13,1.13,0,0,1,.627.59,19.3,19.3,0,0,1,1.25,6.133,21.157,21.157,0,0,1-8.513,18.3,1.132,1.132,0,0,1-.847.158,20.265,20.265,0,0,0-6.119-.939,3.935,3.935,0,0,0-2.044.518,4.118,4.118,0,0,1-2.892.49V55.941c1.8,0,3.56.05,5.316-.009a11.9,11.9,0,0,0,9.914-5.743.526.526,0,0,0-.066-.807c-1.427-1.39-2.819-2.816-4.242-4.209a1.142,1.142,0,0,0-.707-.31c-1.1-.018-2.208-.04-3.3.043a10.767,10.767,0,0,0-6.584,2.676,3.6,3.6,0,0,1-.325.225V42.7c1.716,0,3.389.024,5.06-.005A11.97,11.97,0,0,0,39.549,37.05a.648.648,0,0,0-.1-1.009,25.428,25.428,0,0,1-2.771-2.8,4.445,4.445,0,0,0-4.188-1.684c-3.04.165-5.813.868-8.066,3.036-.362.349-.689.735-1.07,1.143a10.208,10.208,0,0,0-3.728-3.022c-2.435-1.176-5.043-1.168-7.655-1.108a.837.837,0,0,0-.475.27c-1.43,1.416-2.845,2.849-4.281,4.26a.5.5,0,0,0-.095.754,11.764,11.764,0,0,0,9,5.7c1.851.17,3.726.075,5.59.1.222,0,.445.02.628.028v5.11a12.088,12.088,0,0,0-8.3-3.023,4.257,4.257,0,0,0-3.853,1.569A45.146,45.146,0,0,1,6.91,49.7,11.857,11.857,0,0,0,14.4,55.546a21.57,21.57,0,0,0,3.9.385c1.347.062,2.7.015,4.058.015v3.371a4.593,4.593,0,0,1-1.017-.629,1.648,1.648,0,0,0-1.436-.6c-1.037.051-2.077.014-3.115.014H14.268v1.919c1.675,0,3.3.024,4.932-.014a1.361,1.361,0,0,1,1.258.546,1.25,1.25,0,0,0,1.15.5c1.5-.032,3.01,0,4.514-.023a2.989,2.989,0,0,0,1.024-.243,6.718,6.718,0,0,1,1.672-.725,9.458,9.458,0,0,1,4.665.53A21.234,21.234,0,0,1,9.327,57.942a20.69,20.69,0,0,1-7.119-12.77,21.322,21.322,0,0,1,5.451-18.1c-.254-.236-.469-.438-.686-.639s-.456-.414-.7-.637A23.1,23.1,0,0,0,.518,36.87C.3,37.923.17,39,0,40.059v3.433c.135.875.244,1.752.409,2.621a23.373,23.373,0,0,0,46.145-7.341c-.187-1.44-.545-2.858-.837-4.352a17.32,17.32,0,0,0,11.831-2.875C57.177,31,56.839,30.5,56.5,30a15.356,15.356,0,1,1,1.889-1.516l1.479,1.319a3.831,3.831,0,0,1,.375-.522A17.281,17.281,0,0,0,53.343.918M21.816,40.63c-.059.071-.085.126-.11.126a60.407,60.407,0,0,1-6.4-.24,9.29,9.29,0,0,1-5.97-3.791c1.038-1.029,2.013-2,3-2.963a.746.746,0,0,1,.427-.23,12.266,12.266,0,0,1,6.37,1.1,7.49,7.49,0,0,1,3.04,2.811,2.426,2.426,0,0,1,.224,1.08,15.021,15.021,0,0,0-8.118-2.829v1.888a12.9,12.9,0,0,1,7.538,3.052m.48,11.179a14.163,14.163,0,0,0-8.029-2.87v1.887a13.075,13.075,0,0,1,7.667,3.15c-.332.024-.51.053-.687.046a55.056,55.056,0,0,1-6.01-.271,9.3,9.3,0,0,1-5.886-3.76c1.041-1.043,2.053-2.061,3.074-3.069a.535.535,0,0,1,.335-.138,12.675,12.675,0,0,1,6.024.92,7.65,7.65,0,0,1,3.348,2.922,5.016,5.016,0,0,1,.364,1.085l-.2.1m2.342-14.437a8.093,8.093,0,0,1,5.776-3.651,26.52,26.52,0,0,1,3.418-.19.941.941,0,0,1,.609.244c.995.95,1.967,1.925,3,2.943a9.724,9.724,0,0,1-6.926,3.959c-1.83.136-3.68.026-5.492.026.685-1.169,4.1-2.63,7.487-3.153v-1.84a9.647,9.647,0,0,0-4.26.817c-1.311.567-2.561,1.277-3.995,2a5.094,5.094,0,0,1,.385-1.16M24.627,50.64a8.163,8.163,0,0,1,5.957-3.7,28.316,28.316,0,0,1,3.295-.158.684.684,0,0,1,.46.14c1.027,1.005,2.039,2.026,3.078,3.066a9.5,9.5,0,0,1-6.45,3.877,58.247,58.247,0,0,1-6.06.041,12.9,12.9,0,0,1,7.6-3.076V48.943a14.051,14.051,0,0,0-8.046,2.873l-.184-.078a4.372,4.372,0,0,1,.349-1.1" transform="translate(0 0)" fill="#fff"/>
          <path id="Trazado_1065215" data-name="Trazado 1065215" d="M45.665,21.667A5.033,5.033,0,0,1,45.658,11.6a5.033,5.033,0,1,1,.007,10.065m0-1.922a3.118,3.118,0,0,0,3.113-3.111,3.157,3.157,0,0,0-3.131-3.113,3.116,3.116,0,0,0-3.093,3.13,3.075,3.075,0,0,0,3.111,3.094" transform="translate(2.183 0.623)" fill="#fff"/>
        </g>
      </g>
    </g>
  </g>
</svg>
