<svg xmlns="http://www.w3.org/2000/svg" xmlns:xlink="http://www.w3.org/1999/xlink" width="110" height="110" viewBox="0 0 110 110">
  <defs>
    <clipPath id="clip-path">
      <rect id="Rectángulo_401852" data-name="Rectángulo 401852" width="64.097" height="65.5" fill="#fff"/>
    </clipPath>
  </defs>
  <g id="Grupo_1211332" data-name="Grupo 1211332" transform="translate(-230.051 -2897)">
    <circle id="Elipse_11508" data-name="Elipse 11508" cx="55" cy="55" r="55" transform="translate(230.051 2897)" fill="#d02411"/>
    <g id="Grupo_1210359" data-name="Grupo 1210359" transform="translate(255.27 2921.499)">
      <g id="Grupo_1210358" data-name="Grupo 1210358" transform="translate(0 0)" clip-path="url(#clip-path)">
        <path id="Trazado_1065216" data-name="Trazado 1065216" d="M56.581,37.035a11.552,11.552,0,0,1-6.367,20.228,26.508,26.508,0,0,1-.02,3.17,5.708,5.708,0,0,1-5.7,5.053q-13.959.035-27.919-.008a1.873,1.873,0,0,1-1.116-.412Q7.991,58.794.552,52.484A1.678,1.678,0,0,1,0,51.054q.014-6.759.006-13.52,0-15.713,0-31.427A5.8,5.8,0,0,1,5.024.064,7.241,7.241,0,0,1,6.19,0Q25.118,0,44.046,0A5.882,5.882,0,0,1,50.3,6.211c.006,1.877-.017,3.752,0,5.627a1,1,0,0,0,.248.619c.564.606,1.166,1.175,1.747,1.766A9.413,9.413,0,0,1,54.873,23.8c-.027.094-.036.191-.067.375.545-.12,1.048-.238,1.553-.344a13.171,13.171,0,0,1,5.209.342c.5.094,1.009.169,1.5.284a1.107,1.107,0,0,1,1,1.367A45.25,45.25,0,0,1,62.937,31.4a8.046,8.046,0,0,1-5.655,5.439c-.209.066-.422.119-.7.2m-13.3-12.794c-.061-.245-.078-.336-.1-.423a8.441,8.441,0,0,1,2.341-8.959c.725-.722,1.456-1.438,2.158-2.181A1.114,1.114,0,0,0,47.984,12c.014-1.925,0-3.848-.017-5.773a3.579,3.579,0,0,0-3.925-3.891q-18.9,0-37.791,0c-2.5,0-3.9,1.386-3.9,3.875q0,21.638,0,43.274v.8c3.45,0,6.784,0,10.12,0a4.723,4.723,0,0,1,5.083,5.052c.006,2.339,0,4.678,0,7.017v.8H31.7c4.214,0,8.43.008,12.645,0a3.429,3.429,0,0,0,3.553-3.1,24.813,24.813,0,0,0,.019-2.833c-4.816-.822-8.213-3.4-9.645-8.086s-.025-8.711,3.488-12.064a8.488,8.488,0,0,1-6.7-6.384c-.408-1.575-.638-3.2-.923-4.8a1.1,1.1,0,0,1,.894-1.375c2.691-.5,5.369-1.391,8.255-.269m14.98,21.58a9.084,9.084,0,1,0-9.131,9.067,9.116,9.116,0,0,0,9.131-9.067m3.333-19.238c-2.823-.678-5.519-.967-7.975.952-2.142,1.672-2.652,4.058-3.028,6.581,1.244.231,2.383.491,3.536.647a6.081,6.081,0,0,0,6.691-4.338c.341-1.236.514-2.516.777-3.842m-12.458,1.25c5.306-4.323,4.772-9.614,0-13.374-.959,1.052-2.008,2.045-2.872,3.18a5.516,5.516,0,0,0-.012,6.967c.859,1.138,1.9,2.136,2.889,3.227m-1.6,6.356c-.164-5.806-4.413-9.623-10.938-7.53a29.111,29.111,0,0,0,1.1,4.472,5.587,5.587,0,0,0,5.545,3.647,33.573,33.573,0,0,0,4.292-.589M4.355,52.632c3.683,3.116,7.2,6.094,10.845,9.178,0-2.452.042-4.689-.014-6.923a2.293,2.293,0,0,0-2.4-2.25c-2.264-.016-4.528,0-6.792,0H4.355" transform="translate(-0.001 -0.001)" fill="#fff"/>
        <path id="Trazado_1065217" data-name="Trazado 1065217" d="M28.174,6.656c-1.717,0-3.32,0-4.925,0-.961,0-1.459-.391-1.477-1.13-.017-.773.5-1.2,1.486-1.206q3.762-.007,7.527,0c1.063,0,1.494.408,1.5,1.442.014,2.558,0,5.116,0,7.673a2.284,2.284,0,0,1-.011.292,1.162,1.162,0,0,1-1.217,1.108,1.118,1.118,0,0,1-1.1-1.206c-.022-1.463-.009-2.923-.011-4.386V8.332c-.319.309-.5.483-.681.661-2.411,2.411-4.834,4.813-7.227,7.242a1.741,1.741,0,0,1-1.9.525c-2.088-.567-4.2-1.052-6.289-1.6a.922.922,0,0,0-1.147.422q-2.482,3.389-5.042,6.72c-.222.292-.581.65-.889.661a1.462,1.462,0,0,1-1.155-.488,1.547,1.547,0,0,1,.045-1.325c.555-.911,1.258-1.73,1.9-2.588q1.95-2.6,3.9-5.2c.673-.9.884-.972,1.986-.7,2.17.542,4.336,1.1,6.514,1.616a1.031,1.031,0,0,0,.828-.161c2.414-2.372,4.8-4.773,7.194-7.17a2.143,2.143,0,0,0,.181-.291" transform="translate(3.092 2.426)" fill="#fff"/>
        <path id="Trazado_1065218" data-name="Trazado 1065218" d="M22.43,22.431q0,3.178,0,6.356c0,1.508-.3,1.809-1.775,1.811-1.291,0-2.581.008-3.872,0-.919-.008-1.359-.417-1.363-1.338q-.019-6.832,0-13.663c0-.961.439-1.364,1.406-1.369q2.081-.014,4.164,0c1.009,0,1.43.4,1.436,1.411.014,2.266,0,4.531,0,6.8m-2.4-5.822H17.811V28.234H20.03Z" transform="translate(8.669 7.998)" fill="#fff"/>
        <path id="Trazado_1065219" data-name="Trazado 1065219" d="M16.443,23.1c0,1.436.008,2.873,0,4.309-.008,1.113-.4,1.5-1.492,1.5q-2.044.007-4.091,0c-1,0-1.422-.408-1.427-1.422q-.019-4.42,0-8.839c0-1.017.422-1.425,1.419-1.43q2.081-.012,4.164,0c1,0,1.414.408,1.425,1.42.016,1.486,0,2.972,0,4.458M11.85,26.533h2.2V19.584h-2.2Z" transform="translate(5.3 9.683)" fill="#fff"/>
        <path id="Trazado_1065220" data-name="Trazado 1065220" d="M10.452,23.568c0,.925.019,1.85-.006,2.775a1.173,1.173,0,0,1-1.317,1.3q-2.191.021-4.383,0a1.147,1.147,0,0,1-1.3-1.25q-.037-2.848,0-5.7c.011-.822.469-1.225,1.313-1.233q2.191-.019,4.383,0a1.154,1.154,0,0,1,1.3,1.25c.03.948.006,1.9.006,2.848Zm-4.613,1.7H8.081v-3.42H5.84Z" transform="translate(1.93 10.945)" fill="#fff"/>
        <path id="Trazado_1065221" data-name="Trazado 1065221" d="M31.543,28.268v2.5c.727,0,1.469-.02,2.208,0a2.351,2.351,0,0,1,2.563,2.6c.008.681.011,1.364,0,2.045a2.323,2.323,0,0,1-1.945,2.455c-.164.042-.4.144-.441.272a1.2,1.2,0,0,1-1.278.975c-.681-.053-.986-.547-1.108-1.148-1.514-.367-2.213-1.008-2.364-2.152a1.187,1.187,0,0,1,.809-1.377,1.165,1.165,0,0,1,1.436.683c.088.161.258.38.4.388.675.041,1.352.019,2.086.019V33.11c-.7,0-1.4.019-2.1,0a2.45,2.45,0,0,1-2.664-2.7c-.006-.633-.009-1.266,0-1.9a2.416,2.416,0,0,1,2.03-2.553.711.711,0,0,0,.428-.366c.216-.531.6-.941,1.139-.83.406.083.741.508,1.108.778a2.231,2.231,0,0,0,.63.439,2.37,2.37,0,0,1,1.823,2.342,1.1,1.1,0,0,1-.886,1.1.987.987,0,0,1-1.264-.6c-.192-.573-.538-.586-1-.569-.5.019-1.011,0-1.616,0" transform="translate(16.392 13.919)" fill="#fff"/>
      </g>
    </g>
  </g>
</svg>
