<svg xmlns="http://www.w3.org/2000/svg" xmlns:xlink="http://www.w3.org/1999/xlink" width="110" height="110" viewBox="0 0 110 110">
  <defs>
    <clipPath id="clip-path">
      <rect id="Rectángulo_401854" data-name="Rectángulo 401854" width="60.892" height="77.927" fill="#fff"/>
    </clipPath>
  </defs>
  <g id="Grupo_1211334" data-name="Grupo 1211334" transform="translate(-230.051 -3175)">
    <circle id="Elipse_11510" data-name="Elipse 11510" cx="55" cy="55" r="55" transform="translate(230.051 3175)" fill="#d02411"/>
    <g id="Grupo_1210363" data-name="Grupo 1210363" transform="translate(250 3189.5)">
      <g id="Grupo_1210362" data-name="Grupo 1210362" transform="translate(0 0)" clip-path="url(#clip-path)">
        <path id="Trazado_1065225" data-name="Trazado 1065225" d="M13.075,60.845a4.318,4.318,0,0,1-1.886-1.979Q5.929,49.695.623,40.551C-.46,38.675-.156,37.566,1.73,36.477c1.383-.8,2.763-1.6,4.147-2.4,1.684-.971,2.9-.646,3.876,1.028.115.2.235.389.4.665.22-.146.424-.276.621-.416,2.032-1.431,4.049-2.884,6.1-4.289a7.877,7.877,0,0,1,6.813-1.142c4.305,1.158,8.628,2.257,12.945,3.372a5.777,5.777,0,0,1,3.9,2.983c.6-.383,1.15-.729,1.7-1.086q5.992-3.9,11.984-7.809a3.93,3.93,0,0,1,5.463.68c1.6,1.861,1.664,4.047-.089,5.737-1.621,1.56-3.42,2.943-5.189,4.345C49.03,42.4,43.628,46.61,38.26,50.866a8.285,8.285,0,0,1-7.5,1.634c-1.723-.422-3.456-.81-5.163-1.291a4.457,4.457,0,0,0-3.781.539c-.577.363-1.173.692-1.815,1.069.287.5.555.956.806,1.418a2.369,2.369,0,0,1-.913,3.4c-1.854,1.089-3.73,2.14-5.6,3.208Zm5.836-9.893c.767-.439,1.49-.854,2.214-1.263a6.04,6.04,0,0,1,4.624-.634c1.743.443,3.5.843,5.233,1.311a6.51,6.51,0,0,0,6.123-1.3c5.471-4.364,11-8.661,16.486-13.009,1.569-1.242,3.118-2.516,4.584-3.875.848-.783.721-1.756-.113-2.713a1.8,1.8,0,0,0-2.567-.366q-6.953,4.519-13.9,9.039a1.029,1.029,0,0,0-.535.9,4.713,4.713,0,0,1-4.013,4.51,7.992,7.992,0,0,1-2.935-.13c-2.715-.624-5.4-1.37-8.094-2.081-.777-.205-1.109-.741-.917-1.4.174-.595.726-.843,1.482-.664.074.016.145.044.218.064,2.7.693,5.384,1.437,8.1,2.066,2.736.634,4.688-1.311,3.865-3.779a3.329,3.329,0,0,0-2.5-2.219q-6.689-1.752-13.382-3.489a5.046,5.046,0,0,0-4.179.558c-2.515,1.654-4.97,3.4-7.488,5.131,2.592,4.487,5.136,8.893,7.7,13.333M2.058,38.757,13.625,58.788c1.684-.969,3.247-1.9,4.845-2.773.583-.317.572-.59.264-1.112-1.758-2.993-3.479-6.005-5.213-9.009q-2.794-4.836-5.593-9.67c-.168-.291-.269-.71-.775-.414-1.659.967-3.326,1.923-5.1,2.947" transform="translate(0 17.083)" fill="#fff"/>
        <path id="Trazado_1065226" data-name="Trazado 1065226" d="M32.631,19.808v2.814h.925q9.4,0,18.8,0c1.3,0,1.621.374,1.45,1.661a22.527,22.527,0,0,1-44.446.951,9.919,9.919,0,0,1-.194-1.506.977.977,0,0,1,1-1.1c.251-.021.508-.011.76-.011H30.448c0-.9.028-1.751-.023-2.6-.01-.148-.332-.333-.54-.4A9.221,9.221,0,0,1,23.4,12.335c-.251-1.16.353-1.746,1.524-1.493a9.913,9.913,0,0,1,5.537,3.2c0-.516-.03-.833.007-1.143.056-.443-.156-.611-.547-.749a7.2,7.2,0,0,1-4.844-5.5c-.3-1.273.291-1.866,1.551-1.578a7.342,7.342,0,0,1,4.86,3.372c.148-.177.273-.314.381-.463A7.477,7.477,0,0,1,36.66,5.01a1.07,1.07,0,0,1,1.349,1.368,7.355,7.355,0,0,1-5.369,5.944v1.644a9.289,9.289,0,0,1,4.734-2.929c.664-.169,1.373-.588,2.012.026s.245,1.345.062,2a9.009,9.009,0,0,1-5.869,6.4l-.948.345m1.485,21.529a15.832,15.832,0,0,1,.274-2.032,9.955,9.955,0,0,1,4.218-5.844,7.422,7.422,0,0,0,3.16-3.959,9.8,9.8,0,0,1,2.9-4.551c.021-.018,0-.085,0-.138H34.37c.908,2.293.749,3.145-.9,4.992-.169.189-.329.386-.5.572a2.182,2.182,0,0,0-.457,2.162,8.065,8.065,0,0,1,.028,3.131c-.25,1.291-1.311,1.657-2.434.951-1.5-.941-2.948-1.971-4.433-2.937-1.064-.692-1.79-.609-2.439.48-.834,1.4-1.5,2.9-2.26,4.41a20.744,20.744,0,0,0,13.137,2.764m-3.382-6.818a8.326,8.326,0,0,0-.24-1.373,3.767,3.767,0,0,1,.662-3.917,13.3,13.3,0,0,0,1.214-1.457,2.206,2.206,0,0,0,.3-1.386,2.778,2.778,0,0,0-2.208-1.618c-3.576-.008-7.15-.015-10.721.018a1.04,1.04,0,0,0-.777.511,15.943,15.943,0,0,0-.795,2.447c-.514,2.17-.956,4.361-2.62,6.194,1.222,1.188,2.406,2.336,3.671,3.563A17.862,17.862,0,0,1,20,35.622a22.078,22.078,0,0,1,2.107-3.4,3.2,3.2,0,0,1,4.215-.637c.554.3,1.073.672,1.6,1.023.877.585,1.748,1.183,2.81,1.905m5.6,6.36c8.75-2,14.464-9.88,15.09-16.015a5.143,5.143,0,0,0-5.259,1.6,8.89,8.89,0,0,0-2.213,3.3,9.2,9.2,0,0,1-2.861,4.487c-.57.463-1.2.854-1.761,1.324a7.34,7.34,0,0,0-3,5.309M11.455,24.788a19.824,19.824,0,0,0,2.886,7.26c1.578-2.242,1.485-4.9,2.464-7.26Zm21.673-7.447a7,7,0,0,0,3.945-3.952,7.009,7.009,0,0,0-3.945,3.952m-3.43-.2a5.825,5.825,0,0,0-3.586-3.582A5.869,5.869,0,0,0,29.7,17.137m5.583-9.031c-.107-.1-.21-.2-.317-.3q-.811.825-1.621,1.649c.108.108.217.217.327.325q.8-.835,1.611-1.672m-7.226-.281c-.077.077-.153.156-.227.233.527.522,1.059,1.045,1.59,1.567.076-.08.154-.161.235-.243q-.8-.779-1.6-1.557" transform="translate(5.888 3.198)" fill="#fff"/>
        <path id="Trazado_1065227" data-name="Trazado 1065227" d="M24.966,4.9A20.435,20.435,0,0,0,11.589,19.333c-.036.146-.076.294-.125.439a1.039,1.039,0,0,1-1.353.765A1.015,1.015,0,0,1,9.4,19.215a22.091,22.091,0,0,1,2.8-6.784A22.543,22.543,0,0,1,23.436,3.161c.237-.09.468-.189.7-.287.02-.008.03-.039.087-.123-.677-.212-1.334-.412-1.987-.621C21.4,1.861,21.045,1.346,21.253.7c.194-.608.775-.843,1.564-.611,1.941.575,3.885,1.15,5.821,1.741,1.245.379,1.449,1.22.519,2.132q-2.176,2.129-4.374,4.234c-.591.57-1.214.619-1.67.161-.478-.48-.419-1.066.158-1.669.522-.545,1.041-1.1,1.7-1.787" transform="translate(6.014 0)" fill="#fff"/>
        <path id="Trazado_1065228" data-name="Trazado 1065228" d="M42.885,14.617c.212-.931.366-1.639.537-2.344.2-.821.647-1.168,1.309-1.04.644.125.936.677.765,1.48-.429,2.006-.856,4.011-1.3,6.013-.268,1.2-1.125,1.467-2.063.647q-2.289-2.006-4.556-4.034c-.616-.552-.716-1.166-.306-1.656.432-.512,1.079-.489,1.736.072.5.429.992.869,1.488,1.3a.855.855,0,0,0,.131.076l.186-.113c-.813-1.286-1.537-2.641-2.456-3.847A20.083,20.083,0,0,0,25.247,3.343c-1.117-.187-1.57-.588-1.431-1.35.128-.7.7-.959,1.784-.765A22.42,22.42,0,0,1,42.172,13.188c.215.4.406.81.713,1.429" transform="translate(15.287 0.749)" fill="#fff"/>
        <path id="Trazado_1065229" data-name="Trazado 1065229" d="M3.2,35a1.026,1.026,0,0,1,1.069-1.03A1.073,1.073,0,0,1,4.3,36.12,1.109,1.109,0,0,1,3.2,35" transform="translate(2.058 21.831)" fill="#fff"/>
      </g>
    </g>
  </g>
</svg>
