<svg xmlns="http://www.w3.org/2000/svg" xmlns:xlink="http://www.w3.org/1999/xlink" width="110" height="110" viewBox="0 0 110 110">
  <defs>
    <clipPath id="clip-path">
      <rect id="Rectángulo_401855" data-name="Rectángulo 401855" width="66.159" height="66.031" fill="#fff"/>
    </clipPath>
  </defs>
  <g id="Grupo_1211335" data-name="Grupo 1211335" transform="translate(-230.051 -3332)">
    <circle id="Elipse_11511" data-name="Elipse 11511" cx="55" cy="55" r="55" transform="translate(230.051 3332)" fill="#d02411"/>
    <g id="Grupo_1210365" data-name="Grupo 1210365" transform="translate(845.051 2944.129)">
      <g id="Grupo_1210364" data-name="Grupo 1210364" transform="translate(-595 407.797)" clip-path="url(#clip-path)">
        <path id="Trazado_1065230" data-name="Trazado 1065230" d="M4.5,40.04C2.463,39.484.85,38.3.427,36.2a21.916,21.916,0,0,1,0-8.6,4.895,4.895,0,0,1,4.09-3.806.958.958,0,0,0,.832-.73c2.105-6.2,6.37-10.041,12.808-11.191A16.137,16.137,0,0,1,36.714,22.92a1.136,1.136,0,0,0,1,.9,5.4,5.4,0,0,1,4.233,5.183c.032,1.925.059,3.852-.008,5.775a5.358,5.358,0,0,1-3.07,4.783,2.192,2.192,0,0,0-1.326,2.1c.029,3.736,0,7.472.02,11.209a2.335,2.335,0,0,0,.3,1.087,14.422,14.422,0,0,1,1.885,6.813c.023.968-.383,1.374-1.368,1.374q-17.326,0-34.65,0c-.909,0-1.406-.4-1.362-1.334a14.172,14.172,0,0,1,.493-3.373c.387-1.305,1.018-2.539,1.536-3.806a1.615,1.615,0,0,0,.148-.581q.01-6.4,0-12.79A1.387,1.387,0,0,0,4.5,40.04m12.146,6.678a6.124,6.124,0,0,1,.008-.91c.121-.744-.186-1.085-.874-1.424a11.306,11.306,0,0,1-6.533-8.476,45.082,45.082,0,0,1-.3-6.3c-.029-.954.327-1.307,1.292-1.41a13.1,13.1,0,0,0,10.768-9c.183-.618.487-1.063,1.164-1.048.639.015.9.459,1.107,1.036a11.619,11.619,0,0,0,8.691,7.968c.9.211,1.172.485,1.175,1.384.005,1.7.019,3.393,0,5.088a11.967,11.967,0,0,1-2.808,7.649c-.2.239-.4.473-.689.808a7.413,7.413,0,0,0,5.27-1.719,5.108,5.108,0,0,1-.641-1.578c-.045-4.607-.029-9.214-.021-13.821a1.192,1.192,0,0,1,.152-.718c.336-.388.218-.738.071-1.135A14.182,14.182,0,0,0,18.99,13.909c-5.593.876-9.409,4.123-11.434,9.429a1.363,1.363,0,0,0,.012.69,6.562,6.562,0,0,1,.264,1.1c.019,4.493.013,8.985.012,13.478,0,1.017-.135,1.215-1.043,1.58V50.666a14.5,14.5,0,0,1,9.844-3.948M4.64,59.9H37.453c-.284-5.725-5.549-10.741-11.434-10.962a.825.825,0,0,0-.961.593,4.129,4.129,0,0,1-3.771,2.66,3.787,3.787,0,0,1-3.9-2.068c-.582-1.255-1.339-1.3-2.4-1.06-.29.065-.587.095-.88.155C9.033,50.258,4.883,54.924,4.64,59.9m6.506-29.589c0,1.105-.025,2.178,0,3.252a9.664,9.664,0,0,0,4.1,7.936,9.779,9.779,0,0,0,8.843,1.458c-.5-.284-.9-.483-1.276-.727-.689-.451-.849-.992-.5-1.559.339-.55.913-.649,1.626-.311.765.36,1.547.682,2.308,1.049a.826.826,0,0,0,.993-.158,9.975,9.975,0,0,0,3.3-4.95c.693-2.339.284-4.731.422-7.121a14.188,14.188,0,0,1-5.112-2.524,14.347,14.347,0,0,1-3.7-4.436,15.5,15.5,0,0,1-11.012,8.092M35.308,50.69V42.773c-.216.111-.375.19-.531.274a10.239,10.239,0,0,1-7.109,1.037c-.9-.183-1.416.5-2.13.715-.048.016-.081.158-.083.242-.007.561,0,1.121,0,1.685a14.436,14.436,0,0,1,9.858,3.964M5.606,37.906V25.861a3.225,3.225,0,0,0-3.248,3.1q-.07,2.915,0,5.835a3.232,3.232,0,0,0,3.249,3.109m30.88,0a3.211,3.211,0,0,0,3.241-3.033c.064-1.989.064-3.983,0-5.972a3.106,3.106,0,0,0-3.242-2.985ZM18.847,45.56c0,.625,0,1.307,0,1.989a3.893,3.893,0,0,0,.035.685,2.226,2.226,0,0,0,2.133,1.8,2.138,2.138,0,0,0,2.18-1.813,24.091,24.091,0,0,0,.021-2.666Z" transform="translate(0 3.883)" fill="#fff"/>
        <path id="Trazado_1065231" data-name="Trazado 1065231" d="M31.43,16.31q0-6.327,0-12.654A3.331,3.331,0,0,1,35.105,0Q43.527,0,51.95,0a3.333,3.333,0,0,1,3.685,3.647q0,9.559,0,19.118a3.324,3.324,0,0,1-3.617,3.645c-4.332,0-8.664-.008-12.995.016a1.858,1.858,0,0,0-1.043.36c-1.524,1.173-3.019,2.387-4.52,3.593a1.213,1.213,0,0,1-1.378.315,1.256,1.256,0,0,1-.658-1.319q.012-6.533.005-13.067m2.2,11.111c1.217-.972,2.28-1.875,3.407-2.691a2.631,2.631,0,0,1,1.423-.5c4.466-.036,8.933-.021,13.4-.021,1.255,0,1.574-.323,1.574-1.59q0-9.415,0-18.832c0-1.267-.318-1.587-1.574-1.588H35.231c-1.3,0-1.6.308-1.6,1.63V27.422Z" transform="translate(10.522 0)" fill="#fff"/>
        <path id="Trazado_1065232" data-name="Trazado 1065232" d="M31.43,42.731c0-3.026.005-6.052-.005-9.077,0-.582.06-1.1.659-1.387.578-.274,1,.017,1.431.36,1.482,1.192,2.959,2.391,4.466,3.551a1.857,1.857,0,0,0,1.043.359c4.308.024,8.616.015,12.925.016,2.377,0,3.684,1.319,3.685,3.715q0,5.672,0,11.346a3.325,3.325,0,0,1-3.617,3.645q-8.492,0-16.983,0a3.317,3.317,0,0,1-3.6-3.589q0-4.469,0-8.939m2.244-7.153c-.025.2-.041.267-.041.334q0,7.937,0,15.874c0,.9.424,1.273,1.4,1.273q8.486,0,16.971,0c1.063,0,1.426-.374,1.427-1.459q0-5.67,0-11.339c0-1.164-.344-1.506-1.518-1.506-4.51,0-9.022.012-13.534-.021a2.379,2.379,0,0,1-1.3-.458c-1.137-.837-2.22-1.749-3.407-2.7" transform="translate(10.522 10.768)" fill="#fff"/>
        <path id="Trazado_1065233" data-name="Trazado 1065233" d="M40.461,18.7c-.681,0-1.317.007-1.956,0-.794-.012-1.3-.457-1.292-1.113s.517-1.079,1.321-1.084c1.145-.008,2.292.005,3.437-.005a1.656,1.656,0,1,0,.011-3.3c-.3-.005-.6,0-.893,0a3.845,3.845,0,0,1-1.03-7.553c.108-.032.22-.055.435-.105,0-.319-.007-.653,0-.986.019-.765.43-1.24,1.077-1.253.669-.013,1.1.481,1.12,1.28.007.274,0,.546,0,.916.685,0,1.34-.007,2,0,.79.011,1.3.462,1.284,1.12A1.133,1.133,0,0,1,44.712,7.7c-1.145.012-2.291,0-3.437.005A1.662,1.662,0,1,0,41.26,11a9.487,9.487,0,0,1,1.574.083,3.814,3.814,0,0,1,3.125,3.605A3.883,3.883,0,0,1,43.2,18.533c-.149.047-.3.083-.475.129-.137.892.311,2.124-1.176,2.223-.753.051-.988-.459-1.092-2.181" transform="translate(12.46 1.105)" fill="#fff"/>
        <path id="Trazado_1065234" data-name="Trazado 1065234" d="M42.656,45.9q-2.851,0-5.7,0c-.861,0-1.379-.414-1.387-1.088s.511-1.109,1.364-1.111q5.773,0,11.545,0c.848,0,1.368.443,1.352,1.121-.016.654-.521,1.075-1.33,1.077-1.948.005-3.894,0-5.841,0" transform="translate(11.909 14.631)" fill="#fff"/>
        <path id="Trazado_1065235" data-name="Trazado 1065235" d="M41.92,40.4c.848,0,1.694-.011,2.542,0a1.1,1.1,0,1,1,0,2.193q-2.611.018-5.221,0a1.1,1.1,0,1,1,0-2.192c.893-.016,1.786,0,2.679,0" transform="translate(12.736 13.526)" fill="#fff"/>
      </g>
    </g>
  </g>
</svg>
