<svg id="Grupo_1211256" data-name="Grupo 1211256" xmlns="http://www.w3.org/2000/svg" xmlns:xlink="http://www.w3.org/1999/xlink" width="429.18" height="283.639" viewBox="0 0 429.18 283.639">
  <defs>
    <clipPath id="clip-path">
      <rect id="Rectángulo_402665" data-name="Rectángulo 402665" width="429.18" height="283.639" fill="none"/>
    </clipPath>
    <clipPath id="clip-path-3">
      <rect id="Rectángulo_402578" data-name="Rectángulo 402578" width="429.18" height="268.514" fill="none"/>
    </clipPath>
    <clipPath id="clip-path-4">
      <rect id="Rectángulo_402579" data-name="Rectángulo 402579" width="408.543" height="261.854" fill="none"/>
    </clipPath>
    <clipPath id="clip-path-5">
      <path id="Trazado_1067277" data-name="Trazado 1067277" d="M38.812,18.685C32.99,36.11,3.251,138.9,94.7,184.137c0,0,37-62.633-53.243-165.986a1.524,1.524,0,0,0-1.162-.531,1.552,1.552,0,0,0-1.482,1.065" transform="translate(-29.568 -17.62)" fill="none"/>
    </clipPath>
    <linearGradient id="linear-gradient" x1="0.146" y1="1.396" x2="0.152" y2="1.396" gradientUnits="objectBoundingBox">
      <stop offset="0" stop-color="#80b500"/>
      <stop offset="1" stop-color="#425a4d"/>
    </linearGradient>
    <clipPath id="clip-path-7">
      <rect id="Rectángulo_402582" data-name="Rectángulo 402582" width="30.541" height="138.165" fill="none"/>
    </clipPath>
    <clipPath id="clip-path-8">
      <path id="Trazado_1067279" data-name="Trazado 1067279" d="M343.675,22.581c-2.912,14.745-11.76,53.164-28.347,74.488-27.009,34.72-42.54,88.87-21.464,114.626,0,0,101.269-26.99,52.708-189.248a1.5,1.5,0,0,0-2.9.134" transform="translate(-284.052 -21.382)" fill="none"/>
    </clipPath>
    <linearGradient id="linear-gradient-2" x1="-1.437" y1="1.591" x2="-1.431" y2="1.591" gradientUnits="objectBoundingBox">
      <stop offset="0" stop-color="#425a4d"/>
      <stop offset="0.001" stop-color="#425a4d"/>
      <stop offset="0.999" stop-color="#80b500"/>
      <stop offset="1" stop-color="#80b500"/>
    </linearGradient>
    <clipPath id="clip-path-10">
      <rect id="Rectángulo_402585" data-name="Rectángulo 402585" width="46.059" height="151.51" fill="none"/>
    </clipPath>
    <clipPath id="clip-path-11">
      <path id="Trazado_1067281" data-name="Trazado 1067281" d="M22.125,102.832A146.345,146.345,0,0,0,50.476,185.22c32.034,43.692,83.8,54.618,83.8,54.618s-1.049-22.166-23.97-44.027c-21.268-20.282-73.465-67.127-85.9-93.5a1.192,1.192,0,0,0-2.275.519" transform="translate(-22.125 -101.619)" fill="none"/>
    </clipPath>
    <linearGradient id="linear-gradient-3" x1="-0.028" y1="1.023" x2="-0.02" y2="1.023" xlink:href="#linear-gradient"/>
    <clipPath id="clip-path-13">
      <rect id="Rectángulo_402588" data-name="Rectángulo 402588" width="95.006" height="109.102" fill="none"/>
    </clipPath>
    <clipPath id="clip-path-14">
      <path id="Trazado_1067283" data-name="Trazado 1067283" d="M173.538,171.834l-5.747,51.54h66.674l-8.685-51.54Z" transform="translate(-167.791 -171.834)" fill="none"/>
    </clipPath>
    <linearGradient id="linear-gradient-4" x1="-3.093" y1="1.405" x2="-3.075" y2="1.405" gradientUnits="objectBoundingBox">
      <stop offset="0" stop-color="#687b71"/>
      <stop offset="0.016" stop-color="#687b71"/>
      <stop offset="1" stop-color="#425a4d"/>
    </linearGradient>
    <clipPath id="clip-path-15">
      <path id="Trazado_1067284" data-name="Trazado 1067284" d="M73.974,35.068A15.631,15.631,0,0,0,58.691,50.7V192.483a21.508,21.508,0,0,0,20.953,21.5c51.786,1.335,232.909,4.574,282.206,3.846a15.827,15.827,0,0,0,15.582-15.375c.95-32.938,2.493-112.143-3.219-148.914A16.286,16.286,0,0,0,358.64,39.758c-38.632-1.237-195.083-4.867-263.7-4.867-8.447,0-15.565.055-20.966.177" transform="translate(-58.691 -34.891)" fill="none"/>
    </clipPath>
    <linearGradient id="linear-gradient-5" x1="-0.225" y1="1.311" x2="-0.221" y2="1.311" xlink:href="#linear-gradient-4"/>
    <clipPath id="clip-path-17">
      <rect id="Rectángulo_402592" data-name="Rectángulo 402592" width="285.593" height="150.336" fill="none"/>
    </clipPath>
    <clipPath id="clip-path-18">
      <rect id="Rectángulo_402593" data-name="Rectángulo 402593" width="302.394" height="5.982" fill="none"/>
    </clipPath>
    <clipPath id="clip-path-19">
      <rect id="Rectángulo_402594" data-name="Rectángulo 402594" width="7.118" height="7.118" fill="none"/>
    </clipPath>
    <clipPath id="clip-path-20">
      <path id="Trazado_1067289" data-name="Trazado 1067289" d="M250.271,210.59,156.2,213.526a4.038,4.038,0,0,0-3.961,2.643l-1.253,4.953c-.511,2.027,1.479,3.915,4.129,3.915H252.7c2.693,0,4.694-1.946,4.107-3.995l-2.257-7.887a4.114,4.114,0,0,0-4.1-2.567l-.172,0" transform="translate(-150.906 -210.588)" fill="none"/>
    </clipPath>
    <linearGradient id="linear-gradient-6" x1="-1.731" y1="1.715" x2="-1.719" y2="1.715" xlink:href="#linear-gradient-4"/>
    <clipPath id="clip-path-22">
      <rect id="Rectángulo_402597" data-name="Rectángulo 402597" width="46.939" height="82.949" fill="none"/>
    </clipPath>
    <clipPath id="clip-path-23">
      <rect id="Rectángulo_402598" data-name="Rectángulo 402598" width="114.165" height="38.048" fill="none"/>
    </clipPath>
    <clipPath id="clip-path-24">
      <rect id="Rectángulo_402599" data-name="Rectángulo 402599" width="114.165" height="46.556" fill="none"/>
    </clipPath>
    <clipPath id="clip-path-25">
      <rect id="Rectángulo_402600" data-name="Rectángulo 402600" width="67.084" height="89.686" fill="none"/>
    </clipPath>
    <clipPath id="clip-path-26">
      <rect id="Rectángulo_402601" data-name="Rectángulo 402601" width="67.084" height="48.063" fill="none"/>
    </clipPath>
    <clipPath id="clip-path-27">
      <rect id="Rectángulo_402602" data-name="Rectángulo 402602" width="80.572" height="48.063" fill="none"/>
    </clipPath>
    <clipPath id="clip-path-28">
      <rect id="Rectángulo_402603" data-name="Rectángulo 402603" width="96.156" height="66.772" fill="none"/>
    </clipPath>
    <clipPath id="clip-path-29">
      <rect id="Rectángulo_402604" data-name="Rectángulo 402604" width="86.385" height="27.741" fill="none"/>
    </clipPath>
    <clipPath id="clip-path-30">
      <rect id="Rectángulo_402605" data-name="Rectángulo 402605" width="71.607" height="3.958" fill="none"/>
    </clipPath>
    <clipPath id="clip-path-31">
      <rect id="Rectángulo_402606" data-name="Rectángulo 402606" width="68.377" height="4.06" fill="none"/>
    </clipPath>
    <clipPath id="clip-path-32">
      <rect id="Rectángulo_402607" data-name="Rectángulo 402607" width="100.919" height="142.444" fill="none"/>
    </clipPath>
    <clipPath id="clip-path-33">
      <rect id="Rectángulo_402608" data-name="Rectángulo 402608" width="13.003" height="10.84" fill="none"/>
    </clipPath>
    <clipPath id="clip-path-34">
      <rect id="Rectángulo_402609" data-name="Rectángulo 402609" width="13.002" height="10.84" fill="none"/>
    </clipPath>
    <clipPath id="clip-path-36">
      <path id="Trazado_1067333" data-name="Trazado 1067333" d="M280.561,93.364a2.623,2.623,0,1,1,.022,0h-.022m-3.592-9.453a4.07,4.07,0,0,0-2.927,4.256l.8,9.616L285.311,98.8s6.424-8.546-.079-13.149a10.155,10.155,0,0,0-5.918-2.07,8.5,8.5,0,0,0-2.345.331" transform="translate(-274.028 -83.581)" fill="none"/>
    </clipPath>
    <linearGradient id="linear-gradient-7" x1="-18.859" y1="11.886" x2="-18.79" y2="11.886" xlink:href="#linear-gradient-4"/>
    <clipPath id="clip-path-38">
      <path id="Trazado_1067335" data-name="Trazado 1067335" d="M263.058,96.706l-.039,4.83,39.392,1.026-.24-4.645a2.868,2.868,0,0,0-2.742-2.717l-33.3-1.416c-.042,0-.085,0-.127,0a2.949,2.949,0,0,0-2.946,2.924" transform="translate(-263.019 -93.782)" fill="none"/>
    </clipPath>
    <linearGradient id="linear-gradient-8" x1="-8.208" y1="19.174" x2="-8.176" y2="19.174" xlink:href="#linear-gradient-4"/>
    <clipPath id="clip-path-40">
      <path id="Trazado_1067338" data-name="Trazado 1067338" d="M252,101.544l-.15,2.672a2.4,2.4,0,0,0,2.38,2.54l59.754.493a3.7,3.7,0,0,0,3.679-4.3l-.048-.285a4.3,4.3,0,0,0-4.211-3.607l-58.243-.479h-.026A3.139,3.139,0,0,0,252,101.544" transform="translate(-251.845 -98.582)" fill="none"/>
    </clipPath>
    <linearGradient id="linear-gradient-9" x1="-4.671" y1="18.688" x2="-4.652" y2="18.688" xlink:href="#linear-gradient-4"/>
    <clipPath id="clip-path-42">
      <path id="Trazado_1067340" data-name="Trazado 1067340" d="M135.815,228.814a.458.458,0,0,0,.374.688,109.086,109.086,0,0,0,12.236-.012.643.643,0,0,0,.612-.608c0-.06,0-.127.006-.2a9.009,9.009,0,0,1-3.572.349c-3.115-.136-7.067-.456-9.345-.653a3.71,3.71,0,0,0-.311.433" transform="translate(-135.751 -228.381)" fill="none"/>
    </clipPath>
    <linearGradient id="linear-gradient-10" x1="-12.441" y1="1.932" x2="-12.35" y2="1.932" gradientUnits="objectBoundingBox">
      <stop offset="0" stop-color="#53d8ff"/>
      <stop offset="1" stop-color="#ccdd63"/>
    </linearGradient>
    <clipPath id="clip-path-43">
      <path id="Trazado_1067341" data-name="Trazado 1067341" d="M145.4,224.64s-7.106,1.851-9.345,4.6c2.278.2,6.23.516,9.345.653a9.009,9.009,0,0,0,3.572-.349,8.417,8.417,0,0,0-1.565-4.9Z" transform="translate(-136.056 -224.64)" fill="none"/>
    </clipPath>
    <linearGradient id="linear-gradient-11" x1="-12.933" y1="1.333" x2="-12.838" y2="1.333" xlink:href="#linear-gradient-4"/>
    <clipPath id="clip-path-44">
      <path id="Trazado_1067342" data-name="Trazado 1067342" d="M142.52,221.974l.649,3.619a1,1,0,0,0,.675.772,3.3,3.3,0,0,0,1.508.124.849.849,0,0,0,.724-.8l.187-3.717Z" transform="translate(-142.52 -221.974)" fill="none"/>
    </clipPath>
    <linearGradient id="linear-gradient-12" x1="-46.804" y1="2.353" x2="-46.476" y2="2.353" gradientUnits="objectBoundingBox">
      <stop offset="0" stop-color="#f9b776"/>
      <stop offset="1" stop-color="#f47960"/>
    </linearGradient>
    <clipPath id="clip-path-45">
      <path id="Trazado_1067343" data-name="Trazado 1067343" d="M167.412,229.113a6.036,6.036,0,0,1-3.436-.181l.006.007a2.378,2.378,0,0,0,1.8.827,5.633,5.633,0,0,0,2.393-.375,1.282,1.282,0,0,0,.865-1.463l0-.015a1.8,1.8,0,0,1-1.621,1.2" transform="translate(-163.976 -227.914)" fill="none"/>
    </clipPath>
    <linearGradient id="linear-gradient-13" x1="-38.719" y1="1.918" x2="-38.483" y2="1.918" xlink:href="#linear-gradient-10"/>
    <clipPath id="clip-path-46">
      <path id="Trazado_1067344" data-name="Trazado 1067344" d="M164.862,221.956h-1.655a2.088,2.088,0,0,0-1.142,2.392,15.833,15.833,0,0,0,2.361,5.949,6.036,6.036,0,0,0,3.436.181,1.8,1.8,0,0,0,1.621-1.2c-.516-2.049-2.086-7.325-4.585-7.325h-.037" transform="translate(-162.008 -221.955)" fill="none"/>
    </clipPath>
    <linearGradient id="linear-gradient-14" x1="-25.534" y1="1.171" x2="-25.376" y2="1.171" xlink:href="#linear-gradient-4"/>
    <clipPath id="clip-path-47">
      <path id="Trazado_1067345" data-name="Trazado 1067345" d="M161.289,219.991l1.348,3.846a.836.836,0,0,0,.676.553,3.536,3.536,0,0,0,1.9-.462.99.99,0,0,0,.515-1.124l-.919-3.656Z" transform="translate(-161.289 -219.149)" fill="none"/>
    </clipPath>
    <linearGradient id="linear-gradient-15" x1="-43.509" y1="2.678" x2="-43.24" y2="2.678" xlink:href="#linear-gradient-12"/>
    <clipPath id="clip-path-49">
      <path id="Trazado_1067348" data-name="Trazado 1067348" d="M140.511,186.376a.431.431,0,0,0,.2.573,12.834,12.834,0,0,1,4.953,4.285.426.426,0,0,0,.366.205.418.418,0,0,0,.222-.063.429.429,0,0,0,.144-.589,13.461,13.461,0,0,0-5.312-4.611.423.423,0,0,0-.187-.043.429.429,0,0,0-.387.242" transform="translate(-140.469 -186.134)" fill="none"/>
    </clipPath>
    <linearGradient id="linear-gradient-16" x1="-26.412" y1="9.511" x2="-26.224" y2="9.511" gradientUnits="objectBoundingBox">
      <stop offset="0" stop-color="#cb236d"/>
      <stop offset="1" stop-color="#4c246d"/>
    </linearGradient>
    <clipPath id="clip-path-50">
      <path id="Trazado_1067349" data-name="Trazado 1067349" d="M150.937,167.284a38.213,38.213,0,0,1-.616,12.367l1.237,1.009a29.4,29.4,0,0,0,5.43-12.941,17.967,17.967,0,0,0-4.264-.595,9.283,9.283,0,0,0-1.786.16" transform="translate(-150.321 -167.124)" fill="none"/>
    </clipPath>
    <linearGradient id="linear-gradient-17" x1="-12.426" y1="5.616" x2="-12.341" y2="5.616" xlink:href="#linear-gradient-12"/>
    <clipPath id="clip-path-52">
      <path id="Trazado_1067352" data-name="Trazado 1067352" d="M115.59,169.035l-1.834.322s2.624,7.465,12.546,3.616a22.588,22.588,0,0,0-1.659-6.924,10.392,10.392,0,0,1-9.052,2.986" transform="translate(-113.756 -166.049)" fill="none"/>
    </clipPath>
    <linearGradient id="linear-gradient-18" x1="-11.146" y1="7.37" x2="-11.048" y2="7.37" xlink:href="#linear-gradient-12"/>
    <clipPath id="clip-path-53">
      <path id="Trazado_1067353" data-name="Trazado 1067353" d="M130.125,144.449l2.382,8.762a1.7,1.7,0,0,0,2.28,1.133,34.6,34.6,0,0,0,3.436-1.568,2.3,2.3,0,0,0,.809-3.3l-4.955-7.388Z" transform="translate(-130.125 -142.086)" fill="none"/>
    </clipPath>
    <linearGradient id="linear-gradient-19" x1="-16.426" y1="8.587" x2="-16.3" y2="8.587" xlink:href="#linear-gradient-12"/>
    <clipPath id="clip-path-55">
      <rect id="Rectángulo_402631" data-name="Rectángulo 402631" width="60.295" height="59.207" fill="none"/>
    </clipPath>
    <clipPath id="clip-path-56">
      <path id="Trazado_1067355" data-name="Trazado 1067355" d="M62.7,158.615c0,16.35,13.5,29.6,30.148,29.6s30.147-13.254,30.147-29.6-13.5-29.6-30.147-29.6S62.7,142.265,62.7,158.615" transform="translate(-62.696 -129.011)" fill="none"/>
    </clipPath>
    <linearGradient id="linear-gradient-20" x1="-1.278" y1="2.112" x2="-1.258" y2="2.112" gradientUnits="objectBoundingBox">
      <stop offset="0" stop-color="#cce199"/>
      <stop offset="1" stop-color="#f2f7e5"/>
    </linearGradient>
    <clipPath id="clip-path-57">
      <path id="Trazado_1067358" data-name="Trazado 1067358" d="M144.005,179.1s.591.817,2.44.347a26.538,26.538,0,0,1,4.383-.585s2.552,1.151,2.584-1l-1.133-.595-5.775-.471Z" transform="translate(-144.005 -176.789)" fill="none"/>
    </clipPath>
    <linearGradient id="linear-gradient-21" x1="-20.518" y1="7.552" x2="-20.376" y2="7.552" xlink:href="#linear-gradient-12"/>
    <clipPath id="clip-path-58">
      <path id="Trazado_1067359" data-name="Trazado 1067359" d="M112.431,166.307c-.518.129-.938,1.155-1.189,1.95a1.2,1.2,0,0,0,.581,1.422c1.047.563,2.757,1.378,3.257.988,1.985-1.553-1.533-4.371-2.552-4.371a.408.408,0,0,0-.1.011" transform="translate(-111.186 -166.296)" fill="none"/>
    </clipPath>
    <linearGradient id="linear-gradient-22" x1="-22.759" y1="16.632" x2="-22.555" y2="16.632" xlink:href="#linear-gradient-12"/>
    <clipPath id="clip-path-60">
      <path id="Trazado_1067362" data-name="Trazado 1067362" d="M128.016,143.921c-.133,2.379-.645,3.922,2.1,4.4a5.848,5.848,0,0,0,6.323-3.26s1.966-3.651,1.525-5.147-7.849-2.9-7.849-2.9-1.972,4.531-2.1,6.91" transform="translate(-127.891 -137.011)" fill="none"/>
    </clipPath>
    <linearGradient id="linear-gradient-23" x1="-9.593" y1="7.36" x2="-9.517" y2="7.36" xlink:href="#linear-gradient-12"/>
    <clipPath id="clip-path-61">
      <path id="Trazado_1067363" data-name="Trazado 1067363" d="M129.342,133a3.29,3.29,0,0,0-1.272,4.525c1.077,1.769,6.063,2.785,7.32,3.3s-.173,3.454-.173,3.454h1.089a.187.187,0,0,1,.187.2l-.129,2.079a.189.189,0,0,0,.143.194,3.819,3.819,0,0,0,2.655-.615c1.43-.763.878-1.337.508-1.578a.186.186,0,0,1-.009-.3c2.043-1.672,2.423-3.7,1.492-4.487-.536-.45-.938-.38-1.187-.227a.186.186,0,0,1-.289-.152c-.055-2.345-2.3-3.718-5.691-4.344-2.392-.441-3.285-1.3-3.614-1.832a.186.186,0,0,0-.334.052.187.187,0,0,1-.344.036l-.114-.218a.19.19,0,0,0-.165-.1.163.163,0,0,0-.071.016" transform="translate(-127.626 -132.984)" fill="none"/>
    </clipPath>
    <linearGradient id="linear-gradient-24" x1="-10.385" y1="8.57" x2="-10.303" y2="8.57" xlink:href="#linear-gradient-4"/>
    <clipPath id="clip-path-62">
      <path id="Trazado_1067364" data-name="Trazado 1067364" d="M134.014,142.943l.334,1.269c1.044-.108,3.015-2.54,1.717-3.352a.852.852,0,0,0-.454-.143c-1.019,0-1.6,2.226-1.6,2.226" transform="translate(-134.014 -140.717)" fill="none"/>
    </clipPath>
    <linearGradient id="linear-gradient-25" x1="-34.09" y1="23.261" x2="-33.834" y2="23.261" xlink:href="#linear-gradient-12"/>
    <clipPath id="clip-path-64">
      <path id="Trazado_1067371" data-name="Trazado 1067371" d="M304.469,145.661l-19.55,103.492a1.141,1.141,0,0,0,1.03,1.293,1.361,1.361,0,0,0,.211.017,1.228,1.228,0,0,0,1.238-.935l19.548-103.493a1.14,1.14,0,0,0-1.029-1.293,1.545,1.545,0,0,0-.211-.016,1.226,1.226,0,0,0-1.238.935" transform="translate(-284.902 -144.726)" fill="none"/>
    </clipPath>
    <linearGradient id="linear-gradient-26" x1="-15.728" y1="1" x2="-15.673" y2="1" xlink:href="#linear-gradient-4"/>
    <clipPath id="clip-path-65">
      <path id="Trazado_1067372" data-name="Trazado 1067372" d="M320.82,145.844a1.133,1.133,0,0,0-.985,1.321L342.882,249.31a1.233,1.233,0,0,0,1.232.9,1.449,1.449,0,0,0,.25-.022,1.133,1.133,0,0,0,.983-1.323L322.3,146.722a1.227,1.227,0,0,0-1.226-.9,1.391,1.391,0,0,0-.254.023" transform="translate(-319.811 -145.821)" fill="none"/>
    </clipPath>
    <linearGradient id="linear-gradient-27" x1="-15.241" y1="1" x2="-15.194" y2="1" xlink:href="#linear-gradient-4"/>
    <clipPath id="clip-path-66">
      <path id="Trazado_1067373" data-name="Trazado 1067373" d="M298.3,164.77a1.13,1.13,0,1,0,0,2.246H331.7a1.13,1.13,0,1,0,0-2.246Z" transform="translate(-297.039 -164.77)" fill="none"/>
    </clipPath>
    <linearGradient id="linear-gradient-28" x1="-10.164" y1="36.116" x2="-10.13" y2="36.116" xlink:href="#linear-gradient-4"/>
    <clipPath id="clip-path-67">
      <path id="Trazado_1067374" data-name="Trazado 1067374" d="M298.779,164.77a1.126,1.126,0,1,0,0,2.246h32.2a1.126,1.126,0,1,0,0-2.246Z" transform="translate(-297.569 -164.77)" fill="none"/>
    </clipPath>
    <linearGradient id="linear-gradient-29" x1="-10.566" y1="36.116" x2="-10.53" y2="36.116" xlink:href="#linear-gradient-4"/>
    <clipPath id="clip-path-68">
      <path id="Trazado_1067375" data-name="Trazado 1067375" d="M298.3,179.994a1.13,1.13,0,1,0,0,2.246H331.7a1.13,1.13,0,1,0,0-2.246Z" transform="translate(-297.039 -179.994)" fill="none"/>
    </clipPath>
    <linearGradient id="linear-gradient-30" x1="-10.164" y1="27.777" x2="-10.13" y2="27.777" xlink:href="#linear-gradient-4"/>
    <clipPath id="clip-path-69">
      <path id="Trazado_1067376" data-name="Trazado 1067376" d="M295.827,179.994a1.13,1.13,0,1,0,0,2.246h40.5a1.13,1.13,0,1,0,0-2.246Z" transform="translate(-294.571 -179.994)" fill="none"/>
    </clipPath>
    <linearGradient id="linear-gradient-31" x1="-8.418" y1="27.777" x2="-8.389" y2="27.777" xlink:href="#linear-gradient-4"/>
    <clipPath id="clip-path-70">
      <path id="Trazado_1067377" data-name="Trazado 1067377" d="M298.3,195.217a1.13,1.13,0,1,0,0,2.246H331.7a1.13,1.13,0,1,0,0-2.246Z" transform="translate(-297.039 -195.217)" fill="none"/>
    </clipPath>
    <linearGradient id="linear-gradient-32" x1="-10.164" y1="19.445" x2="-10.13" y2="19.445" xlink:href="#linear-gradient-4"/>
    <clipPath id="clip-path-71">
      <path id="Trazado_1067378" data-name="Trazado 1067378" d="M292.68,195.217a1.13,1.13,0,1,0,0,2.246h48.483a1.13,1.13,0,1,0,0-2.246Z" transform="translate(-291.424 -195.217)" fill="none"/>
    </clipPath>
    <linearGradient id="linear-gradient-33" x1="-7.024" y1="19.445" x2="-7" y2="19.445" xlink:href="#linear-gradient-4"/>
    <clipPath id="clip-path-72">
      <path id="Trazado_1067379" data-name="Trazado 1067379" d="M298.3,210.44a1.13,1.13,0,1,0,0,2.246h45.479a1.13,1.13,0,1,0,0-2.246Z" transform="translate(-297.039 -210.44)" fill="none"/>
    </clipPath>
    <linearGradient id="linear-gradient-34" x1="-7.608" y1="11.113" x2="-7.582" y2="11.113" xlink:href="#linear-gradient-4"/>
    <clipPath id="clip-path-73">
      <path id="Trazado_1067380" data-name="Trazado 1067380" d="M290.134,210.44a1.13,1.13,0,1,0,0,2.246h55.511a1.13,1.13,0,1,0,0-2.246Z" transform="translate(-288.878 -210.44)" fill="none"/>
    </clipPath>
    <linearGradient id="linear-gradient-35" x1="-6.12" y1="11.113" x2="-6.099" y2="11.113" xlink:href="#linear-gradient-4"/>
    <clipPath id="clip-path-75">
      <path id="Trazado_1067385" data-name="Trazado 1067385" d="M305.4,64.319a7.324,7.324,0,0,0,1.046,2.832c.773,1.734.093,2.581-1.328,3.447,0,0-12.421,15.9,1.75,32.077l5.327-.5c-.306.028-1.576-2.863-1.7-3.115A54.985,54.985,0,0,1,307.213,91a37.181,37.181,0,0,1-1.87-10.637,24.294,24.294,0,0,1,.537-5.545,2.781,2.781,0,0,1,1.647-2.268,5.257,5.257,0,0,0,2.7-2.313,4.076,4.076,0,0,0-1.927-5.605,9.837,9.837,0,0,0-2.46-.472c-.264,0-.439.044-.439.159" transform="translate(-300.087 -64.16)" fill="none"/>
    </clipPath>
    <linearGradient id="linear-gradient-36" x1="-8.202" y1="6.578" x2="-8.173" y2="6.578" gradientUnits="objectBoundingBox">
      <stop offset="0" stop-color="#c4421b"/>
      <stop offset="1" stop-color="#5c0e16"/>
    </linearGradient>
    <clipPath id="clip-path-76">
      <path id="Trazado_1067386" data-name="Trazado 1067386" d="M309.718,133.52s10.063,21.933,15.343,31.018c0,0,1.049,5.716,0,7.513l-.894.4,4.171-.124s.37-7.689.08-8.118a1.061,1.061,0,0,0-.867-.4s-1.789-14.168-6.969-17.193l-5.02-17.288Z" transform="translate(-309.718 -129.323)" fill="none"/>
    </clipPath>
    <linearGradient id="linear-gradient-37" x1="-20.048" y1="2.891" x2="-19.983" y2="2.891" xlink:href="#linear-gradient-36"/>
    <clipPath id="clip-path-77">
      <path id="Trazado_1067387" data-name="Trazado 1067387" d="M325.3,160.179c.337,1.377.634,4.944-.213,5.358a12.379,12.379,0,0,1-3.287.488s-1.726.171-1.781,1.078c-.007.1,3.256.054,5.029.022a1.412,1.412,0,0,0,1.352-1.112l1.339-7.032a1.264,1.264,0,0,0-.96-1.469l-.749-.171a4.009,4.009,0,0,0-.73,2.838" transform="translate(-320.024 -157.341)" fill="none"/>
    </clipPath>
    <linearGradient id="linear-gradient-38" x1="-50.081" y1="9.161" x2="-49.925" y2="9.161" xlink:href="#linear-gradient-10"/>
    <clipPath id="clip-path-78">
      <path id="Trazado_1067388" data-name="Trazado 1067388" d="M304.964,164.377l-2.971,1.693a.369.369,0,0,0,.186.688c2.966-.03,9.614-.124,10.2-.37.763-.316-.278-3.056-1.373-3.984Z" transform="translate(-301.807 -162.404)" fill="none"/>
    </clipPath>
    <linearGradient id="linear-gradient-39" x1="-32.297" y1="19.372" x2="-32.19" y2="19.372" xlink:href="#linear-gradient-10"/>
    <clipPath id="clip-path-79">
      <path id="Trazado_1067389" data-name="Trazado 1067389" d="M308.775,169.2l-4.353,2.73s2.181-.371,3.8-.488,3.1-1.973,3.1-1.973l-.521-.831s-1.63-31.289-1.233-34.843l-9.139-2.193s6.5,31.46,8.344,37.6" transform="translate(-300.431 -131.599)" fill="none"/>
    </clipPath>
    <linearGradient id="linear-gradient-40" x1="-33.901" y1="3.022" x2="-33.788" y2="3.022" xlink:href="#linear-gradient-36"/>
    <clipPath id="clip-path-80">
      <path id="Trazado_1067390" data-name="Trazado 1067390" d="M297.984,91.534,295.415,99.4a1.436,1.436,0,0,0,.568,1.641l.527.35c-.384,1.139-.888,2.324-.21,3.318a81.725,81.725,0,0,1,5.314,10.34l10.554.047-.257-2.978,3.237-18.266c-5.273.091-13.717-2.131-16.21-2.822a.773.773,0,0,0-.21-.028.785.785,0,0,0-.744.536" transform="translate(-295.344 -90.998)" fill="none"/>
    </clipPath>
    <linearGradient id="linear-gradient-41" x1="-12.208" y1="5.675" x2="-12.166" y2="5.675" gradientUnits="objectBoundingBox">
      <stop offset="0" stop-color="#fdf53f"/>
      <stop offset="0.665" stop-color="#e57a58"/>
      <stop offset="1" stop-color="#d93c65"/>
    </linearGradient>
    <clipPath id="clip-path-81">
      <path id="Trazado_1067391" data-name="Trazado 1067391" d="M299.9,109.362l.208,1.8s-2.983,8.933,1.49,29.793c0,0,9.689,2.745,17.652-3.822,0,0-2.246-19.69-2.859-20.607-3.056-4.568-5.091-5.562-5.091-5.562l-.092-1.97s-8.517,1.538-11.306.365" transform="translate(-299.134 -108.997)" fill="none"/>
    </clipPath>
    <linearGradient id="linear-gradient-42" x1="-16.529" y1="4.246" x2="-16.473" y2="4.246" xlink:href="#linear-gradient-10"/>
    <clipPath id="clip-path-82">
      <path id="Trazado_1067392" data-name="Trazado 1067392" d="M303.118,93.48c1.637,2.16,6.666,1.144,6.666,1.144l-1.254-7.618-3.208-.291s-2.24,6.715-2.2,6.764" transform="translate(-303.118 -86.716)" fill="none"/>
    </clipPath>
    <linearGradient id="linear-gradient-43" x1="-55.592" y1="19.831" x2="-55.409" y2="19.831" xlink:href="#linear-gradient-12"/>
    <clipPath id="clip-path-83">
      <path id="Trazado_1067393" data-name="Trazado 1067393" d="M307.946,78.162c-.214.133-6.857,2.879-5.43,9.776a1.292,1.292,0,0,0,.736.922,11.259,11.259,0,0,0,5.584.926c3.479-.354,5.76-6.426,5.663-8.194-.081-1.463-3.063-3.757-5.291-3.757a2.362,2.362,0,0,0-1.264.327" transform="translate(-302.316 -77.835)" fill="none"/>
    </clipPath>
    <linearGradient id="linear-gradient-44" x1="-28.304" y1="13.213" x2="-28.21" y2="13.213" xlink:href="#linear-gradient-36"/>
    <clipPath id="clip-path-84">
      <path id="Trazado_1067394" data-name="Trazado 1067394" d="M309.779,75.95c-.175.023-3.839,1.3-2.022,3.954s2.5,4.219,1.64,5.385c-.783,1.062-2.517.456-2.366,2.667a1.236,1.236,0,0,1-.529,1.119c-1.634,1.108-5.623,4.513-1.672,9.369a1.234,1.234,0,0,1,.139,1.385c-1.157,2.076-3.587,8.157,5.213,11.53,8.7,3.332,11.836-2.352,12.714-4.624a1.216,1.216,0,0,1,1.2-.768c.954.045,2.31-.113,2.246-1.39a3.189,3.189,0,0,0-1.093-2.028,1.211,1.211,0,0,1,.232-1.908,2.367,2.367,0,0,0,1.173-1.474c.527-1.952-.525-7.792-6.122-8.782a1.32,1.32,0,0,1-1.024-.99l0-.021a1.208,1.208,0,0,1,.45-1.19,3.141,3.141,0,0,0,1.109-4.092,4.59,4.59,0,0,0-3.586-2.713,1.219,1.219,0,0,1-1-1.457c.348-1.636.124-4.134-4.473-4.134a17.087,17.087,0,0,0-2.227.16" transform="translate(-303.139 -75.79)" fill="none"/>
    </clipPath>
    <linearGradient id="linear-gradient-45" x1="-14.081" y1="4.52" x2="-14.034" y2="4.52" xlink:href="#linear-gradient-4"/>
    <clipPath id="clip-path-85">
      <path id="Trazado_1067395" data-name="Trazado 1067395" d="M281.872,64.944l-.377,1.508a5.151,5.151,0,0,0,1.094,4.61l2.867,3.325a2.594,2.594,0,0,1,.634,1.744c-.5,22.253,12.989,30.412,12.989,30.412l3.588-8.182c-14.9-8.364-14-24.728-14-24.728l2.576-2.744-2.386-.026c-1.282.111-1.405-.384-1.931-1.56l-1.441-2.27a5.263,5.263,0,0,0-2.16-2.4l-.3-.175a.78.78,0,0,0-1.152.487" transform="translate(-281.341 -64.35)" fill="none"/>
    </clipPath>
    <linearGradient id="linear-gradient-46" x1="-16.015" y1="4.848" x2="-15.958" y2="4.848" xlink:href="#linear-gradient-36"/>
    <clipPath id="clip-path-87">
      <rect id="Rectángulo_402662" data-name="Rectángulo 402662" width="67.237" height="22.288" fill="none"/>
    </clipPath>
    <clipPath id="clip-path-88">
      <rect id="Rectángulo_402663" data-name="Rectángulo 402663" width="57.829" height="16.914" fill="none"/>
    </clipPath>
  </defs>
  <g id="Grupo_1211255" data-name="Grupo 1211255" clip-path="url(#clip-path)">
    <g id="Grupo_1211063" data-name="Grupo 1211063">
      <g id="Grupo_1211062" data-name="Grupo 1211062" clip-path="url(#clip-path)">
        <g id="Grupo_1211058" data-name="Grupo 1211058" opacity="0.5">
          <g id="Grupo_1211057" data-name="Grupo 1211057">
            <g id="Grupo_1211056" data-name="Grupo 1211056" clip-path="url(#clip-path-3)">
              <path id="Trazado_1067269" data-name="Trazado 1067269" d="M109.868,268.352s-38.1-5.069-56.189-1.111-62.9-17.517-48.049-51.225,31.667-54.6,12.238-73.027S-7.672,89.455,12.36,69.727s26.062.57,42.023-6.694S50.076,17.87,95.162,7.16s78.754,16.131,99.253,12.477S247.8-.9,269.922.039s19.379,33.926,48.734,32,52.4-5.244,71.415,22.833,14.443,63.69-3.686,77.764-14.593,33,18.836,34.084,29.663,40.34,2.385,69.319-50.679,29.3-77.927,31.2-219.81,1.111-219.81,1.111" transform="translate(0 0)" fill="#d2e1f1"/>
            </g>
          </g>
        </g>
        <g id="Grupo_1211061" data-name="Grupo 1211061" transform="translate(14.501 3.741)" opacity="0.5">
          <g id="Grupo_1211060" data-name="Grupo 1211060">
            <g id="Grupo_1211059" data-name="Grupo 1211059" clip-path="url(#clip-path-4)">
              <path id="Trazado_1067270" data-name="Trazado 1067270" d="M116.111,264.739s-36.173-4.944-53.349-1.083S3.04,246.572,17.141,213.7s30.067-53.244,11.62-71.219S4.513,90.272,23.533,71.034s24.744.556,39.9-6.53-4.088-44.043,38.72-54.488,76.07,21.115,95.532,17.55S247.072,2.152,268.076,3.071s18.4,33.086,46.27,31.211,49.75-5.115,67.806,22.268,13.713,62.112-3.5,75.837-11.829,40.962,19.911,42.02,26.136,30.56.237,58.821S350.68,261.8,324.811,263.656s-208.7,1.083-208.7,1.083" transform="translate(-11.796 -3.043)" fill="#f3f9ff"/>
            </g>
          </g>
        </g>
        <path id="Trazado_1067271" data-name="Trazado 1067271" d="M110.956,247.2H15.878a5.49,5.49,0,0,1-5.49-5.49V99.3a5.491,5.491,0,0,1,5.475-5.49l95.84-.257a5.488,5.488,0,0,1,5.5,5.519l-.76,142.662a5.49,5.49,0,0,1-5.49,5.46" transform="translate(2.381 21.446)" fill="#4d6d00"/>
        <path id="Trazado_1067272" data-name="Trazado 1067272" d="M105.3,99.274,20.283,99.8a5.57,5.57,0,0,0-5.536,5.6l.594,127.814a5.569,5.569,0,0,0,5.469,5.543l82.6,1.508a5.572,5.572,0,0,0,5.672-5.492L110.9,104.922a5.57,5.57,0,0,0-5.6-5.648" transform="translate(3.38 22.757)" fill="#f2f7e5"/>
        <path id="Trazado_1067273" data-name="Trazado 1067273" d="M98.437,105.41V106a1.665,1.665,0,0,1-1.667,1.666h-65.5A1.665,1.665,0,0,1,29.6,106v-.586a1.667,1.667,0,0,1,1.667-1.667h65.5a1.667,1.667,0,0,1,1.667,1.667" transform="translate(6.785 23.781)" fill="#cce199"/>
        <path id="Trazado_1067274" data-name="Trazado 1067274" d="M90.958,111.425h0A1.665,1.665,0,0,1,89.324,113l-57.286,1.044a1.666,1.666,0,0,1-1.7-1.666v-.136a1.666,1.666,0,0,1,1.64-1.666l57.287-.908a1.666,1.666,0,0,1,1.69,1.757" transform="translate(6.955 25.139)" fill="#cce199"/>
        <path id="Trazado_1067275" data-name="Trazado 1067275" d="M99.688,231.96l-77.482-.931a4.747,4.747,0,0,1-4.691-4.837l1.994-105.11a4.75,4.75,0,0,1,4.839-4.658l77.348,1.5a4.754,4.754,0,0,1,4.655,4.832h0L104.492,227.3a4.759,4.759,0,0,1-4.746,4.664h-.058M22.06,118.887a3.147,3.147,0,0,0-.97,2.224L19.1,226.222a3.165,3.165,0,0,0,3.128,3.228l77.483.929a3.161,3.161,0,0,0,3.2-3.111l1.86-104.534h0a3.174,3.174,0,0,0-3.106-3.223L24.318,118h-.063a3.148,3.148,0,0,0-2.2.884" transform="translate(4.015 26.688)" fill="#cce199"/>
        <path id="Trazado_1067276" data-name="Trazado 1067276" d="M19.825,126.56H104.21a.79.79,0,1,0,0-1.58H19.825a.79.79,0,1,0,0,1.58" transform="translate(4.363 28.649)" fill="#cce199"/>
      </g>
    </g>
    <g id="Grupo_1211065" data-name="Grupo 1211065" transform="translate(36.346 21.659)">
      <g id="Grupo_1211064" data-name="Grupo 1211064" clip-path="url(#clip-path-5)">
        <rect id="Rectángulo_402581" data-name="Rectángulo 402581" width="209.855" height="199.507" transform="translate(-103.424 114.666) rotate(-56.081)" fill="url(#linear-gradient)"/>
      </g>
    </g>
    <g id="Grupo_1211070" data-name="Grupo 1211070">
      <g id="Grupo_1211069" data-name="Grupo 1211069" clip-path="url(#clip-path)">
        <g id="Grupo_1211068" data-name="Grupo 1211068" transform="translate(51.26 39.911)" opacity="0.86">
          <g id="Grupo_1211067" data-name="Grupo 1211067">
            <g id="Grupo_1211066" data-name="Grupo 1211066" clip-path="url(#clip-path-7)">
              <path id="Trazado_1067278" data-name="Trazado 1067278" d="M41.7,32.828c.457,5.857,1.034,11.7,1.662,17.534s1.328,11.664,2.093,17.485c1.532,11.641,3.323,23.248,5.471,34.8s4.651,23.036,7.771,34.375q2.316,8.511,5.253,16.847a148.521,148.521,0,0,0,6.792,16.327.79.79,0,1,0,1.416-.7l0,0v0a147.106,147.106,0,0,1-6.822-16.112q-2.974-8.246-5.33-16.716c-3.18-11.268-5.742-22.715-7.969-34.222s-4.082-23.09-5.688-34.706q-1.2-8.712-2.2-17.453c-.665-5.824-1.28-11.659-1.773-17.5v0a.335.335,0,0,0-.667.054" transform="translate(-41.701 -32.468)" fill="#fff"/>
            </g>
          </g>
        </g>
      </g>
    </g>
    <g id="Grupo_1211072" data-name="Grupo 1211072" transform="translate(349.165 26.283)">
      <g id="Grupo_1211071" data-name="Grupo 1211071" clip-path="url(#clip-path-8)">
        <rect id="Rectángulo_402584" data-name="Rectángulo 402584" width="206.059" height="148.681" transform="matrix(0.145, -0.989, 0.989, 0.145, -38.603, 186.3)" fill="url(#linear-gradient-2)"/>
      </g>
    </g>
    <g id="Grupo_1211077" data-name="Grupo 1211077">
      <g id="Grupo_1211076" data-name="Grupo 1211076" clip-path="url(#clip-path)">
        <g id="Grupo_1211075" data-name="Grupo 1211075" transform="translate(364.306 47.994)" opacity="0.43">
          <g id="Grupo_1211074" data-name="Grupo 1211074">
            <g id="Grupo_1211073" data-name="Grupo 1211073" clip-path="url(#clip-path-10)">
              <path id="Trazado_1067280" data-name="Trazado 1067280" d="M342.428,39.213c0,.454-.043.852-.068,1.272l-.1,1.243-.226,2.482c-.161,1.653-.339,3.305-.522,4.956q-.562,4.951-1.237,9.889c-.9,6.583-1.975,13.14-3.152,19.681s-2.509,13.053-3.981,19.534l-.548,2.431-.58,2.424c-.393,1.614-.758,3.235-1.179,4.843l-1.229,4.832-1.3,4.812a323.711,323.711,0,0,1-12.844,37.745c-.307.772-.64,1.534-.978,2.294l-1,2.284-1,2.283c-.344.757-.708,1.5-1.061,2.257-.72,1.5-1.405,3.015-2.152,4.5l-2.27,4.442a175.956,175.956,0,0,1-10.315,17.063.169.169,0,0,1-.235.043.171.171,0,0,1-.046-.232h0a189.256,189.256,0,0,0,9.973-17.2l2.215-4.45c.73-1.487,1.4-3.005,2.1-4.506.344-.754.7-1.5,1.034-2.259l.977-2.286.976-2.285c.329-.761.653-1.523.95-2.3l1.845-4.616c.6-1.543,1.169-3.1,1.754-4.651.289-.777.586-1.55.867-2.331l.82-2.347.82-2.347c.277-.782.548-1.565.8-2.354,2.118-6.283,3.986-12.646,5.793-19.026,3.564-12.775,6.471-25.73,8.97-38.759q1.859-9.776,3.337-19.621.747-4.919,1.393-9.855c.209-1.645.413-3.292.6-4.939l.266-2.473L342,40.456c.032-.408.075-.836.087-1.212v-.038a.168.168,0,0,1,.336.007" transform="translate(-296.369 -39.044)" fill="#fff"/>
            </g>
          </g>
        </g>
      </g>
    </g>
    <g id="Grupo_1211079" data-name="Grupo 1211079" transform="translate(27.197 124.913)">
      <g id="Grupo_1211078" data-name="Grupo 1211078" clip-path="url(#clip-path-11)">
        <rect id="Rectángulo_402587" data-name="Rectángulo 402587" width="157.629" height="171.278" transform="translate(-50.158 21.554) rotate(-23.259)" fill="url(#linear-gradient-3)"/>
      </g>
    </g>
    <g id="Grupo_1211084" data-name="Grupo 1211084">
      <g id="Grupo_1211083" data-name="Grupo 1211083" clip-path="url(#clip-path)">
        <g id="Grupo_1211082" data-name="Grupo 1211082" transform="translate(38.204 150.164)" opacity="0.45">
          <g id="Grupo_1211081" data-name="Grupo 1211081">
            <g id="Grupo_1211080" data-name="Grupo 1211080" clip-path="url(#clip-path-13)">
              <path id="Trazado_1067282" data-name="Trazado 1067282" d="M31.08,122.186a50.9,50.9,0,0,0,2.327,8.885c.124.363.241.728.37,1.089l.412,1.073.824,2.15.912,2.113c.311.7.592,1.417.945,2.1a108.752,108.752,0,0,0,9.281,15.9c.835,1.292,1.8,2.488,2.72,3.718.939,1.214,1.825,2.474,2.838,3.63l2.96,3.534c.479.6,1.021,1.146,1.54,1.712l1.571,1.687,1.57,1.686.788.841.825.8,3.3,3.213c.556.531,1.093,1.083,1.661,1.6l1.7,1.545,3.4,3.092,3.433,3.052c1.148,1.014,2.285,2.038,3.447,3.036q3.466,3.015,6.977,5.975c2.332,1.984,4.694,3.931,7.047,5.889l7.116,5.8c4.746,3.86,9.5,7.71,14.113,11.707,1.168.985,2.284,2.023,3.418,3.044.573.5,1.111,1.044,1.661,1.571s1.105,1.052,1.636,1.6c1.04,1.11,2.123,2.187,3.082,3.368l.744.868c.12.146.253.285.366.438l.339.457,1.363,1.833.006.007a.174.174,0,0,0,.285-.2,54.141,54.141,0,0,0-5.743-7.2c-.524-.562-1.073-1.1-1.609-1.647s-1.069-1.1-1.632-1.621c-1.116-1.052-2.215-2.125-3.363-3.141-4.548-4.113-9.275-8.008-13.96-11.941s-9.384-7.846-14.032-11.817-9.24-8-13.8-12.077l-3.388-3.087-1.7-1.543c-.565-.514-1.1-1.052-1.655-1.577l-3.291-3.17-.824-.792-.783-.83-1.567-1.663a134.713,134.713,0,0,1-11.683-14.029,107.65,107.65,0,0,1-9.543-15.568c-.365-.67-.659-1.374-.994-2.059l-.977-2.069-.89-2.107L34.188,132c-.141-.354-.269-.713-.406-1.069-.262-.717-.547-1.425-.79-2.147l-.715-2.176a44.425,44.425,0,0,1-1.153-4.431.024.024,0,0,0-.026-.018.021.021,0,0,0-.017.025" transform="translate(-31.079 -122.161)" fill="#fff"/>
            </g>
          </g>
        </g>
      </g>
    </g>
    <g id="Grupo_1211086" data-name="Grupo 1211086" transform="translate(206.254 211.224)">
      <g id="Grupo_1211085" data-name="Grupo 1211085" clip-path="url(#clip-path-14)">
        <rect id="Rectángulo_402590" data-name="Rectángulo 402590" width="66.674" height="51.54" transform="translate(0 0)" fill="url(#linear-gradient-4)"/>
      </g>
    </g>
    <g id="Grupo_1211088" data-name="Grupo 1211088" transform="translate(72.145 42.889)">
      <g id="Grupo_1211087" data-name="Grupo 1211087" clip-path="url(#clip-path-15)">
        <rect id="Rectángulo_402591" data-name="Rectángulo 402591" width="321.234" height="183.668" transform="translate(0 0)" fill="url(#linear-gradient-5)"/>
      </g>
    </g>
    <g id="Grupo_1211099" data-name="Grupo 1211099">
      <g id="Grupo_1211098" data-name="Grupo 1211098" clip-path="url(#clip-path)">
        <path id="Trazado_1067285" data-name="Trazado 1067285" d="M65.928,48.983v134.7A12.46,12.46,0,0,0,78.2,196.147l274.9,3.4a12.127,12.127,0,0,0,12.308-12.081l.46-133.5a8.869,8.869,0,0,0-8.654-8.9L75.772,39.376a9.61,9.61,0,0,0-9.844,9.608" transform="translate(15.113 9.025)" fill="#eceeed"/>
        <g id="Grupo_1211091" data-name="Grupo 1211091" transform="translate(88.839 53.263)" opacity="0.16">
          <g id="Grupo_1211090" data-name="Grupo 1211090">
            <g id="Grupo_1211089" data-name="Grupo 1211089" clip-path="url(#clip-path-17)">
              <path id="Trazado_1067286" data-name="Trazado 1067286" d="M72.272,52.35V178.782a11.779,11.779,0,0,0,11.689,11.695l261.745,3.187a11.471,11.471,0,0,0,11.721-11.34l.438-125.3a8.38,8.38,0,0,0-8.24-8.353L81.645,43.333a9.09,9.09,0,0,0-9.373,9.018" transform="translate(-72.272 -43.33)" fill="#fff"/>
            </g>
          </g>
        </g>
        <g id="Grupo_1211094" data-name="Grupo 1211094" transform="translate(80.619 208.147)" opacity="0.65">
          <g id="Grupo_1211093" data-name="Grupo 1211093">
            <g id="Grupo_1211092" data-name="Grupo 1211092" clip-path="url(#clip-path-18)">
              <path id="Trazado_1067287" data-name="Trazado 1067287" d="M367.557,175.314h-.007L66,170.175a.422.422,0,0,1,.015-.843l301.55,5.138a.422.422,0,0,1-.007.843" transform="translate(-65.585 -169.331)" fill="#fff"/>
            </g>
          </g>
        </g>
        <g id="Grupo_1211097" data-name="Grupo 1211097" transform="translate(231.231 213.286)" opacity="0.65">
          <g id="Grupo_1211096" data-name="Grupo 1211096">
            <g id="Grupo_1211095" data-name="Grupo 1211095" clip-path="url(#clip-path-19)">
              <path id="Trazado_1067288" data-name="Trazado 1067288" d="M191.67,180.63a3.559,3.559,0,1,1,3.559-3.559,3.563,3.563,0,0,1-3.559,3.559m0-6.275a2.716,2.716,0,1,0,2.717,2.717,2.72,2.72,0,0,0-2.717-2.717" transform="translate(-188.11 -173.512)" fill="#fff"/>
            </g>
          </g>
        </g>
      </g>
    </g>
    <g id="Grupo_1211101" data-name="Grupo 1211101" transform="translate(185.498 258.861)">
      <g id="Grupo_1211100" data-name="Grupo 1211100" clip-path="url(#clip-path-20)">
        <rect id="Rectángulo_402596" data-name="Rectángulo 402596" width="106.916" height="14.448" transform="translate(-0.431)" fill="url(#linear-gradient-6)"/>
      </g>
    </g>
    <g id="Grupo_1211145" data-name="Grupo 1211145">
      <g id="Grupo_1211144" data-name="Grupo 1211144" clip-path="url(#clip-path)">
        <path id="Trazado_1067290" data-name="Trazado 1067290" d="M197.143,214.321a.422.422,0,0,1-.006-.843l4.031-.059a.436.436,0,0,1,.428.415.422.422,0,0,1-.415.428l-4.031.059Z" transform="translate(45.095 48.922)" fill="#fff"/>
        <path id="Trazado_1067291" data-name="Trazado 1067291" d="M153.989,221.732a.4.4,0,0,1-.066,0,.422.422,0,0,1-.35-.483l.575-3.6a4.119,4.119,0,0,1,4.016-3.476l42.755-.626a.417.417,0,0,1,.428.415.421.421,0,0,1-.414.428l-42.756.624a3.279,3.279,0,0,0-3.2,2.767l-.575,3.6a.421.421,0,0,1-.415.355" transform="translate(35.202 48.95)" fill="#fff"/>
        <g id="Grupo_1211104" data-name="Grupo 1211104" transform="translate(166.845 62.414)" opacity="0.22">
          <g id="Grupo_1211103" data-name="Grupo 1211103">
            <g id="Grupo_1211102" data-name="Grupo 1211102" clip-path="url(#clip-path-22)">
              <path id="Trazado_1067292" data-name="Trazado 1067292" d="M143.271,51.01l31.755-.235c4.339-.032,7.82,3.316,7.638,7.346l-3.106,68.627a7.373,7.373,0,0,1-7.533,6.768l-28.142.208a7.339,7.339,0,0,1-7.643-7l-.508-68.6a7.338,7.338,0,0,1,7.539-7.114" transform="translate(-135.731 -50.775)" fill="#fff"/>
            </g>
          </g>
        </g>
        <g id="Grupo_1211107" data-name="Grupo 1211107" transform="translate(91.788 159.036)" opacity="0.2">
          <g id="Grupo_1211106" data-name="Grupo 1211106">
            <g id="Grupo_1211105" data-name="Grupo 1211105" clip-path="url(#clip-path-23)">
              <path id="Trazado_1067293" data-name="Trazado 1067293" d="M181.886,129.378,81.41,130.573c-3.868.047-6.919,2.552-6.73,5.528l1.673,26.313c.178,2.806,3.186,5.013,6.836,5.013h98.8c3.78,0,6.844-2.36,6.844-5.271V134.648c0-2.943-3.13-5.315-6.95-5.27" transform="translate(-74.671 -129.378)" fill="#fff"/>
            </g>
          </g>
        </g>
        <g id="Grupo_1211110" data-name="Grupo 1211110" transform="translate(215.845 151.715)" opacity="0.2">
          <g id="Grupo_1211109" data-name="Grupo 1211109">
            <g id="Grupo_1211108" data-name="Grupo 1211108" clip-path="url(#clip-path-24)">
              <path id="Trazado_1067294" data-name="Trazado 1067294" d="M282.808,123.424l-100.476,1.462a6.626,6.626,0,0,0-6.73,6.764l1.673,32.2a6.68,6.68,0,0,0,6.836,6.134h98.8a6.656,6.656,0,0,0,6.844-6.45V129.873a6.664,6.664,0,0,0-6.95-6.449" transform="translate(-175.593 -123.423)" fill="#fff"/>
            </g>
          </g>
        </g>
        <g id="Grupo_1211113" data-name="Grupo 1211113" transform="translate(94.835 59.465)" opacity="0.2">
          <g id="Grupo_1211112" data-name="Grupo 1211112">
            <g id="Grupo_1211111" data-name="Grupo 1211111" clip-path="url(#clip-path-25)">
              <path id="Trazado_1067295" data-name="Trazado 1067295" d="M136.642,48.376h-51.9a7.622,7.622,0,0,0-7.592,7.652V130.41a7.622,7.622,0,0,0,7.592,7.652h51.9a7.622,7.622,0,0,0,7.592-7.652V56.028a7.622,7.622,0,0,0-7.592-7.652" transform="translate(-77.15 -48.376)" fill="#fff"/>
            </g>
          </g>
        </g>
        <g id="Grupo_1211116" data-name="Grupo 1211116" transform="translate(222.937 88.299)" opacity="0.2">
          <g id="Grupo_1211115" data-name="Grupo 1211115">
            <g id="Grupo_1211114" data-name="Grupo 1211114" clip-path="url(#clip-path-26)">
              <path id="Trazado_1067296" data-name="Trazado 1067296" d="M240.855,71.833h-51.9c-4.193,0-7.592,1.836-7.592,4.1V115.8c0,2.264,3.4,4.1,7.592,4.1h51.9c4.193,0,7.592-1.836,7.592-4.1V75.934c0-2.264-3.4-4.1-7.592-4.1" transform="translate(-181.363 -71.833)" fill="#fff"/>
            </g>
          </g>
        </g>
        <g id="Grupo_1211119" data-name="Grupo 1211119" transform="translate(297.521 84.738)" opacity="0.2">
          <g id="Grupo_1211118" data-name="Grupo 1211118">
            <g id="Grupo_1211117" data-name="Grupo 1211117" clip-path="url(#clip-path-27)">
              <path id="Trazado_1067297" data-name="Trazado 1067297" d="M313.492,68.936H251.156c-5.036,0-9.118,1.836-9.118,4.1V112.9c0,2.264,4.082,4.1,9.118,4.1h62.336c5.036,0,9.118-1.836,9.118-4.1V73.037c0-2.264-4.082-4.1-9.118-4.1" transform="translate(-242.038 -68.936)" fill="#fff"/>
            </g>
          </g>
        </g>
        <path id="Trazado_1067298" data-name="Trazado 1067298" d="M43.742,232.176h95.079c3.031,0,5.49-1.816,5.49-4.055V160.3c0-2.236-2.449-4.05-5.475-4.056L43,156.053c-3.048-.006-5.52,1.824-5.5,4.077l.76,68.011c.016,2.232,2.47,4.034,5.49,4.034" transform="translate(8.595 35.772)" fill="#d6e482"/>
        <g id="Grupo_1211122" data-name="Grupo 1211122" transform="translate(51.391 197.016)" opacity="0.42">
          <g id="Grupo_1211121" data-name="Grupo 1211121">
            <g id="Grupo_1211120" data-name="Grupo 1211120" clip-path="url(#clip-path-28)">
              <path id="Trazado_1067299" data-name="Trazado 1067299" d="M47.412,160.276l85.015.387c3.073.014,5.55,1.863,5.536,4.134l-.594,57.041c-.014,2.236-2.443,4.055-5.469,4.1l-82.6,1.114c-3.085.041-5.629-1.777-5.672-4.058l-1.819-58.541c-.044-2.306,2.484-4.188,5.6-4.173" transform="translate(-41.807 -160.276)" fill="#fff"/>
            </g>
          </g>
        </g>
        <path id="Trazado_1067300" data-name="Trazado 1067300" d="M49.179,164.809v.433c0,.68.746,1.232,1.667,1.232h65.5c.921,0,1.667-.552,1.667-1.232v-.433c0-.68-.746-1.232-1.667-1.232h-65.5c-.921,0-1.667.552-1.667,1.232" transform="translate(11.273 37.497)" fill="#cce199"/>
        <path id="Trazado_1067301" data-name="Trazado 1067301" d="M55.125,169.252h0a1.521,1.521,0,0,0,1.634,1.164l57.286.772c.933.012,1.7-.542,1.7-1.232v-.1c0-.672-.73-1.221-1.64-1.232l-57.287-.671c-.966-.011-1.743.585-1.69,1.3" transform="translate(12.636 38.5)" fill="#cce199"/>
        <path id="Trazado_1067302" data-name="Trazado 1067302" d="M46.854,217.536l-1.86-39.844v-.018a3.229,3.229,0,0,1,.95-2.311,5.238,5.238,0,0,1,3.709-1.473L127,172.777h.09c2.574,0,4.694,1.618,4.745,3.619l2,40.288a3.226,3.226,0,0,1-.955,2.322,5.246,5.246,0,0,1-3.737,1.468l-77.483.687H51.6c-2.616,0-4.7-1.592-4.744-3.625m80.169-43.179-77.348,1.112a3.714,3.714,0,0,0-2.592.988,1.672,1.672,0,0,0-.51,1.17l1.86,39.853c.027,1.144,1.474,2.1,3.168,2.1h.041l77.482-.687a3.72,3.72,0,0,0,2.616-.986,1.662,1.662,0,0,0,.513-1.164l-2-40.289c-.03-1.147-1.473-2.1-3.168-2.1h-.065m-81.244,3.3h0Z" transform="translate(10.314 39.606)" fill="#cce199"/>
        <path id="Trazado_1067303" data-name="Trazado 1067303" d="M46.6,180.679h84.384a.79.79,0,1,0,0-1.58H46.6a.79.79,0,1,0,0,1.58" transform="translate(10.501 41.055)" fill="#cce199"/>
        <path id="Trazado_1067304" data-name="Trazado 1067304" d="M182.5,191.628l-.74,26.414c-.058,2.052-2.848,3.7-6.272,3.7H89.008c-3.464,0-6.273-1.684-6.273-3.76V193.257c0-2.029,2.687-3.693,6.07-3.758l87.223-1.693c3.583-.069,6.535,1.673,6.474,3.822" transform="translate(18.966 43.051)" fill="#4d6d00"/>
        <g id="Grupo_1211125" data-name="Grupo 1211125" transform="translate(109.272 234.136)" opacity="0.42">
          <g id="Grupo_1211124" data-name="Grupo 1211124">
            <g id="Grupo_1211123" data-name="Grupo 1211123" clip-path="url(#clip-path-29)">
              <path id="Trazado_1067305" data-name="Trazado 1067305" d="M175.276,192.28l-1.877,24.29c-.071.933-1.368,1.662-2.926,1.646l-78.751-.831c-1.57-.017-2.828-.784-2.828-1.726V194.593c0-.919,1.2-1.678,2.736-1.723l80.628-2.393c1.7-.05,3.1.787,3.018,1.8" transform="translate(-88.894 -190.474)" fill="#fff"/>
            </g>
          </g>
        </g>
        <g id="Grupo_1211128" data-name="Grupo 1211128" transform="translate(117.614 243.519)" opacity="0.6">
          <g id="Grupo_1211127" data-name="Grupo 1211127">
            <g id="Grupo_1211126" data-name="Grupo 1211126" clip-path="url(#clip-path-30)">
              <path id="Trazado_1067306" data-name="Trazado 1067306" d="M167.287,199.211v1.749c0,.617-.843,1.115-1.872,1.105L97.493,201.4c-1.006-.01-1.812-.5-1.812-1.1s.8-1.088,1.792-1.1l67.924-1.085c1.036-.016,1.891.483,1.891,1.1" transform="translate(-95.68 -198.107)" fill="#fff"/>
            </g>
          </g>
        </g>
        <g id="Grupo_1211131" data-name="Grupo 1211131" transform="translate(119.83 249.882)" opacity="0.6">
          <g id="Grupo_1211130" data-name="Grupo 1211130">
            <g id="Grupo_1211129" data-name="Grupo 1211129" clip-path="url(#clip-path-31)">
              <path id="Trazado_1067307" data-name="Trazado 1067307" d="M165.86,204.634v1.605c0,.624-.864,1.125-1.907,1.1l-64.692-1.351c-.992-.02-1.777-.508-1.777-1.1v-.5c0-.613.831-1.109,1.852-1.105l64.693.247c1.013,0,1.83.5,1.83,1.1" transform="translate(-97.483 -203.283)" fill="#fff"/>
            </g>
          </g>
        </g>
        <path id="Trazado_1067308" data-name="Trazado 1067308" d="M243.057,99.763l92.324.762a9.565,9.565,0,0,1,9.477,9.158l5.71,133.91a7.053,7.053,0,0,1-6.977,7.353L237.76,251.995a6.694,6.694,0,0,1-6.762-6.75l1.112-134.715a10.857,10.857,0,0,1,10.946-10.767" transform="translate(52.952 22.869)" fill="#ccdd63"/>
        <path id="Trazado_1067309" data-name="Trazado 1067309" d="M252.637,226.712h0l-11.839-.251a7.351,7.351,0,0,1-7.168-7.382l.147-17.877a.3.3,0,0,1,.3-.3.306.306,0,0,1,.3.3l-.148,17.877a6.744,6.744,0,0,0,6.576,6.773l11.839.252a.3.3,0,0,1-.011.6" transform="translate(53.555 46.054)" fill="#fff"/>
        <path id="Trazado_1067310" data-name="Trazado 1067310" d="M234.083,197.541a.3.3,0,0,1-.3-.3l.023-2.895a.3.3,0,0,1,.3-.3h0a.3.3,0,0,1,.3.3l-.023,2.895a.3.3,0,0,1-.3.3h0" transform="translate(53.591 44.481)" fill="#fff"/>
        <path id="Trazado_1067311" data-name="Trazado 1067311" d="M241.78,98.888c12.593,1.816,55.9,7.46,91.773,5a2.917,2.917,0,0,1,3.117,2.776l6.036,134.51a3.356,3.356,0,0,1-3.182,3.5c-15.083.768-77.2,3.7-99.324,1.2a2.66,2.66,0,0,1-2.358-2.651L238.178,102a3.155,3.155,0,0,1,3.6-3.116" transform="translate(54.521 22.661)" fill="#fff5e5"/>
        <g id="Grupo_1211134" data-name="Grupo 1211134" transform="translate(293.833 125.017)" opacity="0.6">
          <g id="Grupo_1211133" data-name="Grupo 1211133">
            <g id="Grupo_1211132" data-name="Grupo 1211132" clip-path="url(#clip-path-32)">
              <path id="Trazado_1067312" data-name="Trazado 1067312" d="M242.829,101.735c12.118,1.746,53.8,7.179,88.317,4.816a2.805,2.805,0,0,1,3,2.671l5.808,129.444a3.229,3.229,0,0,1-3.062,3.371c-14.515.739-74.291,3.565-95.585,1.157a2.558,2.558,0,0,1-2.268-2.551l.323-135.91a3.035,3.035,0,0,1,3.468-3" transform="translate(-239.038 -101.703)" fill="#fff"/>
            </g>
          </g>
        </g>
        <path id="Trazado_1067313" data-name="Trazado 1067313" d="M327.953,115.474a.719.719,0,0,0,.731-.768l-.017-.312a.852.852,0,0,0-.821-.788l-78.614-1.269c-.427-.007-.561.262-.3.6l1.007,1.287a1.834,1.834,0,0,0,1.256.617Z" transform="translate(57.033 25.751)" fill="#fec266"/>
        <path id="Trazado_1067314" data-name="Trazado 1067314" d="M249.2,116.544c-.427-.007-.562.263-.3.6l1.007,1.287a1.828,1.828,0,0,0,1.255.618l76.758.633a.72.72,0,0,0,.731-.768l-.02-.312a.851.851,0,0,0-.821-.788Z" transform="translate(57.025 26.716)" fill="#fec266"/>
        <path id="Trazado_1067315" data-name="Trazado 1067315" d="M262.6,157.527h-.028l-10.391.151a2.818,2.818,0,0,1-2.932-2.328l-1.124-8.694a1.919,1.919,0,0,1,.419-1.453,2.3,2.3,0,0,1,1.587-.832c.875-.081,2.08-.213,3.4-.358,2.885-.316,6.155-.675,8.08-.745h.043a2.922,2.922,0,0,1,2.939,1.984c.591,1.991.634,5.781.629,9.819a2.594,2.594,0,0,1-2.628,2.456m-12.389-12.311a1.456,1.456,0,0,0-1,.517,1.077,1.077,0,0,0-.24.815l1.124,8.694a1.974,1.974,0,0,0,2.08,1.588l10.389-.151h.021a1.745,1.745,0,0,0,1.8-1.609c.006-3.974-.036-7.7-.594-9.578a2.1,2.1,0,0,0-2.139-1.377c-1.893.07-5.289.441-8.018.74-1.331.146-2.54.279-3.418.36" transform="translate(56.874 32.841)" fill="#fec266"/>
        <path id="Trazado_1067316" data-name="Trazado 1067316" d="M267.184,147.335a.553.553,0,0,0-.56.746l1.062,3.666a1.067,1.067,0,0,0,.992.728l52.457-1.265a.759.759,0,0,0,.74-.8l-.107-2.321a.823.823,0,0,0-.811-.776Z" transform="translate(61.112 33.77)" fill="#fec266"/>
        <path id="Trazado_1067317" data-name="Trazado 1067317" d="M251.274,148.077h0a1.6,1.6,0,0,1,2.214.546l2.138,3.623a.512.512,0,0,0,.913-.061l4.809-11.436a.567.567,0,0,1,1.09.219,22.341,22.341,0,0,1-6.124,15.7s-3.077-1.111-5.661-6.44a1.674,1.674,0,0,1,.621-2.151" transform="translate(57.419 32.184)" fill="#d02411"/>
        <path id="Trazado_1067318" data-name="Trazado 1067318" d="M262.925,138.547H262.9l-10.391.15a2.816,2.816,0,0,1-2.932-2.327l-1.124-8.693a1.919,1.919,0,0,1,.419-1.454,2.3,2.3,0,0,1,1.587-.832c.875-.081,2.08-.213,3.4-.358,2.885-.316,6.155-.675,8.08-.746h.043a2.923,2.923,0,0,1,2.939,1.985c.591,1.991.634,5.781.629,9.82a2.6,2.6,0,0,1-2.628,2.456m-12.389-12.313a1.462,1.462,0,0,0-1,.519,1.076,1.076,0,0,0-.24.815l1.124,8.694a1.974,1.974,0,0,0,2.08,1.588l10.389-.151h.021a1.745,1.745,0,0,0,1.8-1.609c.006-3.974-.036-7.7-.594-9.578a2.1,2.1,0,0,0-2.139-1.377c-1.893.07-5.289.441-8.018.739-1.331.148-2.54.28-3.419.36" transform="translate(56.949 28.49)" fill="#fec266"/>
        <path id="Trazado_1067319" data-name="Trazado 1067319" d="M267.511,128.352a.553.553,0,0,0-.561.746l1.062,3.666a1.067,1.067,0,0,0,.993.728l52.456-1.265a.759.759,0,0,0,.74-.8l-.107-2.321a.823.823,0,0,0-.811-.776Z" transform="translate(61.187 29.418)" fill="#fec266"/>
        <path id="Trazado_1067320" data-name="Trazado 1067320" d="M251.6,129.095h0a1.6,1.6,0,0,1,2.214.546l2.138,3.623a.512.512,0,0,0,.913-.061l4.809-11.436a.567.567,0,0,1,1.09.219,22.34,22.34,0,0,1-6.124,15.7s-3.077-1.111-5.661-6.44a1.674,1.674,0,0,1,.621-2.151" transform="translate(57.494 27.833)" fill="#d02411"/>
        <path id="Trazado_1067321" data-name="Trazado 1067321" d="M263.508,176.113h-.028l-10.389.151a2.819,2.819,0,0,1-2.933-2.328l-1.124-8.693a1.92,1.92,0,0,1,.419-1.454,2.3,2.3,0,0,1,1.587-.832c.875-.081,2.08-.213,3.4-.358,2.885-.316,6.155-.675,8.08-.745h.042a2.922,2.922,0,0,1,2.94,1.984c.591,1.991.634,5.781.629,9.819a2.6,2.6,0,0,1-2.628,2.457M251.119,163.8a1.454,1.454,0,0,0-1,.518,1.076,1.076,0,0,0-.24.815L251,173.828a1.974,1.974,0,0,0,2.08,1.588l10.389-.151h.021a1.745,1.745,0,0,0,1.8-1.609c.006-3.974-.036-7.7-.594-9.578a2.11,2.11,0,0,0-2.139-1.377c-1.893.07-5.289.441-8.018.74-1.331.146-2.54.279-3.418.36" transform="translate(57.083 37.102)" fill="#fec266"/>
        <g id="Grupo_1211137" data-name="Grupo 1211137" transform="translate(307.447 200.287)" opacity="0.6">
          <g id="Grupo_1211136" data-name="Grupo 1211136">
            <g id="Grupo_1211135" data-name="Grupo 1211135" clip-path="url(#clip-path-33)">
              <path id="Trazado_1067322" data-name="Trazado 1067322" d="M251.422,163.818c2.178-.2,6.91-.8,9.159-.88a2.012,2.012,0,0,1,2.045,1.342c.473,1.594.493,4.8.489,7.75a1.729,1.729,0,0,1-1.789,1.625l-8.3.12a1.918,1.918,0,0,1-2-1.565l-.9-6.948a1.348,1.348,0,0,1,1.3-1.446" transform="translate(-250.113 -162.937)" fill="#fff"/>
            </g>
          </g>
        </g>
        <path id="Trazado_1067323" data-name="Trazado 1067323" d="M267.621,165.446a.553.553,0,0,0-.561.746l1.062,3.666a1.069,1.069,0,0,0,.992.729l52.457-1.266a.76.76,0,0,0,.74-.8l-.107-2.32a.824.824,0,0,0-.811-.777Z" transform="translate(61.212 37.922)" fill="#fec266"/>
        <path id="Trazado_1067324" data-name="Trazado 1067324" d="M251.711,166.189h0a1.6,1.6,0,0,1,2.214.546l2.138,3.623a.512.512,0,0,0,.913-.061l4.809-11.437a.567.567,0,0,1,1.09.22,22.338,22.338,0,0,1-6.125,15.7s-3.076-1.111-5.659-6.44a1.674,1.674,0,0,1,.621-2.151" transform="translate(57.519 36.336)" fill="#d02411"/>
        <path id="Trazado_1067325" data-name="Trazado 1067325" d="M263.136,193.524h-.028l-10.389.151a2.817,2.817,0,0,1-2.933-2.328l-1.124-8.693a1.92,1.92,0,0,1,.419-1.454,2.306,2.306,0,0,1,1.587-.832c.874-.081,2.077-.213,3.4-.358,2.744-.3,6.158-.674,8.083-.745a2.964,2.964,0,0,1,2.982,1.983c.591,1.991.634,5.781.629,9.82a2.6,2.6,0,0,1-2.628,2.456m-12.389-12.312a1.459,1.459,0,0,0-1,.518,1.078,1.078,0,0,0-.24.815l1.124,8.694a1.973,1.973,0,0,0,2.079,1.588l10.391-.15a1.785,1.785,0,0,0,1.82-1.61c.006-3.974-.036-7.7-.594-9.578a2.123,2.123,0,0,0-2.139-1.376c-1.894.069-5.292.44-8.022.74-1.329.145-2.537.278-3.415.359" transform="translate(56.998 41.093)" fill="#fec266"/>
        <g id="Grupo_1211140" data-name="Grupo 1211140" transform="translate(306.991 221.689)" opacity="0.6">
          <g id="Grupo_1211139" data-name="Grupo 1211139">
            <g id="Grupo_1211138" data-name="Grupo 1211138" clip-path="url(#clip-path-34)">
              <path id="Trazado_1067326" data-name="Trazado 1067326" d="M251.05,181.228c2.178-.2,6.91-.8,9.159-.88a2.012,2.012,0,0,1,2.045,1.342c.473,1.594.493,4.8.489,7.75a1.729,1.729,0,0,1-1.789,1.625l-8.3.12a1.918,1.918,0,0,1-2-1.565l-.9-6.948a1.348,1.348,0,0,1,1.3-1.446" transform="translate(-249.742 -180.348)" fill="#fff"/>
            </g>
          </g>
        </g>
        <path id="Trazado_1067327" data-name="Trazado 1067327" d="M267.249,182.857a.553.553,0,0,0-.561.746l1.062,3.666a1.067,1.067,0,0,0,.992.728l52.457-1.265a.759.759,0,0,0,.74-.8l-.107-2.321a.823.823,0,0,0-.811-.776Z" transform="translate(61.127 41.913)" fill="#fec266"/>
        <path id="Trazado_1067328" data-name="Trazado 1067328" d="M251.34,183.6h0a1.6,1.6,0,0,1,2.214.546l2.138,3.623a.512.512,0,0,0,.913-.061l4.809-11.437a.567.567,0,0,1,1.09.22,22.337,22.337,0,0,1-6.125,15.7s-3.076-1.111-5.659-6.44a1.674,1.674,0,0,1,.621-2.151" transform="translate(57.434 40.327)" fill="#d02411"/>
        <path id="Trazado_1067329" data-name="Trazado 1067329" d="M262.609,211.482h-.028l-10.389.151a2.819,2.819,0,0,1-2.933-2.328l-1.124-8.694a1.919,1.919,0,0,1,.419-1.453,2.3,2.3,0,0,1,1.587-.832c.875-.081,2.08-.213,3.4-.358,2.885-.316,6.155-.675,8.08-.745a2.954,2.954,0,0,1,2.982,1.983c.591,1.991.634,5.781.629,9.82a2.594,2.594,0,0,1-2.628,2.456M250.22,199.17a1.451,1.451,0,0,0-1,.517,1.076,1.076,0,0,0-.24.815L250.1,209.2a1.971,1.971,0,0,0,2.079,1.588l10.389-.151h.021a1.745,1.745,0,0,0,1.8-1.609c.006-3.974-.036-7.7-.594-9.579a2.136,2.136,0,0,0-2.139-1.376c-1.893.07-5.289.441-8.018.74-1.331.146-2.54.279-3.418.36" transform="translate(56.877 45.21)" fill="#fec266"/>
        <g id="Grupo_1211143" data-name="Grupo 1211143" transform="translate(306.343 243.764)" opacity="0.6">
          <g id="Grupo_1211142" data-name="Grupo 1211142">
            <g id="Grupo_1211141" data-name="Grupo 1211141" clip-path="url(#clip-path-34)">
              <path id="Trazado_1067330" data-name="Trazado 1067330" d="M250.523,199.187c2.178-.2,6.91-.8,9.159-.88a2.012,2.012,0,0,1,2.045,1.342c.473,1.594.493,4.8.489,7.75a1.729,1.729,0,0,1-1.789,1.625l-8.3.12a1.918,1.918,0,0,1-2-1.565l-.9-6.948a1.348,1.348,0,0,1,1.3-1.446" transform="translate(-249.215 -198.306)" fill="#fff"/>
            </g>
          </g>
        </g>
        <path id="Trazado_1067331" data-name="Trazado 1067331" d="M266.722,200.815a.553.553,0,0,0-.561.746l1.062,3.666a1.067,1.067,0,0,0,.992.728l52.457-1.265a.76.76,0,0,0,.74-.8l-.107-2.321a.823.823,0,0,0-.811-.776Z" transform="translate(61.006 46.029)" fill="#fec266"/>
        <path id="Trazado_1067332" data-name="Trazado 1067332" d="M250.813,201.558h0a1.6,1.6,0,0,1,2.214.546l2.138,3.623a.512.512,0,0,0,.913-.061l4.809-11.436a.567.567,0,0,1,1.09.219,22.338,22.338,0,0,1-6.125,15.7s-3.076-1.111-5.659-6.44a1.674,1.674,0,0,1,.621-2.151" transform="translate(57.314 44.444)" fill="#d02411"/>
      </g>
    </g>
    <g id="Grupo_1211147" data-name="Grupo 1211147" transform="translate(336.845 102.74)">
      <g id="Grupo_1211146" data-name="Grupo 1211146" clip-path="url(#clip-path-36)">
        <rect id="Rectángulo_402612" data-name="Rectángulo 402612" width="17.853" height="15.219" transform="translate(-0.147 0)" fill="url(#linear-gradient-7)"/>
      </g>
    </g>
    <g id="Grupo_1211149" data-name="Grupo 1211149">
      <g id="Grupo_1211148" data-name="Grupo 1211148" clip-path="url(#clip-path)">
        <path id="Trazado_1067334" data-name="Trazado 1067334" d="M275.553,93.769a.517.517,0,0,1-.334-.443l-.128-1.532a.519.519,0,0,1,1.034-.086l.128,1.532a.518.518,0,0,1-.7.529m-.25-3a.515.515,0,0,1-.334-.443l-.1-1.163a4.151,4.151,0,0,1,2.981-4.333,8.107,8.107,0,0,1,3.958-.13.519.519,0,0,1-.216,1.015,7.073,7.073,0,0,0-3.457.113,3.112,3.112,0,0,0-2.232,3.249l.1,1.163a.518.518,0,0,1-.474.559.511.511,0,0,1-.225-.031" transform="translate(63.006 19.374)" fill="#fff"/>
      </g>
    </g>
    <g id="Grupo_1211151" data-name="Grupo 1211151" transform="translate(323.311 115.28)">
      <g id="Grupo_1211150" data-name="Grupo 1211150" clip-path="url(#clip-path-38)">
        <rect id="Rectángulo_402614" data-name="Rectángulo 402614" width="39.392" height="8.78" fill="url(#linear-gradient-8)"/>
      </g>
    </g>
    <g id="Grupo_1211153" data-name="Grupo 1211153">
      <g id="Grupo_1211152" data-name="Grupo 1211152" clip-path="url(#clip-path)">
        <path id="Trazado_1067336" data-name="Trazado 1067336" d="M272.05,95.471a.3.3,0,0,1,.007-.6l1.433.012a.3.3,0,0,1,.3.3.3.3,0,0,1-.3.3l-1.432-.012h0" transform="translate(62.295 21.747)" fill="#fff"/>
        <path id="Trazado_1067337" data-name="Trazado 1067337" d="M264.412,100.07a.519.519,0,0,1-.336-.49l.016-1.954a3.005,3.005,0,0,1,3.029-2.98l5.266.044a.519.519,0,0,1-.009,1.037l-5.266-.043a1.968,1.968,0,0,0-1.983,1.95l-.016,1.954a.519.519,0,0,1-.524.515.533.533,0,0,1-.178-.033" transform="translate(60.535 21.696)" fill="#fff"/>
      </g>
    </g>
    <g id="Grupo_1211155" data-name="Grupo 1211155" transform="translate(309.576 121.18)">
      <g id="Grupo_1211154" data-name="Grupo 1211154" clip-path="url(#clip-path-40)">
        <rect id="Rectángulo_402616" data-name="Rectángulo 402616" width="66.263" height="8.687" transform="translate(-0.074)" fill="url(#linear-gradient-9)"/>
      </g>
    </g>
    <g id="Grupo_1211157" data-name="Grupo 1211157">
      <g id="Grupo_1211156" data-name="Grupo 1211156" clip-path="url(#clip-path)">
        <path id="Trazado_1067339" data-name="Trazado 1067339" d="M189.682,118.163q3.913,4.211,7.426,8.536a6.4,6.4,0,0,0,10.789-1.3,433.949,433.949,0,0,1,21.3-40.863,6.382,6.382,0,0,1,3.473-2.779l2.939-.98a6.392,6.392,0,0,1,7.384,9.549c-11.164,17.078-22.449,37.828-32.76,59.1a6.394,6.394,0,0,1-10.938.926c-6.749-9.373-13.257-17.96-18.758-23.264a6.4,6.4,0,1,1,9.149-8.928" transform="translate(40.932 18.438)" fill="#d02411"/>
      </g>
    </g>
    <g id="Grupo_1211159" data-name="Grupo 1211159" transform="translate(166.869 280.733)">
      <g id="Grupo_1211158" data-name="Grupo 1211158" clip-path="url(#clip-path-42)">
        <rect id="Rectángulo_402618" data-name="Rectángulo 402618" width="13.404" height="1.438" transform="translate(-0.112 0)" fill="url(#linear-gradient-10)"/>
      </g>
    </g>
    <g id="Grupo_1211161" data-name="Grupo 1211161" transform="translate(167.244 276.135)">
      <g id="Grupo_1211160" data-name="Grupo 1211160" clip-path="url(#clip-path-43)">
        <rect id="Rectángulo_402619" data-name="Rectángulo 402619" width="12.932" height="5.334" transform="translate(0)" fill="url(#linear-gradient-11)"/>
      </g>
    </g>
    <g id="Grupo_1211163" data-name="Grupo 1211163" transform="translate(175.19 272.858)">
      <g id="Grupo_1211162" data-name="Grupo 1211162" clip-path="url(#clip-path-44)">
        <rect id="Rectángulo_402620" data-name="Rectángulo 402620" width="3.743" height="4.58" transform="translate(0)" fill="url(#linear-gradient-12)"/>
      </g>
    </g>
    <g id="Grupo_1211165" data-name="Grupo 1211165" transform="translate(201.565 280.159)">
      <g id="Grupo_1211164" data-name="Grupo 1211164" clip-path="url(#clip-path-45)">
        <rect id="Rectángulo_402621" data-name="Rectángulo 402621" width="5.206" height="1.881" fill="url(#linear-gradient-13)"/>
      </g>
    </g>
    <g id="Grupo_1211167" data-name="Grupo 1211167" transform="translate(199.145 272.834)">
      <g id="Grupo_1211166" data-name="Grupo 1211166" clip-path="url(#clip-path-46)">
        <rect id="Rectángulo_402622" data-name="Rectángulo 402622" width="7.787" height="8.753" transform="translate(-0.311)" fill="url(#linear-gradient-14)"/>
      </g>
    </g>
    <g id="Grupo_1211169" data-name="Grupo 1211169" transform="translate(198.262 269.385)">
      <g id="Grupo_1211168" data-name="Grupo 1211168" clip-path="url(#clip-path-47)">
        <rect id="Rectángulo_402623" data-name="Rectángulo 402623" width="4.557" height="5.32" fill="url(#linear-gradient-15)"/>
      </g>
    </g>
    <g id="Grupo_1211171" data-name="Grupo 1211171">
      <g id="Grupo_1211170" data-name="Grupo 1211170" clip-path="url(#clip-path)">
        <path id="Trazado_1067346" data-name="Trazado 1067346" d="M171.637,229.7c-1.143,1.014-4.863,1.148-4.863,1.148-13.4-32.153-18.876-36.721-18.876-36.721,1.934,12.136.312,39,.312,39a8.038,8.038,0,0,1-5.062,0,207.091,207.091,0,0,0-6.841-50.856c9.055-.2,13.869-3.3,15.442-4.546C159.3,189.9,171.637,229.7,171.637,229.7" transform="translate(31.246 40.741)" fill="#28362e"/>
        <path id="Trazado_1067347" data-name="Trazado 1067347" d="M151.715,147.69c1.714,8.548,1.1,23.848.7,30.828-.113,1.962,1.256,4.681,2.363,6.536a.581.581,0,0,1-.235.819,40.336,40.336,0,0,1-15.406,4.27,1.035,1.035,0,0,1-1.044-.774c-5.4-20.151-11.665-33.028-11.665-33.028,6.921-11.052,25.291-8.65,25.291-8.65" transform="translate(28.98 33.805)" fill="#eca7a0"/>
      </g>
    </g>
    <g id="Grupo_1211173" data-name="Grupo 1211173" transform="translate(172.669 228.802)">
      <g id="Grupo_1211172" data-name="Grupo 1211172" clip-path="url(#clip-path-49)">
        <rect id="Rectángulo_402625" data-name="Rectángulo 402625" width="6.527" height="5.791" transform="matrix(0.997, -0.082, 0.082, 0.997, -0.496, 0.036)" fill="url(#linear-gradient-16)"/>
      </g>
    </g>
    <g id="Grupo_1211175" data-name="Grupo 1211175" transform="translate(184.779 205.434)">
      <g id="Grupo_1211174" data-name="Grupo 1211174" clip-path="url(#clip-path-50)">
        <rect id="Rectángulo_402626" data-name="Rectángulo 402626" width="14.553" height="13.965" transform="matrix(0.663, -0.749, 0.749, 0.663, -6.718, 7.587)" fill="url(#linear-gradient-17)"/>
      </g>
    </g>
    <g id="Grupo_1211177" data-name="Grupo 1211177">
      <g id="Grupo_1211176" data-name="Grupo 1211176" clip-path="url(#clip-path)">
        <path id="Trazado_1067350" data-name="Trazado 1067350" d="M145.442,158.2l1.914-10.548s12.79,9.776,10.75,24.534a14.8,14.8,0,0,0-6.05-.435c-.585-4.736-2.332-9.877-6.613-13.551" transform="translate(33.34 33.846)" fill="#e37c70"/>
        <path id="Trazado_1067351" data-name="Trazado 1067351" d="M127.3,154.686l4.937,10.632c-.8,6.419-4.246,9.195-7.964,10.259a22.547,22.547,0,0,0-1.658-6.923c4.751-4.906,4.686-13.968,4.686-13.968" transform="translate(28.107 35.459)" fill="#e37c70"/>
      </g>
    </g>
    <g id="Grupo_1211179" data-name="Grupo 1211179" transform="translate(139.833 204.113)">
      <g id="Grupo_1211178" data-name="Grupo 1211178" clip-path="url(#clip-path-52)">
        <rect id="Rectángulo_402628" data-name="Rectángulo 402628" width="12.546" height="10.773" transform="translate(0 0)" fill="url(#linear-gradient-18)"/>
      </g>
    </g>
    <g id="Grupo_1211181" data-name="Grupo 1211181" transform="translate(159.954 174.657)">
      <g id="Grupo_1211180" data-name="Grupo 1211180" clip-path="url(#clip-path-53)">
        <rect id="Rectángulo_402629" data-name="Rectángulo 402629" width="9.735" height="12.694" transform="matrix(1, -0.006, 0.006, 1, -0.074, 0)" fill="url(#linear-gradient-19)"/>
      </g>
    </g>
    <g id="Grupo_1211188" data-name="Grupo 1211188">
      <g id="Grupo_1211187" data-name="Grupo 1211187" clip-path="url(#clip-path)">
        <path id="Trazado_1067354" data-name="Trazado 1067354" d="M110.345,163.971,171.417,186.2a4.677,4.677,0,0,1,2.656,6.331l-.184.407a4.347,4.347,0,0,1-5.782,2.146l-59.3-27.433Z" transform="translate(24.942 37.587)" fill="#cb7a00"/>
        <g id="Grupo_1211186" data-name="Grupo 1211186" transform="translate(77.068 158.584)" opacity="0.2">
          <g id="Grupo_1211185" data-name="Grupo 1211185">
            <g id="Grupo_1211184" data-name="Grupo 1211184" clip-path="url(#clip-path-55)">
              <g id="Grupo_1211183" data-name="Grupo 1211183" transform="translate(0 0)">
                <g id="Grupo_1211182" data-name="Grupo 1211182" clip-path="url(#clip-path-56)">
                  <rect id="Rectángulo_402630" data-name="Rectángulo 402630" width="60.295" height="59.207" transform="translate(0)" fill="url(#linear-gradient-20)"/>
                </g>
              </g>
            </g>
          </g>
        </g>
        <path id="Trazado_1067356" data-name="Trazado 1067356" d="M59.931,159.237c0,18.193,15.02,32.941,33.547,32.941s33.546-14.748,33.546-32.941S112,126.3,93.478,126.3s-33.547,14.748-33.547,32.941m4.928,0c0-15.52,12.814-28.1,28.619-28.1s28.618,12.582,28.618,28.1-12.812,28.1-28.618,28.1-28.619-12.582-28.619-28.1" transform="translate(13.738 28.951)" fill="#cb7a00"/>
        <path id="Trazado_1067357" data-name="Trazado 1067357" d="M121.364,162.785h-.012a.1.1,0,0,1-.084-.109c.1-.771.168-1.556.206-2.337a.092.092,0,0,1,.1-.092.1.1,0,0,1,.092.1c-.039.785-.109,1.576-.208,2.352a.1.1,0,0,1-.1.085m-.23-9.211a.1.1,0,0,1-.1-.08,29.927,29.927,0,0,0-1.79-6.128,30.675,30.675,0,0,0-11.271-13.759,31.642,31.642,0,0,0-34.334-.575.1.1,0,1,1-.1-.165,31.836,31.836,0,0,1,34.545.579,30.858,30.858,0,0,1,11.342,13.846,30.212,30.212,0,0,1,1.8,6.167.1.1,0,0,1-.079.113h-.017" transform="translate(16.847 29.355)" fill="#fff"/>
      </g>
    </g>
    <g id="Grupo_1211190" data-name="Grupo 1211190" transform="translate(177.016 217.315)">
      <g id="Grupo_1211189" data-name="Grupo 1211189" clip-path="url(#clip-path-57)">
        <rect id="Rectángulo_402633" data-name="Rectángulo 402633" width="8.646" height="9.176" transform="matrix(0.663, -0.749, 0.749, 0.663, -1.597, 1.804)" fill="url(#linear-gradient-21)"/>
      </g>
    </g>
    <g id="Grupo_1211192" data-name="Grupo 1211192" transform="translate(136.674 204.416)">
      <g id="Grupo_1211191" data-name="Grupo 1211191" clip-path="url(#clip-path-58)">
        <rect id="Rectángulo_402634" data-name="Rectángulo 402634" width="6" height="4.761" transform="translate(-0.119)" fill="url(#linear-gradient-22)"/>
      </g>
    </g>
    <g id="Grupo_1211194" data-name="Grupo 1211194">
      <g id="Grupo_1211193" data-name="Grupo 1211193" clip-path="url(#clip-path)">
        <path id="Trazado_1067360" data-name="Trazado 1067360" d="M160.032,190.235a.1.1,0,0,1-.032-.189c1.779-.615,2.709-1.618,2.769-2.981a3.313,3.313,0,0,0-2.165-3.186l-7.332-2.859a.1.1,0,0,1,.07-.181l7.332,2.859a3.5,3.5,0,0,1,2.288,3.375c-.063,1.452-1.037,2.513-2.9,3.157a.1.1,0,0,1-.032,0" transform="translate(35.121 41.452)" fill="#fff"/>
        <path id="Trazado_1067361" data-name="Trazado 1067361" d="M151.646,180.377a.121.121,0,0,1-.036-.006l-.95-.371a.1.1,0,1,1,.071-.181l.95.37a.1.1,0,0,1,.055.127.1.1,0,0,1-.091.061" transform="translate(34.522 41.219)" fill="#fff"/>
      </g>
    </g>
    <g id="Grupo_1211196" data-name="Grupo 1211196" transform="translate(157.208 168.418)">
      <g id="Grupo_1211195" data-name="Grupo 1211195" clip-path="url(#clip-path-60)">
        <rect id="Rectángulo_402636" data-name="Rectángulo 402636" width="16.071" height="15.931" transform="matrix(0.608, -0.794, 0.794, 0.608, -6.21, 7.436)" fill="url(#linear-gradient-23)"/>
      </g>
    </g>
    <g id="Grupo_1211198" data-name="Grupo 1211198" transform="translate(156.882 163.468)">
      <g id="Grupo_1211197" data-name="Grupo 1211197" clip-path="url(#clip-path-61)">
        <rect id="Rectángulo_402637" data-name="Rectángulo 402637" width="15.049" height="13.936" transform="translate(-0.592 0)" fill="url(#linear-gradient-24)"/>
      </g>
    </g>
    <g id="Grupo_1211200" data-name="Grupo 1211200" transform="translate(164.734 172.974)">
      <g id="Grupo_1211199" data-name="Grupo 1211199" clip-path="url(#clip-path-62)">
        <rect id="Rectángulo_402638" data-name="Rectángulo 402638" width="4.811" height="4.784" transform="translate(-1.687 2.204) rotate(-52.578)" fill="url(#linear-gradient-25)"/>
      </g>
    </g>
    <g id="Grupo_1211202" data-name="Grupo 1211202">
      <g id="Grupo_1211201" data-name="Grupo 1211201" clip-path="url(#clip-path)">
        <path id="Trazado_1067365" data-name="Trazado 1067365" d="M79.682,152.909l5.209,4.055a4.558,4.558,0,0,0,5.689-.071l15.687-12.858a4.558,4.558,0,0,1,6.184,6.674l-21.316,22.3a4.557,4.557,0,0,1-6.66-.076L72.9,160.256a4.557,4.557,0,0,1-.006-6.139l.616-.677a4.558,4.558,0,0,1,6.172-.531" transform="translate(16.438 32.78)" fill="#d02411"/>
        <path id="Trazado_1067366" data-name="Trazado 1067366" d="M321.258,51.309C306.015,50.9,230.611,48.5,215.135,48c-1.527-.049-2.778,2.19-2.778,4.971v12.85c0,2.746,1.223,4.971,2.731,4.971H321.217c1.508,0,2.731-2.225,2.731-4.971V56.28c0-2.717-1.2-4.93-2.69-4.971" transform="translate(48.679 11.004)" fill="#35483e"/>
        <path id="Trazado_1067367" data-name="Trazado 1067367" d="M219.706,67.211l3.938-2.061a1.048,1.048,0,0,1,.978,0l3.932,2.075a1.051,1.051,0,0,0,1.527-1.105l-.745-4.383a1.052,1.052,0,0,1,.3-.931l3.19-3.1a1.05,1.05,0,0,0-.58-1.792l-4.4-.647a1.054,1.054,0,0,1-.79-.575L225.1,50.7a1.051,1.051,0,0,0-1.883,0l-1.974,3.986a1.053,1.053,0,0,1-.793.573l-4.4.633a1.05,1.05,0,0,0-.585,1.791l3.179,3.107a1.052,1.052,0,0,1,.3.932l-.758,4.38a1.05,1.05,0,0,0,1.523,1.11" transform="translate(49.318 11.488)" fill="#fec266"/>
        <path id="Trazado_1067368" data-name="Trazado 1067368" d="M236.24,67.683l3.938-2.063a1.048,1.048,0,0,1,.978,0l3.932,2.075a1.051,1.051,0,0,0,1.527-1.105l-.745-4.383a1.049,1.049,0,0,1,.3-.931l3.189-3.1a1.05,1.05,0,0,0-.58-1.792l-4.4-.647a1.054,1.054,0,0,1-.79-.575l-1.962-3.991a1.05,1.05,0,0,0-1.883,0l-1.974,3.985a1.051,1.051,0,0,1-.793.573l-4.4.633A1.05,1.05,0,0,0,232,58.153l3.179,3.109a1.049,1.049,0,0,1,.3.931l-.758,4.381a1.051,1.051,0,0,0,1.523,1.11" transform="translate(53.108 11.596)" fill="#fec266"/>
        <path id="Trazado_1067369" data-name="Trazado 1067369" d="M252.918,67.776l3.938-2.063a1.048,1.048,0,0,1,.978,0l3.932,2.075a1.051,1.051,0,0,0,1.527-1.105l-.745-4.383a1.049,1.049,0,0,1,.3-.931l3.189-3.1a1.05,1.05,0,0,0-.58-1.792l-4.4-.647a1.054,1.054,0,0,1-.79-.575l-1.962-3.991a1.05,1.05,0,0,0-1.883,0l-1.974,3.985a1.051,1.051,0,0,1-.793.573l-4.4.633a1.05,1.05,0,0,0-.585,1.791l3.179,3.109a1.049,1.049,0,0,1,.3.931l-.758,4.381a1.051,1.051,0,0,0,1.523,1.11" transform="translate(56.931 11.617)" fill="#fec266"/>
        <path id="Trazado_1067370" data-name="Trazado 1067370" d="M269.107,67.966l3.938-2.063a1.051,1.051,0,0,1,.979,0l3.932,2.075a1.051,1.051,0,0,0,1.527-1.105l-.745-4.383a1.049,1.049,0,0,1,.3-.931l3.189-3.1a1.05,1.05,0,0,0-.58-1.792l-4.4-.647a1.054,1.054,0,0,1-.79-.575L274.5,51.456a1.05,1.05,0,0,0-1.883,0l-1.974,3.985a1.05,1.05,0,0,1-.793.573l-4.4.633a1.05,1.05,0,0,0-.585,1.791l3.179,3.109a1.049,1.049,0,0,1,.3.931l-.758,4.381a1.051,1.051,0,0,0,1.523,1.11" transform="translate(60.642 11.661)" fill="#fec266"/>
      </g>
    </g>
    <g id="Grupo_1211204" data-name="Grupo 1211204" transform="translate(350.21 177.902)">
      <g id="Grupo_1211203" data-name="Grupo 1211203" clip-path="url(#clip-path-64)">
        <rect id="Rectángulo_402640" data-name="Rectángulo 402640" width="22.26" height="105.737" transform="translate(-0.098)" fill="url(#linear-gradient-26)"/>
      </g>
    </g>
    <g id="Grupo_1211206" data-name="Grupo 1211206" transform="translate(393.122 179.248)">
      <g id="Grupo_1211205" data-name="Grupo 1211205" clip-path="url(#clip-path-65)">
        <rect id="Rectángulo_402641" data-name="Rectángulo 402641" width="25.786" height="104.391" transform="translate(-0.112)" fill="url(#linear-gradient-27)"/>
      </g>
    </g>
    <g id="Grupo_1211208" data-name="Grupo 1211208" transform="translate(365.13 202.541)">
      <g id="Grupo_1211207" data-name="Grupo 1211207" clip-path="url(#clip-path-66)">
        <rect id="Rectángulo_402642" data-name="Rectángulo 402642" width="35.923" height="2.246" transform="translate(0 0)" fill="url(#linear-gradient-28)"/>
      </g>
    </g>
    <g id="Grupo_1211210" data-name="Grupo 1211210" transform="translate(365.781 202.541)">
      <g id="Grupo_1211209" data-name="Grupo 1211209" clip-path="url(#clip-path-67)">
        <rect id="Rectángulo_402643" data-name="Rectángulo 402643" width="34.619" height="2.246" transform="translate(0 0)" fill="url(#linear-gradient-29)"/>
      </g>
    </g>
    <g id="Grupo_1211212" data-name="Grupo 1211212" transform="translate(365.13 221.254)">
      <g id="Grupo_1211211" data-name="Grupo 1211211" clip-path="url(#clip-path-68)">
        <rect id="Rectángulo_402644" data-name="Rectángulo 402644" width="35.923" height="2.246" fill="url(#linear-gradient-30)"/>
      </g>
    </g>
    <g id="Grupo_1211214" data-name="Grupo 1211214" transform="translate(362.096 221.254)">
      <g id="Grupo_1211213" data-name="Grupo 1211213" clip-path="url(#clip-path-69)">
        <rect id="Rectángulo_402645" data-name="Rectángulo 402645" width="43.017" height="2.246" fill="url(#linear-gradient-31)"/>
      </g>
    </g>
    <g id="Grupo_1211216" data-name="Grupo 1211216" transform="translate(365.13 239.967)">
      <g id="Grupo_1211215" data-name="Grupo 1211215" clip-path="url(#clip-path-70)">
        <rect id="Rectángulo_402646" data-name="Rectángulo 402646" width="35.923" height="2.246" fill="url(#linear-gradient-32)"/>
      </g>
    </g>
    <g id="Grupo_1211218" data-name="Grupo 1211218" transform="translate(358.228 239.967)">
      <g id="Grupo_1211217" data-name="Grupo 1211217" clip-path="url(#clip-path-71)">
        <rect id="Rectángulo_402647" data-name="Rectángulo 402647" width="50.997" height="2.246" fill="url(#linear-gradient-33)"/>
      </g>
    </g>
    <g id="Grupo_1211220" data-name="Grupo 1211220" transform="translate(365.13 258.68)">
      <g id="Grupo_1211219" data-name="Grupo 1211219" clip-path="url(#clip-path-72)">
        <rect id="Rectángulo_402648" data-name="Rectángulo 402648" width="47.993" height="2.246" fill="url(#linear-gradient-34)"/>
      </g>
    </g>
    <g id="Grupo_1211222" data-name="Grupo 1211222" transform="translate(355.098 258.68)">
      <g id="Grupo_1211221" data-name="Grupo 1211221" clip-path="url(#clip-path-73)">
        <rect id="Rectángulo_402649" data-name="Rectángulo 402649" width="58.025" height="2.246" transform="translate(0)" fill="url(#linear-gradient-35)"/>
      </g>
    </g>
    <g id="Grupo_1211224" data-name="Grupo 1211224">
      <g id="Grupo_1211223" data-name="Grupo 1211223" clip-path="url(#clip-path)">
        <path id="Trazado_1067381" data-name="Trazado 1067381" d="M158.772,144.031a1.138,1.138,0,0,1-1.09-.516l-1.351-2.109a13.853,13.853,0,0,1-3.478-.545l-1.932,1.6a1.136,1.136,0,0,1-1.319.093l-3.058-1.866a1.139,1.139,0,0,1-.52-1.217l.536-2.447a13.85,13.85,0,0,1-2.076-2.843l-2.493-.236a1.139,1.139,0,0,1-1-.865l-.843-3.484a1.138,1.138,0,0,1,.492-1.227l2.109-1.351a13.845,13.845,0,0,1,.545-3.477l-1.6-1.932a1.138,1.138,0,0,1-.093-1.318l1.866-3.061a1.138,1.138,0,0,1,1.216-.519l2.449.536a13.851,13.851,0,0,1,2.843-2.076l.236-2.493a1.141,1.141,0,0,1,.864-1l3.485-.844a1.136,1.136,0,0,1,1.226.49l1.352,2.112a13.852,13.852,0,0,1,3.477.545l1.931-1.6a1.144,1.144,0,0,1,1.318-.1l3.062,1.868a1.14,1.14,0,0,1,.519,1.214l-.536,2.45a13.9,13.9,0,0,1,2.076,2.843l2.493.236a1.139,1.139,0,0,1,1,.865l.844,3.484a1.138,1.138,0,0,1-.493,1.227l-2.108,1.351a13.9,13.9,0,0,1-.546,3.478l1.6,1.931a1.141,1.141,0,0,1,.093,1.319L170,137.612a1.142,1.142,0,0,1-1.214.52l-2.45-.537a13.9,13.9,0,0,1-2.843,2.076l-.236,2.493a1.139,1.139,0,0,1-.864,1l-3.485.844a1.32,1.32,0,0,1-.136.023m-6.306-5.168.468.154a12.094,12.094,0,0,0,3.881.608l.494,0,1.628,2.541,2.588-.627.284-3,.44-.223a12.106,12.106,0,0,0,3.173-2.316l.345-.352,2.95.647,1.387-2.273-1.925-2.327.154-.468a12.126,12.126,0,0,0,.608-3.882l0-.493,2.541-1.628-.627-2.586-3-.285-.222-.44a12.107,12.107,0,0,0-2.316-3.173l-.352-.345.647-2.95-2.273-1.387L161,115.976l-.468-.154a12.125,12.125,0,0,0-3.882-.608l-.492,0-1.629-2.541-2.588.627-.284,3-.44.222a12.106,12.106,0,0,0-3.173,2.316l-.345.352-2.95-.647-1.387,2.273,1.925,2.327-.154.468a12.12,12.12,0,0,0-.608,3.882l0,.493-2.541,1.627.627,2.586,3,.285.221.44a12.115,12.115,0,0,0,2.318,3.173l.35.345-.647,2.95,2.273,1.385Zm-2.682,2.219h0Zm-2.016-1.232v0m-.3-.69h0m-2.478-21h0m12.768,18.71a9.538,9.538,0,1,1,8.446-9.715.893.893,0,0,1-1.785.045,7.757,7.757,0,1,0-2.318,5.721.893.893,0,0,1,1.254,1.272,9.526,9.526,0,0,1-4.445,2.47,9.84,9.84,0,0,1-1.152.207" transform="translate(32.119 25.399)" fill="#d9dedb"/>
        <path id="Trazado_1067382" data-name="Trazado 1067382" d="M154.871,129.132a4.082,4.082,0,1,1,1.426-.445,4.075,4.075,0,0,1-1.426.445m-.741-6.327a2.3,2.3,0,1,0,.944.089,2.289,2.289,0,0,0-.944-.089" transform="translate(34.458 27.738)" fill="#d9dedb"/>
        <path id="Trazado_1067383" data-name="Trazado 1067383" d="M133.781,124.6a.8.8,0,0,1-.289-.02l-1.669-.431a.79.79,0,0,1-.589-.7l-.085-1.079a6.869,6.869,0,0,1-1.2-.9l-1.057.214a.785.785,0,0,1-.835-.37l-.876-1.487a.786.786,0,0,1,.08-.912l.7-.82a6.885,6.885,0,0,1-.208-1.486l-.9-.595a.792.792,0,0,1-.327-.856l.431-1.668a.8.8,0,0,1,.7-.589l1.076-.085a6.877,6.877,0,0,1,.9-1.2l-.215-1.057a.79.79,0,0,1,.374-.837l1.484-.874a.787.787,0,0,1,.915.082l.817.7a6.952,6.952,0,0,1,1.486-.208l.6-.9a.789.789,0,0,1,.854-.328l1.668.431a.788.788,0,0,1,.589.7l.085,1.079a6.877,6.877,0,0,1,1.2.9l1.056-.215a.789.789,0,0,1,.84.376l.873,1.481a.79.79,0,0,1-.077.91l-.7.822a6.884,6.884,0,0,1,.208,1.486l.9.6a.788.788,0,0,1,.328.856l-.431,1.668a.792.792,0,0,1-.7.588l-1.079.085a6.876,6.876,0,0,1-.9,1.2l.215,1.058a.787.787,0,0,1-.371.835l-1.486.875a.786.786,0,0,1-.913-.081l-.819-.7a6.9,6.9,0,0,1-1.486.208l-.6.9a.781.781,0,0,1-.564.347m-.552-1.088v0Zm4.885-.69,0,0,0,0m-.633-.053h0Zm-4.943.181.908.235.781-1.179.369.009a5.57,5.57,0,0,0,1.795-.251l.353-.111,1.074.917.808-.476-.28-1.385.267-.254a5.592,5.592,0,0,0,1.09-1.448l.172-.327,1.409-.112.235-.907-1.179-.782.009-.369a5.538,5.538,0,0,0-.252-1.795l-.109-.353.917-1.074-.476-.809-1.385.281-.254-.267a5.62,5.62,0,0,0-1.448-1.09l-.327-.172-.112-1.409-.908-.235-.781,1.179-.369-.009a5.605,5.605,0,0,0-1.795.252l-.353.109-1.074-.917-.809.476.281,1.385-.267.254a5.591,5.591,0,0,0-1.09,1.448l-.172.327-1.409.112-.235.908,1.179.781-.009.37a5.6,5.6,0,0,0,.252,1.793l.109.353-.917,1.074.476.809,1.385-.281.254.267a5.591,5.591,0,0,0,1.448,1.09l.327.172Zm6.166-.472v0Zm-10.423-2.694h0m.054-.639,0,0,0,0m13.281-1.865v0Zm-.514-3.653h0Zm-.288-1.226h0m-.588-.259,0,0Zm.452-.4h0Zm-10.2-.868h0m6.805-.956h0Zm-1.668-.431h0Zm-4.291.459,0,0Zm3.927,11.231a4.83,4.83,0,1,1,4.022-6.315.67.67,0,0,1-1.272.42,3.491,3.491,0,1,0-.251,2.767.67.67,0,1,1,1.176.64,4.843,4.843,0,0,1-3.675,2.487" transform="translate(28.998 24.796)" fill="#d9dedb"/>
        <path id="Trazado_1067384" data-name="Trazado 1067384" d="M291.1,80.619l7.574-4.73a2.107,2.107,0,0,1,1.958-.145l8.19,3.557a2.11,2.11,0,0,0,2.889-2.445l-2.159-8.665a2.106,2.106,0,0,1,.467-1.908l5.914-6.691a2.109,2.109,0,0,0-1.432-3.5l-8.908-.626a2.11,2.11,0,0,1-1.67-1.033l-4.535-7.693a2.11,2.11,0,0,0-3.774.28L292.264,55.3a2.114,2.114,0,0,1-1.5,1.269L282.047,58.5a2.11,2.11,0,0,0-.9,3.675l6.839,5.742a2.109,2.109,0,0,1,.744,1.818l-.853,8.889a2.11,2.11,0,0,0,3.218,1.991" transform="translate(64.275 10.476)" fill="#fe9900"/>
      </g>
    </g>
    <g id="Grupo_1211226" data-name="Grupo 1211226" transform="translate(368.876 78.868)">
      <g id="Grupo_1211225" data-name="Grupo 1211225" clip-path="url(#clip-path-75)">
        <rect id="Rectángulo_402651" data-name="Rectángulo 402651" width="42.663" height="30.483" transform="matrix(0.31, -0.951, 0.951, 0.31, -18.741, 34.809)" fill="url(#linear-gradient-36)"/>
      </g>
    </g>
    <g id="Grupo_1211228" data-name="Grupo 1211228" transform="translate(380.715 158.968)">
      <g id="Grupo_1211227" data-name="Grupo 1211227" clip-path="url(#clip-path-76)">
        <rect id="Rectángulo_402652" data-name="Rectángulo 402652" width="18.99" height="43.125" fill="url(#linear-gradient-37)"/>
      </g>
    </g>
    <g id="Grupo_1211230" data-name="Grupo 1211230" transform="translate(393.384 193.409)">
      <g id="Grupo_1211229" data-name="Grupo 1211229" clip-path="url(#clip-path-77)">
        <rect id="Rectángulo_402653" data-name="Rectángulo 402653" width="7.855" height="9.862" transform="translate(-0.007)" fill="url(#linear-gradient-38)"/>
      </g>
    </g>
    <g id="Grupo_1211232" data-name="Grupo 1211232" transform="translate(370.99 199.632)">
      <g id="Grupo_1211231" data-name="Grupo 1211231" clip-path="url(#clip-path-78)">
        <rect id="Rectángulo_402654" data-name="Rectángulo 402654" width="11.482" height="4.358" transform="translate(-0.143 0)" fill="url(#linear-gradient-39)"/>
      </g>
    </g>
    <g id="Grupo_1211234" data-name="Grupo 1211234" transform="translate(369.299 161.766)">
      <g id="Grupo_1211233" data-name="Grupo 1211233" clip-path="url(#clip-path-79)">
        <rect id="Rectángulo_402655" data-name="Rectángulo 402655" width="10.893" height="40.327" fill="url(#linear-gradient-40)"/>
      </g>
    </g>
    <g id="Grupo_1211236" data-name="Grupo 1211236" transform="translate(363.046 111.858)">
      <g id="Grupo_1211235" data-name="Grupo 1211235" clip-path="url(#clip-path-80)">
        <rect id="Rectángulo_402656" data-name="Rectángulo 402656" width="29.343" height="30.849" transform="matrix(0.865, -0.503, 0.503, 0.865, -10.599, 6.087)" fill="url(#linear-gradient-41)"/>
      </g>
    </g>
    <g id="Grupo_1211238" data-name="Grupo 1211238" transform="translate(367.705 133.983)">
      <g id="Grupo_1211237" data-name="Grupo 1211237" clip-path="url(#clip-path-81)">
        <rect id="Rectángulo_402657" data-name="Rectángulo 402657" width="22.125" height="34.706" transform="translate(-2.009 0)" fill="url(#linear-gradient-42)"/>
      </g>
    </g>
    <g id="Grupo_1211240" data-name="Grupo 1211240" transform="translate(372.602 106.594)">
      <g id="Grupo_1211239" data-name="Grupo 1211239" clip-path="url(#clip-path-82)">
        <rect id="Rectángulo_402658" data-name="Rectángulo 402658" width="6.702" height="8.924" transform="translate(-0.035)" fill="url(#linear-gradient-43)"/>
      </g>
    </g>
    <g id="Grupo_1211242" data-name="Grupo 1211242" transform="translate(371.616 95.677)">
      <g id="Grupo_1211241" data-name="Grupo 1211241" clip-path="url(#clip-path-83)">
        <rect id="Rectángulo_402659" data-name="Rectángulo 402659" width="13.093" height="14.305" transform="translate(-2.053 12.149) rotate(-86.11)" fill="url(#linear-gradient-44)"/>
      </g>
    </g>
    <g id="Grupo_1211244" data-name="Grupo 1211244" transform="translate(372.628 93.163)">
      <g id="Grupo_1211243" data-name="Grupo 1211243" clip-path="url(#clip-path-84)">
        <rect id="Rectángulo_402660" data-name="Rectángulo 402660" width="26.303" height="38.903" transform="translate(-2.259 0)" fill="url(#linear-gradient-45)"/>
      </g>
    </g>
    <g id="Grupo_1211246" data-name="Grupo 1211246" transform="translate(345.833 79.101)">
      <g id="Grupo_1211245" data-name="Grupo 1211245" clip-path="url(#clip-path-85)">
        <rect id="Rectángulo_402661" data-name="Rectángulo 402661" width="21.578" height="42.193" transform="translate(-0.252 0)" fill="url(#linear-gradient-46)"/>
      </g>
    </g>
    <g id="Grupo_1211254" data-name="Grupo 1211254">
      <g id="Grupo_1211253" data-name="Grupo 1211253" clip-path="url(#clip-path)">
        <g id="Grupo_1211249" data-name="Grupo 1211249" transform="translate(89.285 10.515)" opacity="0.53">
          <g id="Grupo_1211248" data-name="Grupo 1211248">
            <g id="Grupo_1211247" data-name="Grupo 1211247" clip-path="url(#clip-path-87)">
              <path id="Trazado_1067396" data-name="Trazado 1067396" d="M139.848,28.117c-1.422-6.751-4.961-4.434-10.887-6.511s-4.19-9.484-7.868-11.77c-4.9-3.046-9.4-.218-12.456,3.781-5.067,6.645-8.535,1.242-14.592,3.934-3.471,1.543-1.99,3.7-6.686,4.575-3.28.607-6.831-.825-10.064.05-2.393.649-4.131,1.785-4.661,4.1q1.014.478,2.1.865c9.051,3.264,21.4,2.173,30.546,2.655,3.119.163,35.578,3.1,34.57-1.684" transform="translate(-72.635 -8.554)" fill="#fff"/>
            </g>
          </g>
        </g>
        <g id="Grupo_1211252" data-name="Grupo 1211252" transform="translate(157.254 23.795)" opacity="0.53">
          <g id="Grupo_1211251" data-name="Grupo 1211251">
            <g id="Grupo_1211250" data-name="Grupo 1211250" clip-path="url(#clip-path-88)">
              <path id="Trazado_1067397" data-name="Trazado 1067397" d="M167.872,22.28a7.534,7.534,0,0,0-7.75-2.7c-3.131.768-4.912,3.75-7.828,4.933-5.089,2.064-12.094-2.087-15.975,3.272-4.747,6.557-8.371,1.609-8.391,6.071s32.592,1.315,48.675,1.619c2.323.044,12.413-.081,8.091-4.923-1.342-1.5-3.265-1.764-5.057-2.122-2.338-.467-7.9-.742-9.583-2.569-.908-.983-1.253-2.392-2.071-3.443l-.111-.139" transform="translate(-127.929 -19.358)" fill="#fff"/>
            </g>
          </g>
        </g>
      </g>
    </g>
    <text id="Aprobado" transform="translate(95.19 112.929)" fill="#28362e" font-size="34" font-family="Roboto-Bold, Roboto" font-weight="700"><tspan x="0" y="0" letter-spacing="-0.023em">A</tspan><tspan y="0">p</tspan><tspan y="0" letter-spacing="-0.009em">r</tspan><tspan y="0">obado</tspan></text>
  </g>
</svg>
