<svg id="Grupo_1210880" data-name="Grupo 1210880" xmlns="http://www.w3.org/2000/svg" xmlns:xlink="http://www.w3.org/1999/xlink" width="132.783" height="173.869" viewBox="0 0 132.783 173.869">
  <defs>
    <clipPath id="clip-path">
      <rect id="Rectángulo_402431" data-name="Rectángulo 402431" width="132.783" height="173.869" fill="none"/>
    </clipPath>
  </defs>
  <g id="Grupo_1210879" data-name="Grupo 1210879" clip-path="url(#clip-path)">
    <path id="Trazado_1066597" data-name="Trazado 1066597" d="M109.7,27.59h5.869A17.57,17.57,0,0,1,133.173,45.2V174.322a5.856,5.856,0,0,1-5.869,5.869H9.918a5.857,5.857,0,0,1-5.87-5.869V45.2A17.57,17.57,0,0,1,21.656,27.59H109.7Z" transform="translate(-1.066 -7.264)" fill="#ffc6a0"/>
    <path id="Trazado_1066598" data-name="Trazado 1066598" d="M37.434,27.026a6.271,6.271,0,0,0-1.8,4.4V47.15a6.273,6.273,0,0,0,6.288,6.288h75.464a6.273,6.273,0,0,0,6.288-6.288V31.428a6.271,6.271,0,0,0-1.8-4.4H37.434Z" transform="translate(-9.382 -7.116)" fill="#ffaf7a"/>
    <path id="Trazado_1066599" data-name="Trazado 1066599" d="M25.566,42.96A5.856,5.856,0,0,0,19.7,48.829c0,38.98-.015,71.5-.006,99.778L37.3,169.15h88.04V48.829a5.857,5.857,0,0,0-5.869-5.869Z" transform="translate(-5.184 -11.311)" fill="#e4eff8"/>
    <path id="Trazado_1066600" data-name="Trazado 1066600" d="M35.634,42.96v8.386a6.273,6.273,0,0,0,6.288,6.287h75.464a6.273,6.273,0,0,0,6.288-6.287V42.96Z" transform="translate(-9.382 -11.311)" fill="#c4dcf0"/>
    <path id="Trazado_1066601" data-name="Trazado 1066601" d="M76.719,3.125A11.739,11.739,0,0,0,64.981,14.864H41.5a5.856,5.856,0,0,0-5.869,5.869V35.406A5.856,5.856,0,0,0,41.5,41.275h70.432a5.856,5.856,0,0,0,5.869-5.869V20.733a5.856,5.856,0,0,0-5.869-5.869H88.458A11.739,11.739,0,0,0,76.719,3.125Z" transform="translate(-9.382 -0.823)" fill="#b4d305"/>
    <path id="Trazado_1066602" data-name="Trazado 1066602" d="M127.254,19.059a5.856,5.856,0,0,1,5.869,5.869V39.6a5.856,5.856,0,0,1-5.869,5.869h8.8a5.856,5.856,0,0,0,5.869-5.869V24.928a5.856,5.856,0,0,0-5.869-5.869Z" transform="translate(-33.506 -5.018)" fill="#94ac04"/>
    <path id="Trazado_1066603" data-name="Trazado 1066603" d="M111.343,170.431v20.537c-.358,4.242,6.207,4.242,5.849,0V170.431Z" transform="translate(-29.312 -44.874)" fill="#c4dcf0"/>
    <path id="Trazado_1066604" data-name="Trazado 1066604" d="M126.987,139.272a21.1,21.1,0,0,0-14.9,25.844,2.935,2.935,0,0,0,2.08,2.058,21.045,21.045,0,0,0,25.8-25.8,2.935,2.935,0,0,0-2.058-2.08,21.034,21.034,0,0,0-10.918-.022Z" transform="translate(-29.323 -36.483)" fill="#c4dcf0"/>
    <path id="Trazado_1066605" data-name="Trazado 1066605" d="M19.7,186.365H37.308v20.543Z" transform="translate(-5.187 -49.069)" fill="#ffc6a0"/>
    <path id="Trazado_1066606" data-name="Trazado 1066606" d="M143.188,42.96a5.856,5.856,0,0,1,5.869,5.869V169.15h8.8V48.829a5.856,5.856,0,0,0-5.869-5.869Z" transform="translate(-37.701 -11.311)" fill="#c4dcf0"/>
    <path id="Trazado_1066607" data-name="Trazado 1066607" d="M147.172,27.026A17.57,17.57,0,0,1,164.78,44.634V173.758a5.856,5.856,0,0,1-5.869,5.869h5.869a5.856,5.856,0,0,0,5.869-5.869V44.634a17.57,17.57,0,0,0-17.608-17.608Z" transform="translate(-38.75 -7.116)" fill="#ffaf7a"/>
    <path id="Trazado_1066608" data-name="Trazado 1066608" d="M90.354,3.125a11.623,11.623,0,0,0-2.934.418,11.707,11.707,0,0,1,8.8,11.32c0,2.934,2.934,2.934,5.869,2.934V14.864A11.739,11.739,0,0,0,90.354,3.125Z" transform="translate(-23.017 -0.823)" fill="#94ac04"/>
    <path id="Trazado_1066609" data-name="Trazado 1066609" d="M73.424,206.487a32.282,32.282,0,0,1,55.913,0" transform="translate(-19.332 -50.118)" fill="#ffc6a0"/>
    <path id="Trazado_1066610" data-name="Trazado 1066610" d="M109.5,190.349a32.328,32.328,0,0,0-5.245.452,32.28,32.28,0,0,1,22.812,15.688h10.386A32.28,32.28,0,0,0,109.5,190.349Z" transform="translate(-27.45 -50.118)" fill="#ffaf7a"/>
    <path id="Trazado_1066611" data-name="Trazado 1066611" d="M116.68,147.86a18.088,18.088,0,0,1,17.515-4.694A18.139,18.139,0,0,1,111.986,165.4a18.19,18.19,0,0,1,4.694-17.539" transform="translate(-29.323 -37.531)" fill="#b4d305"/>
    <path id="Trazado_1066612" data-name="Trazado 1066612" d="M129.794,142.539a18.112,18.112,0,0,0-4.379.561,3.044,3.044,0,0,1,.309.066,18.127,18.127,0,0,1-13.1,22.3,18.125,18.125,0,0,0,21.9-22.3,18.038,18.038,0,0,0-4.734-.624Z" transform="translate(-29.654 -37.53)" fill="#94ac04"/>
    <path id="Trazado_1066613" data-name="Trazado 1066613" d="M97.687,147.86a18.088,18.088,0,0,0-17.515-4.694A18.139,18.139,0,0,0,102.381,165.4,18.19,18.19,0,0,0,97.687,147.86Z" transform="translate(-20.947 -37.531)" fill="#b4d305"/>
    <path id="Trazado_1066614" data-name="Trazado 1066614" d="M85.23,142.539a18.061,18.061,0,0,0-4.447.568A18.125,18.125,0,0,1,93.862,165.4c-.094.022-.192.033-.287.056a18.053,18.053,0,0,0,9.125-.056A18.146,18.146,0,0,0,85.23,142.54Z" transform="translate(-21.27 -37.53)" fill="#94ac04"/>
    <path id="Trazado_1066615" data-name="Trazado 1066615" d="M33.69,111.213H54.231a1.83,1.83,0,1,0,0-3.659H33.69a1.83,1.83,0,1,0,0,3.659" transform="translate(-8.389 -28.319)" fill="#333"/>
    <path id="Trazado_1066616" data-name="Trazado 1066616" d="M45.428,75.686H33.689a1.83,1.83,0,1,0,0,3.659H45.428a1.83,1.83,0,0,0,0-3.659" transform="translate(-8.388 -19.928)" fill="#333"/>
    <path id="Trazado_1066617" data-name="Trazado 1066617" d="M54.231,91.62H33.69a1.83,1.83,0,1,0,0,3.659H54.231a1.83,1.83,0,1,0,0-3.659" transform="translate(-8.389 -24.123)" fill="#333"/>
    <path id="Trazado_1066618" data-name="Trazado 1066618" d="M77.521,106.917a1.833,1.833,0,0,0,0,3.665c14.392,0,25.838-2.774,34.022-8.245,7.618-5.094,11.815-12.452,11.815-20.718V77.954l2.752,2.75a1.679,1.679,0,0,0,1.711.575,2.12,2.12,0,0,0,1.453-1.461,1.669,1.669,0,0,0-.57-1.694l-5.887-5.887a1.845,1.845,0,0,0-1.322-.541,1.8,1.8,0,0,0-1.251.539l-5.871,5.872a1.687,1.687,0,0,0-.589,1.713,2.121,2.121,0,0,0,1.452,1.46,1.67,1.67,0,0,0,1.7-.561l2.765-2.783v3.683c0,7.11-3.525,13.225-10.194,17.684-7.451,4.982-18.51,7.615-31.983,7.615" transform="translate(-19.929 -18.877)" fill="#333"/>
    <path id="Trazado_1066619" data-name="Trazado 1066619" d="M33.69,127.147H54.231a1.83,1.83,0,1,0,0-3.659H33.69a1.83,1.83,0,1,0,0,3.659" transform="translate(-8.389 -32.514)" fill="#333"/>
    <path id="Trazado_1066620" data-name="Trazado 1066620" d="M91.294,17.764a1.827,1.827,0,1,0-1.827,1.829,1.835,1.835,0,0,0,1.827-1.829" transform="translate(-23.076 -4.196)" fill="#333"/>
    <path id="Trazado_1066621" data-name="Trazado 1066621" d="M113.33,17.613h-4.238l-.26-.737a7.682,7.682,0,0,0-7.217-5.133H79.888l-.188-.873a13.581,13.581,0,0,0-26.616,0l-.188.873H31.169a7.682,7.682,0,0,0-7.217,5.133l-.26.737H19.454A19.405,19.405,0,0,0,0,37.045L.006,166.181a7.705,7.705,0,0,0,7.7,7.688H125.075a7.705,7.705,0,0,0,7.7-7.687l.006-129.136A19.405,19.405,0,0,0,113.33,17.613M27.141,19.431A3.986,3.986,0,0,1,31.169,15.4H54.658a1.829,1.829,0,0,0,1.834-1.837,9.914,9.914,0,0,1,9.9-9.9h0a9.916,9.916,0,0,1,9.9,9.9A1.829,1.829,0,0,0,78.122,15.4h23.493a3.986,3.986,0,0,1,4.028,4.028V34.122a3.986,3.986,0,0,1-4.028,4.028H31.169a3.986,3.986,0,0,1-4.028-4.028Zm4.024,22.378h70.446a7.7,7.7,0,0,0,7.688-7.687V33.017h4.028a4,4,0,0,1,4.056,4.028v118.5h-6.425l-.319-.553a34.156,34.156,0,0,0-26.76-16.961l-1.014-.084v-8.37l1.233.143A19.958,19.958,0,0,0,105.679,104.7a1.844,1.844,0,0,0-1.289-1.3,19.853,19.853,0,0,0-22.346,9.125l-.952,1.616-.952-1.616a19.871,19.871,0,0,0-22.346-9.13,1.836,1.836,0,0,0-1.277,1.3,20.076,20.076,0,0,0,5.147,19.3A19.788,19.788,0,0,0,78,129.717l1.23-.141v8.366l-1.012.085a34.12,34.12,0,0,0-26.664,16.957l-.319.553H33.006V136.824a1.829,1.829,0,0,0-1.829-1.847H15.393v-1.105c0-15.593,0-32.347,0-50.769,0-14.274,0-29.549,0-46.063a4,4,0,0,1,4.022-4.025h.008l4.055,0v1.1a7.7,7.7,0,0,0,7.687,7.688M80.043,147.173a2.17,2.17,0,0,0,2.152-.01,1.653,1.653,0,0,0,.7-1.684l0-.1v-3.754l1.215.121a30.535,30.535,0,0,1,21.356,12.026l1.328,1.768H55.4l1.325-1.768a30.518,30.518,0,0,1,21.286-12.026l1.216-.123v3.756a1.791,1.791,0,0,0,.816,1.792M87.7,111.155a16.121,16.121,0,0,1,11.776-4.784,19.743,19.743,0,0,1,2.11.146l.858.1.106.858a16.439,16.439,0,0,1-4.62,13.92,16.211,16.211,0,0,1-11.548,4.783,17.047,17.047,0,0,1-2.352-.164l-.844-.117-.1-.846a16.471,16.471,0,0,1,4.613-13.9m-8.6,13.911-.112.824-.822.122a16.169,16.169,0,0,1-2.349.172A16.333,16.333,0,0,1,59.65,107.49l.11-.818.816-.127a15.878,15.878,0,0,1,2.053-.179,16.337,16.337,0,0,1,16.469,18.7m-49.751,13.58v13.779L17.534,138.647Zm99.772,27.534a4.041,4.041,0,0,1-4.045,4.028H7.71a4.041,4.041,0,0,1-4.045-4.028L3.658,37.045a15.733,15.733,0,0,1,15.8-15.773h4.028v8.085H19.425a7.7,7.7,0,0,0-7.687,7.688l0,44.6c0,20.192,0,38.436,0,55.186a1.828,1.828,0,0,0,.432,1.19l17.6,20.531a1.843,1.843,0,0,0,1.4.658H119.2a1.848,1.848,0,0,0,1.841-1.847V37.045a7.62,7.62,0,0,0-7.716-7.688H109.3V21.272h4.027a15.733,15.733,0,0,1,15.8,15.773Z" fill="#333"/>
  </g>
</svg>
