<svg xmlns="http://www.w3.org/2000/svg" xmlns:xlink="http://www.w3.org/1999/xlink" width="190" height="132" viewBox="0 0 190 132">
  <defs>
    <clipPath id="clip-path">
      <rect id="Rect치ngulo_402528" data-name="Rect치ngulo 402528" width="190" height="132" transform="translate(285.051 5388)" fill="#fff" stroke="#707070" stroke-width="1"/>
    </clipPath>
    <clipPath id="clip-path-2">
      <rect id="Rect치ngulo_402527" data-name="Rect치ngulo 402527" width="92.135" height="112.291" fill="#727997"/>
    </clipPath>
  </defs>
  <g id="Enmascarar_grupo_1098700" data-name="Enmascarar grupo 1098700" transform="translate(-285.051 -5388)" clip-path="url(#clip-path)">
    <g id="Grupo_1210986" data-name="Grupo 1210986" transform="translate(334.051 5398)">
      <g id="Grupo_1210985" data-name="Grupo 1210985" clip-path="url(#clip-path-2)">
        <path id="Trazado_1067138" data-name="Trazado 1067138" d="M53.068,77.44c-.04,0-.081,0-.122,0a2.007,2.007,0,0,1-1.883-2.123c.431-7.2,5.981-10.537,9.953-11.641v-17.7a2.007,2.007,0,0,1,4.014,0V65.3a2.007,2.007,0,0,1-1.744,1.99c-.311.044-7.791,1.172-8.216,8.265A2.008,2.008,0,0,1,53.068,77.44Z" fill="#727997"/>
        <path id="Trazado_1067139" data-name="Trazado 1067139" d="M63.024,101.97H27.463a2.006,2.006,0,0,1-2.007-2.007v-7.1a47.667,47.667,0,0,0-2.144-14.137l-2.034-6.553a2.006,2.006,0,0,1-.09-.6V66.526a2.007,2.007,0,1,1,4.014,0v4.751l1.944,6.262A51.669,51.669,0,0,1,29.47,92.866v5.09H61.016V85.331a2.01,2.01,0,0,1,.538-1.368L70.273,74.6a13.186,13.186,0,0,0,3.545-9.011V46.309a4.607,4.607,0,0,0-4-4.709,4.394,4.394,0,0,0-4.791,4.376,2.007,2.007,0,0,1-4.015,0A8.409,8.409,0,0,1,70.169,37.6a8.642,8.642,0,0,1,7.663,8.708V65.587a17.183,17.183,0,0,1-4.621,11.746l-8.18,8.787V99.963a2.006,2.006,0,0,1-2.007,2.007" fill="#727997"/>
        <path id="Trazado_1067140" data-name="Trazado 1067140" d="M65.41,112.291H25.075a2.007,2.007,0,0,1-2.007-2.007V99.964a2.007,2.007,0,0,1,2.007-2.007H65.41a2.008,2.008,0,0,1,2.007,2.007v10.32a2.008,2.008,0,0,1-2.007,2.007m-38.328-4.015H63.4v-6.305H27.082Z" fill="#727997"/>
        <path id="Trazado_1067141" data-name="Trazado 1067141" d="M90.127,68.534h-14.3a2.007,2.007,0,0,1,0-4.014h12.3V19.237a2.007,2.007,0,1,1,4.014,0v47.29a2.007,2.007,0,0,1-2.007,2.007" fill="#727997"/>
        <path id="Trazado_1067142" data-name="Trazado 1067142" d="M59.193,68.534H2.007A2.007,2.007,0,0,1,0,66.527V2.007A2.007,2.007,0,0,1,2.007,0H90.128a2.007,2.007,0,0,1,2.007,2.007V8.422a2.007,2.007,0,0,1-4.015,0V4.014H4.014V64.52H59.193a2.007,2.007,0,1,1,0,4.014Z" fill="#727997"/>
        <path id="Trazado_1067143" data-name="Trazado 1067143" d="M90.127,112.291H18.062a2.007,2.007,0,0,1,0-4.015H90.127a2.007,2.007,0,1,1,0,4.015" fill="#727997"/>
        <path id="Trazado_1067144" data-name="Trazado 1067144" d="M27.756,59.477H11.689A2.006,2.006,0,0,1,9.682,57.47V49.93a2.006,2.006,0,0,1,2.007-2.007H27.756a2.006,2.006,0,0,1,2.007,2.007v7.54a2.006,2.006,0,0,1-2.007,2.007M13.7,55.463H25.749V51.937H13.7Z" fill="#727997"/>
        <path id="Trazado_1067145" data-name="Trazado 1067145" d="M27.756,46.521H11.689a2.006,2.006,0,0,1-2.007-2.007v-7.54a2.006,2.006,0,0,1,2.007-2.007H27.756a2.006,2.006,0,0,1,2.007,2.007v7.54a2.006,2.006,0,0,1-2.007,2.007M13.7,42.507H25.749V38.981H13.7Z" fill="#727997"/>
        <path id="Trazado_1067146" data-name="Trazado 1067146" d="M27.756,33.566H11.689a2.006,2.006,0,0,1-2.007-2.007v-7.54a2.006,2.006,0,0,1,2.007-2.007H27.756a2.006,2.006,0,0,1,2.007,2.007v7.54a2.006,2.006,0,0,1-2.007,2.007M13.7,29.552H25.749V26.026H13.7Z" fill="#727997"/>
        <path id="Trazado_1067147" data-name="Trazado 1067147" d="M27.756,20.61H11.689A2.006,2.006,0,0,1,9.682,18.6v-7.54a2.006,2.006,0,0,1,2.007-2.007H27.756a2.006,2.006,0,0,1,2.007,2.007V18.6a2.006,2.006,0,0,1-2.007,2.007M13.7,16.6H25.749V13.07H13.7Z" fill="#727997"/>
        <path id="Trazado_1067148" data-name="Trazado 1067148" d="M51.863,59.477H37.752a2.007,2.007,0,0,1-2.007-2.007V44.514a2.007,2.007,0,0,1,2.007-2.007h8.316a2.007,2.007,0,1,1,0,4.014H39.759v8.942h10.1V25.747a2.007,2.007,0,0,1,4.014,0V57.47a2.007,2.007,0,0,1-2.007,2.007" fill="#727997"/>
        <path id="Trazado_1067149" data-name="Trazado 1067149" d="M51.86,33.031a2.007,2.007,0,0,1-.216-4c5.744-.628,9.544-3.555,11.294-8.7a20.728,20.728,0,0,0,1.019-6.015c-7.876,1.948-10.038,11.421-10.133,11.856a2.007,2.007,0,0,1-3.924-.844c1.071-5.011,5.766-14.664,15.863-15.337a2.013,2.013,0,0,1,2.128,1.776c.041.363.956,8.977-4.039,15.226C61.1,30.439,57.137,32.466,52.08,33.02,52.006,33.027,51.933,33.031,51.86,33.031Z" fill="#727997"/>
        <path id="Trazado_1067150" data-name="Trazado 1067150" d="M51.865,33.031a2.041,2.041,0,0,1-.22-.012c-5.057-.553-9.018-2.581-11.772-6.027-5-6.248-4.08-14.863-4.039-15.226a1.992,1.992,0,0,1,2.128-1.775c10.1.672,14.792,10.326,15.863,15.337a2.007,2.007,0,0,1-3.925.841c-.1-.458-2.266-9.909-10.132-11.854a20.689,20.689,0,0,0,1.019,6.015c1.75,5.144,5.55,8.071,11.293,8.7a2.007,2.007,0,0,1-.215,4Z" fill="#727997"/>
        <path id="Trazado_1067151" data-name="Trazado 1067151" d="M82.241,13.071H75.826a2.008,2.008,0,1,1,0-4.015h6.415a2.008,2.008,0,0,1,0,4.015" fill="#727997"/>
        <path id="Trazado_1067152" data-name="Trazado 1067152" d="M82.241,20.245H75.826a2.007,2.007,0,1,1,0-4.014h6.415a2.007,2.007,0,0,1,0,4.014" fill="#727997"/>
        <path id="Trazado_1067153" data-name="Trazado 1067153" d="M82.241,27.42H71.008a2.007,2.007,0,1,1,0-4.014H82.241a2.007,2.007,0,0,1,0,4.014" fill="#727997"/>
        <path id="Trazado_1067154" data-name="Trazado 1067154" d="M82.241,34.6H71.008a2.007,2.007,0,1,1,0-4.014H82.241a2.007,2.007,0,0,1,0,4.014" fill="#727997"/>
      </g>
    </g>
  </g>
</svg>
